<svg xmlns="http://www.w3.org/2000/svg" xmlns:xlink="http://www.w3.org/1999/xlink" width="100" height="46.665" viewBox="0 0 100 46.665">
  <defs>
    <clipPath id="clip-path">
      <rect id="長方形_1231" data-name="長方形 1231" width="100" height="46.665" fill="none"/>
    </clipPath>
  </defs>
  <g id="グループ_1495" data-name="グループ 1495" transform="translate(0 0)">
    <g id="グループ_1494" data-name="グループ 1494" transform="translate(0 0)" clip-path="url(#clip-path)">
      <path id="パス_789" data-name="パス 789" d="M79.076,21.505a6.935,6.935,0,0,0-1.67-4.4c-1.291-1.643-3.551-2.741-8.488-4.383-3.935-1.307-6.335-2.554-7.265-3.412-.773-.712-1.589-2.328.727-4.05a8.884,8.884,0,0,1,8.867-.288,6.973,6.973,0,0,1,2.961,3.449s.011.007.014.01a.777.777,0,0,0,.071.126c.118.214.333.578.343.6a1.591,1.591,0,0,0,1.922.548l.81-.374s1.4-.546,1.274-1.757a7.141,7.141,0,0,0-.867-2.164C76.827,3.4,74.184,0,67.132,0,61.441,0,57,1.885,56.523,7.115A5.854,5.854,0,0,0,58.032,11.4c1.375,1.639,3.7,3.118,7.882,4.524,4.373,1.453,6.626,2.492,7.617,3.3,1.514,1.236,1.593,4.5-1.606,5.847a12.308,12.308,0,0,1-4.839,1.02l-.194,0a8.667,8.667,0,0,1-5.478-1.8A9.774,9.774,0,0,1,59.6,21.853c-.364-.633-.747-1.007-.764-1.122,0-.034-.5-.7-.516-.718a1.631,1.631,0,0,0-1.911-.409l-.73.409s-1.409.636-1.206,1.837a10.311,10.311,0,0,0,1.813,2.987,10.863,10.863,0,0,0,4.256,3.435,15.375,15.375,0,0,0,6.349,1.545c9.89,0,12.188-5.882,12.188-8.314m-66.92,6.811V26.953a1.529,1.529,0,0,0-1.525-1.525h-.479c-.072-.007-.145-.011-.219-.011a.915.915,0,0,0-.11.011H8.279V4.559h2.353a1.529,1.529,0,0,0,1.525-1.525V1.67A1.529,1.529,0,0,0,10.631.146h-.463A2.122,2.122,0,0,0,9.933.133.92.92,0,0,0,9.8.146H9.579l-.039,0H2.659l-.039,0h-.19c.028-.007.1-.013.048-.013a2.232,2.232,0,0,0-.238.013H1.525A1.529,1.529,0,0,0,0,1.67V3.034A1.529,1.529,0,0,0,1.525,4.559H3.879V25.428H2.334a.915.915,0,0,0-.11-.011c-.074,0-.147,0-.219.011H1.525A1.529,1.529,0,0,0,0,26.953v1.364a1.53,1.53,0,0,0,1.525,1.525h9.107a1.53,1.53,0,0,0,1.525-1.525m35.762,1.525a1.452,1.452,0,0,0,1.447-1.447V19.748c0-.013,0-.024,0-.036V2.828l-.009-.013A2.6,2.6,0,0,0,46.818.243a2.527,2.527,0,0,0-2.265,1.466l-.009.015L34.673,23.369l-.053,0-.053,0L24.695,1.723l-.009-.015A2.527,2.527,0,0,0,22.421.243a2.6,2.6,0,0,0-2.535,2.572l-.008.013V27.542h0v.853a1.451,1.451,0,0,0,1.447,1.447h1.295a1.452,1.452,0,0,0,1.448-1.447V19.748c0-.021-.006-.039-.007-.06V9.544l8,17.836c-.027-.078-.04-.161-.061-.242a2.711,2.711,0,0,0,5.235,0c-.02.081-.034.164-.061.242l8-17.836V19.611a1.22,1.22,0,0,0-.015.137v8.646a1.452,1.452,0,0,0,1.447,1.447h1.308Zm52.022-15.2c0-.113.008-.226.008-.34a.655.655,0,0,0-.1.015,1.582,1.582,0,0,0-1.354-.694L97.8,13.6a1.228,1.228,0,0,0-1.209.959c0,.021-.088.63-.081.655l.067.033c-.063.041-.105.081-.106.115A28.978,28.978,0,0,1,70.3,43.11a1.377,1.377,0,0,0-.3.06,5.577,5.577,0,0,0-1.843.147c-.881.331-.774,1.487-.774,1.487l.022.689a1.228,1.228,0,0,0,1.042,1.139c.021,0,.635.043.659.033l.009-.022a.493.493,0,0,0,.143.011A32.434,32.434,0,0,0,99.84,16.866l.013.006a6.841,6.841,0,0,0,.087-2.226" transform="translate(0 0)" fill="#17100d"/>
    </g>
  </g>
</svg>
