<svg xmlns="http://www.w3.org/2000/svg" width="351.531" height="40.406" viewBox="0 0 351.531 40.406">
  <defs>
    <style>
      .cls-1 {
        fill-rule: evenodd;
      }
    </style>
  </defs>
  <path id="all_ttl.svg" class="cls-1" d="M47.938,71c-2.037,0-5.459.088-5.763,0.088-0.953,0-1.214-.35-1.214-1.4,0.044-2.453.087-5.214,0.087-7.317V48.614c0-2.146-.043-4.776-0.087-7.317,0-1.052.26-1.4,1.214-1.4,0.3,0,3.726.088,5.763,0.088h5.33c8.579,0,13.692,4.819,13.692,14.589C66.959,64.78,61.413,71,51.881,71H47.938Zm-1.863-5.827c0,1.1.217,1.314,1.3,1.314H51.75c6.8,0,10.1-4.687,10.1-11.654,0-5.915-2.773-10.121-9.055-10.121H47.374c-1.083,0-1.3.219-1.3,1.314V65.174Zm43.286,2.716a1.988,1.988,0,0,1,.26.833,1.117,1.117,0,0,1-.867.92,16.036,16.036,0,0,1-7.106,1.621c-7.713,0-10.919-5.126-10.919-11.041,0-6.791,4.246-11.961,10.962-11.961,5.546,0,8.752,3.856,8.752,10.6,0,2.235-.347,2.585-1.473,2.585H76.709c-0.78,0-1.083.131-1.083,0.657a5.725,5.725,0,0,0,.91,2.453c1,1.578,2.729,2.5,5.546,2.5a10.332,10.332,0,0,0,4.853-1.183,2.292,2.292,0,0,1,.866-0.35c0.347,0,.52.307,0.824,0.92Zm-3.6-11.084a5.036,5.036,0,0,0-.607-2.059,3.787,3.787,0,0,0-3.64-2.1A5.493,5.493,0,0,0,76.753,55.1a4.2,4.2,0,0,0-.78,1.8c0,0.35.3,0.481,1,.481h7.669C85.418,57.376,85.721,57.245,85.765,56.807Zm24.61,7.93c0,4.644-4.073,6.572-8.622,6.572a15.627,15.627,0,0,1-7.106-1.665,1.166,1.166,0,0,1-.824-0.964,1.983,1.983,0,0,1,.26-0.832l0.78-1.709a1.118,1.118,0,0,1,.78-0.876,1.757,1.757,0,0,1,.866.394,10.3,10.3,0,0,0,5.329,1.621c2.211,0,3.683-.832,3.683-2.365,0-1.4-1.862-2.191-4.073-2.979C98.243,60.75,94.3,59.216,94.3,54.791c0-3.812,3.076-6.572,8.58-6.572a14.492,14.492,0,0,1,5.849,1.183,1.173,1.173,0,0,1,.91.963,2.741,2.741,0,0,1-.217.789l-0.78,2.06c-0.26.613-.433,0.92-0.737,0.92a2.059,2.059,0,0,1-.866-0.35,9.443,9.443,0,0,0-4.463-1.227c-2.036,0-3.379.877-3.379,2.191,0,1.358,1.949,2.191,4.245,3.023C106.649,59,110.375,60.487,110.375,64.737Zm10.442-22.3a3.181,3.181,0,0,1-3.249,3.462,2.861,2.861,0,0,1-2.99-2.936,3.144,3.144,0,0,1,3.25-3.33A2.806,2.806,0,0,1,120.817,42.436ZM116.441,71c-1,0-1.256-.175-1.256-1.095,0-.307.086-3.944,0.086-5.915V55.536c0-1.972-.086-5.608-0.086-5.915,0-.92.26-1.1,1.256-1.1h2.514c1,0,1.256.176,1.256,1.1,0,0.307-.087,3.943-0.087,5.915v8.456c0,1.972.087,5.608,0.087,5.915,0,0.92-.26,1.095-1.256,1.095h-2.514Zm19.672-4.644c4.159,0.657,9.143,1.753,9.143,6.484,0,3.724-3.467,7.185-11.656,7.185-6.456,0-9.576-2.454-9.576-5.783a6.516,6.516,0,0,1,3.076-5.17,1.216,1.216,0,0,0,.737-0.832,1.911,1.911,0,0,0-.433-0.876,3.9,3.9,0,0,1,.3-4.469,1.767,1.767,0,0,0,.519-0.876,1.506,1.506,0,0,0-.606-0.876,6.922,6.922,0,0,1-1.863-4.951c0-4.513,3.292-7.886,9.358-7.886a13.425,13.425,0,0,1,1.344.044c1.386,0.132,2.816.219,4.159,0.219h0.693c1.257,0,2.86-.044,3.423-0.044,0.91,0,1.04.219,1.04,1.227v1.8c0,0.964-.13,1.183-0.953,1.183h-0.65c-0.563,0-.737.131-0.737,0.482a4.646,4.646,0,0,0,.087.657,7.761,7.761,0,0,1,.173,1.753c0,4.556-2.989,7.93-9.185,7.93a10.928,10.928,0,0,1-1.69-.088c-0.26-.043-0.78-0.131-0.953-0.131a0.724,0.724,0,0,0-.693.877C131.174,65.35,132.777,65.832,136.113,66.358ZM132.17,69.95a2.392,2.392,0,0,0-1.386.526,3.868,3.868,0,0,0-1.907,3.023c0,1.709,2.037,2.673,5.156,2.673,3.813,0,6.283-1.227,6.283-2.847,0-1.665-2.383-2.41-5.459-2.936-0.651-.131-1.344-0.219-1.95-0.35A4.73,4.73,0,0,0,132.17,69.95Zm-1.776-13.538c0,1.971,1.6,3.417,4.289,3.417,3.293,0,4.506-2.059,4.506-3.987,0-2.015-1.646-3.417-4.2-3.417C131.78,52.425,130.394,54.4,130.394,56.412Zm24.047,7.579c0,1.972.087,5.608,0.087,5.915,0,0.92-.26,1.095-1.257,1.095h-2.512c-1,0-1.257-.175-1.257-1.095,0-.307.086-3.944,0.086-5.915V55.536c0-1.972-.086-5.608-0.086-5.915,0-.92.26-1.1,1.257-1.1h2.079c1.04,0,1.213.176,1.257,1.227,0.043,0.57.13,0.833,0.346,0.833a1.318,1.318,0,0,0,.65-0.307,9.968,9.968,0,0,1,6.023-2.016c4.462,0,7.453,2.979,7.453,7.843v7.886c0,1.972.086,5.608,0.086,5.915,0,0.92-.26,1.095-1.256,1.095h-2.514c-1,0-1.256-.175-1.256-1.095,0-.307.087-3.944,0.087-5.915V57.464c0-2.672-1.387-4.469-4.246-4.469a6.712,6.712,0,0,0-4.073,1.446,2.113,2.113,0,0,0-.954,1.972v7.579ZM191.358,71c-2.036,0-5.459.088-5.763,0.088a1.01,1.01,0,0,1-1.213-1.227c0-.307.087-5.038,0.087-7.492V48.745c0-2.541-.13-7.36-0.13-7.667,0-.921.26-1.1,1.256-1.1h2.773c1,0,1.257.175,1.257,1.1,0,0.307-.13,5.126-0.13,7.667V65.087c0,1.1.217,1.315,1.3,1.315h3.942c2.08,0,5.98-.132,6.283-0.132,0.91,0,1.084.263,1.084,1.271v2.278c0,1.008-.174,1.27-1.084,1.27-0.3,0-4.2-.088-6.283-0.088h-3.379Zm21.1-28.566A3.181,3.181,0,0,1,209.21,45.9a2.861,2.861,0,0,1-2.99-2.936,3.144,3.144,0,0,1,3.25-3.33A2.806,2.806,0,0,1,212.459,42.436ZM208.083,71c-1,0-1.256-.175-1.256-1.095,0-.307.086-3.944,0.086-5.915V55.536c0-1.972-.086-5.608-0.086-5.915,0-.92.26-1.1,1.256-1.1H210.6c1,0,1.256.176,1.256,1.1,0,0.307-.087,3.943-0.087,5.915v8.456c0,1.972.087,5.608,0.087,5.915,0,0.92-.26,1.095-1.256,1.095h-2.514Zm15.079-7.01c0,1.972.087,5.608,0.087,5.915,0,0.92-.26,1.095-1.257,1.095h-2.513c-1,0-1.256-.175-1.256-1.095,0-.307.086-3.944,0.086-5.915V55.536c0-1.972-.086-5.608-0.086-5.915,0-.92.26-1.1,1.256-1.1h2.08c1.04,0,1.213.176,1.257,1.227,0.043,0.57.13,0.833,0.346,0.833a1.318,1.318,0,0,0,.65-0.307,9.968,9.968,0,0,1,6.023-2.016c4.462,0,7.453,2.979,7.453,7.843v7.886c0,1.972.086,5.608,0.086,5.915,0,0.92-.26,1.095-1.256,1.095H233.6c-1,0-1.256-.175-1.256-1.095,0-.307.087-3.944,0.087-5.915V57.464c0-2.672-1.387-4.469-4.247-4.469a6.712,6.712,0,0,0-4.072,1.446,2.113,2.113,0,0,0-.954,1.972v7.579Zm37.653,3.9a1.98,1.98,0,0,1,.26.833,1.117,1.117,0,0,1-.866.92,16.037,16.037,0,0,1-7.106,1.621c-7.713,0-10.919-5.126-10.919-11.041,0-6.791,4.246-11.961,10.962-11.961,5.546,0,8.752,3.856,8.752,10.6,0,2.235-.347,2.585-1.473,2.585H248.163c-0.78,0-1.083.131-1.083,0.657a5.733,5.733,0,0,0,.91,2.453c1,1.578,2.73,2.5,5.546,2.5a10.331,10.331,0,0,0,4.853-1.183,2.288,2.288,0,0,1,.866-0.35c0.347,0,.521.307,0.824,0.92Zm-3.6-11.084a5.039,5.039,0,0,0-.606-2.059,3.788,3.788,0,0,0-3.64-2.1,5.491,5.491,0,0,0-4.766,2.454,4.2,4.2,0,0,0-.78,1.8c0,0.35.3,0.481,1,.481h7.669C256.872,57.376,257.175,57.245,257.219,56.807ZM282.35,71c-1.04,0-1.256-.131-1.3-1.27-0.043-.57-0.087-0.789-0.3-0.789a1.319,1.319,0,0,0-.65.307,9.972,9.972,0,0,1-6.023,2.015c-4.462,0-7.453-2.979-7.453-7.842v-7.93c0-1.928-.086-5.565-0.086-5.871,0-.92.26-1.1,1.256-1.1h2.514c1,0,1.256.176,1.256,1.1,0,0.307-.087,3.943-0.087,5.871v6.878c0,2.673,1.387,4.469,4.246,4.469a6.708,6.708,0,0,0,4.073-1.446,2.112,2.112,0,0,0,.954-1.971v-7.93c0-1.928-.087-5.565-0.087-5.871,0-.92.26-1.1,1.257-1.1h2.512c1,0,1.257.176,1.257,1.1,0,0.307-.087,3.943-0.087,5.871v8.5c0,1.972.087,5.608,0.087,5.915,0,0.92-.26,1.095-1.257,1.095H282.35Zm14.6,1.446c0,1.972.086,5.608,0.086,5.915,0,0.92-.259,1.1-1.256,1.1h-2.513c-1,0-1.256-.175-1.256-1.1,0-.307.087-3.943,0.087-5.915V55.536c0-1.972-.087-5.608-0.087-5.915,0-.92.259-1.1,1.256-1.1h2.123c1,0,1.17.176,1.214,1.183,0.042,0.57.129,0.789,0.346,0.789a1.318,1.318,0,0,0,.65-0.307,9.865,9.865,0,0,1,5.72-1.928c5.5,0,9.012,4.031,9.012,10.253,0,8.762-6.326,12.749-12.392,12.749a11.106,11.106,0,0,1-1.733-.131,3.236,3.236,0,0,0-.607-0.044c-0.564,0-.65.263-0.65,1.139v0.219Zm10.356-13.276c0-3.943-2.254-6.177-5.33-6.177a6.867,6.867,0,0,0-4.029,1.358,2.065,2.065,0,0,0-1,1.972v9.113a1.236,1.236,0,0,0,1.257,1.533,11.052,11.052,0,0,0,1.82.132C303.712,67.1,307.308,64.3,307.308,59.172ZM334.129,71c-2.036,0-5.46.088-5.763,0.088a1.009,1.009,0,0,1-1.213-1.227c0-.307.087-5.038,0.087-7.492V48.745c0-2.541-.131-7.36-0.131-7.667,0-.921.261-1.1,1.257-1.1h2.773c1,0,1.257.175,1.257,1.1,0,0.307-.131,5.126-0.131,7.667V65.087c0,1.1.218,1.315,1.3,1.315h3.942c2.08,0,5.98-.132,6.283-0.132,0.91,0,1.083.263,1.083,1.271v2.278c0,1.008-.173,1.27-1.083,1.27-0.3,0-4.2-.088-6.283-0.088h-3.379Zm21.1-28.566a3.181,3.181,0,0,1-3.249,3.462,2.861,2.861,0,0,1-2.99-2.936,3.144,3.144,0,0,1,3.25-3.33A2.807,2.807,0,0,1,355.23,42.436ZM350.854,71c-1,0-1.256-.175-1.256-1.095,0-.307.086-3.944,0.086-5.915V55.536c0-1.972-.086-5.608-0.086-5.915,0-.92.26-1.1,1.256-1.1h2.514c1,0,1.256.176,1.256,1.1,0,0.307-.087,3.943-0.087,5.915v8.456c0,1.972.087,5.608,0.087,5.915,0,0.92-.26,1.095-1.256,1.095h-2.514Zm25.217-6.265c0,4.644-4.072,6.572-8.622,6.572a15.626,15.626,0,0,1-7.105-1.665,1.166,1.166,0,0,1-.824-0.964,1.99,1.99,0,0,1,.26-0.832l0.78-1.709a1.12,1.12,0,0,1,.78-0.876,1.754,1.754,0,0,1,.866.394,10.3,10.3,0,0,0,5.33,1.621c2.21,0,3.683-.832,3.683-2.365,0-1.4-1.863-2.191-4.073-2.979C363.94,60.75,360,59.216,360,54.791c0-3.812,3.076-6.572,8.579-6.572a14.485,14.485,0,0,1,5.849,1.183,1.171,1.171,0,0,1,.91.963,2.764,2.764,0,0,1-.216.789l-0.78,2.06c-0.26.613-.433,0.92-0.737,0.92a2.055,2.055,0,0,1-.866-0.35,9.443,9.443,0,0,0-4.463-1.227c-2.037,0-3.38.877-3.38,2.191,0,1.358,1.95,2.191,4.246,3.023C372.346,59,376.071,60.487,376.071,64.737Zm16.423,4.731c0,1.1-.217,1.359-1.257,1.533a21,21,0,0,1-2.383.175c-5.286,0-7.106-2.629-7.106-7.053V54.046c0-.876-0.13-1.1-0.867-1.1-0.519,0-1.256.044-1.472,0.044-1.127,0-1.3-.175-1.3-1.314v-1.8c0-1.14.174-1.315,1.3-1.315,0.346,0,1.039.044,1.516,0.044,0.736,0,.823-0.131.823-1.052,0-1.358-.087-3.855-0.087-4.162,0-.92.26-1.1,1.257-1.1H385.3c1,0,1.257.175,1.257,1.1,0,0.307-.087,2.629-0.087,4.162,0,0.921.13,1.052,1,1.052h1.17c0.78,0,2.123-.044,2.557-0.044,1.126,0,1.3.175,1.3,1.271v1.884c0,1.1-.174,1.271-1.3,1.271-0.39,0-1.777-.044-2.557-0.044h-0.866c-1.083,0-1.3.219-1.3,1.314v9.157c0,2.5,1.04,3.33,3.293,3.33,0.823,0,1.819-.263,2.123-0.263,0.52,0,.607.307,0.607,1.14v1.84Z" transform="translate(-40.969 -39.625)"/>
</svg>
