<svg xmlns="http://www.w3.org/2000/svg" width="40" height="40" viewBox="0 0 40 40">
  <defs>
    <style>
      .cls-1 {
        fill-rule: evenodd;
      }
    </style>
  </defs>
  <path id="arrow02.svg" class="cls-1" d="M1220,640a20,20,0,1,0,20,20A20,20,0,0,0,1220,640Zm4.37,26.461c-0.71.712-1.87,1.877-2.59,2.588l-0.49.491a1.825,1.825,0,0,1-2.58,0l-0.49-.491c-0.72-.711-1.88-1.876-2.59-2.588l-7.95-7.717a1.838,1.838,0,0,1,0-2.588l0.49-.491a1.837,1.837,0,0,1,2.59,0l7.95,7.718a1.827,1.827,0,0,0,2.58,0l7.95-7.945a1.837,1.837,0,0,1,2.59,0l0.49,0.491a1.838,1.838,0,0,1,0,2.588Z" transform="translate(-1200 -640)"/>
</svg>
