<svg xmlns="http://www.w3.org/2000/svg" width="28.28" height="28.281" viewBox="0 0 28.28 28.281">
  <defs>
    <style>
      .cls-1 {
        fill-rule: evenodd;
      }
    </style>
  </defs>
  <path id="close.svg" class="cls-1" d="M1237.46,40.313a1.759,1.759,0,0,0-2.48,0l-7.43,7.436a1.759,1.759,0,0,1-2.48,0l-7.43-7.436a1.759,1.759,0,0,0-2.48,0l-2.48,2.479a1.761,1.761,0,0,0,0,2.479l7.44,7.436a1.761,1.761,0,0,1,0,2.479l-7.44,7.437a1.761,1.761,0,0,0,0,2.479l2.48,2.479a1.759,1.759,0,0,0,2.48,0l7.43-7.436a1.759,1.759,0,0,1,2.48,0l7.43,7.436a1.759,1.759,0,0,0,2.48,0l2.47-2.479a1.761,1.761,0,0,0,0-2.479l-7.43-7.437a1.761,1.761,0,0,1,0-2.479l7.43-7.436a1.761,1.761,0,0,0,0-2.479Z" transform="translate(-1212.19 -39.813)"/>
</svg>
