<svg xmlns="http://www.w3.org/2000/svg" width="174.407" height="41.56" viewBox="0 0 174.407 41.56">
  <defs>
    <style>
      .cls-1 {
        fill: #fff;
        fill-rule: evenodd;
      }
    </style>
  </defs>
  <path id="シェイプ_96" data-name="シェイプ 96" class="cls-1" d="M301.97,3102.97c2.758,0,7.929-.18,8.331-0.18,1.207,0,1.436.35,1.436,1.7v3.03c0,1.34-.229,1.69-1.436,1.69-0.4,0-5.573-.11-8.331-0.11h-4.424c-2.7,0-7.24.11-7.642,0.11-1.265,0-1.609-.46-1.609-1.86,0.057-3.27.115-6.95,0.115-9.75v-18.33c0-2.86-.058-6.77-0.115-9.75,0-1.4.344-1.86,1.609-1.86,0.4,0,4.941.11,7.642,0.11h3.217c2.759,0,7.929-.11,8.331-0.11,1.207,0,1.437.35,1.437,1.69v3.15c0,1.34-.23,1.69-1.437,1.69-0.4,0-5.572-.17-8.331-0.17h-4.079c-1.437,0-1.724.29-1.724,1.75v6.65c0,1.46.287,1.76,1.724,1.76h2.873c2.7,0,7.929-.12,8.331-0.12,1.206,0,1.436.35,1.436,1.69v2.86c0,1.34-.23,1.69-1.436,1.69-0.4,0-5.631-.11-8.331-0.11h-2.873c-1.437,0-1.724.29-1.724,1.75v9.28c0,1.46.287,1.75,1.724,1.75h5.286Zm24.751-5.55c0,3.39.172,9.81,0.172,10.22,0,1.22-.344,1.46-1.666,1.46H321.78c-1.322,0-1.667-.24-1.667-1.46,0-.41.172-6.83,0.172-10.22v-18.56c0-3.26-.172-9.22-0.172-9.63,0-1.22.345-1.46,1.667-1.46h1.9a2.75,2.75,0,0,1,2.757,1.4c1.782,2.4,3.621,4.67,5.459,6.95l14.364,18.21a1.18,1.18,0,0,0,.69.53c0.288,0,.4-0.35.4-0.94v-14.47c0-3.39-.172-9.81-0.172-10.22,0-1.22.344-1.46,1.666-1.46h3.448c1.321,0,1.666.24,1.666,1.46,0,0.41-.172,6.83-0.172,10.22v18.56c0,3.21.172,9.22,0.172,9.63,0,1.22-.345,1.46-1.666,1.46h-1.15a2.705,2.705,0,0,1-2.757-1.4c-1.725-2.22-3.39-4.32-5.286-6.66l-15.284-19.14a1.18,1.18,0,0,0-.69-0.53c-0.288,0-.4.35-0.4,0.94v15.11Zm53.475,0c0,3.39.172,9.81,0.172,10.22,0,1.22-.344,1.46-1.666,1.46h-3.62c-1.322,0-1.666-.24-1.666-1.46,0-.41.172-6.83,0.172-10.22v-21.59c0-1.46-.287-1.75-1.723-1.75h-1.782c-2.413,0-7.354.17-7.757,0.17-1.206,0-1.436-.35-1.436-1.69v-3.21c0-1.34.23-1.69,1.436-1.69,0.4,0,5.632.11,8.332,0.11h12.526c2.7,0,7.929-.11,8.331-0.11,1.206,0,1.436.35,1.436,1.69v3.21c0,1.34-.23,1.69-1.436,1.69-0.4,0-5.343-.17-7.757-0.17h-1.839c-1.436,0-1.723.29-1.723,1.75v21.59Zm33.393,5.55c2.758,0,7.929-.18,8.331-0.18,1.207,0,1.436.35,1.436,1.7v3.03c0,1.34-.229,1.69-1.436,1.69-0.4,0-5.573-.11-8.331-0.11h-4.424c-2.7,0-7.24.11-7.642,0.11-1.265,0-1.609-.46-1.609-1.86,0.058-3.27.115-6.95,0.115-9.75v-18.33c0-2.86-.057-6.77-0.115-9.75,0-1.4.344-1.86,1.609-1.86,0.4,0,4.941.11,7.642,0.11h3.217c2.759,0,7.929-.11,8.331-0.11,1.207,0,1.437.35,1.437,1.69v3.15c0,1.34-.23,1.69-1.437,1.69-0.4,0-5.572-.17-8.331-0.17H408.3c-1.437,0-1.724.29-1.724,1.75v6.65c0,1.46.287,1.76,1.724,1.76h2.873c2.7,0,7.929-.12,8.331-0.12,1.206,0,1.436.35,1.436,1.69v2.86c0,1.34-.23,1.69-1.436,1.69-0.4,0-5.631-.11-8.331-0.11H408.3c-1.437,0-1.724.29-1.724,1.75v9.28c0,1.46.287,1.75,1.724,1.75h5.286Zm24.865-5.55c0,3.39.174,9.81,0.174,10.22,0,1.22-.346,1.46-1.667,1.46H433.4c-1.321,0-1.666-.24-1.666-1.46,0-.41.172-6.83,0.172-10.22v-18.09c0-2.86-.057-6.54-0.114-9.81,0-1.4.344-1.86,1.608-1.86,0.4,0,4.942.11,7.643,0.11H446.1c7.412,0,12.87,2.92,12.87,11.39a12.81,12.81,0,0,1-6.952,11.9,1.591,1.591,0,0,0-1.034,1.05,2.158,2.158,0,0,0,.574,1.17l1.839,2.57c2.758,3.73,5.057,6.83,8.848,11.73a1.961,1.961,0,0,1,.46.93c0,0.41-.517.59-1.379,0.59h-4.769a2.47,2.47,0,0,1-2.643-1.46c-2.413-3.74-4.6-6.77-6.722-9.69l-2.3-3.27a2.691,2.691,0,0,0-2.758-1.4h-1.953c-1.437,0-1.725.29-1.725,1.75v2.39Zm0-11.61c0,1.46.288,1.75,1.725,1.75h3.849c4.31,0,8.159-1.87,8.159-7.59,0-5.07-3.1-6.18-6.665-6.18h-5.343c-1.437,0-1.725.29-1.725,1.75v10.27Z" transform="translate(-288.281 -3067.66)"/>
</svg>
