<svg xmlns="http://www.w3.org/2000/svg" width="35.22" height="32.781" viewBox="0 0 35.22 32.781">
  <defs>
    <style>
      .cls-1 {
        fill-rule: evenodd;
      }
    </style>
  </defs>
  <path id="icon_pdf.svg" class="cls-1" d="M1136.6,44.1h-1.07c-0.37,0-1.09-.016-1.15-0.016a0.184,0.184,0,0,0-.22.229c0,0.057.02,0.964,0.02,1.4v2.779c0,0.433-.02,1.373-0.02,1.43,0,0.172.05,0.2,0.23,0.2h0.94c0.19,0,.24-0.033.24-0.2,0-.057-0.03-0.989-0.03-1.487,0-.2.04-0.245,0.25-0.245h0.44a2.1,2.1,0,0,0,2.38-2.232A1.75,1.75,0,0,0,1136.6,44.1Zm-0.37,2.926h-0.44c-0.21,0-.25-0.041-0.25-0.245V45.561c0-.2.04-0.245,0.25-0.245h0.58a0.713,0.713,0,0,1,.85.768A0.872,0.872,0,0,1,1136.23,47.024Zm6.6-2.926h-1.37c-0.38,0-1.09-.016-1.15-0.016a0.191,0.191,0,0,0-.23.229c0,0.057.02,0.964,0.02,1.4v2.8c0,0.433-.02,1.34-0.02,1.4a0.19,0.19,0,0,0,.23.228c0.06,0,.77-0.016,1.15-0.016h1.04c1.56,0,2.89-1,2.89-3.171C1145.39,45.014,1144.33,44.1,1142.83,44.1Zm-0.36,4.806h-0.74c-0.2,0-.24-0.041-0.24-0.245V45.627c0-.2.04-0.245,0.24-0.245h0.97c0.85,0,1.28.687,1.28,1.651C1143.98,48.283,1143.37,48.9,1142.47,48.9Zm7.69-4.822c-0.06,0-.88.016-1.26,0.016h-0.65c-0.38,0-1.1-.016-1.15-0.016a0.188,0.188,0,0,0-.23.229c0,0.057.02,0.964,0.02,1.4v2.779c0,0.433-.02,1.373-0.02,1.43,0,0.172.05,0.2,0.23,0.2h0.94c0.19,0,.24-0.033.24-0.2,0-.057-0.03-1-0.03-1.43V47.842c0-.2.04-0.245,0.25-0.245h0.21c0.38,0,1.21.016,1.26,0.016,0.17,0,.21-0.049.21-0.237V46.6c0-.188-0.04-0.237-0.21-0.237-0.05,0-.88.016-1.26,0.016h-0.24c-0.18,0-.22-0.033-0.22-0.221V45.627c0-.2.04-0.245,0.25-0.245h0.4c0.38,0,1.2.016,1.26,0.016,0.17,0,.2-0.049.2-0.237V44.319C1150.36,44.131,1150.33,44.082,1150.16,44.082Zm6.39,7.944h-2.02V40.83a1.112,1.112,0,0,0-1.11-1.11H1131.1a1.112,1.112,0,0,0-1.11,1.11v11.2h-2.02a3.321,3.321,0,0,0-3.32,3.33v8.863a3.321,3.321,0,0,0,3.32,3.33h2.02v3.839a1.112,1.112,0,0,0,1.11,1.11h22.32a1.112,1.112,0,0,0,1.11-1.11V67.549h2.02a3.329,3.329,0,0,0,3.33-3.33V55.356A3.329,3.329,0,0,0,1156.55,52.026Zm-28.36,4.965a1.342,1.342,0,1,1,1.34-1.342A1.333,1.333,0,0,1,1128.19,56.991Zm4.02-15.051h20.1V52.026h-20.1V41.94Zm-1.34,13.709a1.34,1.34,0,1,1,1.34,1.342A1.341,1.341,0,0,1,1130.87,55.649Zm21.44,11.9v2.729h-20.1v-8.6h20.1v5.872Zm-15.85-.148h3.32a1.11,1.11,0,0,0,0-2.22h-3.32A1.11,1.11,0,0,0,1136.46,67.4Zm8.28,0h3.32a1.11,1.11,0,0,0,0-2.22h-3.32A1.11,1.11,0,0,0,1144.74,67.4Z" transform="translate(-1124.66 -39.719)"/>
</svg>
