<svg xmlns="http://www.w3.org/2000/svg" width="33.29" height="35.844" viewBox="0 0 33.29 35.844">
  <defs>
    <style>
      .cls-1 {
        fill-rule: evenodd;
      }
    </style>
  </defs>
  <path id="icon_all.svg" class="cls-1" d="M1216.5,49.564h-9.38V39.748h9.38v9.816Zm11.95,0h-9.39V39.748h9.39v9.816Zm11.94,0h-9.38V39.748h9.38v9.816ZM1216.5,61.94h-9.38V52.124h9.38V61.94Zm11.95,0h-9.39V52.124h9.39V61.94Zm11.94,0h-9.38V52.124h9.38V61.94ZM1213.39,73a0.519,0.519,0,0,0-.65.368c-0.21.507-.41,1.029-0.67,1.767a0.505,0.505,0,0,1-.62.43h-1.07c-0.25,0-.36-0.031-0.36-0.153a0.58,0.58,0,0,1,.1-0.261c0.47-1.075.81-1.843,1.13-2.6l2.2-5.208c0.28-.66.6-1.4,0.92-2.227a0.5,0.5,0,0,1,.61-0.43h0.66a0.505,0.505,0,0,1,.62.43c0.32,0.829.63,1.567,0.91,2.212l2.21,5.193c0.33,0.8.67,1.567,1.15,2.627a0.669,0.669,0,0,1,.09.261c0,0.123-.11.153-0.35,0.153h-1.18a0.505,0.505,0,0,1-.62-0.43c-0.26-.737-0.46-1.26-0.68-1.767-0.13-.338-0.23-0.368-0.64-0.368h-3.76Zm0.27-1.905a0.822,0.822,0,0,0-.06.261c0,0.138.11,0.169,0.36,0.169h2.62c0.25,0,.35-0.031.35-0.169a0.616,0.616,0,0,0-.06-0.261l-1.42-3.518a0.354,0.354,0,0,0-.17-0.246,0.316,0.316,0,0,0-.17.246Zm11.35,4.47c-0.72,0-1.93.031-2.04,0.031a0.357,0.357,0,0,1-.43-0.43c0-.108.03-1.767,0.03-2.627V67.762c0-.891-0.04-2.581-0.04-2.689,0-.323.09-0.384,0.44-0.384h0.98c0.36,0,.45.061,0.45,0.384,0,0.108-.05,1.8-0.05,2.689v5.73c0,0.384.08,0.461,0.46,0.461h1.4c0.74,0,2.12-.046,2.23-0.046,0.32,0,.38.092,0.38,0.445v0.8c0,0.353-.06.446-0.38,0.446-0.11,0-1.49-.031-2.23-0.031h-1.2Zm8.67,0c-0.72,0-1.94.031-2.05,0.031a0.357,0.357,0,0,1-.43-0.43c0-.108.04-1.767,0.04-2.627V67.762c0-.891-0.05-2.581-0.05-2.689,0-.323.09-0.384,0.44-0.384h0.99c0.35,0,.44.061,0.44,0.384,0,0.108-.04,1.8-0.04,2.689v5.73c0,0.384.07,0.461,0.46,0.461h1.4c0.73,0,2.11-.046,2.22-0.046,0.32,0,.39.092,0.39,0.445v0.8c0,0.353-.07.446-0.39,0.446-0.11,0-1.49-.031-2.22-0.031h-1.2Z" transform="translate(-1207.12 -39.75)"/>
</svg>
