<svg xmlns="http://www.w3.org/2000/svg" width="60" height="60" viewBox="0 0 60 60">
  <defs>
    <style>
      .cls-1 {
        fill: #aaa;
        fill-rule: evenodd;
      }
    </style>
  </defs>
  <path id="insta.svg" class="cls-1" d="M537.551,1173.16h-25.1A17.457,17.457,0,0,1,495,1155.74v-25.16a17.451,17.451,0,0,1,17.447-17.42h25.1A17.45,17.45,0,0,1,555,1130.58v25.16A17.456,17.456,0,0,1,537.551,1173.16Zm-25.1-54.51a11.945,11.945,0,0,0-11.949,11.93v25.16a11.957,11.957,0,0,0,11.949,11.93h25.1a11.958,11.958,0,0,0,11.948-11.93v-25.16a11.945,11.945,0,0,0-11.948-11.93h-25.1ZM525,1158.5a15.345,15.345,0,1,1,15.368-15.34h0A15.372,15.372,0,0,1,525,1158.5h0Zm0-25.31a9.97,9.97,0,1,0,9.983,9.97,9.974,9.974,0,0,0-9.983-9.97h0Zm16.116-9.63a3.66,3.66,0,1,0,3.664,3.66,3.663,3.663,0,0,0-3.664-3.66h0Z" transform="translate(-495 -1113.16)"/>
</svg>
