<svg xmlns="http://www.w3.org/2000/svg" width="60" height="60" viewBox="0 0 60 60">
  <defs>
    <style>
      .cls-1 {
        fill: #aaa;
        fill-rule: evenodd;
      }
    </style>
  </defs>
  <path id="line.svg" class="cls-1" d="M424.5,1113.91a30,30,0,1,0,30,30A30,30,0,0,0,424.5,1113.91Zm13.687,37.55c-3.755,4.32-12.151,9.58-14.061,10.39s-1.628-.52-1.55-0.97c0.045-.28.255-1.53,0.255-1.53a3.692,3.692,0,0,0-.058-1.62,2.189,2.189,0,0,0-1.577-.88c-8.6-1.14-14.966-7.15-14.966-14.33,0-8.01,8.026-14.52,17.895-14.52s17.9,6.51,17.9,14.52v0.01A12.914,12.914,0,0,1,438.187,1151.46Zm-17.7-12.82h-1.256a0.352,0.352,0,0,0-.349.35v7.8a0.353,0.353,0,0,0,.349.35h1.256a0.353,0.353,0,0,0,.349-0.35v-7.8A0.351,0.351,0,0,0,420.49,1138.64Zm8.638,0.03,0-.03H427.87a0.351,0.351,0,0,0-.349.35v4.63l-3.574-4.82a0.12,0.12,0,0,0-.026-0.04l-0.021-.02-0.019-.01-0.009-.01-0.018-.01h-0.011l-0.018-.02h-1.412a0.345,0.345,0,0,0-.349.35v7.79a0.352,0.352,0,0,0,.349.35h1.255a0.353,0.353,0,0,0,.349-0.35v-4.63l3.578,4.83a0.253,0.253,0,0,0,.088.09l0.022,0.01h0.01l0.016,0.01,0.017,0.01h0.035a0.28,0.28,0,0,0,.089.02h1.256a0.353,0.353,0,0,0,.349-0.35h0v-7.8A0.351,0.351,0,0,0,429.128,1138.67Zm-11.676,6.51,0.011,0.01h-3.411V1139a0.35,0.35,0,0,0-.347-0.35h-1.256a0.345,0.345,0,0,0-.349.35v7.79a0.358,0.358,0,0,0,.1.25,0.348,0.348,0,0,0,.24.09h5.014a0.343,0.343,0,0,0,.348-0.34v-1.26A0.351,0.351,0,0,0,417.452,1145.18Zm18.612-.02h-3.417v-1.32h3.411a0.343,0.343,0,0,0,.347-0.34v-1.23a0.349,0.349,0,0,0-.346-0.35h-3.412v-1.32h3.415a0.35,0.35,0,0,0,.347-0.35h0v-1.26a0.35,0.35,0,0,0-.347-0.35h-5.015a0.359,0.359,0,0,0-.241.1,0.342,0.342,0,0,0-.1.24v7.79a0.363,0.363,0,0,0,.1.25,0.352,0.352,0,0,0,.241.09h5.015a0.343,0.343,0,0,0,.348-0.34h0v-1.26A0.35,0.35,0,0,0,436.064,1145.16Z" transform="translate(-394.5 -1113.91)"/>
</svg>
