<svg xmlns="http://www.w3.org/2000/svg" width="151.125" height="30.438" viewBox="0 0 151.125 30.438">
  <defs>
    <style>
      .cls-1 {
        fill-rule: evenodd;
      }
    </style>
  </defs>
  <path id="logo_freemo.svg" class="cls-1" d="M43,48.76c0-6.037,3.72-9.015,9.173-9.015S61.3,42.764,61.3,48.8H56.313c0-3.225-1.69-4.465-4.142-4.465s-4.142,1.281-4.142,4.424v3.308H58.764v4.466H48.028V69.642H43V48.76Zm19.359,9.014c0-6.161,3.72-9.1,9.172-9.1s9.131,2.936,9.131,9.179v0.124H75.672V57.774c0-3.308-1.69-4.507-4.143-4.507s-4.142,1.2-4.142,4.507V69.642H62.357V57.774ZM82.52,59.429c0-6.2,4.649-10.752,11.242-10.752s11.16,4.549,11.16,10.752v1.737H87.8a5.7,5.7,0,0,0,5.96,4.549c2.241,0,3.889-.621,4.945-1.944h5.369c-1.564,3.886-5.369,6.409-10.315,6.409-6.593,0-11.242-4.549-11.242-10.751M99.6,57.237a6.2,6.2,0,0,0-11.667,0H99.6Zm7.779,2.192c0-6.2,4.649-10.752,11.242-10.752s11.159,4.549,11.159,10.752v1.737H112.657a5.7,5.7,0,0,0,5.96,4.549c2.241,0,3.889-.621,4.947-1.944h5.367c-1.563,3.886-5.367,6.409-10.314,6.409-6.593,0-11.242-4.549-11.242-10.751m17.076-2.192a6.2,6.2,0,0,0-11.667,0h11.667Zm8.623,0.744c0-6.41,3.8-9.3,8.75-9.3a8.181,8.181,0,0,1,7.228,3.68,8.083,8.083,0,0,1,7.228-3.68c4.946,0,8.75,2.894,8.75,9.3V69.642H160V57.981c0-3.35-1.774-4.714-4.227-4.714-2.409,0-4.184,1.406-4.184,4.714V69.642h-5.03V57.981c0-3.307-1.817-4.714-4.227-4.714-2.451,0-4.226,1.364-4.226,4.714V69.642h-5.031V57.981Zm35.253,1.447c0-6.2,4.649-10.751,11.243-10.751s11.244,4.549,11.244,10.751S186.164,70.18,179.57,70.18s-11.243-4.549-11.243-10.751m17.372,0a6.15,6.15,0,1,0-6.129,6.161,5.858,5.858,0,0,0,6.129-6.161M39.69,56.534h6.615V52.069H39.69v4.465Z" transform="translate(-39.688 -39.75)"/>
</svg>
