<svg xmlns="http://www.w3.org/2000/svg" width="216.593" height="64.4" viewBox="0 0 216.593 64.4">
  <defs>
    <style>
      .cls-1 {
        fill: #fff;
        fill-rule: evenodd;
      }
    </style>
  </defs>
  <path id="logo.svg" class="cls-1" d="M421.859,12774.5a13.794,13.794,0,0,1,12.834,8.7H409.019a13.809,13.809,0,0,1,12.84-8.7m24.39,16.2a21.8,21.8,0,0,0,.152-2.5c0-13-11.144-23.5-24.888-23.5s-24.883,10.5-24.883,23.5,11.145,23.5,24.883,23.5a24.935,24.935,0,0,0,23.073-14.7l-10.713-1.8a13.805,13.805,0,0,1-25.623-4.5h38Zm-69,20.1h12.693v-45.1H377.249v45.1Zm6.342-63.5a6.854,6.854,0,1,0,7.1,6.9,7,7,0,0,0-7.1-6.9m-84.114,4v24.2H272.085v-24.2h-13.9v59.5h13.9v-24.3h27.392v24.3h13.9v-59.5h-13.9m45.314,50.5c-7.866,0-14.231-6.1-14.231-13.6s6.365-13.6,14.231-13.6c7.849,0,14.217,6.1,14.217,13.6s-6.368,13.6-14.217,13.6m12.03-36.1v2.5a24.6,24.6,0,0,0-12.651-3.4c-13.48,0-24.406,10.4-24.406,23.4s10.926,23.5,24.406,23.5a24.568,24.568,0,0,0,12.361-3.3v2.4h12.4v-45.1H356.821Zm115.847-4.2c-11.694,2-20.586,11.8-20.728,23.6v25.7H464.1l0.006-26.1a12.009,12.009,0,0,1,10.669-11.7l-2.111-11.5" transform="translate(-258.188 -12747.3)"/>
</svg>
