<svg xmlns="http://www.w3.org/2000/svg" width="60" height="59.9" viewBox="0 0 60 59.9">
  <defs>
    <style>
      .cls-1 {
        fill: #fff;
        fill-rule: evenodd;
      }
    </style>
  </defs>
  <path id="sns_insta.svg" class="cls-1" d="M534.05,12635.6h-25.1a17.439,17.439,0,0,1-17.447-17.4v-25.1a17.439,17.439,0,0,1,17.447-17.4h25.1a17.44,17.44,0,0,1,17.447,17.4v25.1A17.44,17.44,0,0,1,534.05,12635.6Zm-25.1-54.4A11.913,11.913,0,0,0,497,12593.1v25.1a11.913,11.913,0,0,0,11.949,11.9h25.1A11.913,11.913,0,0,0,546,12618.2v-25.1a11.913,11.913,0,0,0-11.949-11.9h-25.1ZM521.5,12621a15.3,15.3,0,1,1,15.367-15.3h0A15.375,15.375,0,0,1,521.5,12621h0Zm0-25.3a9.95,9.95,0,1,0,9.983,10,10.006,10.006,0,0,0-9.983-10h0Zm16.116-9.6a3.65,3.65,0,1,0,3.664,3.7,3.647,3.647,0,0,0-3.664-3.7h0Z" transform="translate(-491.5 -12575.7)"/>
</svg>
