<svg xmlns="http://www.w3.org/2000/svg" width="60" height="59.9" viewBox="0 0 60 59.9">
  <defs>
    <style>
      .cls-1 {
        fill: #fff;
        fill-rule: evenodd;
      }
    </style>
  </defs>
  <path id="sns_tw.svg" class="cls-1" d="M188.5,12575.7a29.95,29.95,0,1,0,30,30A29.979,29.979,0,0,0,188.5,12575.7Zm14.491,24.3c0.02,0.3.02,0.6,0.02,0.9v0.2a19.447,19.447,0,0,1-19.587,19.3,19.725,19.725,0,0,1-10.553-3.1,8.985,8.985,0,0,0,1.637.1,13.881,13.881,0,0,0,8.551-2.9,6.975,6.975,0,0,1-6.431-4.8,6.54,6.54,0,0,0,3.109-.1,6.966,6.966,0,0,1-5.523-6.8h0a6.782,6.782,0,0,0,3.125.8,6.785,6.785,0,0,1-2.133-9.1,19.533,19.533,0,0,0,14.19,7.1,6.689,6.689,0,0,1,1.992-6.5,6.873,6.873,0,0,1,9.741.3,13.783,13.783,0,0,0,4.368-1.7,7,7,0,0,1-3.026,3.8,13.621,13.621,0,0,0,3.954-1.1A14.282,14.282,0,0,1,202.991,12600Z" transform="translate(-158.5 -12575.7)"/>
</svg>
