<svg xmlns="http://www.w3.org/2000/svg" width="60" height="59.9" viewBox="0 0 60 59.9">
  <defs>
    <style>
      .cls-1 {
        fill: #fff;
        fill-rule: evenodd;
      }
    </style>
  </defs>
  <path id="sns_line.svg" class="cls-1" d="M410.5,12575.7a29.95,29.95,0,1,0,30,30A29.979,29.979,0,0,0,410.5,12575.7Zm13.687,37.5c-3.755,4.3-12.151,9.6-14.061,10.4s-1.628-.5-1.55-1c0.045-.3.255-1.5,0.255-1.5a3.549,3.549,0,0,0-.058-1.6,2.142,2.142,0,0,0-1.577-.9c-8.6-1.1-14.966-7.2-14.966-14.3,0-8,8.026-14.5,17.895-14.5s17.9,6.5,17.9,14.5h0A13.032,13.032,0,0,1,424.187,12613.2Zm-17.7-12.8h-1.256a0.392,0.392,0,0,0-.349.4v7.7a0.392,0.392,0,0,0,.349.4h1.256a0.392,0.392,0,0,0,.349-0.4v-7.7A0.391,0.391,0,0,0,406.49,12600.4Zm8.638,0H413.87a0.391,0.391,0,0,0-.349.4v4.6l-3.574-4.8c-0.008,0-.017-0.1-0.026-0.1h-1.508a0.306,0.306,0,0,0-.349.3v7.8a0.306,0.306,0,0,0,.349.3h1.255a0.307,0.307,0,0,0,.349-0.3v-4.6l3.578,4.8a0.788,0.788,0,0,0,.088.1h1.445a0.307,0.307,0,0,0,.349-0.3h0v-7.8A0.391,0.391,0,0,0,415.128,12600.4Zm-11.676,6.5h-3.4v-6.1a0.39,0.39,0,0,0-.347-0.4h-1.256a0.391,0.391,0,0,0-.349.4v7.8a1.112,1.112,0,0,0,.1.2,0.239,0.239,0,0,0,.24.1h5.014a0.391,0.391,0,0,0,.348-0.4h0v-1.2A0.391,0.391,0,0,0,403.452,12606.9Zm18.613,0h-3.418v-1.3h3.411a0.383,0.383,0,0,0,.347-0.3h0v-1.3a0.3,0.3,0,0,0-.346-0.3h-3.412v-1.3h3.415a0.391,0.391,0,0,0,.347-0.4h0v-1.2a0.39,0.39,0,0,0-.347-0.4h-5.015a0.243,0.243,0,0,0-.242.1,1.185,1.185,0,0,0-.1.2v7.8a0.573,0.573,0,0,0,.1.3,2.36,2.36,0,0,0,.241.1h5.015a0.391,0.391,0,0,0,.348-0.4h0v-1.2A0.39,0.39,0,0,0,422.065,12606.9Z" transform="translate(-380.5 -12575.7)"/>
</svg>
