<svg xmlns="http://www.w3.org/2000/svg" width="388.093" height="244.624" viewBox="0 0 388.093 244.624">
  <defs>
    <style>
      .cls-1 {
        fill: #00d4ff;
        fill-rule: evenodd;
      }
    </style>
  </defs>
  <path id="top_txt02.svg" class="cls-1" d="M465.741,313.472c-6.175,0-16.554.262-17.474,0.262-2.89,0-3.678-1.05-3.678-4.2,0.131-7.355.262-15.63,0.262-21.935V246.353c0-6.436-.131-14.317-0.262-21.935,0-3.152.788-4.2,3.678-4.2,0.92,0,11.3.264,17.474,0.264H481.9c26.013,0,41.515,14.448,41.515,43.737,0,30.605-16.816,49.256-45.72,49.256H465.741ZM460.091,296c0,3.284.657,3.941,3.942,3.941H477.3c20.627,0,30.612-14.054,30.612-34.938,0-17.732-8.409-30.341-27.459-30.341H464.033c-3.285,0-3.942.656-3.942,3.94V296Zm131.251,8.144a5.9,5.9,0,0,1,.789,2.5c0,1.182-.789,1.838-2.628,2.758a49.078,49.078,0,0,1-21.546,4.859c-23.386,0-33.108-15.366-33.108-33.1,0-20.359,12.875-35.858,33.239-35.858,16.817,0,26.539,11.559,26.539,31.786,0,6.7-1.051,7.749-4.467,7.749H552.979c-2.364,0-3.284.394-3.284,1.971,0,1.839,1.314,5.122,2.759,7.354,3.022,4.73,8.277,7.487,16.817,7.487a31.625,31.625,0,0,0,14.714-3.546,6.99,6.99,0,0,1,2.628-1.05c1.05,0,1.576.919,2.5,2.757Zm-10.9-33.23a14.97,14.97,0,0,0-1.839-6.174c-2.1-4.071-5.781-6.305-11.037-6.305a16.716,16.716,0,0,0-14.451,7.356c-1.183,1.576-2.365,4.2-2.365,5.385,0,1.05.919,1.445,3.022,1.445h23.254C579.387,272.623,580.306,272.228,580.438,270.916Zm74.623,23.774c0,13.922-12.349,19.7-26.144,19.7a47.826,47.826,0,0,1-21.546-4.991c-1.708-.92-2.5-1.708-2.5-2.89a5.9,5.9,0,0,1,.789-2.5l2.364-5.122c0.92-1.839,1.446-2.628,2.365-2.628a5.372,5.372,0,0,1,2.628,1.182,31.488,31.488,0,0,0,16.16,4.86c6.7,0,11.167-2.5,11.167-7.092,0-4.2-5.649-6.567-12.35-8.932-9.722-3.546-21.677-8.144-21.677-21.409,0-11.428,9.328-19.7,26.013-19.7a44.368,44.368,0,0,1,17.736,3.546c1.839,0.919,2.759,1.575,2.759,2.889a8.15,8.15,0,0,1-.657,2.364l-2.365,6.174c-0.788,1.839-1.313,2.758-2.233,2.758a6.266,6.266,0,0,1-2.628-1.051,28.875,28.875,0,0,0-13.532-3.678c-6.175,0-10.247,2.628-10.247,6.568,0,4.072,5.912,6.567,12.875,9.063C643.763,277.483,655.061,281.948,655.061,294.69Zm31.663-66.857c0,5.78-3.547,10.377-9.854,10.377-5.123,0-9.065-3.546-9.065-8.8,0-5.386,3.547-9.983,9.854-9.983C682.782,219.427,686.724,222.843,686.724,227.833Zm-13.269,85.639c-3.022,0-3.811-.525-3.811-3.284,0-.919.263-11.822,0.263-17.732v-25.35c0-5.91-.263-16.813-0.263-17.732,0-2.757.789-3.284,3.811-3.284h7.62c3.021,0,3.809.527,3.809,3.284,0,0.919-.262,11.822-0.262,17.732v25.35c0,5.91.262,16.813,0.262,17.732,0,2.759-.788,3.284-3.809,3.284h-7.62ZM733.1,299.549c12.612,1.97,27.721,5.254,27.721,19.44,0,11.163-10.511,21.54-35.341,21.54-19.576,0-29.035-7.355-29.035-17.337,0-6.042,3.679-11.559,9.328-15.5,1.577-1.05,2.233-1.707,2.233-2.5a5.727,5.727,0,0,0-1.313-2.627,11.572,11.572,0,0,1,.919-13.4c1.051-1.314,1.576-1.97,1.576-2.627,0-.789-0.656-1.445-1.838-2.628a20.628,20.628,0,0,1-5.65-14.841c0-13.529,9.985-23.643,28.378-23.643,1.445,0,2.759,0,4.073.131,4.2,0.394,8.54.657,12.612,0.657h2.1c3.811,0,8.671-.132,10.38-0.132,2.759,0,3.152.658,3.152,3.678v5.386c0,2.889-.393,3.546-2.89,3.546h-1.971c-1.708,0-2.233.394-2.233,1.445a13.56,13.56,0,0,0,.263,1.97,23.009,23.009,0,0,1,.525,5.254c0,13.66-9.065,23.774-27.852,23.774a33.457,33.457,0,0,1-5.124-.263c-0.788-.131-2.365-0.394-2.89-0.394-1.314,0-2.1.919-2.1,2.627C718.125,296.528,722.986,297.973,733.1,299.549Zm-11.956,10.77a7.3,7.3,0,0,0-4.2,1.576c-3.416,2.364-5.781,5.517-5.781,9.064,0,5.122,6.175,8.012,15.635,8.012,11.561,0,19.049-3.678,19.049-8.538,0-4.991-7.225-7.224-16.553-8.8-1.971-.394-4.073-0.657-5.912-1.051A14.57,14.57,0,0,0,721.146,310.319Zm-5.386-40.586c0,5.911,4.86,10.245,13.006,10.245,9.985,0,13.664-6.173,13.664-11.953,0-6.041-4.993-10.245-12.744-10.245C719.964,257.78,715.76,263.691,715.76,269.733Zm72.916,22.723c0,5.91.263,16.813,0.263,17.732,0,2.759-.788,3.284-3.81,3.284h-7.62c-3.022,0-3.81-.525-3.81-3.284,0-.919.262-11.822,0.262-17.732v-25.35c0-5.91-.262-16.813-0.262-17.732,0-2.757.788-3.284,3.81-3.284h6.306c3.153,0,3.679.527,3.81,3.678,0.131,1.708.394,2.5,1.051,2.5a4.028,4.028,0,0,0,1.971-.919,30.45,30.45,0,0,1,18.262-6.042c13.532,0,22.6,8.931,22.6,23.511v23.642c0,5.91.263,16.813,0.263,17.732,0,2.759-.789,3.284-3.811,3.284h-7.619c-3.022,0-3.811-.525-3.811-3.284,0-.919.264-11.822,0.264-17.732v-19.57c0-8.012-4.205-13.4-12.876-13.4a20.506,20.506,0,0,0-12.349,4.334c-2.234,1.839-2.891,3.022-2.891,5.911v22.723ZM465.741,438.722c-6.175,0-16.554.262-17.474,0.262-2.759,0-3.678-.919-3.678-3.678,0-.919.262-15.1,0.262-22.46V372c0-7.618-.394-22.066-0.394-22.986,0-2.758.789-3.283,3.81-3.283h8.409c3.021,0,3.81.525,3.81,3.283,0,0.92-.395,15.368-0.395,22.986V420.99c0,3.284.657,3.94,3.942,3.94h11.955c6.306,0,18.131-.394,19.05-0.394,2.759,0,3.285.788,3.285,3.81v6.829c0,3.022-.526,3.809-3.285,3.809-0.919,0-12.744-.262-19.05-0.262H465.741Zm63.983-85.639c0,5.78-3.547,10.377-9.854,10.377-5.123,0-9.065-3.546-9.065-8.8,0-5.385,3.548-9.983,9.853-9.983C525.782,344.677,529.724,348.093,529.724,353.083Zm-13.27,85.639c-3.021,0-3.809-.525-3.809-3.284,0-.919.262-11.821,0.262-17.731V392.356c0-5.91-.262-16.812-0.262-17.731,0-2.758.788-3.284,3.809-3.284h7.621c3.021,0,3.809.526,3.809,3.284,0,0.919-.262,11.821-0.262,17.731v25.351c0,5.91.262,16.812,0.262,17.731,0,2.759-.788,3.284-3.809,3.284h-7.621Zm45.721-21.015c0,5.91.263,16.812,0.263,17.731,0,2.759-.788,3.284-3.81,3.284h-7.62c-3.022,0-3.81-.525-3.81-3.284,0-.919.263-11.821,0.263-17.731V392.356c0-5.91-.263-16.812-0.263-17.731,0-2.758.788-3.284,3.81-3.284h6.306c3.154,0,3.679.526,3.811,3.677,0.131,1.708.393,2.5,1.05,2.5a4.026,4.026,0,0,0,1.971-.92,30.453,30.453,0,0,1,18.262-6.042c13.532,0,22.6,8.931,22.6,23.511v23.643c0,5.91.263,16.812,0.263,17.731,0,2.759-.788,3.284-3.81,3.284h-7.62c-3.022,0-3.81-.525-3.81-3.284,0-.919.263-11.821,0.263-17.731V398.136c0-8.012-4.2-13.4-12.876-13.4a20.51,20.51,0,0,0-12.349,4.334c-2.234,1.839-2.891,3.022-2.891,5.911v22.724ZM676.346,429.4a5.913,5.913,0,0,1,.788,2.5c0,1.182-.788,1.839-2.628,2.758a49.071,49.071,0,0,1-21.546,4.859c-23.385,0-33.107-15.366-33.107-33.1,0-20.359,12.875-35.858,33.239-35.858,16.816,0,26.538,11.559,26.538,31.786,0,6.7-1.051,7.749-4.467,7.749h-37.18c-2.365,0-3.284.394-3.284,1.971,0,1.839,1.314,5.122,2.759,7.354,3.021,4.73,8.276,7.487,16.816,7.487a31.614,31.614,0,0,0,14.715-3.546,6.987,6.987,0,0,1,2.627-1.05c1.051,0,1.577.919,2.5,2.758Zm-10.9-33.23a14.957,14.957,0,0,0-1.84-6.174c-2.1-4.071-5.781-6.3-11.036-6.3a16.718,16.718,0,0,0-14.452,7.355c-1.182,1.576-2.365,4.2-2.365,5.385,0,1.051.92,1.445,3.022,1.445h23.255C664.39,397.873,665.31,397.479,665.442,396.166Zm76.2,42.556c-3.153,0-3.81-.394-3.941-3.809-0.131-1.708-.263-2.364-0.919-2.364a4.011,4.011,0,0,0-1.971.919,30.461,30.461,0,0,1-18.262,6.041c-13.532,0-22.6-8.931-22.6-23.51V392.225c0-5.779-.263-16.681-0.263-17.6,0-2.758.788-3.284,3.81-3.284h7.62c3.022,0,3.81.526,3.81,3.284,0,0.919-.263,11.821-0.263,17.6v20.621c0,8.012,4.2,13.4,12.875,13.4a20.51,20.51,0,0,0,12.35-4.334c2.234-1.839,2.891-3.022,2.891-5.911V392.225c0-5.779-.263-16.681-0.263-17.6,0-2.758.788-3.284,3.81-3.284h7.62c3.021,0,3.81.526,3.81,3.284,0,0.919-.263,11.821-0.263,17.6v25.482c0,5.91.263,16.812,0.263,17.731,0,2.759-.789,3.284-3.81,3.284h-6.307Zm44.276,4.334c0,5.911.263,16.813,0.263,17.732,0,2.758-.788,3.284-3.81,3.284h-7.62c-3.022,0-3.81-.526-3.81-3.284,0-.919.263-11.821,0.263-17.732v-50.7c0-5.91-.263-16.812-0.263-17.731,0-2.758.788-3.284,3.81-3.284h6.438c3.022,0,3.547.526,3.679,3.546,0.131,1.708.393,2.364,1.05,2.364a4.011,4.011,0,0,0,1.971-.919,30.131,30.131,0,0,1,17.342-5.779c16.685,0,27.327,12.084,27.327,30.735,0,26.27-19.181,38.221-37.574,38.221a34.185,34.185,0,0,1-5.255-.393,9.951,9.951,0,0,0-1.84-.132c-1.708,0-1.971.789-1.971,3.416v0.656Zm31.4-39.8c0-11.821-6.832-18.52-16.16-18.52a20.985,20.985,0,0,0-12.218,4.072c-2.365,1.839-3.022,3.021-3.022,5.911v27.32c0,3.152.789,4.072,3.811,4.6a34.024,34.024,0,0,0,5.517.394C806.413,427.032,817.317,418.626,817.317,403.258Z" transform="translate(-444.469 -219.438)"/>
</svg>
