<svg xmlns="http://www.w3.org/2000/svg" width="389.656" height="47.687" viewBox="0 0 389.656 47.687">
  <defs>
    <style>
      .cls-1 {
        fill: #fff;
        fill-rule: evenodd;
      }
    </style>
  </defs>
  <path id="top_txt01.svg" class="cls-1" d="M482.742,149.284a18.027,18.027,0,0,0,3.04-.163,1.857,1.857,0,0,1,.543-0.054c1.086,0,3.8,3.42,3.8,4.071a5.454,5.454,0,0,1-1.683,1.845c-0.488.435-.977,0.869-1.466,1.358-4.614,4.558-9.392,9.063-14.386,13.243a2.22,2.22,0,0,0-1.032,1.574,3.156,3.156,0,0,0,.814,1.574c0.381,0.543,2.009,2.822,2.009,3.311,0,1.031-3.366,3.2-4.506,3.2a1.418,1.418,0,0,1-1.086-.977,53.7,53.7,0,0,0-9.826-11.724,2.9,2.9,0,0,1-1.032-1.411c0-.814,2.932-3.256,4.018-3.256,0.814,0,3.528,2.768,4.234,3.474a1.919,1.919,0,0,0,1.412.813,1.951,1.951,0,0,0,1.3-.6c2.334-1.954,4.614-3.963,6.786-6.025,0.6-.543,3.42-3.149,3.42-3.8,0-.76-0.977-0.7-2.008-0.7h-22.8c-2.389,0-5.1.162-6.949,0.162-1.466,0-1.412-1.085-1.412-2.6,0-2.822-.054-3.419,1.3-3.419,2.389,0,4.723.108,7.058,0.108h28.448Zm46.793-2.008a9.58,9.58,0,0,0,2.172-.162,2.279,2.279,0,0,1,.6-0.109c1.194,0,3.963,3.31,3.963,4.179a5.284,5.284,0,0,1-.651,1.3c-0.326.6-.869,1.411-1.412,2.5-5.374,10.368-10.586,18.237-20.63,24.7-1.194.76-6.243,3.854-7.384,3.854-1.248,0-4.614-2.66-4.614-3.637a1.494,1.494,0,0,1,1.086-1.031,47.893,47.893,0,0,0,21.01-17.368c0.868-1.3,4.18-6.568,4.18-7.924,0-.706-0.923-0.761-1.683-0.761H515.854c-1.085.109-1.3,0.109-2.28,1.465-0.977,1.466-7.275,8.957-8.686,8.957-0.706,0-4.669-2.063-4.669-3.257a1,1,0,0,1,.488-0.76c5.592-4.288,12.107-12.754,14.5-19.376,0.217-.543.434-1.3,0.868-1.3a28.567,28.567,0,0,1,3.855,1.682,6.358,6.358,0,0,0,.706.326c0.651,0.271,1.629.6,1.629,1.085a1.337,1.337,0,0,1-.815.706,3.842,3.842,0,0,0-1.412,1.791c-0.216.38-.434,0.76-0.759,1.3a2.165,2.165,0,0,0-.381.977,0.9,0.9,0,0,0,.924.868h9.717Zm10.967-1.085c0,0.814-2.117,2.279-2.769,2.279a1.068,1.068,0,0,1-.7-0.6c-1.087-1.628-2.281-3.256-3.53-4.776a1.3,1.3,0,0,1-.38-0.706c0-.651,2.226-2.008,2.823-2.008S540.5,145.593,540.5,146.191Zm5.592-3.366c0,0.815-2.117,2.226-2.769,2.226a0.827,0.827,0,0,1-.706-0.543,51.931,51.931,0,0,0-3.583-4.776,1.158,1.158,0,0,1-.38-0.651c0-.706,2.226-2.063,2.823-2.063C542.022,137.018,546.094,142.12,546.094,142.825Zm32.732,5.754a14.436,14.436,0,0,0,3.1-.163c0.108,0,.271-0.054.379-0.054,1.194,0,3.583,2.985,3.583,3.637a2.532,2.532,0,0,1-.977,1.3,2.093,2.093,0,0,0-.488.488,92.792,92.792,0,0,1-9.067,8.251c-1.14.868-1.194,1.465-1.194,2.876V175.88c0,2.062.109,4.125,0.109,6.187,0,1.846.054,2.009-3.475,2.009-2.172,0-2.5-.38-2.5-1.412,0-2.225.163-4.45,0.163-6.675v-7.382a0.9,0.9,0,0,0-.868-0.923,2.63,2.63,0,0,0-1.14.435c-2.009,1.3-11.4,6.459-13.247,6.459-1.194,0-3.583-2.986-3.583-4.071a1.447,1.447,0,0,1,1.3-1.14c7.221-2.389,16.234-7.219,21.879-12.267,0.543-.488,2.227-1.79,2.227-2.333,0-.761-1.032-0.6-1.738-0.6H563.136c-2.334,0-4.669.108-7,.108-1.465,0-1.357-.922-1.357-3.093,0-1.953-.108-2.714,1.249-2.714,0.706,0,1.411.055,2.117,0.055,1.629,0.054,3.312.054,5,.054h15.69Zm-5.375-8.033c0.706,0.651,3.529,3.2,3.529,4.016,0,0.923-2.606,3.42-3.529,3.42a1.924,1.924,0,0,1-1.3-.76,59.947,59.947,0,0,0-6.406-5.916,2.115,2.115,0,0,1-1.086-1.3c0-.814,2.715-3.42,3.637-3.42C569.162,136.583,572.637,139.786,573.451,140.546ZM588,166.707c0.705,0.651,3.746,3.474,3.746,4.288,0,0.923-2.769,3.528-3.692,3.528a2.453,2.453,0,0,1-1.52-1.14,40.4,40.4,0,0,0-7-6.621,1.59,1.59,0,0,1-.6-0.869c0-.868,2.769-3.42,3.638-3.42S587.186,165.947,588,166.707Zm18.129-12.049c0.6,0.705,1.846,2.659,2.389,3.528,0.488,0.76,2.334,3.582,2.334,4.287,0,1.141-3.257,2.5-3.909,2.5a1.28,1.28,0,0,1-1.031-.922A53.638,53.638,0,0,0,602,157.48a2,2,0,0,1-.434-0.976c0-.978,2.931-2.335,3.637-2.335A1.212,1.212,0,0,1,606.13,154.658ZM633,153.789a0.916,0.916,0,0,1,.325,1.792,1.738,1.738,0,0,0-.706,1.139c-1.628,5.591-3.691,10.693-7.437,15.2a31.018,31.018,0,0,1-14.767,9.444,9.647,9.647,0,0,1-1.683.434c-1.032,0-3.041-2.985-3.041-3.745a0.951,0.951,0,0,1,.869-0.977c7-1.9,12.921-5.1,16.83-11.452a31.5,31.5,0,0,0,4.452-12.321c0.054-.489.108-1.086,0.706-1.086A36.99,36.99,0,0,1,633,153.789Zm-13.573,1.194c0.488,0.76,2.443,3.746,2.443,4.451,0,1.086-3.149,2.5-3.909,2.5a1.486,1.486,0,0,1-1.086-1.031,58.444,58.444,0,0,0-3.8-6.4,1.83,1.83,0,0,1-.489-1.085c0-.923,2.932-2.28,3.638-2.28,0.76,0,1.791,1.52,2.714,3.039Zm36.859-1.248c1.086,0,6.515,4.288,7.6,5.211,0.76,0.651,3.8,2.984,3.8,3.908s-2.551,3.745-3.637,3.745a1.971,1.971,0,0,1-1.195-.706,80.387,80.387,0,0,0-7.871-6.35,0.969,0.969,0,0,0-.543-0.218,0.725,0.725,0,0,0-.652.869v14.817c0,2.172.109,4.288,0.109,6.459,0,2.5-.055,2.823-3.366,2.823-2.172,0-3.095-.055-3.095-1.846,0-2.442.163-4.885,0.163-7.327V144.183c0-1.411-.109-2.877-0.163-4.234,0-.271-0.054-0.76-0.054-0.977a0.648,0.648,0,0,1,.705-0.814c0.326,0,1.466.162,1.847,0.217,2.443,0.325,4.668.543,4.668,1.3a1.6,1.6,0,0,1-.271.705c-0.489.6-.6,1.411-0.6,2.877,0,0.814.054,1.845,0.054,3.2V154.6a0.461,0.461,0,0,0,.434.543,0.59,0.59,0,0,0,.489-0.218A2.814,2.814,0,0,1,656.29,153.735Zm43.971-4.451a1.681,1.681,0,0,0,1.629-1.411c0.109-1.085.38-6.893,0.434-8.195,0-.543-0.054-1.249.706-1.249,0.326,0,5.1.923,5.646,1.086a0.829,0.829,0,0,1,.814.6,1.72,1.72,0,0,1-.6.923c-0.651.6-.6,0.651-0.76,2.333-0.109.76-.434,4.017-0.434,4.559a1.211,1.211,0,0,0,1.3,1.249l5.212-.055c1.574,0,5.917-.217,5.971-0.217,1.2,0,3.1,2.063,3.1,3.148,0,0.543-.76,6.568-0.869,7.6-0.542,4.179-1.357,11.723-3.04,15.414-1.466,3.2-3.692,4.233-7.057,4.722a20.934,20.934,0,0,1-3.149.217,1.717,1.717,0,0,1-1.9-1.085,11.583,11.583,0,0,1-1.411-3.8,0.886,0.886,0,0,1,.977-0.977c0.543,0,1.792.217,3.094,0.217,3.2,0,4.344-1.466,5.158-5.318a97.451,97.451,0,0,0,1.629-12.973c0-1.465-.76-1.357-3.2-1.357l-5.484.055c-1.357,0-1.574,1.139-1.737,1.953a45.138,45.138,0,0,1-10.641,21.114c-0.76.814-4.017,4.233-4.994,4.233-1.032,0-4.126-2.551-4.126-3.527a1.5,1.5,0,0,1,.76-0.978,37.472,37.472,0,0,0,11.78-16.391,28.651,28.651,0,0,0,1.412-5.21,1.114,1.114,0,0,0-1.14-1.141l-7.655.055c-1.466,0-4.723.217-5.429,0.217-1.194,0-1.357-.868-1.357-2.985,0-2.334.108-2.823,1.3-2.823,1.792,0,3.637.055,5.429,0.055Zm52.874,1.954c0.489,0.326,1.357.761,1.357,1.249a1.15,1.15,0,0,1-.814.759,2.117,2.117,0,0,0-.977,1.086,83.511,83.511,0,0,1-11.835,16.988c-0.652.706-2.335,2.715-3.258,2.715-0.868,0-4.614-2.28-4.614-3.366a1.1,1.1,0,0,1,.434-0.76c5.483-5.264,11.292-12.646,14.061-19.7,0.326-.76.434-1.248,0.923-1.248C749.009,148.959,752.429,150.858,753.135,151.238Zm14.876-.651a62.186,62.186,0,0,1,4.886,6.133c1.3,1.9,7.329,11.127,7.329,12.864,0,1.357-4.126,3.257-5.1,3.257a1.211,1.211,0,0,1-1.086-.978,76.216,76.216,0,0,0-10.7-17.531,2.239,2.239,0,0,1-.543-1.139c0-.978,3.257-3.148,4.017-3.148A1.648,1.648,0,0,1,768.011,150.587Zm9.88,0.217c0,0.76-1.9,2.5-2.606,2.5a1.058,1.058,0,0,1-.651-0.543c-1.3-1.52-2.606-2.985-4.017-4.342a1.291,1.291,0,0,1-.489-0.706c0-.651,2.063-2.279,2.606-2.279C773.385,145.431,777.891,150.153,777.891,150.8Zm5.375-3.962c0,0.76-1.9,2.442-2.606,2.442a1.154,1.154,0,0,1-.706-0.543c-1.3-1.519-2.551-2.876-4.017-4.287a1.205,1.205,0,0,1-.434-0.706c0-.6,2.009-2.28,2.606-2.28S783.266,146.136,783.266,146.842Zm44.025,10.313c2.5,0,6.026-.163,6.732-0.163,1.465,0,1.52.434,1.52,3.419,0,1.737-.055,2.768-1.466,2.768-2.28,0-4.56-.108-6.786-0.108H802.317c-2.226,0-4.506.108-6.786,0.108-1.411,0-1.466-1.031-1.466-2.713,0-3.04.109-3.474,1.52-3.474,0.706,0,4.452.163,6.732,0.163h24.974Z" transform="translate(-445.875 -136.594)"/>
</svg>
