<svg xmlns="http://www.w3.org/2000/svg" width="60" height="60" viewBox="0 0 60 60">
  <defs>
    <style>
      .cls-1 {
        fill: #aaa;
        fill-rule: evenodd;
      }
    </style>
  </defs>
  <path id="tw.svg" class="cls-1" d="M224.5,1113.91a30,30,0,1,0,30,30A30,30,0,0,0,224.5,1113.91Zm14.491,24.29c0.019,0.3.019,0.59,0.019,0.89,0,0.09,0,.18,0,0.26a19.595,19.595,0,0,1-30.139,16.25,14.912,14.912,0,0,0,1.637.09,13.874,13.874,0,0,0,8.552-2.95,6.9,6.9,0,0,1-6.432-4.79,6.946,6.946,0,0,0,3.109-.11,6.887,6.887,0,0,1-5.523-6.75V1141a6.724,6.724,0,0,0,3.125.86,6.888,6.888,0,0,1-2.133-9.19,19.567,19.567,0,0,0,14.19,7.2,6.891,6.891,0,0,1,11.733-6.28,13.74,13.74,0,0,0,4.368-1.68,6.888,6.888,0,0,1-3.026,3.81,13.586,13.586,0,0,0,3.954-1.08A13.954,13.954,0,0,1,238.991,1138.2Z" transform="translate(-194.5 -1113.91)"/>
</svg>
