<svg xmlns="http://www.w3.org/2000/svg" width="180.062" height="32.16" viewBox="0 0 180.062 32.16">
  <defs>
    <style>
      .cls-1 {
        fill: #fff;
        fill-rule: evenodd;
      }
    </style>
  </defs>
  <path id="btn_logo.svg" class="cls-1" d="M608.032,3704.14a0.469,0.469,0,0,1-.469.47h-8.827a0.467,0.467,0,0,0-.469.46v25.98a0.47,0.47,0,0,1-.47.47h-4.46a0.47,0.47,0,0,1-.47-0.47v-25.98a0.467,0.467,0,0,0-.469-0.46h-8.741a0.47,0.47,0,0,1-.47-0.47v-3.45a0.47,0.47,0,0,1,.47-0.47h23.906a0.469,0.469,0,0,1,.469.47v3.45Zm-66.4,19.22c0.056,0.23.141,0.22,0.187,0l4.648-22.72a0.545,0.545,0,0,1,.508-0.42h4.551a0.322,0.322,0,0,1,.328.41l-7.035,30.46a0.563,0.563,0,0,1-.519.42h-4.357a0.586,0.586,0,0,1-.53-0.41l-5.744-22.03c-0.058-.22-0.155-0.22-0.216,0l-5.868,22.03a0.589,0.589,0,0,1-.532.41h-4.379a0.561,0.561,0,0,1-.518-0.42l-7.036-30.46a0.323,0.323,0,0,1,.328-0.41H520a0.546,0.546,0,0,1,.509.42l4.689,22.67c0.047,0.23.133,0.23,0.19,0.01l5.77-22.69a0.583,0.583,0,0,1,.528-0.41H535.4a0.58,0.58,0,0,1,.527.41ZM508.1,3700.22h-4.572a0.424,0.424,0,0,0-.424.42v20.34q0,6.615-6.279,6.61a6.224,6.224,0,0,1-4.689-1.65,6.637,6.637,0,0,1-1.591-4.79v-20.51a0.423,0.423,0,0,0-.423-0.42h-4.573a0.423,0.423,0,0,0-.423.42v20.47a10.219,10.219,0,0,0,3.161,7.96,13.989,13.989,0,0,0,17.043-.05,10.146,10.146,0,0,0,3.194-7.89v-20.49A0.424,0.424,0,0,0,508.1,3700.22Zm130.665,16.47a19.226,19.226,0,0,1-1.591,8.07,12.058,12.058,0,0,1-4.55,5.33,13.351,13.351,0,0,1-13.6,0,12.233,12.233,0,0,1-4.6-5.3,18.579,18.579,0,0,1-1.646-7.93v-1.76a19.046,19.046,0,0,1,1.624-8.09,12.227,12.227,0,0,1,4.582-5.36,13.375,13.375,0,0,1,13.574-.02,12.03,12.03,0,0,1,4.571,5.29,18.956,18.956,0,0,1,1.634,8.02v1.75Zm-5.441-1.64c0-3.47-.657-6.12-1.969-7.97a6.937,6.937,0,0,0-11.1-.01q-1.989,2.76-2.032,7.81v1.81c0,3.44.67,6.09,2.011,7.97a6.474,6.474,0,0,0,5.582,2.82,6.4,6.4,0,0,0,5.561-2.76q1.946-2.745,1.947-8.03v-1.64Zm-69.27,4.8a0.338,0.338,0,0,1-.315-0.45l4.229-12.09a0.163,0.163,0,0,1,.31,0l8.315,23.76a0.664,0.664,0,0,0,.626.45h4.739a0.325,0.325,0,0,0,.3-0.44l-11.52-30.42a0.687,0.687,0,0,0-.636-0.44h-3.943a0.688,0.688,0,0,0-.636.44l-11.5,30.42a0.326,0.326,0,0,0,.3.44h4.718a0.662,0.662,0,0,0,.624-0.45l2.229-6.4a0.667,0.667,0,0,1,.625-0.44h8.71a0.355,0.355,0,0,0,.417-0.42,4.386,4.386,0,0,0-4.369-3.96h-3.231Zm-87.319-2.03a0.426,0.426,0,0,1-.424.43H464.556a0.423,0.423,0,0,0-.423.42v12.41a0.426,0.426,0,0,1-.424.43h-4.594a0.425,0.425,0,0,1-.423-0.43v-30.44a0.423,0.423,0,0,1,.423-0.42h19.046a0.423,0.423,0,0,1,.423.42v3.54a0.423,0.423,0,0,1-.423.42H464.556a0.425,0.425,0,0,0-.423.43v8.45a0.425,0.425,0,0,0,.423.43h11.755a0.424,0.424,0,0,1,.424.42v3.49Z" transform="translate(-458.688 -3699.78)"/>
</svg>
