<svg xmlns="http://www.w3.org/2000/svg" width="297.344" height="82.19" viewBox="0 0 297.344 82.19">
  <defs>
    <style>
      .cls-1 {
        fill: #fff;
        fill-rule: evenodd;
      }
    </style>
  </defs>
  <path id="features01_ttl01.svg" class="cls-1" d="M48.969,1093.68a7.894,7.894,0,0,1-.51,1.35,67.794,67.794,0,0,1-4.518,8.89,2.991,2.991,0,0,0-.473,1.05c0,0.15.073,0.4,0.073,0.62a0.407,0.407,0,0,1-.4.48,12.355,12.355,0,0,1-2.3-1.64,1.894,1.894,0,0,1-.948-1.06,1.856,1.856,0,0,1,.51-0.84,62.744,62.744,0,0,0,5.21-9.94,1.106,1.106,0,0,1,.656-0.91C46.747,1091.68,48.969,1092.91,48.969,1093.68Zm-3.17-8.82c0.437,0.37,1.931,1.54,1.931,2.08a4.133,4.133,0,0,1-2.223,2.22,1.128,1.128,0,0,1-.765-0.43,44.521,44.521,0,0,0-4.117-3.28,1.262,1.262,0,0,1-.656-0.73c0-.47,1.53-2.37,2.149-2.37C42.7,1082.35,45.216,1084.39,45.8,1084.86Zm1.312-4.04a7.777,7.777,0,0,1-1.968-1.38,1.785,1.785,0,0,0-.291-0.26c-0.547-.43-1.968-1.38-2.587-1.82a1.073,1.073,0,0,1-.656-0.73c0-.51,1.458-2.37,2.113-2.37,0.546,0,2.55,1.54,3.06,1.94,0.583,0.43,1.64,1.27,2.186,1.74a0.755,0.755,0,0,1,.328.59A4.218,4.218,0,0,1,47.111,1080.82Zm11.658,3.46a0.866,0.866,0,0,0-1.02-1.02H54.871a1.234,1.234,0,0,0-1.348.84c-0.984,2.26-1.275,3.06-2.077,3.06-0.656,0-2.733-.8-2.733-1.46a2.029,2.029,0,0,1,.4-0.84,30.852,30.852,0,0,0,3.388-9.28,0.655,0.655,0,0,1,.583-0.7c0.218,0,1.494.33,1.858,0.41,1.057,0.21,1.968.36,1.968,0.83a0.59,0.59,0,0,1-.437.44c-0.474.22-.474,0.25-0.8,1.42-0.073.29-.218,0.62-0.291,1.02a0.721,0.721,0,0,0-.036.26,0.64,0.64,0,0,0,.765.65h1.64a0.853,0.853,0,0,0,1.02-.98v-1.53a21.37,21.37,0,0,0-.109-2.66,1.272,1.272,0,0,1-.037-0.37c0-.43.291-0.51,0.656-0.51,0.4,0,3.133.19,3.534,0.26a0.526,0.526,0,0,1,.583.44,0.768,0.768,0,0,1-.474.54c-0.4.33-.437,0.99-0.437,2.15v1.68a0.853,0.853,0,0,0,1.02.98h2.477c1.384,0,2.733-.07,4.117-0.07,0.875,0,.838.4,0.838,1.78,0,1.32,0,1.71-.838,1.71-1.348,0-2.733-.07-4.117-0.07H63.506a0.866,0.866,0,0,0-1.02,1.02v3.32a0.869,0.869,0,0,0,1.02,1.02H67.55c1.311,0,2.659-.08,3.971-0.08,0.91,0,.91.44,0.91,1.75,0,1.53,0,1.82-1.239,1.82-0.729,0-1.858-.11-3.643-0.11H65.218a0.913,0.913,0,0,0-1.02,1.02v8.09c0,1.13.328,1.28,1.421,1.28h1.457c1.2,0,1.494-.44,1.822-3.39,0.073-.77.219-0.91,0.728-0.91,0.8,0,2.805.29,2.805,1.45a14.069,14.069,0,0,1-1.421,5.14c-0.838,1.2-2.113,1.31-3.461,1.31H64.635c-4.263,0-3.971-1.56-3.971-4.95v-8.02a0.883,0.883,0,0,0-1.02-1.02h-3.1a0.163,0.163,0,0,0-.146.15,0.173,0.173,0,0,0,.109.15c1.894,0.36,2.186.47,2.186,0.8a0.747,0.747,0,0,1-.474.51,0.623,0.623,0,0,0-.364.47c-0.218,3.83-1.348,7.29-4.335,9.87-0.766.69-3.243,2.41-4.226,2.41s-2.441-1.93-2.441-2.52a0.7,0.7,0,0,1,.546-0.54c4.773-1.93,6.959-5.28,7-10.39,0-.58-0.145-0.91-0.765-0.91-1.275-.03-2.514.08-3.753,0.08-0.91,0-.838-0.58-0.838-1.79,0-1.31-.036-1.75.911-1.75,1.311,0,2.623.08,3.971,0.08h3.826a0.869,0.869,0,0,0,1.02-1.02v-3.32Zm38.744,5.54a1.331,1.331,0,0,0,1.457-.84c0.4-.73.729-1.49,1.057-2.26a0.5,0.5,0,0,1,.4-0.47,16.07,16.07,0,0,1,2.441.8c0.4,0.15,1.2.37,1.2,0.77,0,0.32-.292.32-0.583,0.36a0.7,0.7,0,0,0-.546.29c-0.073.18-.183,0.37-0.255,0.51a1.06,1.06,0,0,0-.073.33,0.512,0.512,0,0,0,.619.51h1.493c1.239,0,2.514-.07,3.753-0.07,0.765,0,.8.29,0.8,1.45,0,1.1,0,1.42-.8,1.42-1.275,0-2.514-.07-3.753-0.07h-2a0.738,0.738,0,0,0-.875.84v0.11a0.744,0.744,0,0,0,.875.87H103.6c1.166,0,2.332-.07,3.5-0.07,0.729,0,.765.26,0.765,1.2,0,0.88-.036,1.17-0.765,1.17-1.166,0-2.332-.08-3.5-0.08h-1.056a0.606,0.606,0,0,0-.693.7v0.36a0.577,0.577,0,0,0,.693.69h1.02c1.165,0,2.331-.07,3.5-0.07,0.766,0,.766.25,0.766,1.2s-0.037,1.2-.766,1.2c-1.166,0-2.332-.07-3.5-0.07h-0.838a0.738,0.738,0,0,0-.875.84v0.18a0.744,0.744,0,0,0,.875.87h2.514c1.275,0,2.514-.07,3.789-0.07,0.838,0,.8.33,0.8,1.46s0,1.42-.766,1.42c-1.275,0-2.55-.07-3.825-0.07H93.979a0.965,0.965,0,0,0-.948.84c-0.109.43-.364,0.51-1.749,0.51-1.566,0-1.967,0-1.967-.99s0.109-2.04.109-3.13v-5.83a0.363,0.363,0,0,0-.328-0.4,0.4,0.4,0,0,0-.328.15,3.115,3.115,0,0,1-1.166,1.02,3.893,3.893,0,0,1-1.6-.92,0.842,0.842,0,0,0-.51-0.18,0.657,0.657,0,0,0-.583.44c-0.947,2.37-2.3,4.99-3.5,7.29a2.451,2.451,0,0,0-.364.98c0,0.18.073,0.44,0.073,0.69a0.411,0.411,0,0,1-.437.47,10.418,10.418,0,0,1-2.477-1.64c-0.729-.54-0.8-0.69-0.8-0.91a1.715,1.715,0,0,1,.292-0.65,63.742,63.742,0,0,0,4.846-10.16c0.219-.51.365-1.02,0.8-1.02s2.514,1.23,2.623,2.04a0.173,0.173,0,0,0,.145.21,0.5,0.5,0,0,0,.219-0.18,26.876,26.876,0,0,0,4.591-7.25,0.468,0.468,0,0,1,.364-0.4,10.1,10.1,0,0,1,1.385.37c1.639,0.51,2.368.69,2.368,1.13a0.526,0.526,0,0,1-.474.36,1.17,1.17,0,0,0-.875.91,0.851,0.851,0,0,0-.073.29,0.553,0.553,0,0,0,.656.55h3.243Zm-14.609-.37a1.854,1.854,0,0,1-.948-0.65,35.806,35.806,0,0,0-3.716-2.95,1.34,1.34,0,0,1-.765-0.84c0-.47,1.53-2.4,2.186-2.4,0.51,0,2.368,1.56,2.878,1.96s2.623,1.93,2.623,2.52C85.163,1087.45,83.632,1089.45,82.9,1089.45Zm1.348-8.37a1.3,1.3,0,0,1-.656-0.4,49.785,49.785,0,0,0-4.08-3.14,1.318,1.318,0,0,1-.692-0.76c0-.44,1.384-2.33,2.149-2.33,0.583,0,2.441,1.49,2.951,1.89,0.51,0.36,2.55,1.82,2.55,2.37C86.474,1079.33,84.907,1081.08,84.252,1081.08Zm9,1.34a0.6,0.6,0,0,0-.693-0.69H91.174c-0.984,0-2,.07-3.024.07-0.656,0-.656-0.32-0.656-1.34s0-1.35.656-1.35c1.02,0,2.04.07,3.024,0.07h1.384a0.588,0.588,0,0,0,.693-0.69v-0.18a0.588,0.588,0,0,0-.693-0.69H90.373c-0.947,0-1.859.03-2.805,0.03-0.692,0-.692-0.22-0.692-1.27s0-1.31.692-1.31c0.947,0,1.858.07,2.805,0.07h2.659c0.729,0,1.458-.07,2.186-0.07,1.166,0,1.494.47,1.494,1.56,0,0.59-.037,1.2-0.037,1.93v4.23c0,0.91.037,1.78,0.037,2.55,0,1.09-.656,1.02-1.822,1.02H94.562a2.5,2.5,0,0,1-1.166-.22,0.633,0.633,0,0,0-.4-0.22H90.482c-0.984,0-1.968.07-2.951,0.07-0.656,0-.619-0.32-0.619-1.34s-0.036-1.32.619-1.32c0.983,0,1.967.04,2.951,0.04h2.04a0.6,0.6,0,0,0,.729-0.69v-0.26Zm-0.219,11.08a0.819,0.819,0,0,0,.875.87H97.55a0.839,0.839,0,0,0,.875-0.87v-0.11a0.815,0.815,0,0,0-.875-0.84H93.906a0.8,0.8,0,0,0-.875.84v0.11Zm0,4.15a0.63,0.63,0,0,0,.692.69h4.008a0.663,0.663,0,0,0,.693-0.69v-0.36a0.728,0.728,0,0,0-.693-0.7H93.724a0.677,0.677,0,0,0-.692.7v0.36Zm0,3.97a0.819,0.819,0,0,0,.875.87H97.55a0.839,0.839,0,0,0,.875-0.87v-0.18a0.815,0.815,0,0,0-.875-0.84H93.906a0.8,0.8,0,0,0-.875.84v0.18ZM104,1083.41a0.588,0.588,0,0,0,.691-0.69v-0.22a0.583,0.583,0,0,0-.691-0.7h-1.568c-0.947,0-1.931.04-2.915,0.04-0.656,0-.656-0.25-0.656-1.31,0-1.09,0-1.35.656-1.35,0.984,0,1.968.04,2.915,0.04H104a0.588,0.588,0,0,0,.691-0.69v-0.22a0.576,0.576,0,0,0-.691-0.69H101.63c-0.948,0-1.894.03-2.842,0.03-0.619,0-.656-0.25-0.656-1.27,0-1.13.036-1.31,0.692-1.31,0.947,0,1.858.03,2.805,0.03h2.878c0.693,0,1.384-.03,2.113-0.03,1.093,0,1.53.29,1.53,1.56,0,0.59-.036,1.2-0.036,1.93v4.59c0,0.91.073,1.79,0.073,2.52,0,1.09-.73,1.05-1.676,1.05-1.129,0-1.422,0-1.749-.36a0.955,0.955,0,0,0-.619-0.44h-2.259c-1.02,0-2.077.07-3.133,0.07-0.656,0-.656-0.29-0.656-1.31s0-1.35.656-1.35c1.057,0,2.113.08,3.133,0.08H104Zm25.77,15.92a0.618,0.618,0,0,0-.62.54,19.225,19.225,0,0,1-2.368,5.9,1.4,1.4,0,0,1-1.13.88c-0.546,0-2.149-.69-2.149-1.39a1.215,1.215,0,0,1,.254-0.58,17.206,17.206,0,0,0,3.134-9.14,0.863,0.863,0,0,0-.984-0.95c-0.218,0-.437.04-0.655,0.04-0.765,0-.8-0.37-0.8-1.31v-0.33a0.356,0.356,0,0,0-.437-0.4c-0.438-.04-0.983-1.09-1.349-1.71a2.43,2.43,0,0,1-.145-0.26,0.255,0.255,0,0,0-.219-0.15,0.261,0.261,0,0,0-.218.3v9.94c0,1.64.073,3.28,0.073,4.92,0,0.98-.4.98-1.748,0.98-1.386,0-1.786-.03-1.786-0.98,0-1.64.073-3.28,0.073-4.92v-6.74a0.145,0.145,0,0,0-.146-0.18,0.218,0.218,0,0,0-.146.11,30.637,30.637,0,0,1-1.822,4.84,0.9,0.9,0,0,1-.728.7c-0.656,0-1.895-1.72-1.895-2.3a1.921,1.921,0,0,1,.292-0.8,37.613,37.613,0,0,0,3.935-11.48c0-.11.036-0.18,0.036-0.25a0.7,0.7,0,0,0-.838-0.69c-0.182,0-1.639.07-1.675,0.07-0.766,0-.693-0.66-0.693-1.78,0-1.17-.073-1.75.693-1.75,0.473,0,1.239.07,1.966,0.07a0.88,0.88,0,0,0,1.021-1.02v-2.33a16.194,16.194,0,0,0-.109-2.37,1.006,1.006,0,0,1-.037-0.33,0.464,0.464,0,0,1,.582-0.43c0.438,0,2.406.18,2.952,0.25,0.291,0.04.911,0.04,0.911,0.48a0.725,0.725,0,0,1-.511.51c-0.364.25-.4,0.76-0.4,1.93v2.29a0.845,0.845,0,0,0,.911,1.02c0.546-.04,1.057-0.04,1.6-0.07a0.6,0.6,0,0,0,.547-0.22c0.145-.29.546-1.2,0.91-1.2a0.315,0.315,0,0,1,.219.1,0.494,0.494,0,0,0,.255.08,0.386,0.386,0,0,0,.255-0.15,34.185,34.185,0,0,0,2.222-4.48c0.073-.22.109-0.4,0.328-0.4,0.182,0,2.55,1.02,2.55,1.46,0,0.33-.255.36-0.51,0.36a0.749,0.749,0,0,0-.729.37,11.442,11.442,0,0,0-.728,1.31,29.128,29.128,0,0,1-1.567,2.66,0.756,0.756,0,0,0-.109.25,0.456,0.456,0,0,0,.145.33,0.846,0.846,0,0,1,.183.18,0.922,0.922,0,0,0,.546.22,0.678,0.678,0,0,0,.584-0.47c0.255-.51.509-1.06,0.764-1.6,0.109-.26.146-0.44,0.365-0.44,0.11,0,2.587,1.2,2.587,1.67,0,0.3-.255.33-0.475,0.33a0.847,0.847,0,0,0-.8.37,45.042,45.042,0,0,1-3.061,5.21,0.388,0.388,0,0,0-.109.29,0.432,0.432,0,0,0,.546.36,6.12,6.12,0,0,0,.692-0.07,0.632,0.632,0,0,0,.657-0.66,0.681,0.681,0,0,0-.111-0.36,5.9,5.9,0,0,1-.4-1.02c0-.48,1.384-0.84,1.6-0.84a0.652,0.652,0,0,1,.583.51c0.51,1.06.984,2.15,1.384,3.21a0.326,0.326,0,0,0,.219.25,0.21,0.21,0,0,0,.219-0.22c0-.07-0.11-1.53-0.11-1.78-0.146-3.39-.073-6.81-0.109-10.2-0.037-.26-0.073-1.17-0.073-1.24a0.5,0.5,0,0,1,.583-0.58c0.219,0,1.6.14,1.93,0.18,1.2,0.14,1.532.14,1.532,0.58a0.66,0.66,0,0,1-.548.55c-0.364.18-.4,0.36-0.4,1.09v2.48a0.2,0.2,0,0,0,.218.25,0.371,0.371,0,0,0,.255-0.14,0.456,0.456,0,0,1,.365-0.19,0.488,0.488,0,0,1,.219.08,1.2,1.2,0,0,0,.254.07,0.379,0.379,0,0,0,.328-0.18,32.982,32.982,0,0,0,2.15-4.23,0.473,0.473,0,0,1,.364-0.44,9.848,9.848,0,0,1,1.967.99,0.853,0.853,0,0,1,.584.58c0,0.33-.292.33-0.511,0.33a0.73,0.73,0,0,0-.655.44,39.2,39.2,0,0,1-2.113,3.53,0.615,0.615,0,0,0-.109.36,0.551,0.551,0,0,0,.254.44l0.11,0.11a0.969,0.969,0,0,0,.547.18,0.763,0.763,0,0,0,.655-0.43c0.327-.62.62-1.24,0.911-1.9a0.6,0.6,0,0,1,.4-0.47,7.634,7.634,0,0,1,1.677.76,1.738,1.738,0,0,1,1.02.84,0.379,0.379,0,0,1-.438.36,0.685,0.685,0,0,0-.764.41,38.658,38.658,0,0,1-3.025,4.95,0.858,0.858,0,0,0-.072.29,0.4,0.4,0,0,0,.473.4l0.8-.11a0.684,0.684,0,0,0,.692-0.69,1.834,1.834,0,0,0-.11-0.36,6.837,6.837,0,0,1-.4-0.95c0-.55,1.275-0.84,1.566-0.84a0.752,0.752,0,0,1,.62.51c0.437,0.95.838,1.89,1.238,2.84a14.119,14.119,0,0,1,.729,2.19c0,0.47-1.165.76-1.567,0.76-0.437,0-.509-0.36-0.691-0.91a0.722,0.722,0,0,0-.875-0.51c-0.546.07-1.13,0.19-1.712,0.29a0.4,0.4,0,0,0-.365.33,0.451,0.451,0,0,0,.218.37l0.366,0.25a2.922,2.922,0,0,1,1.238,1.13,0.616,0.616,0,0,1-.182.44,0.66,0.66,0,0,0-.073.25,0.513,0.513,0,0,0,.619.4c0.656,0,1.312-.07,1.968-0.07,0.8,0,.764.58,0.764,1.49,0,1.02.036,1.5-.8,1.5-1.238,0-2.477-.07-3.679-0.07h-3.352a0.633,0.633,0,0,0-.766.61,0.685,0.685,0,0,0,.037.29c0.182,0.62.437,1.24,0.656,1.86a0.628,0.628,0,0,0,.546.44,0.724,0.724,0,0,0,.474-0.22,9.271,9.271,0,0,0,1.494-2.11,0.869,0.869,0,0,1,.546-0.47c0.218,0,2.733,1.27,2.733,1.78a0.567,0.567,0,0,1-.584.4,1.093,1.093,0,0,0-.874.69,22.413,22.413,0,0,1-1.821,2.3,0.98,0.98,0,0,0-.109,1.49c0.364,0.48,1.457,1.79,2.075,1.79,0.839,0,1.021-2.59,1.093-3.21,0.074-.4.111-0.58,0.73-0.58,0.838,0,1.967.36,1.967,1.35a12.185,12.185,0,0,1-.984,3.71,2.632,2.632,0,0,1-2.4,1.93c-2.041,0-3.534-1.6-4.7-3.09a0.935,0.935,0,0,0-.729-0.41,1.229,1.229,0,0,0-.619.19c-1.238.87-5.392,3.24-6.776,3.24-0.693,0-1.384-1.57-1.384-2.15,0-.55.582-0.66,1.093-0.8a20.031,20.031,0,0,0,5.573-2.77,0.969,0.969,0,0,0,.474-0.84,1.631,1.631,0,0,0-.109-0.58,27.634,27.634,0,0,1-1.422-3.94,1.053,1.053,0,0,0-1.239-.9h-3.461a0.827,0.827,0,0,0-.982.76,1.357,1.357,0,0,0,.837,1.2,27.927,27.927,0,0,1,3.279,2,1.01,1.01,0,0,1,.656.84c0,0.8-.911,2.12-1.567,2.12a1.765,1.765,0,0,1-.728-0.48c-0.656-.54-1.384-1.06-2.077-1.56A0.76,0.76,0,0,0,129.769,1099.33Zm-4.518-8.2a0.555,0.555,0,0,0,.619.55c1.02,0.07,2.04.03,3.061,0.03h4.918a0.686,0.686,0,0,0,.765-0.8c-0.036-.29-0.036-0.8-0.438-0.8a1.276,1.276,0,0,0-.327.07,3.205,3.205,0,0,1-1.057.26c-0.4,0-.437-0.33-0.546-0.66a0.886,0.886,0,0,0-1.02-.62c-1.421.26-2.879,0.44-4.336,0.66a0.61,0.61,0,0,0-.51.44,0.349,0.349,0,0,1-.292.21c-0.328,0-.364-0.29-0.619-1.05a10.6,10.6,0,0,1-.364-1.71c0-.33.364-0.29,0.583-0.33a0.568,0.568,0,0,0,.547-0.29c0.509-.77.946-1.57,1.42-2.34a1.3,1.3,0,0,0,.182-0.61,1.186,1.186,0,0,0-.436-0.84c-0.475-.4-0.948-0.77-1.422-1.13a0.5,0.5,0,0,0-.291-0.11,0.353,0.353,0,0,0-.364.4c-0.037.98,0,1.53-.729,1.53-0.146,0-1.385-.07-1.748-0.11a0.7,0.7,0,0,0-.766.66,1.965,1.965,0,0,0,.109.36,23.276,23.276,0,0,0,3.17,4.81,0.6,0.6,0,0,1,.182.4,1.527,1.527,0,0,1-.218.69A1.06,1.06,0,0,0,125.251,1091.13Zm14.827-7.21a1.037,1.037,0,0,0-.437-0.77c-0.546-.43-1.129-0.87-1.711-1.31a0.532,0.532,0,0,0-.329-0.11,0.484,0.484,0,0,0-.473.48v1.09c0,0.84.036,1.71,0.036,2.55a0.842,0.842,0,0,0,.948.87,0.745,0.745,0,0,0,.655-0.43c0.365-.59.765-1.13,1.093-1.72A1.163,1.163,0,0,0,140.078,1083.92Zm1.02,7.79a0.341,0.341,0,0,0,.4-0.29,0.432,0.432,0,0,0-.183-0.29,3.808,3.808,0,0,1-1.457-1.17,1.232,1.232,0,0,1,.328-0.69,0.262,0.262,0,0,0,.037-0.14,0.21,0.21,0,0,0-.22-0.22l-1.348.22a0.9,0.9,0,0,0-.655.51,0.371,0.371,0,0,1-.438.25c-0.072-.03-0.145-0.03-0.145.04l0.109,0.98a0.8,0.8,0,0,0,.984.8H141.1Zm20.122-15.48a14.031,14.031,0,0,1,1.748-.18c1.02,0,.948.55,1.02,1.38a49.609,49.609,0,0,0,1.13,6.52,1.044,1.044,0,0,0,.838,1.1c0.655,0,6.484-3.43,7.432-4.05a2.4,2.4,0,0,1,.947-0.36c0.473,0,1.093,1.09,1.312,1.46a7.243,7.243,0,0,1,1.056,2.22,0.787,0.787,0,0,1-.692.58,66.267,66.267,0,0,0-9,4.19,37.076,37.076,0,0,0-6.558,4.3,4.579,4.579,0,0,0-1.785,3.28c0,1.31,1.275,2.22,2.4,2.62a14.473,14.473,0,0,0,4.847.65,55.628,55.628,0,0,0,9.508-.94,0.924,0.924,0,0,1,.328-0.04c0.509,0,.546,1.5.546,2.26v0.44c0,0.95-.037,1.35-0.765,1.53a88.233,88.233,0,0,1-10.019.58c-2.695,0-5.064-.15-7.468-1.57a6.4,6.4,0,0,1-3.352-5.61c0-3.97,3.279-6.55,6.3-8.52a1.122,1.122,0,0,0,.62-0.95,1.235,1.235,0,0,0-.145-0.65c-0.438-1.31-1.459-5.18-1.822-6.67a22.777,22.777,0,0,0-.692-2.4,1.969,1.969,0,0,1-.11-0.44C158.851,1076.41,160.053,1076.41,161.22,1076.23Zm37.337,1.75c1.2,0.04,2.441-.07,3.679-0.07,0.8,0,.766.29,0.766,1.53,0,1.2,0,1.49-.766,1.49-1.238,0-2.441-.07-3.679-0.07h-0.146a0.743,0.743,0,0,0-.874.87v0.55a0.756,0.756,0,0,0,.874.87c0.692,0.04,1.348-.07,2.039-0.07a1.223,1.223,0,0,1,1.5,1.27c0,0.59-.036,1.17-0.036,1.75v6.45c0,0.62.036,1.2,0.036,1.78a1.188,1.188,0,0,1-1.458,1.24c-0.692,0-1.421-.07-2.112-0.03a0.731,0.731,0,0,0-.838.87v0.55a0.731,0.731,0,0,0,.838.87H198.7c1.239,0,2.514-.07,3.789-0.07,0.8,0,.8.33,0.8,1.53,0,1.17,0,1.53-.765,1.53-1.276,0-2.55-.07-3.826-0.07H198.52a0.827,0.827,0,0,0-.983.98c-0.037,1.24.072,2.51,0.072,3.75,0,1.17-.327,1.2-1.822,1.2-1.384,0-1.784-.03-1.784-1.12,0-1.28.073-2.55,0.073-3.83a0.839,0.839,0,0,0-.984-0.98H192.8c-1.238,0-2.513.07-3.788,0.07-0.8,0-.8-0.33-0.8-1.53s0-1.53.764-1.53c1.276,0,2.551.07,3.826,0.07h0.437a0.732,0.732,0,0,0,.839-0.87v-0.55a0.732,0.732,0,0,0-.839-0.87c-0.691-.04-1.348.03-2.04,0.03-0.983,0-1.494-.29-1.494-1.34,0-.51.037-1.1,0.037-1.68v-6.45c0-.58-0.037-1.13-0.037-1.64a1.214,1.214,0,0,1,1.457-1.38c0.657,0,1.349.11,2.041,0.07a0.746,0.746,0,0,0,.838-0.87v-0.55a0.731,0.731,0,0,0-.838-0.87c-1.239-.04-2.478.07-3.716,0.07-0.838,0-.8-0.33-0.8-1.53,0-1.16,0-1.49.8-1.49,1.2,0,2.368.11,3.57,0.07a0.868,0.868,0,0,0,.984-1.02,11.207,11.207,0,0,0-.109-2.22,0.918,0.918,0,0,1-.036-0.29,0.492,0.492,0,0,1,.618-0.48c0.365,0,2.661.22,3.134,0.26,0.255,0.03.693,0.07,0.693,0.4a0.609,0.609,0,0,1-.438.47c-0.364.26-.4,0.66-0.364,1.93A0.859,0.859,0,0,0,198.557,1077.98Zm0.109,8.89a0.847,0.847,0,0,0-.875-0.88h-3.934a0.827,0.827,0,0,0-.875.88v0.25a0.8,0.8,0,0,0,.875.84h3.934a0.815,0.815,0,0,0,.875-0.84v-0.25Zm-4.809,3.79a0.792,0.792,0,0,0-.875.84v0.32a0.827,0.827,0,0,0,.875.88h3.934a0.847,0.847,0,0,0,.875-0.88v-0.32a0.81,0.81,0,0,0-.875-0.84h-3.934Zm12.642-5.25a1.359,1.359,0,0,0-.074.36,0.574,0.574,0,0,0,.62.55c0.8,0.04,1.566.04,2.368,0.04h5.939a1.884,1.884,0,0,1,1.566.55,3.61,3.61,0,0,1,.984,1.93,1.882,1.882,0,0,1-.91,1.09c-1.968,1.6-9.365,8.56-9.365,10.89,0,1.67,2.15,1.57,3.316,1.57,4.263,0,5.574.47,6.122-4.41,0.072-.48.072-1.06,0.8-1.06,0.438,0,2.7.33,2.7,1.39a14.349,14.349,0,0,1-1.056,4.4c-1.312,2.99-3.425,3.32-6.377,3.32-0.8,0-1.675-.04-2.586-0.04-3.461,0-7.1.22-7.1-4.44,0-2.22,1.566-4.3,2.913-5.98a49.873,49.873,0,0,1,4.811-5.2,0.57,0.57,0,0,0,.145-0.33,0.449,0.449,0,0,0-.474-0.37h-1.421c-1.311,0-2.659.08-3.461,0.08s-0.765-.44-0.765-1.28a1.209,1.209,0,0,0-.91-0.98c-0.547-.22-2.077-0.95-2.077-1.6a7.95,7.95,0,0,1,.838-1.83,36.894,36.894,0,0,0,3.461-9.36c0.073-.36.146-0.69,0.546-0.69a27.5,27.5,0,0,1,2.7.58c0.511,0.11,1.275.26,1.275,0.66a0.643,0.643,0,0,1-.437.47c-0.437.22-.473,0.33-0.765,1.31-0.073.26-.182,0.55-0.292,0.91,0,0.08-.036.19-0.036,0.26a0.652,0.652,0,0,0,.766.65h5.282c1.348,0,2.733-.07,4.081-0.07,0.874,0,.838.44,0.838,1.79s0.036,1.78-.838,1.78c-1.348,0-2.7-.07-4.081-0.07h-6.558a1.232,1.232,0,0,0-1.385.84C207.227,1083.92,206.9,1084.68,206.5,1085.41Zm25.606-2.26c-0.327.22-.365,0.33-0.438,1.24,0,0.26-.036.58-0.073,0.99a44.45,44.45,0,0,1-.8,5.9,0.651,0.651,0,0,1-.693.58c-0.437,0-1.931-.26-1.931-0.95a7.283,7.283,0,0,1,.183-0.87,35.864,35.864,0,0,0,.837-7.07c0-.55-0.073-0.91.474-0.91a11.373,11.373,0,0,1,1.53.18c0.509,0.11,1.2.15,1.2,0.51A0.424,0.424,0,0,1,232.105,1083.15Zm4.189,9.29a2.722,2.722,0,0,0,.22,1.6,27.6,27.6,0,0,0,3.643,5.65,1.082,1.082,0,0,1,.291.62,4.121,4.121,0,0,1-2.477,2.33c-0.62,0-2-2.77-2.3-3.35a0.419,0.419,0,0,0-.327-0.22,0.4,0.4,0,0,0-.365.26,22.133,22.133,0,0,1-3.1,6.63,1.1,1.1,0,0,1-.839.65c-0.51,0-2.622-1.16-2.622-2a1.419,1.419,0,0,1,.4-0.73c3.461-4.73,4.263-10.78,4.263-16.5v-10.09a13.139,13.139,0,0,0-.109-2.48c0-.07-0.037-0.22-0.037-0.33,0-.4.328-0.47,0.655-0.47,0.437,0,2.66.18,3.134,0.22,0.255,0.03.582,0.07,0.582,0.4a0.712,0.712,0,0,1-.436.51c-0.328.29-.364,1.06-0.364,2.22v5.17a0.294,0.294,0,0,0,.291.33,0.269,0.269,0,0,0,.255-0.14c0.327-.51.656-1.06,0.947-1.61a0.872,0.872,0,0,1,.546-0.47,8.425,8.425,0,0,1,2.624,2.59,0.419,0.419,0,0,1-.438.43h-0.182a0.606,0.606,0,0,0-.473.22c-0.984,1.13-1.02,1.42-2.952,3.5a1.965,1.965,0,0,0-.655,1.53C236.441,1090.11,236.4,1091.28,236.294,1092.44Zm15.994,7.14a0.342,0.342,0,0,0-.291.4v2.08c0,1.16.073,2.33,0.073,3.53,0,1.06-.4,1.06-1.822,1.06-1.348,0-1.821,0-1.821-1.06,0-1.02.109-2.22,0.109-3.53v-2.15a0.314,0.314,0,0,0-.291-0.37,0.344,0.344,0,0,0-.256.11,23.683,23.683,0,0,1-6.193,5.69,2.3,2.3,0,0,1-1.093.51,3.718,3.718,0,0,1-2.077-2.3,1.618,1.618,0,0,1,1.02-.94,25.775,25.775,0,0,0,6.011-5.18,0.653,0.653,0,0,0,.147-0.36,0.465,0.465,0,0,0-.511-0.44H244.2c-1.238,0-2.477.07-3.716,0.07-0.838,0-.8-0.32-0.8-1.53s-0.036-1.56.8-1.56c1.239,0,2.478.07,3.716,0.07h3.461a0.686,0.686,0,0,0,.8-0.8,6.041,6.041,0,0,1-.073-0.77c0-.4.292-0.47,0.619-0.47,0.693,0,2.3.15,3.024,0.22,0.292,0.03.875,0.03,0.875,0.44a0.674,0.674,0,0,1-.474.47,0.9,0.9,0,0,0-.364.55,0.461,0.461,0,0,0,.546.36h3.9c1.238,0,2.477-.07,3.716-0.07,0.838,0,.8.36,0.8,1.56,0,1.24,0,1.53-.8,1.53-1.239,0-2.478-.07-3.716-0.07h-1.531a0.491,0.491,0,0,0-.51.44,0.66,0.66,0,0,0,.146.33,40.6,40.6,0,0,0,6.047,5.39,1.234,1.234,0,0,1,.693.8,3.689,3.689,0,0,1-2.3,2.18c-1.2,0-5.611-4.95-6.486-6.04A0.332,0.332,0,0,0,252.288,1099.58Zm-2.841-11c0,0.47.036,0.95,0.036,1.42a1.267,1.267,0,0,1-1.458,1.46c-0.619,0-1.238-.08-1.857-0.08h-2.041c-0.618,0-1.238.08-1.857,0.08a1.266,1.266,0,0,1-1.5-1.42c0-.48.073-0.99,0.073-1.46v-2.22c0-.51-0.073-0.98-0.073-1.46a1.266,1.266,0,0,1,1.5-1.42c0.619,0,1.239.07,1.857,0.07h2.041c0.619,0,1.2-.07,1.821-0.07a1.252,1.252,0,0,1,1.494,1.42c0,0.51-.036.99-0.036,1.46v2.22Zm-5.9-.76a0.962,0.962,0,0,0,1.02.98h1.056a0.962,0.962,0,0,0,1.02-.98v-0.77a0.962,0.962,0,0,0-1.02-.98h-1.056a0.962,0.962,0,0,0-1.02.98v0.77Zm13.079-8.46c0,0.59.073,1.06,0.073,1.53,0,1.06-.729,1.35-1.677,1.35-0.8,0-1.6-.07-2.4-0.07h-4.7c-0.8,0-1.6.07-2.368,0.07-0.946,0-1.675-.29-1.675-1.35,0-.47.036-0.94,0.036-1.53v-1.49c0-.62-0.036-1.06-0.036-1.53,0-1.05.692-1.35,1.639-1.35,0.8,0,1.6.04,2.4,0.04h4.7c0.8,0,1.6-.04,2.4-0.04,0.948,0,1.677.26,1.677,1.35,0,0.47-.073.91-0.073,1.53v1.49Zm-9.581-.58a0.845,0.845,0,0,0,.873.88h4.772a0.826,0.826,0,0,0,.875-0.88v-0.36a0.826,0.826,0,0,0-.875-0.88h-4.772a0.845,0.845,0,0,0-.873.88v0.36Zm12.9,9.84c0,0.47.036,0.98,0.036,1.45a1.256,1.256,0,0,1-1.458,1.43c-0.619,0-1.166-.08-1.857-0.08h-2.187c-0.692,0-1.238.08-1.822,0.08a1.268,1.268,0,0,1-1.493-1.43c0-.47.036-0.98,0.036-1.45v-2.26c0-.47-0.036-0.95-0.036-1.46a1.215,1.215,0,0,1,1.42-1.38c0.657,0,1.275.03,1.895,0.03h2.187c0.618,0,1.238-.03,1.857-0.03a1.241,1.241,0,0,1,1.458,1.38c0,0.51-.036.99-0.036,1.46v2.26Zm-5.975-.8a1.026,1.026,0,0,0,1.019,1.02h1.129a1.027,1.027,0,0,0,1.021-1.02v-0.73a1.04,1.04,0,0,0-1.021-1.02h-1.129a1.039,1.039,0,0,0-1.019,1.02v0.73Zm27.745,11.51a0.619,0.619,0,0,0-.62.54,19.2,19.2,0,0,1-2.368,5.9,1.4,1.4,0,0,1-1.129.88c-0.546,0-2.15-.69-2.15-1.39a1.217,1.217,0,0,1,.255-0.58,17.2,17.2,0,0,0,3.133-9.14,0.862,0.862,0,0,0-.983-0.95c-0.219,0-.437.04-0.656,0.04-0.765,0-.8-0.37-0.8-1.31v-0.33a0.356,0.356,0,0,0-.437-0.4c-0.438-.04-0.984-1.09-1.348-1.71a2.335,2.335,0,0,1-.147-0.26,0.254,0.254,0,0,0-.218-0.15,0.261,0.261,0,0,0-.219.3v9.94c0,1.64.073,3.28,0.073,4.92,0,0.98-.4.98-1.748,0.98-1.385,0-1.786-.03-1.786-0.98,0-1.64.073-3.28,0.073-4.92v-6.74a0.144,0.144,0,0,0-.145-0.18,0.216,0.216,0,0,0-.146.11,30.637,30.637,0,0,1-1.822,4.84,0.9,0.9,0,0,1-.728.7c-0.656,0-1.895-1.72-1.895-2.3a1.934,1.934,0,0,1,.291-0.8,37.615,37.615,0,0,0,3.936-11.48c0-.11.036-0.18,0.036-0.25a0.7,0.7,0,0,0-.838-0.69c-0.182,0-1.639.07-1.676,0.07-0.765,0-.692-0.66-0.692-1.78,0-1.17-.073-1.75.692-1.75,0.473,0,1.239.07,1.967,0.07a0.879,0.879,0,0,0,1.02-1.02v-2.33a16.194,16.194,0,0,0-.109-2.37,1.033,1.033,0,0,1-.036-0.33,0.464,0.464,0,0,1,.582-0.43c0.438,0,2.406.18,2.951,0.25,0.292,0.04.912,0.04,0.912,0.48a0.727,0.727,0,0,1-.511.51c-0.364.25-.4,0.76-0.4,1.93v2.29a0.845,0.845,0,0,0,.912,1.02c0.546-.04,1.056-0.04,1.6-0.07a0.6,0.6,0,0,0,.547-0.22c0.146-.29.546-1.2,0.91-1.2a0.315,0.315,0,0,1,.22.1,0.49,0.49,0,0,0,.254.08,0.384,0.384,0,0,0,.255-0.15,34.066,34.066,0,0,0,2.223-4.48c0.072-.22.109-0.4,0.327-0.4,0.182,0,2.55,1.02,2.55,1.46,0,0.33-.255.36-0.509,0.36a0.747,0.747,0,0,0-.729.37,11.292,11.292,0,0,0-.728,1.31,28.912,28.912,0,0,1-1.568,2.66,0.756,0.756,0,0,0-.109.25,0.453,0.453,0,0,0,.146.33,0.846,0.846,0,0,1,.183.18,0.917,0.917,0,0,0,.546.22,0.676,0.676,0,0,0,.583-0.47c0.255-.51.51-1.06,0.765-1.6,0.109-.26.145-0.44,0.364-0.44,0.11,0,2.587,1.2,2.587,1.67,0,0.3-.256.33-0.474,0.33a0.85,0.85,0,0,0-.8.37,45.042,45.042,0,0,1-3.061,5.21,0.391,0.391,0,0,0-.109.29,0.432,0.432,0,0,0,.546.36,6.137,6.137,0,0,0,.693-0.07,0.632,0.632,0,0,0,.656-0.66,0.688,0.688,0,0,0-.11-0.36,5.9,5.9,0,0,1-.4-1.02c0-.48,1.385-0.84,1.6-0.84a0.653,0.653,0,0,1,.584.51c0.509,1.06.983,2.15,1.384,3.21a0.325,0.325,0,0,0,.218.25,0.21,0.21,0,0,0,.22-0.22c0-.07-0.111-1.53-0.111-1.78-0.145-3.39-.072-6.81-0.109-10.2-0.036-.26-0.073-1.17-0.073-1.24a0.5,0.5,0,0,1,.584-0.58c0.218,0,1.6.14,1.93,0.18,1.2,0.14,1.531.14,1.531,0.58a0.66,0.66,0,0,1-.547.55c-0.364.18-.4,0.36-0.4,1.09v2.48a0.2,0.2,0,0,0,.218.25,0.373,0.373,0,0,0,.255-0.14,0.453,0.453,0,0,1,.365-0.19,0.485,0.485,0,0,1,.218.08,1.188,1.188,0,0,0,.255.07,0.379,0.379,0,0,0,.328-0.18,33.1,33.1,0,0,0,2.149-4.23,0.474,0.474,0,0,1,.365-0.44,9.848,9.848,0,0,1,1.967.99,0.854,0.854,0,0,1,.583.58c0,0.33-.292.33-0.51,0.33a0.73,0.73,0,0,0-.655.44,39.206,39.206,0,0,1-2.114,3.53,0.615,0.615,0,0,0-.109.36,0.549,0.549,0,0,0,.255.44l0.109,0.11a0.974,0.974,0,0,0,.547.18,0.762,0.762,0,0,0,.655-0.43c0.328-.62.62-1.24,0.911-1.9a0.6,0.6,0,0,1,.4-0.47,7.587,7.587,0,0,1,1.676.76,1.74,1.74,0,0,1,1.021.84,0.379,0.379,0,0,1-.438.36,0.686,0.686,0,0,0-.765.41,38.65,38.65,0,0,1-3.024,4.95,0.86,0.86,0,0,0-.073.29,0.4,0.4,0,0,0,.473.4l0.8-.11a0.685,0.685,0,0,0,.693-0.69,1.716,1.716,0,0,0-.111-0.36,6.961,6.961,0,0,1-.4-0.95c0-.55,1.275-0.84,1.566-0.84a0.751,0.751,0,0,1,.62.51c0.437,0.95.838,1.89,1.239,2.84a14.226,14.226,0,0,1,.729,2.19c0,0.47-1.166.76-1.567,0.76-0.437,0-.51-0.36-0.692-0.91a0.722,0.722,0,0,0-.875-0.51c-0.545.07-1.129,0.19-1.711,0.29a0.4,0.4,0,0,0-.366.33,0.452,0.452,0,0,0,.219.37l0.365,0.25a2.926,2.926,0,0,1,1.239,1.13,0.616,0.616,0,0,1-.182.44,0.643,0.643,0,0,0-.073.25,0.513,0.513,0,0,0,.619.4c0.656,0,1.311-.07,1.967-0.07,0.8,0,.764.58,0.764,1.49,0,1.02.037,1.5-.8,1.5-1.239,0-2.477-.07-3.68-0.07h-3.351a0.633,0.633,0,0,0-.766.61,0.7,0.7,0,0,0,.036.29c0.182,0.62.437,1.24,0.657,1.86a0.626,0.626,0,0,0,.546.44,0.726,0.726,0,0,0,.474-0.22,9.3,9.3,0,0,0,1.493-2.11,0.872,0.872,0,0,1,.546-0.47c0.219,0,2.734,1.27,2.734,1.78a0.568,0.568,0,0,1-.584.4,1.1,1.1,0,0,0-.875.69,22.143,22.143,0,0,1-1.821,2.3,0.981,0.981,0,0,0-.109,1.49c0.364,0.48,1.457,1.79,2.077,1.79,0.837,0,1.019-2.59,1.092-3.21,0.073-.4.11-0.58,0.729-0.58,0.838,0,1.968.36,1.968,1.35a12.213,12.213,0,0,1-.984,3.71,2.635,2.635,0,0,1-2.405,1.93c-2.04,0-3.534-1.6-4.7-3.09a0.936,0.936,0,0,0-.729-0.41,1.226,1.226,0,0,0-.619.19c-1.239.87-5.393,3.24-6.777,3.24-0.693,0-1.384-1.57-1.384-2.15,0-.55.582-0.66,1.093-0.8a20,20,0,0,0,5.573-2.77,0.968,0.968,0,0,0,.475-0.84,1.633,1.633,0,0,0-.11-0.58,27.631,27.631,0,0,1-1.421-3.94,1.053,1.053,0,0,0-1.239-.9h-3.461a0.828,0.828,0,0,0-.983.76,1.357,1.357,0,0,0,.837,1.2,27.845,27.845,0,0,1,3.279,2,1.01,1.01,0,0,1,.657.84c0,0.8-.911,2.12-1.568,2.12a1.762,1.762,0,0,1-.727-0.48c-0.657-.54-1.385-1.06-2.078-1.56A0.755,0.755,0,0,0,281.71,1099.33Zm-4.518-8.2a0.555,0.555,0,0,0,.619.55c1.02,0.07,2.041.03,3.061,0.03h4.918a0.685,0.685,0,0,0,.765-0.8c-0.036-.29-0.036-0.8-0.437-0.8a1.274,1.274,0,0,0-.328.07,3.2,3.2,0,0,1-1.057.26c-0.4,0-.436-0.33-0.545-0.66a0.887,0.887,0,0,0-1.021-.62c-1.42.26-2.879,0.44-4.336,0.66a0.609,0.609,0,0,0-.509.44,0.352,0.352,0,0,1-.292.21c-0.328,0-.364-0.29-0.619-1.05a10.6,10.6,0,0,1-.364-1.71c0-.33.364-0.29,0.582-0.33a0.567,0.567,0,0,0,.547-0.29c0.51-.77.946-1.57,1.421-2.34a1.311,1.311,0,0,0,.182-0.61,1.183,1.183,0,0,0-.437-0.84c-0.474-.4-0.947-0.77-1.422-1.13a0.5,0.5,0,0,0-.291-0.11,0.353,0.353,0,0,0-.364.4c-0.036.98,0,1.53-.729,1.53-0.145,0-1.384-.07-1.748-0.11a0.7,0.7,0,0,0-.766.66,2.062,2.062,0,0,0,.11.36,23.236,23.236,0,0,0,3.17,4.81,0.6,0.6,0,0,1,.182.4,1.528,1.528,0,0,1-.219.69A1.09,1.09,0,0,0,277.192,1091.13Zm14.828-7.21a1.04,1.04,0,0,0-.437-0.77c-0.546-.43-1.13-0.87-1.712-1.31a0.53,0.53,0,0,0-.329-0.11,0.485,0.485,0,0,0-.473.48v1.09c0,0.84.037,1.71,0.037,2.55a0.84,0.84,0,0,0,.947.87,0.743,0.743,0,0,0,.655-0.43c0.365-.59.766-1.13,1.093-1.72A1.157,1.157,0,0,0,292.02,1083.92Zm1.02,7.79a0.34,0.34,0,0,0,.4-0.29,0.431,0.431,0,0,0-.182-0.29,3.8,3.8,0,0,1-1.458-1.17,1.227,1.227,0,0,1,.329-0.69,0.268,0.268,0,0,0,.036-0.14,0.209,0.209,0,0,0-.219-0.22l-1.348.22a0.9,0.9,0,0,0-.655.51,0.371,0.371,0,0,1-.438.25c-0.073-.03-0.146-0.03-0.146.04l0.109,0.98a0.8,0.8,0,0,0,.984.8h2.587Zm26.143-14.68a1.053,1.053,0,0,1,.947.59,0.627,0.627,0,0,1-.327.47c-0.693.51-.766,1.09-0.948,2.4-0.073.4-.145,0.91-0.255,1.5a1.8,1.8,0,0,0-.074.43,0.7,0.7,0,0,0,.8.73h0.438a7.3,7.3,0,0,1,4.116.8c1.823,1.21,2.259,3.28,2.259,5.32,0,3.32-.582,8.23-2.186,11.15a7.439,7.439,0,0,1-6.886,3.93,1.5,1.5,0,0,1-1.675-.83,7.348,7.348,0,0,1-.656-2.63,0.511,0.511,0,0,1,.511-0.62c0.363,0,.909.15,1.638,0.15,2,0,2.916-.44,3.825-2.26a21.676,21.676,0,0,0,1.641-8.23c0-1.79-.11-3.32-2.332-3.32-2.041,0-2.441.3-2.7,1.31a41.137,41.137,0,0,1-4.663,10.9,32.748,32.748,0,0,1-3.607,5.17,0.85,0.85,0,0,1-.619.36c-0.656,0-2.988-1.38-2.988-2.22a1.36,1.36,0,0,1,.511-0.84,28.948,28.948,0,0,0,6.521-10.12,13.911,13.911,0,0,0,.911-2.77,0.462,0.462,0,0,0-.473-0.48,29.523,29.523,0,0,0-4.19,1.28,2.788,2.788,0,0,1-.766.25c-0.873,0-1.493-3.56-1.493-3.78,0-.55.62-0.55,1.056-0.59,2.041-.22,4.081-0.73,6.084-1.09a1.167,1.167,0,0,0,1.166-1.13,33.661,33.661,0,0,0,.4-4.7c0-.58-0.073-1.35-0.073-1.42a0.45,0.45,0,0,1,.436-0.54C315.9,1076.2,318.637,1076.89,319.183,1077.03Zm15.155,12.06c0,0.84-2.3,2.19-3.024,2.19a1.056,1.056,0,0,1-.837-0.84,26.705,26.705,0,0,0-4.882-7.8,1.136,1.136,0,0,1-.328-0.62c0-.65,2-1.86,2.586-1.86C329.238,1080.16,334.338,1088.18,334.338,1089.09Zm-0.545-9.32a2.753,2.753,0,0,1-1.75,1.67,1.013,1.013,0,0,1-.509-0.4,31.352,31.352,0,0,0-2.588-2.8,0.893,0.893,0,0,1-.327-0.52,3.039,3.039,0,0,1,1.749-1.52A14.487,14.487,0,0,1,333.793,1079.77Zm3.461-2.59a2.838,2.838,0,0,1-1.75,1.67,0.742,0.742,0,0,1-.509-0.4c-0.838-.98-1.677-1.89-2.588-2.8a0.854,0.854,0,0,1-.364-0.51,3.255,3.255,0,0,1,1.75-1.53A14.676,14.676,0,0,1,337.254,1077.18ZM46.2,1127.88a0.866,0.866,0,0,0-1.02,1.02v20.32c0,1.82.11,3.61,0.11,5.43,0,1.09-.437,1.13-2,1.13-1.53,0-1.967-.04-1.967-1.13,0-1.82.109-3.61,0.109-5.43v-19.7c0-1.13-.073-2.23-0.073-3.36,0-1.45.583-1.82,1.967-1.82,1.057,0,2.113.04,3.206,0.04H65.655c1.092,0,2.149-.04,3.206-0.04,1.348,0,1.967.33,1.967,1.79,0,1.13-.073,2.26-0.073,3.39v18.94c0,0.8.073,1.64,0.073,2.44,0,1.53-.073,2.69-1.311,3.75-1.239,1.02-3.425,1.09-4.955,1.09-1.421,0-2.441,0-2.441-2.73a0.928,0.928,0,0,1,1.02-1.09c0.729,0,1.6.14,2.368,0.14,1.457,0,1.494-.91,1.494-2.36v-20.8a0.866,0.866,0,0,0-1.02-1.02H46.2Zm5.683,6.41c-1.275,0-2.732.11-3.643,0.11-0.765,0-.729-0.59-0.729-1.75,0-1.2,0-1.71.729-1.71,1.02,0,2.4.07,3.643,0.07h8.526c1.238,0,2.659-.07,3.643-0.07,0.765,0,.765.51,0.765,1.71s0,1.75-.765,1.75c-0.875,0-2.368-.11-3.643-0.11H51.884Zm11.039,13.15c0,0.65.037,1.35,0.037,2.04,0,0.84-.365.87-1.749,0.87-1.676,0-1.712-.07-1.712-0.65,0-.73-0.182-0.95-1.458-0.95H54.252c-1.384,0-1.421.29-1.457,1.27,0,0.91-.073.99-1.786,0.99-1.312,0-1.675-.08-1.675-0.99,0-.76.036-1.53,0.036-2.33v-6.85c0-.72-0.073-1.34-0.073-2,0-1.35.692-1.75,1.967-1.75,0.984,0,2,.07,2.987.07H58.04c0.984,0,1.968-.07,2.952-0.07,1.275,0,2,.33,2,1.71,0,0.7-.073,1.35-0.073,2.04v6.6Zm-4.445-1.86a0.963,0.963,0,0,0,1.02-.98v-3.28a1.04,1.04,0,0,0-1.02-1.02H53.814a1.039,1.039,0,0,0-1.02,1.02v3.28a0.962,0.962,0,0,0,1.02.98h4.663Zm26.554,2.4a0.846,0.846,0,0,0-.984.95c0,0.51.036,1.02,0.036,1.57,0,0.91-.4.87-1.858,0.87-1.421,0-1.785,0-1.785-.91,0-1.31.073-2.62,0.073-3.97v-15.3c0-1.02-.036-2.08-0.036-3.09,0-1.1.218-1.72,1.457-1.72,0.619,0,1.276.04,1.931,0.04h3.315c0.656,0,1.276-.04,1.931-0.04,1.2,0,1.457.55,1.457,1.72,0,1.01-.036,2.07-0.036,3.09v13.84c0,1.35.073,2.7,0.073,4.05,0,0.84-.4.84-1.676,0.84-1.53,0-1.639-.04-1.675-1.13a0.714,0.714,0,0,0-.838-0.81H85.031Zm1.275-12.53a1.014,1.014,0,0,0,1.02-1.02v-3.64a1.04,1.04,0,0,0-1.02-1.02H85.031a1.04,1.04,0,0,0-1.02,1.02v3.64a1.014,1.014,0,0,0,1.02,1.02h1.275Zm-1.275,3.17a1.047,1.047,0,0,0-1.02,1.02v3.97a1.04,1.04,0,0,0,1.02,1.02h1.275a1.04,1.04,0,0,0,1.02-1.02v-3.97a1.047,1.047,0,0,0-1.02-1.02H85.031Zm17.852-11.94a0.862,0.862,0,0,0,1.02,1.01h1.275c1.312,0,2.587-.1,3.9-0.1,0.838,0,.838.36,0.838,1.63s0,1.61-.8,1.61c-1.311,0-2.622-.08-3.934-0.08H103.9a0.869,0.869,0,0,0-1.02,1.02v1.53a0.883,0.883,0,0,0,1.02,1.03h2.15c1.457,0,2.95-.12,4.408-0.12,1.021,0,.983.41,0.983,1.72,0,1.27.038,1.67-.946,1.67-1.5,0-2.988-.07-4.445-0.07H96.872c-1.494,0-2.951.07-4.445,0.07-0.983,0-.947-0.4-0.947-1.67,0-1.31-.036-1.72.983-1.72,1.458,0,2.952.12,4.409,0.12H98.22a0.9,0.9,0,0,0,1.02-1.03v-1.53a0.882,0.882,0,0,0-1.02-1.02H97.965c-1.311,0-2.623.08-3.935,0.08-0.8,0-.8-0.37-0.8-1.61,0-1.27,0-1.63.838-1.63,1.311,0,2.587.1,3.9,0.1H98.22a0.875,0.875,0,0,0,1.02-1.01,16.728,16.728,0,0,0-.145-2.7c0-.11-0.036-0.26-0.036-0.33,0-.4.328-0.47,0.656-0.47,0.511,0,2.623.18,3.206,0.25,0.255,0.04.839,0.08,0.839,0.44a0.728,0.728,0,0,1-.473.51,1.472,1.472,0,0,0-.4,1.35v0.95Zm4.736,14.49c0.875,0,1.713-.07,2.587-0.07,0.911,0,.911.44,0.911,1.75,0,1.27,0,1.71-.875,1.71s-1.748-.04-2.623-0.07a0.851,0.851,0,0,0-.947,1.02v4.51c0,0.77.036,1.57,0.036,2.34,0,3.31-3.132,3.46-5.647,3.46-1.529,0-2.477.18-2.477-2.84,0-.44.073-0.95,0.619-0.95,0.145,0,1.056.07,1.894,0.07,2,0,2.04-.44,2.04-2.59v-4a0.866,0.866,0,0,0-1.02-1.02H96.835c-1.239,0-2.441.07-3.68,0.07-0.875,0-.875-0.4-0.875-1.71s-0.036-1.75.875-1.75c1.239,0,2.477.07,3.68,0.07h5.283a0.852,0.852,0,0,0,1.02-.94,12.162,12.162,0,0,0-.146-1.61v-0.29a0.5,0.5,0,0,1,.62-0.47c0.692,0,2.4.14,3.1,0.22,0.292,0.03.947,0.03,0.947,0.4a0.813,0.813,0,0,1-.545.47c-0.4.18-.475,0.44-0.438,1.28A0.83,0.83,0,0,0,107.619,1141.17ZM96.981,1151.7c-0.4,0-.947-0.8-1.639-1.86-0.218-.29-0.437-0.58-0.656-0.91a14.065,14.065,0,0,0-1.057-1.46,0.96,0.96,0,0,1-.291-0.54c0-.55,1.712-1.82,2.259-1.82,0.692,0,1.858,1.78,2.259,2.33a10.6,10.6,0,0,1,1.421,2.48C99.276,1150.72,97.528,1151.7,96.981,1151.7Zm30.489-24.01a0.874,0.874,0,0,1,.728.62c0,0.22-.146.26-0.51,0.48a2.3,2.3,0,0,0-1.129,1.56,28.964,28.964,0,0,0-2.041,10.35c0,0.69.146,5.1,0.984,5.1,0.327,0,.838-1.06.984-1.42a1.2,1.2,0,0,1,.764-0.88,2.006,2.006,0,0,1,1.313,1.17c0,0.33-1.458,3.64-1.458,5.28,0,0.37.109,1.2,0.145,1.53a3.24,3.24,0,0,1,.074.55c0,0.91-2.077,1.78-2.842,1.78-0.619,0-1.057-.8-1.53-1.78a25.088,25.088,0,0,1-2.223-11.19,43.52,43.52,0,0,1,1.858-12.05,16.477,16.477,0,0,0,.474-1.82,0.781,0.781,0,0,1,.546-0.81C123.9,1126.16,126.959,1127.48,127.47,1127.69Zm4.517,17.42a6.244,6.244,0,0,0,5.537,2.55,29.77,29.77,0,0,0,8.016-1.17,2.689,2.689,0,0,1,.765-0.14c0.582,0,.655.87,0.655,2.73a1.4,1.4,0,0,1-.437,1.34c-1.02.55-7.177,1.1-8.634,1.1-5.9,0-8.344-3.06-8.344-3.65,0-.5,1.275-3.09,1.968-3.09A0.636,0.636,0,0,1,131.987,1145.11Zm1.312-15.92a23.217,23.217,0,0,0,4.772.55,24.2,24.2,0,0,0,5.537-.73,3.263,3.263,0,0,1,.657-0.11,0.811,0.811,0,0,1,.729.87,18.127,18.127,0,0,1,.145,1.97c0,0.76,0,1.05-.693,1.2a42.66,42.66,0,0,1-6.12.51c-1.129,0-5.611-.22-6.376-0.73a1.765,1.765,0,0,1-.364-1.42c0-1.75.182-2.29,0.765-2.29A4.347,4.347,0,0,1,133.3,1129.19Zm29.537-4.08a1.057,1.057,0,0,0-.692.76,56.967,56.967,0,0,1-3.205,6.96,0.475,0.475,0,0,0-.073.22,0.409,0.409,0,0,0,.4.4c0.291,0.04.838,0.07,0.838,0.47a0.788,0.788,0,0,1-.438.51c-0.4.29-.436,1.13-0.436,2.26v13.04c0,1.6.109,3.21,0.109,4.85,0,1.13-.364,1.16-1.932,1.16-1.493,0-1.93-.03-1.93-1.13,0-1.63.073-3.24,0.073-4.88v-10.52a0.329,0.329,0,0,0-.291-0.37,0.512,0.512,0,0,0-.292.15c-0.546.73-1.312,1.85-1.894,1.85-0.693,0-2.041-2.11-2.041-2.76a2.014,2.014,0,0,1,.583-1.1,36.96,36.96,0,0,0,7.1-13.22,0.85,0.85,0,0,1,.655-0.76c0.328,0,2.623.8,3.17,0.98a0.845,0.845,0,0,1,.764.65A0.688,0.688,0,0,1,162.836,1125.11Zm20,30.67a9.368,9.368,0,0,1-1.311-.22,37.447,37.447,0,0,1-9.581-3.64,1.36,1.36,0,0,0-.657-0.18,1.243,1.243,0,0,0-.837.36,16.763,16.763,0,0,1-6.776,3.39,4.124,4.124,0,0,1-.948.18c-0.984,0-2.15-1.75-2.15-2.66a0.723,0.723,0,0,1,.766-0.73,14.886,14.886,0,0,0,6.048-2.33,0.912,0.912,0,0,0,.363-0.62,0.872,0.872,0,0,0-.327-0.65c-0.51-.48-2.732-2.81-2.732-3.39a4.15,4.15,0,0,1,2.368-1.86,1.8,1.8,0,0,1,1.093.91c0.328,0.37.728,0.84,1.275,1.42a0.7,0.7,0,0,0,.51.22,0.546,0.546,0,0,0,.51-0.47,11.433,11.433,0,0,0,.364-1.93v-0.15a0.808,0.808,0,0,0-.947-0.8h-3.1a1.218,1.218,0,0,0-.8.58c-0.218.26-.438,0.29-1.64,0.29-1.421,0-1.748-.03-1.748-0.87,0-1.02.072-2.08,0.072-3.13v-2.63c0-.8-0.072-1.64-0.072-2.47,0-1.31.655-1.64,1.857-1.64,0.947,0,1.9.07,2.806,0.07h2.7a0.866,0.866,0,0,0,1.02-1.02v-0.55a0.869,0.869,0,0,0-1.02-1.02h-2.987c-1.386,0-2.733.08-4.118,0.08-0.874,0-.874-0.44-0.874-1.71,0-1.32,0-1.72.874-1.72,1.385,0,2.732.11,4.118,0.11h2.987a0.879,0.879,0,0,0,1.02-.98c0-.69-0.109-2.26-0.109-2.37a0.58,0.58,0,0,1,.729-0.62c0.509,0,2.841.18,3.387,0.26a0.586,0.586,0,0,1,.62.47,0.731,0.731,0,0,1-.473.55,1.152,1.152,0,0,0-.511,1.2v0.47a0.866,0.866,0,0,0,1.02,1.02h3.607c1.348,0,2.732-.11,4.081-0.11,0.91,0,.873.44,0.873,1.72,0,1.31.037,1.71-.873,1.71-1.386,0-2.733-.08-4.081-0.08h-3.607a0.869,0.869,0,0,0-1.02,1.02v0.55a0.866,0.866,0,0,0,1.02,1.02h2.841c0.911,0,1.859-.07,2.77-0.07,1.2,0,1.894.33,1.894,1.64,0,0.83-.037,1.67-0.037,2.47v2.63c0,1.05.073,2.11,0.073,3.13,0,0.84-.364.87-1.785,0.87-1.274,0-1.493-.03-1.712-0.29a1.394,1.394,0,0,0-.8-0.58h-3.352a0.91,0.91,0,0,0-1.057.95,13.866,13.866,0,0,1-.874,4.19,1.151,1.151,0,0,0-.11.51,0.877,0.877,0,0,0,.547.8,34.124,34.124,0,0,0,9.618,3.13,0.776,0.776,0,0,1,.875.77C184.514,1153.59,184.04,1155.78,182.837,1155.78Zm-11.876-18.94a0.866,0.866,0,0,0-1.02-1.02h-2.878a0.866,0.866,0,0,0-1.02,1.02v1.75a0.879,0.879,0,0,0,1.02,1.02h2.878a0.879,0.879,0,0,0,1.02-1.02v-1.75Zm8.634,0a0.865,0.865,0,0,0-1.019-1.02h-2.952a0.866,0.866,0,0,0-1.02,1.02v1.75a0.879,0.879,0,0,0,1.02,1.02h2.952a0.879,0.879,0,0,0,1.019-1.02v-1.75Zm30.295,10.05c-0.073.58-.255,1.82-0.255,2.37a1.048,1.048,0,0,0,1.2,1.2c1.749,0,3.935-1.27,5.392-2.18a2.824,2.824,0,0,1,1.02-.48c0.51,0,.474,1.9.474,2.3,0,0.65.036,1.82-.619,2.18a17.97,17.97,0,0,1-6.74,1.86,4.2,4.2,0,0,1-4.482-4.19,18.893,18.893,0,0,1,.328-2.88,16.276,16.276,0,0,0,.218-2.29,1.1,1.1,0,0,0-1.2-1.31,5.793,5.793,0,0,0-3.242,1.53c-1.822,1.56-5.319,6.19-6.922,8.27a2.324,2.324,0,0,1-1.02.94c-0.766,0-2.915-1.82-2.915-2.66a2.442,2.442,0,0,1,.874-1.23c4.154-4.12,7.907-8.6,11.8-12.94a5.839,5.839,0,0,0,1.312-1.71,0.3,0.3,0,0,0-.328-0.29,22.251,22.251,0,0,0-2.222.58c-0.839.22-5.1,1.35-5.72,1.35a1.128,1.128,0,0,1-.984-0.84,2.694,2.694,0,0,0-.255-0.43,5.536,5.536,0,0,1-.838-2.04c0-.48.365-0.55,0.765-0.59a76.659,76.659,0,0,0,13.152-2.62,3.214,3.214,0,0,1,1.02-.25c0.875,0,2.55,2.55,2.55,3.09a1.386,1.386,0,0,1-.8.91,47,47,0,0,0-5.065,4.92,1.321,1.321,0,0,0-.473.73,0.359,0.359,0,0,0,.363.36c0.255,0,.475-0.03.73-0.03,0.983,0,3.17.61,3.17,3.64A17.338,17.338,0,0,1,209.89,1146.89Zm-3.059-20.58a0.748,0.748,0,0,1,.691.69c0,0.18-.509,3.1-1.348,3.1-0.254,0-2.3-.73-3.861-1.28-0.693-.25-1.312-0.47-1.568-0.54-1.274-.4-2.075-0.55-2.075-1.13a9.738,9.738,0,0,1,.546-1.86c0.364-.98.51-1.13,0.911-1.13C200.418,1124.16,206.029,1126.06,206.831,1126.31Zm38.227,2.91a1.592,1.592,0,0,1-.8.77,35.5,35.5,0,0,0-5.284,4.88,1.1,1.1,0,0,0-.364.62,0.548,0.548,0,0,0,.62.47,1.926,1.926,0,0,0,.473-0.07,6.873,6.873,0,0,1,1.494-.14,10.613,10.613,0,0,1,4.481,1.09,7.533,7.533,0,0,1,4.336,7.07c0,6.44-5.72,9.79-11.585,9.79-3.025,0-7.323-1.24-7.323-4.95a4.578,4.578,0,0,1,4.663-4.41,5.94,5.94,0,0,1,4.846,2.59,3.625,3.625,0,0,1,.655,2.33,0.451,0.451,0,0,0,.438.47,5.919,5.919,0,0,0,4.407-5.61c0-3.53-2.987-4.99-6.157-4.99a11.081,11.081,0,0,0-8.161,3.57c-1.42,1.39-2.732,2.88-4.043,4.37a0.489,0.489,0,0,1-.4.26c-0.764,0-2.622-2.04-2.622-2.62a1.855,1.855,0,0,1,.874-1.1,147.256,147.256,0,0,0,11.331-11.43,3.214,3.214,0,0,0,.946-1.32,0.52,0.52,0,0,0-.618-0.43c-0.182,0-.657.11-0.875,0.14-0.875.22-6.011,1.28-6.595,1.28-0.8,0-.91-2.74-0.91-3.35,0-.84.037-0.91,1.13-0.91h0.873a34.07,34.07,0,0,0,9.218-1.35,4.832,4.832,0,0,1,1.385-.4C242.945,1125.84,245.058,1128.61,245.058,1129.22Zm-9.217,18.07a1.508,1.508,0,0,0-1.567,1.46c0,1.31,1.749,1.93,2.842,1.93a1.1,1.1,0,0,0,.984-1.24A2.226,2.226,0,0,0,235.841,1147.29Z" transform="translate(-39.906 -1073.62)"/>
</svg>
