<svg xmlns="http://www.w3.org/2000/svg" width="578.875" height="204.188" viewBox="0 0 578.875 204.188">
  <defs>
    <style>
      .cls-1 {
        fill-rule: evenodd;
      }
    </style>
  </defs>
  <path id="kv_lead.svg" class="cls-1" d="M183.13,129.869c0,1.38-1.967,2.266-4.032,3.448-3.639,2.068-18.981,15.958-23.6,19.7a2.87,2.87,0,0,0-1.081,1.575,0.8,0.8,0,0,0,.885.69c1.18,0,33.93-8.768,37.372-9.851a5,5,0,0,1,1.18-.2c0.787,0,1.18.887,1.377,1.478,0.2,0.886.983,6.7,0.983,7.584,0,1.871-.983,1.871-3.933,2.267a54.093,54.093,0,0,0-20.26,6.7c-5.606,3.349-13.277,9.457-13.277,16.649,0,8.569,12.785,9.751,19.079,10.145,0.984,0.1,1.967.1,1.967,1.379a38.407,38.407,0,0,1-1.77,7.191,2.8,2.8,0,0,1-2.95,1.969c-3.442,0-9.835-1.773-13.179-3.053-7.278-2.758-13.67-8.078-13.67-16.549,0-6.8,3.835-11.13,8.556-15.367a1.173,1.173,0,0,0,.492-0.886,0.946,0.946,0,0,0-.984-0.886c-0.688,0-5.8,1.477-6.884,1.772-4.032,1.183-13.474,4.335-17.408,5.911a8.28,8.28,0,0,1-2.655.788c-2.262,0-4.032-6.8-4.032-8.668,0-1.478,1.278-1.576,4.524-2.365a12.443,12.443,0,0,0,6.294-2.953c8.261-6.4,18.391-16.057,26.161-23.247a1.827,1.827,0,0,0,.688-1.183,0.8,0.8,0,0,0-.885-0.787c-0.787,0-11.015,2.758-12.49,3.151a9.279,9.279,0,0,1-2.262.493c-2.459,0-3.738-7.191-3.738-9.063s0.984-1.969,2.754-2.166c5.606-.493,22.423-2.857,27.046-5.025a7.23,7.23,0,0,1,2.262-.886C178.606,119.625,183.13,127.6,183.13,129.869Zm94.415,6.206a33.348,33.348,0,0,1,9.933,24.232A35.4,35.4,0,0,1,268.3,192.124c-2.262,1.182-8.359,3.939-10.72,3.939-2.557,0-6.589-6.107-6.589-8.275,0-.986,1.475-1.18,2.459-1.378,12.883-3.054,23.013-11.525,23.013-25.612,0-10.539-5.507-19.993-15.736-23.54a17.125,17.125,0,0,0-3.737-.887c-2.262,0-2.262,2.167-2.36,3.841-1.082,14.382-4.524,31.915-13.966,43.242-3.245,3.941-7.573,7.585-12.982,7.585-6,0-10.72-4.334-13.375-9.357-2.164-4.038-3.049-9.358-3.049-13.988,0-23.049,17.6-41.37,40.815-41.37C261.711,126.324,270.562,129.18,277.545,136.075Zm-38.258,2.857c-11.211,5.319-17.7,15.859-17.7,28.369,0,3.644,1.278,12.805,6.294,12.805,4.917,0,10.425-11.23,13.179-21.277,1.278-4.728,3.147-14.479,3.147-19.209a1.555,1.555,0,0,0-1.574-1.772A11.053,11.053,0,0,0,239.287,138.932Zm88.908,29.55a21.016,21.016,0,0,1-1.377,3.645,183.771,183.771,0,0,1-12.195,24.034,8.253,8.253,0,0,0-1.279,2.857c0,0.394.2,1.084,0.2,1.674a1.093,1.093,0,0,1-1.082,1.282c-0.885,0-5.213-3.646-6.2-4.433-1.082-.788-2.557-1.773-2.557-2.858,0-.688.885-1.673,1.377-2.264,3.737-4.729,11.7-20.883,14.064-26.891,0.491-1.38.983-2.463,1.77-2.463C322.2,163.065,328.2,166.414,328.2,168.482Zm-8.557-23.837c1.18,0.985,5.213,4.138,5.213,5.614s-4.327,6.009-6,6.009a2.984,2.984,0,0,1-2.065-1.181,121.588,121.588,0,0,0-11.113-8.865c-0.689-.494-1.77-1.182-1.77-1.971,0-1.28,4.13-6.4,5.8-6.4C311.279,137.848,318.065,143.365,319.638,144.645Zm3.541-10.933c-0.787,0-3.246-2.069-5.311-3.744a4.282,4.282,0,0,0-.787-0.689c-1.475-1.182-5.311-3.743-6.982-4.926-0.689-.394-1.771-1.083-1.771-1.97,0-1.379,3.934-6.4,5.7-6.4,1.476,0,6.885,4.136,8.262,5.22,1.573,1.181,4.425,3.447,5.9,4.729a2,2,0,0,1,.885,1.574C329.08,129.082,324.752,133.712,323.179,133.712Zm31.471,9.357c0-1.971-.787-2.758-2.754-2.758h-7.769c-1.869,0-2.852.494-3.639,2.266-2.655,6.106-3.442,8.274-5.606,8.274-1.77,0-7.376-2.168-7.376-3.941a5.369,5.369,0,0,1,1.082-2.265,83.628,83.628,0,0,0,9.146-25.118c0.2-.887.394-1.872,1.574-1.872,0.59,0,4.032.887,5.016,1.085,2.852,0.59,5.31.983,5.31,2.264a1.6,1.6,0,0,1-1.18,1.182c-1.278.592-1.278,0.691-2.163,3.842-0.2.788-.59,1.674-0.787,2.758a1.918,1.918,0,0,0-.1.69c0,1.378.984,1.773,2.066,1.773H351.9c1.967,0,2.754-.788,2.754-2.66v-4.137a57.817,57.817,0,0,0-.295-7.19,3.367,3.367,0,0,1-.1-0.985c0-1.182.786-1.379,1.77-1.379,1.082,0,8.458.493,9.54,0.69a1.432,1.432,0,0,1,1.573,1.181,2.1,2.1,0,0,1-1.278,1.479c-1.082.886-1.181,2.657-1.181,5.81v4.531c0,1.872.788,2.66,2.754,2.66h6.688c3.737,0,7.376-.2,11.113-0.2,2.361,0,2.262,1.084,2.262,4.828,0,3.545,0,4.629-2.262,4.629-3.639,0-7.376-.2-11.113-0.2h-6.688c-1.966,0-2.754.787-2.754,2.758v8.964c0,1.971.788,2.758,2.754,2.758h10.917c3.541,0,7.179-.2,10.72-0.2,2.459,0,2.459,1.182,2.459,4.728,0,4.137,0,4.925-3.344,4.925-1.967,0-5.016-.3-9.835-0.3h-6.294c-1.869.2-2.754,0.788-2.754,2.757v21.869c0,3.053.885,3.448,3.836,3.448h3.933c3.246,0,4.033-1.182,4.918-9.161,0.2-2.068.59-2.463,1.967-2.463,2.163,0,7.573.788,7.573,3.94,0,3.054-2.066,11.328-3.836,13.889-2.262,3.251-5.7,3.546-9.343,3.546h-7.868c-11.507,0-10.72-4.235-10.72-13.4V166.708c0-2.068-.787-2.56-2.754-2.757h-8.359a0.424,0.424,0,0,0-.394.394,0.439,0.439,0,0,0,.3.394c5.115,0.985,5.9,1.28,5.9,2.167,0,0.689-.689.985-1.279,1.38a1.67,1.67,0,0,0-.983,1.28c-0.591,10.344-3.64,19.7-11.7,26.694-2.065,1.871-8.753,6.5-11.408,6.5s-6.59-5.221-6.59-6.8a1.9,1.9,0,0,1,1.476-1.479c12.883-5.22,18.784-14.282,18.882-28.072,0-1.576-.393-2.463-2.065-2.463-3.442-.1-6.786.2-10.13,0.2-2.458,0-2.262-1.576-2.262-4.826,0-3.546-.1-4.728,2.459-4.728,3.541,0,7.081.2,10.72,0.2H351.9c1.967,0,2.754-.787,2.754-2.758v-8.964Zm105.725,14.972c2.065,0,2.95-.393,3.934-2.265,1.081-1.97,1.967-4.039,2.852-6.107,0.2-.591.393-1.28,1.082-1.28,0.885,0,5.409,1.674,6.589,2.167,1.082,0.394,3.245.985,3.245,2.068,0,0.887-.786.887-1.573,0.985a1.864,1.864,0,0,0-1.475.788c-0.2.493-.492,0.984-0.689,1.379a2.887,2.887,0,0,0-.2.887c0,1.083.787,1.378,1.672,1.378h4.033c3.344,0,6.786-.2,10.129-0.2,2.066,0,2.164.79,2.164,3.94,0,2.955,0,3.841-2.164,3.841-3.442,0-6.785-.195-10.129-0.195h-5.41c-1.671,0-2.36.689-2.36,2.264v0.3c0,1.675.689,2.364,2.36,2.364H476.8c3.147,0,6.294-.2,9.441-0.2,1.967,0,2.065.69,2.065,3.251,0,2.364-.1,3.153-2.065,3.153-3.147,0-6.294-.2-9.441-0.2h-2.852a1.627,1.627,0,0,0-1.869,1.87v0.985c0,1.379.492,1.872,1.869,1.872H476.7c3.148,0,6.3-.2,9.442-0.2,2.065,0,2.065.689,2.065,3.25s-0.1,3.251-2.065,3.251c-3.147,0-6.294-.2-9.442-0.2h-2.262c-1.671,0-2.36.689-2.36,2.265v0.493c0,1.674.689,2.364,2.36,2.364h6.786c3.443,0,6.786-.2,10.229-0.2,2.262,0,2.163.886,2.163,3.939s0,3.842-2.065,3.842c-3.442,0-6.884-.2-10.327-0.2H450.835c-1.574.2-1.967,0.688-2.557,2.266-0.3,1.18-.983,1.378-4.721,1.378-4.229,0-5.311,0-5.311-2.66s0.3-5.515.3-8.47v-15.76a0.99,0.99,0,0,0-.886-1.085,1.069,1.069,0,0,0-.885.394c-0.59.691-2.262,2.76-3.147,2.76-1.18,0-3.344-1.675-4.327-2.464a2.129,2.129,0,0,0-1.377-.493,1.786,1.786,0,0,0-1.574,1.184c-2.557,6.4-6.2,13.493-9.441,19.7a6.735,6.735,0,0,0-.984,2.66c0,0.492.2,1.181,0.2,1.871a1.116,1.116,0,0,1-1.18,1.28c-1.082,0-4.721-2.954-6.688-4.432s-2.163-1.871-2.163-2.464a4.71,4.71,0,0,1,.786-1.773c5.213-8.272,9.442-18.32,13.081-27.48,0.59-1.38.983-2.759,2.163-2.759s6.786,3.348,7.081,5.516a0.491,0.491,0,0,0,.394.591,1.311,1.311,0,0,0,.59-0.493,72.661,72.661,0,0,0,12.392-19.6,1.262,1.262,0,0,1,.983-1.084,30.11,30.11,0,0,1,3.738.986c4.425,1.379,6.392,1.871,6.392,3.053a1.384,1.384,0,0,1-1.279.985c-1.278.394-1.475,0.592-2.36,2.463a2.322,2.322,0,0,0-.2.789c0,1.083.786,1.476,1.77,1.476h8.753Zm-39.438-.985c-0.885,0-1.967-1.181-2.557-1.772a98.074,98.074,0,0,0-10.031-7.98c-0.689-.394-2.066-1.279-2.066-2.264,0-1.281,4.131-6.5,5.9-6.5,1.377,0,6.393,4.236,7.77,5.319s7.081,5.221,7.081,6.8C427.035,151.639,422.9,157.056,420.937,157.056Zm3.639-22.655a3.459,3.459,0,0,1-1.77-1.084,130.658,130.658,0,0,0-11.015-8.471c-0.984-.788-1.869-1.28-1.869-2.068,0-1.183,3.737-6.3,5.8-6.3,1.573,0,6.589,4.036,7.966,5.12,1.377,0.986,6.884,4.925,6.884,6.4C430.575,129.673,426.346,134.4,424.576,134.4Zm24.292,3.643a1.627,1.627,0,0,0-1.869-1.87h-3.737c-2.655,0-5.409.2-8.163,0.2-1.77,0-1.77-.887-1.77-3.644s0-3.645,1.77-3.645c2.754,0,5.508.2,8.163,0.2H447a1.594,1.594,0,0,0,1.869-1.873v-0.491A1.593,1.593,0,0,0,447,125.043h-5.9c-2.556,0-5.015.1-7.572,0.1-1.869,0-1.869-.59-1.869-3.447s0-3.546,1.869-3.546c2.557,0,5.016.2,7.572,0.2h7.18c1.967,0,3.934-.2,5.9-0.2,3.147,0,4.032,1.282,4.032,4.235,0,1.576-.1,3.251-0.1,5.221V139.03c0,2.464.1,4.827,0.1,6.9,0,2.955-1.77,2.757-4.917,2.757h-0.886a6.669,6.669,0,0,1-3.147-.59,1.707,1.707,0,0,0-1.081-.592h-6.787c-2.655,0-5.31.2-7.966,0.2-1.77,0-1.672-.887-1.672-3.645s-0.1-3.546,1.672-3.546c2.656,0,5.311.1,7.966,0.1H446.9c1.377,0,1.967-.492,1.967-1.871v-0.69Zm-0.59,29.946a2.221,2.221,0,0,0,2.36,2.364h9.835a2.274,2.274,0,0,0,2.36-2.364v-0.3a2.195,2.195,0,0,0-2.36-2.264h-9.835a2.146,2.146,0,0,0-2.36,2.264v0.3Zm0,11.229a1.709,1.709,0,0,0,1.868,1.872h10.819a1.81,1.81,0,0,0,1.868-1.872v-0.985a1.934,1.934,0,0,0-1.868-1.87H450.146a1.808,1.808,0,0,0-1.868,1.87v0.985Zm0,10.737a2.221,2.221,0,0,0,2.36,2.364h9.835a2.274,2.274,0,0,0,2.36-2.364v-0.493a2.2,2.2,0,0,0-2.36-2.265h-9.835a2.146,2.146,0,0,0-2.36,2.265v0.493Zm29.6-49.252a1.593,1.593,0,0,0,1.869-1.872v-0.589c0-1.38-.492-1.872-1.869-1.872h-4.228c-2.557,0-5.213.1-7.868,0.1-1.77,0-1.77-.69-1.77-3.548,0-2.954,0-3.643,1.77-3.643,2.655,0,5.311.1,7.868,0.1h4.228a1.593,1.593,0,0,0,1.869-1.872v-0.59c0-1.379-.492-1.872-1.869-1.872h-6.392c-2.557,0-5.114.1-7.671,0.1-1.672,0-1.77-.689-1.77-3.447,0-3.054.1-3.546,1.868-3.546,2.557,0,5.016.1,7.573,0.1h7.769c1.869,0,3.738-.1,5.7-0.1,2.95,0,4.13.788,4.13,4.235,0,1.576-.1,3.251-0.1,5.221v12.411c0,2.463.2,4.827,0.2,6.8,0,2.956-1.967,2.857-4.524,2.857-3.049,0-3.836,0-4.721-.986a2.553,2.553,0,0,0-1.672-1.182h-6.1c-2.753,0-5.6.2-8.458,0.2-1.77,0-1.77-.789-1.77-3.546s0-3.645,1.77-3.645c2.853,0,5.7.2,8.458,0.2h5.7Zm54.584-13.2c0.787,0.3,1.967.69,1.967,1.675,0,0.592-.393.689-1.376,1.281-1.673.887-2.066,1.772-3.05,4.236a78.258,78.258,0,0,0-5.507,27.974c0,1.872.394,13.791,2.656,13.791,0.885,0,2.262-2.858,2.655-3.843,0.59-1.28,1.18-2.364,2.065-2.364,0.984,0,3.541,2.069,3.541,3.152,0,0.887-3.934,9.85-3.934,14.283,0,0.986.295,3.25,0.393,4.138a8.676,8.676,0,0,1,.2,1.478c0,2.462-5.606,4.825-7.671,4.825-1.672,0-2.852-2.166-4.131-4.825-4.622-9.358-6-19.9-6-30.241,0-11.524,1.967-21.571,5.016-32.6a45.58,45.58,0,0,0,1.278-4.925c0.2-.887.394-2.168,1.475-2.168C522.826,123.368,531.087,126.915,532.464,127.505Zm12.195,47.084c4.229,5.223,8.36,6.9,14.949,6.9a80.38,80.38,0,0,0,21.637-3.154,7.021,7.021,0,0,1,2.065-.393c1.574,0,1.77,2.363,1.77,7.388,0,1.181.1,2.954-1.18,3.644-2.753,1.477-19.374,2.954-23.308,2.954-15.933,0-22.522-8.272-22.522-9.849,0-1.379,3.442-8.373,5.311-8.373A1.734,1.734,0,0,1,544.659,174.589Zm3.541-43.044a63.047,63.047,0,0,0,12.883,1.477,64.187,64.187,0,0,0,14.949-1.971,9.524,9.524,0,0,1,1.771-.295c1.377,0,1.77,1.181,1.967,2.365a48.528,48.528,0,0,1,.393,5.319c0,2.068,0,2.856-1.868,3.249a114.315,114.315,0,0,1-16.523,1.38c-3.049,0-15.146-.591-17.211-1.971-1.082-.688-0.983-2.758-0.983-3.84,0-4.729.491-6.207,2.065-6.207A12.958,12.958,0,0,1,548.2,131.545Zm58.321,44.326c2.262,0,19.178,13.592,19.178,16.054,0,2.168-4.918,7.586-7.18,7.586-0.787,0-1.475-.886-1.967-1.478A60.574,60.574,0,0,0,601.6,184.638c-0.688-.4-1.77-0.985-1.77-1.873C599.833,181.091,604.849,175.871,606.521,175.871ZM137.4,285.217a20.736,20.736,0,0,1,4.328,12.511c0,8.175-5.8,10.638-13.081,10.638-2.36,0-12.49-.69-13.965-2.069-0.787-.787-1.083-6.7-1.083-8.078,0-.985.394-1.772,1.476-1.772a11.151,11.151,0,0,1,2.459.591,31.879,31.879,0,0,0,8.655,1.477c2.557,0,4.425-.886,4.425-3.742,0-3.744-4.229-9.951-6.491-9.951-1.377,0-5.507,2.562-6.786,3.35-6.885,4.138-13.572,8.275-20.162,12.8-2.36,1.577-2.262,1.577-2.95,2.955-0.394.593-.885,1.38-1.574,1.38-1.18,0-2.655-2.758-3.54-4.236-0.787-1.28-3.049-5.122-3.049-6.3,0-1.282,1.869-1.774,2.951-2.168,6.491-2.66,18.882-9.948,25.865-13.69,0.984-.494,2.164-0.986,2.164-2.364,0-.691-0.491-1.183-1.475-2.66a9.822,9.822,0,0,1-1.869-5.911c0-2.562,1.771-11.722,4.819-11.722,1.377,0,8.163,2.463,8.163,3.84a6.063,6.063,0,0,1-.786,1.775,12.461,12.461,0,0,0-2.066,6.009c0,2.167,3.246,5.713,5.213,5.713a4.76,4.76,0,0,0,1.18-.1,29.124,29.124,0,0,1,5.114-.393c23.5,0,36,22.752,36,24.526,0,1.674-6.982,5.516-9.146,5.516-1.18,0-1.77-1.28-2.164-2.264-2.95-6.4-7.769-13-14.162-16.255a23.649,23.649,0,0,0-7.179-1.969c-0.689,0-1.869.394-1.869,1.279A3.063,3.063,0,0,0,137.4,285.217Zm-5.7-43.143a75.511,75.511,0,0,1,7.868,4.727,1.7,1.7,0,0,1,.787,1.38c0,1.478-3.934,8.275-5.508,8.275a2.672,2.672,0,0,1-1.672-.789,69.514,69.514,0,0,0-14.162-8.767c-0.983-.493-2.163-0.886-2.163-1.97,0-1.575,2.852-7.485,4.819-7.485C123.038,237.445,130.12,241.187,131.693,242.074Zm82.515-6.994a1.466,1.466,0,0,1,1.18,1.182,1.864,1.864,0,0,1-.688,1.281c-1.18,1.181-1.377,1.082-1.77,5.221-0.2,1.379-.689,5.909-0.689,7.091,0,1.084.394,1.28,1.475,1.478,0.591,0.2,3.836,4.039,3.836,5.319,0,0.789-.885,1.478-1.377,2.069-1.18,1.281-4.819,5.909-4.819,7.584,0,0.985.1,1.577,0.59,1.577a2.754,2.754,0,0,0,1.279-.888c7.277-6.3,14.948-11.721,24.98-11.721,13.375,0,22.915,11.227,22.915,24.231,0,14.874-11.113,24.331-23.9,29.551-1.77.788-6.1,2.365-8.064,2.365-2.754,0-5.409-6.108-5.409-8.176,0-1.674,1.18-1.971,2.557-2.267,10.72-2.462,23.9-8.176,23.9-21.077,0-7.39-4.918-14.482-12.884-14.482-8.359,0-19.768,7.586-24.981,13.988a5.686,5.686,0,0,0-1.18,3.941c0,5.811.1,11.622,0.394,17.335,0.1,2.759.688,12.115,0.688,13.2s-0.885,1.676-7.376,1.676c-2.852,0-4.131-.1-4.131-2.069,0-.789.1-2.66,0.1-3.152,0.1-3.054.295-7.29,0.295-7.782,0.1-3.153.1-6.4,0.1-9.555,0-.689-0.2-1.576-0.983-1.576s-1.475,1.083-1.967,1.576c-1.869,2.266-5.9,7.388-7.376,9.653a2.067,2.067,0,0,1-1.476,1.379c-1.77,0-7.376-5.713-7.376-7.584,0-1.084,1.672-2.562,2.459-3.349,5.8-5.911,13.08-14.578,16.621-21.965a8.131,8.131,0,0,0,.59-3.843v-1.281c0-.984-0.393-2.068-1.573-2.068a8.4,8.4,0,0,0-1.673.3c-1.868.491-9.048,2.363-10.424,2.363s-1.869-1.279-2.262-2.363a40.6,40.6,0,0,1-1.574-7.486c0-1.478.984-1.675,2.262-1.675h1.377a56.632,56.632,0,0,0,10.818-.985,3.729,3.729,0,0,0,3.049-1.675c0.59-.985.492-2.856,0.492-4.038,0-3.349.2-6.7,0.2-10.047,0-1.38-.1-2.463-0.1-3.152a1.2,1.2,0,0,1,1.475-1.379C205.16,233.8,213.028,234.785,214.208,235.08Zm65.6,35.953a74.078,74.078,0,0,0,9.048-2.956c8.753-3.151,19.08-7.091,28.325-7.091,11.506,0,20.456,7.387,20.456,19.307,0,12.213-8.95,19.7-19.276,24.133-3.443,1.477-11.507,4.137-15.146,4.137-3.245,0-4.622-6.7-4.622-7.487,0-1.675,1.868-1.873,3.147-1.969a44.19,44.19,0,0,0,16.817-4.926c5.213-2.954,9.639-7.781,9.639-14.086,0-6.4-5.016-9.947-11.015-9.947-9.54,0-22.325,5.417-30.685,9.947a5.163,5.163,0,0,1-2.754.986c-2.557,0-6.1-5.91-6.1-7.978C277.644,271.822,278.726,271.329,279.807,271.033Zm93.431-34.279a36.63,36.63,0,0,1,4.721-.492c2.753,0,2.557,1.478,2.753,3.744a134.859,134.859,0,0,0,3.049,17.631c0.295,1.279.59,2.955,2.262,2.955,1.77,0,17.506-9.259,20.063-10.933a6.274,6.274,0,0,1,2.557-.986c1.279,0,2.951,2.955,3.541,3.94,0.787,1.281,2.852,4.63,2.852,6.009,0,0.986-1.082,1.28-1.869,1.576-7.081,2.364-17.6,7.684-24.292,11.328-5.212,2.857-13.572,7.683-17.7,11.623-2.557,2.462-4.819,5.121-4.819,8.865,0,3.546,3.442,6.009,6.49,7.093a39.287,39.287,0,0,0,13.081,1.774,148.17,148.17,0,0,0,25.669-2.563,2.7,2.7,0,0,1,.885-0.1c1.376,0,1.475,4.038,1.475,6.108v1.183c0,2.56-.1,3.643-2.065,4.136-3.738.986-22.325,1.576-27.046,1.576-7.278,0-13.67-.394-20.162-4.235a17.344,17.344,0,0,1-9.047-15.171c0-10.735,8.851-17.729,17.014-23.047a3.062,3.062,0,0,0,1.672-2.562,3.382,3.382,0,0,0-.394-1.774c-1.18-3.546-3.934-13.987-4.917-18.026a62.743,62.743,0,0,0-1.869-6.5,5.181,5.181,0,0,1-.295-1.182C366.845,237.248,370.091,237.248,373.238,236.754Zm91.956,4.728c3.246,0.1,6.59-.2,9.934-0.2,2.163,0,2.065.789,2.065,4.137,0,3.251,0,4.039-2.065,4.039-3.344,0-6.59-.2-9.934-0.2H464.8c-1.672,0-2.36.69-2.36,2.364v1.479a2.05,2.05,0,0,0,2.36,2.364c1.868,0.1,3.639-.2,5.507-0.2,2.361,0,4.033.788,4.033,3.448,0,1.576-.1,3.152-0.1,4.727v17.435c0,1.675.1,3.251,0.1,4.826,0,2.561-1.574,3.349-3.934,3.349-1.869,0-3.836-.2-5.7-0.1-1.574,0-2.262.69-2.262,2.365V292.8c0,1.675.688,2.365,2.262,2.365h0.885c3.343,0,6.786-.2,10.228-0.2,2.163,0,2.163.886,2.163,4.138,0,3.15,0,4.137-2.065,4.137-3.442,0-6.884-.2-10.326-0.2H465.1c-1.869,0-2.655.69-2.655,2.66-0.1,3.349.2,6.8,0.2,10.146,0,3.153-.885,3.25-4.917,3.25-3.737,0-4.819-.1-4.819-3.054,0-3.447.2-6.895,0.2-10.342,0-1.97-.886-2.66-2.656-2.66h-0.787c-3.343,0-6.786.2-10.228,0.2-2.163,0-2.163-.887-2.163-4.137s0-4.138,2.065-4.138c3.442,0,6.884.2,10.326,0.2h1.181c1.573,0,2.262-.69,2.262-2.365v-1.476c0-1.675-.689-2.365-2.262-2.365-1.869-.1-3.639.1-5.508,0.1-2.655,0-4.032-.788-4.032-3.643,0-1.38.1-2.956,0.1-4.532V263.448c0-1.575-.1-3.053-0.1-4.432,0-2.758,1.278-3.743,3.934-3.743,1.77,0,3.639.3,5.507,0.2,1.574,0,2.262-.789,2.262-2.364v-1.479c0-1.674-.688-2.364-2.262-2.364-3.344-.1-6.687.2-10.031,0.2-2.262,0-2.164-.885-2.164-4.137,0-3.152,0-4.039,2.164-4.039,3.245,0,6.392.3,9.638,0.2,1.868,0,2.655-.886,2.655-2.758a30.358,30.358,0,0,0-.3-6.008,2.464,2.464,0,0,1-.1-0.788c0-1.084.787-1.281,1.672-1.281,0.983,0,7.179.591,8.458,0.69,0.688,0.1,1.868.2,1.868,1.083,0,0.591-.491.886-1.18,1.282-0.983.689-1.082,1.773-.983,5.22C462.441,240.793,463.424,241.482,465.194,241.482Zm0.295,24.034a2.275,2.275,0,0,0-2.36-2.364H452.507a2.222,2.222,0,0,0-2.36,2.364v0.691a2.147,2.147,0,0,0,2.36,2.265h10.622a2.2,2.2,0,0,0,2.36-2.265v-0.691Zm-12.982,10.246a2.147,2.147,0,0,0-2.36,2.265v0.888a2.22,2.22,0,0,0,2.36,2.362h10.622a2.273,2.273,0,0,0,2.36-2.362v-0.888a2.2,2.2,0,0,0-2.36-2.265H452.507Zm34.127-14.184a3.5,3.5,0,0,0-.2.984,1.559,1.559,0,0,0,1.671,1.477c2.164,0.1,4.229.1,6.393,0.1h16.031c1.671,0,3.048.2,4.229,1.477,1.081,1.084,2.655,3.646,2.655,5.222,0,1.182-1.475,2.167-2.459,2.955-5.31,4.333-25.275,23.147-25.275,29.452,0,4.53,5.8,4.235,8.95,4.235,11.506,0,15.047,1.281,16.522-11.919,0.2-1.28.2-2.857,2.164-2.857,1.18,0,7.277.887,7.277,3.744,0,3.052-1.573,9.063-2.852,11.919-3.54,8.076-9.244,8.963-17.21,8.963-2.164,0-4.524-.1-6.983-0.1-9.343,0-19.178.591-19.178-12.018,0-6.01,4.229-11.623,7.868-16.155a135.093,135.093,0,0,1,12.982-14.085,1.469,1.469,0,0,0,.393-0.886,1.2,1.2,0,0,0-1.278-.984H494.5c-3.54,0-7.179.2-9.343,0.2s-2.065-1.181-2.065-3.448c-0.2-1.576-1.18-2.069-2.459-2.66-1.475-.591-5.606-2.561-5.606-4.333,0-.985,1.672-3.743,2.262-4.926a100.392,100.392,0,0,0,9.343-25.314c0.2-.985.393-1.872,1.475-1.872,0.984,0,6.1,1.28,7.278,1.575,1.377,0.3,3.443.69,3.443,1.775a1.727,1.727,0,0,1-1.181,1.28c-1.18.591-1.279,0.886-2.065,3.546-0.2.688-.492,1.477-0.787,2.462,0,0.2-.1.493-0.1,0.69a1.772,1.772,0,0,0,2.065,1.773h14.26c3.639,0,7.377-.2,11.015-0.2,2.361,0,2.262,1.183,2.262,4.827s0.1,4.826-2.262,4.826c-3.638,0-7.277-.195-11.015-0.195h-17.7c-2.065,0-2.951.491-3.737,2.265C488.6,257.539,487.716,259.608,486.634,261.578Zm60.289-6.107c-0.885.59-.984,0.885-1.181,3.347,0,0.691-.1,1.577-0.2,2.66-0.394,4.432-1.082,11.821-2.164,15.958a1.753,1.753,0,0,1-1.868,1.577c-1.181,0-5.213-.69-5.213-2.562a20.274,20.274,0,0,1,.492-2.364,96.533,96.533,0,0,0,2.262-19.11c0-1.477-.2-2.463,1.278-2.463a29.533,29.533,0,0,1,4.131.494c1.377,0.294,3.245.393,3.245,1.379A1.155,1.155,0,0,1,546.923,255.471Zm11.31,25.117a6.941,6.941,0,0,0-.1,1.379,7.234,7.234,0,0,0,.689,2.954,74.914,74.914,0,0,0,9.835,15.269,2.937,2.937,0,0,1,.786,1.675c0,1.773-4.72,6.3-6.687,6.3-1.672,0-5.41-7.486-6.2-9.061a1.131,1.131,0,0,0-.885-0.592,1.072,1.072,0,0,0-.984.688c-1.869,6.208-4.524,12.708-8.359,17.93-0.787,1.084-1.279,1.773-2.262,1.773-1.377,0-7.081-3.153-7.081-5.418a3.905,3.905,0,0,1,1.081-1.97c9.343-12.8,11.507-29.157,11.507-44.623V239.61a35.305,35.305,0,0,0-.295-6.7c0-.2-0.1-0.592-0.1-0.887,0-1.084.885-1.28,1.77-1.28,1.18,0,7.179.492,8.458,0.591,0.688,0.1,1.573.2,1.573,1.083,0,0.591-.491.886-1.18,1.38-0.885.788-.983,2.857-0.983,6.008V253.8a0.8,0.8,0,0,0,.786.887,0.742,0.742,0,0,0,.689-0.395c0.885-1.378,1.77-2.856,2.557-4.333,0.393-.493.787-1.281,1.475-1.281,0.885,0,7.081,5.812,7.081,6.994a1.137,1.137,0,0,1-1.18,1.181h-0.492a1.579,1.579,0,0,0-1.278.593c-2.655,3.053-2.754,3.84-7.966,9.454a5.326,5.326,0,0,0-1.771,4.138C558.626,274.284,558.528,277.436,558.233,280.588ZM601.407,299.9a0.921,0.921,0,0,0-.786,1.082v5.616c0,3.151.2,6.3,0.2,9.554,0,2.858-1.081,2.858-4.917,2.858-3.639,0-4.917,0-4.917-2.858,0-2.757.294-6.009,0.294-9.554v-5.812a0.832,0.832,0,0,0-.786-0.985,0.9,0.9,0,0,0-.689.294,63.651,63.651,0,0,1-16.719,15.368,6.237,6.237,0,0,1-2.95,1.379c-1.672,0-5.606-4.432-5.606-6.2,0-1.084,1.377-1.675,2.754-2.562a68.991,68.991,0,0,0,16.227-13.988,1.747,1.747,0,0,0,.393-0.984c0-.886-0.688-1.084-1.376-1.182h-2.951c-3.344,0-6.688.2-10.031,0.2-2.262,0-2.164-.886-2.164-4.137s-0.1-4.236,2.164-4.236c3.343,0,6.687.2,10.031,0.2h9.343c1.475,0,2.164-.589,2.164-2.165a16.373,16.373,0,0,1-.2-2.069c0-1.084.787-1.281,1.672-1.281,1.869,0,6.2.395,8.163,0.592,0.787,0.1,2.36.1,2.36,1.18,0,0.593-.492.789-1.278,1.281a2.489,2.489,0,0,0-.984,1.477c0,0.789.885,0.985,1.475,0.985h10.524c3.344,0,6.687-.2,10.031-0.2,2.262,0,2.164.984,2.164,4.236,0,3.349,0,4.137-2.164,4.137-3.344,0-6.687-.2-10.031-0.2h-4.131a1.311,1.311,0,0,0-1.377,1.182,1.776,1.776,0,0,0,.394.886,109.463,109.463,0,0,0,16.325,14.579c0.689,0.492,1.869,1.181,1.869,2.166,0,1.872-4.426,5.911-6.2,5.911-3.245,0-15.146-13.4-17.506-16.353A0.9,0.9,0,0,0,601.407,299.9Zm-7.671-29.747c0,1.28.1,2.56,0.1,3.841,0,2.757-1.278,3.94-3.933,3.94-1.672,0-3.344-.2-5.016-0.2h-5.508c-1.672,0-3.343.2-5.015,0.2-2.656,0-4.033-1.084-4.033-3.842,0-1.28.2-2.659,0.2-3.939v-6.01c0-1.379-.2-2.66-0.2-3.94,0-2.757,1.377-3.842,4.033-3.842,1.672,0,3.343.2,5.015,0.2h5.508c1.672,0,3.245-.2,4.917-0.2,2.754,0,4.032,1.085,4.032,3.842,0,1.38-.1,2.66-0.1,3.94v6.01ZM577.8,268.077c0.2,1.677,1.081,2.661,2.754,2.661h2.851c1.673,0,2.558-.984,2.754-2.661v-2.068c-0.2-1.674-1.081-2.659-2.754-2.659h-2.851c-1.673,0-2.557.985-2.754,2.659v2.068Zm35.307-22.85c0,1.574.2,2.855,0.2,4.136,0,2.856-1.968,3.645-4.524,3.645-2.164,0-4.328-.2-6.492-0.2H589.606c-2.164,0-4.328.2-6.393,0.2-2.557,0-4.524-.789-4.524-3.645,0-1.281.1-2.562,0.1-4.136v-4.04c0-1.674-.1-2.856-0.1-4.136,0-2.858,1.869-3.645,4.426-3.645,2.163,0,4.327.1,6.491,0.1h12.686c2.164,0,4.328-.1,6.492-0.1,2.556,0,4.524.69,4.524,3.645,0,1.28-.2,2.462-0.2,4.136v4.04Zm-25.866-1.578a2.275,2.275,0,0,0,2.361,2.365h12.883a2.221,2.221,0,0,0,2.36-2.365v-0.984a2.221,2.221,0,0,0-2.36-2.364H589.606a2.274,2.274,0,0,0-2.361,2.364v0.984Zm34.815,26.6c0,1.28.1,2.659,0.1,3.94,0,2.759-1.377,3.841-3.934,3.841-1.672,0-3.147-.2-5.016-0.2h-5.9c-1.868,0-3.344.2-4.917,0.2-2.655,0-4.032-1.082-4.032-3.841,0-1.281.1-2.66,0.1-3.94v-6.108c0-1.28-.1-2.56-0.1-3.94,0-2.659,1.278-3.742,3.835-3.742,1.77,0,3.442.1,5.114,0.1h5.9c1.672,0,3.344-.1,5.016-0.1,2.557,0,3.934,1.083,3.934,3.742,0,1.38-.1,2.66-0.1,3.94v6.108Zm-16.129-2.169a2.753,2.753,0,0,0,2.754,2.76h3.049a2.753,2.753,0,0,0,2.754-2.76v-1.969a2.817,2.817,0,0,0-2.754-2.758h-3.049a2.817,2.817,0,0,0-2.754,2.758v1.969Zm59.01,33.887a13.67,13.67,0,1,1-13.67-13.694A13.715,13.715,0,0,1,664.941,301.964Zm-22.423,0a8.753,8.753,0,1,0,17.506,0,8.656,8.656,0,0,0-8.753-8.768A8.78,8.78,0,0,0,642.518,301.964Z" transform="translate(-86.063 -114.906)"/>
</svg>
