<svg id="kv_ttl_w.svg" xmlns="http://www.w3.org/2000/svg" xmlns:xlink="http://www.w3.org/1999/xlink" width="395.91" height="206.25" viewBox="0 0 395.91 206.25">
  <defs>
    <style>
      .cls-1, .cls-2 {
        fill: #fff;
        fill-rule: evenodd;
      }

      .cls-2 {
        filter: url(#filter);
      }
    </style>
    <filter id="filter" x="918" y="303" width="290" height="104" filterUnits="userSpaceOnUse">
      <feOffset result="offset" in="SourceAlpha"/>
      <feGaussianBlur result="blur" stdDeviation="3.162"/>
      <feFlood result="flood" flood-opacity="0.8"/>
      <feComposite result="composite" operator="in" in2="blur"/>
      <feBlend result="blend" in="SourceGraphic"/>
    </filter>
  </defs>
  <path id="シェイプ_3" data-name="シェイプ 3" class="cls-1" d="M1193.58,448.106a1.03,1.03,0,0,1-1.03,1.032h-19.41a1.03,1.03,0,0,0-1.03,1.031v57.1a1.03,1.03,0,0,1-1.03,1.032h-9.81a1.03,1.03,0,0,1-1.03-1.032v-57.1a1.03,1.03,0,0,0-1.03-1.031h-19.22a1.03,1.03,0,0,1-1.03-1.032V440.53a1.031,1.031,0,0,1,1.03-1.033h52.56a1.031,1.031,0,0,1,1.03,1.033v7.576ZM1047.6,490.37c0.12,0.5.31,0.491,0.41-.01l10.22-49.951a1.183,1.183,0,0,1,1.11-.912h10.01a0.707,0.707,0,0,1,.72.907l-15.47,66.967a1.226,1.226,0,0,1-1.14.907h-9.58a1.268,1.268,0,0,1-1.16-.9l-12.63-48.416c-0.13-.5-0.34-0.5-0.47,0l-12.91,48.418a1.27,1.27,0,0,1-1.17.9h-9.62a1.226,1.226,0,0,1-1.14-.907L989.309,440.4a0.709,0.709,0,0,1,.722-0.907h10.009a1.2,1.2,0,0,1,1.12.911l10.3,49.859c0.11,0.5.3,0.5,0.42,0.008l12.69-49.876a1.259,1.259,0,0,1,1.16-.9h8.16a1.269,1.269,0,0,1,1.16.9ZM973.876,439.5H963.823a0.934,0.934,0,0,0-.931.931v44.7q0,14.553-13.806,14.551-6.808,0-10.307-3.637t-3.5-10.535V440.428a0.934,0.934,0,0,0-.932-0.931H924.3a0.934,0.934,0,0,0-.931.931v44.986q0,11.2,6.95,17.5t18.77,6.306q11.678,0,18.7-6.4t7.022-17.36V440.428A0.934,0.934,0,0,0,973.876,439.5Zm287.274,36.2a42.24,42.24,0,0,1-3.5,17.746,26.509,26.509,0,0,1-10,11.719,29.362,29.362,0,0,1-29.89,0,26.821,26.821,0,0,1-10.12-11.649,40.7,40.7,0,0,1-3.62-17.438V472.2a41.834,41.834,0,0,1,3.57-17.769,26.847,26.847,0,0,1,10.07-11.791,29.42,29.42,0,0,1,29.84-.048,26.424,26.424,0,0,1,10.05,11.626,41.637,41.637,0,0,1,3.6,17.651V475.7Zm-11.97-3.592q0-11.437-4.32-17.532t-12.28-6.1a14.123,14.123,0,0,0-12.13,6.073q-4.365,6.074-4.47,17.178v3.97q0,11.341,4.43,17.533a14.22,14.22,0,0,0,12.27,6.19q7.935,0,12.22-6.049t4.28-17.674v-3.592Zm-152.29,10.54a0.733,0.733,0,0,1-.69-0.976l9.3-26.595a0.36,0.36,0,0,1,.68,0l18.28,52.256a1.459,1.459,0,0,0,1.38.975h10.41a0.713,0.713,0,0,0,.67-0.966l-25.33-66.876a1.476,1.476,0,0,0-1.39-.966h-8.67a1.5,1.5,0,0,0-1.4.966l-25.28,66.876a0.713,0.713,0,0,0,.67.966h10.37a1.456,1.456,0,0,0,1.37-.975l4.9-14.071a1.457,1.457,0,0,1,1.37-.975h19.15a0.781,0.781,0,0,0,.92-0.918,9.645,9.645,0,0,0-9.6-8.722h-7.11ZM904.918,478.2a0.933,0.933,0,0,1-.931.93H878.143a0.934,0.934,0,0,0-.931.931v27.285a0.933,0.933,0,0,1-.931.931h-10.1a0.933,0.933,0,0,1-.931-0.931V440.428a0.934,0.934,0,0,1,.931-0.931h41.872a0.934,0.934,0,0,1,.931.931V448.2a0.934,0.934,0,0,1-.931.93h-29.91a0.934,0.934,0,0,0-.931.931v18.594a0.934,0.934,0,0,0,.931.93h25.844a0.933,0.933,0,0,1,.931.93V478.2Z" transform="translate(-865.25 -303)"/>
  <path id="シェイプ_4" data-name="シェイプ 4" class="cls-2" d="M932.145,337.937c0,5.28.865,5.15,6.832,5.15,3.588,0,10.419-.086,13.791-0.778a4.335,4.335,0,0,1,1.039-.174c0.778,0,.908,1.039.908,2.251,0,1.515-.044,2.51-1.384,2.684-2.984.432-11.846,0.474-15.176,0.474-2.9,0-7.739.174-9.556-2.509-1.123-1.6-1.167-4.934-1.167-6.882V322.011a31.858,31.858,0,0,0-.215-4.544v-0.345a0.478,0.478,0,0,1,.474-0.477c0.39,0,3.676.692,4.325,0.822,0.345,0.043.95,0.13,0.95,0.563a1.051,1.051,0,0,1-.388.648,4.533,4.533,0,0,0-.476,2.641c0,0.692.043,1.471,0.043,2.251v4.2c0,0.865.779,1.082,1.513,1.082,4.627,0,12.712-2.684,16.646-5.152a2.7,2.7,0,0,1,.736-0.3c0.474,0,1.513,1.688,1.772,2.077a9.9,9.9,0,0,1,1.341,2.337,0.538,0.538,0,0,1-.605.433c-0.26,0-.649-0.087-0.952-0.087a4.5,4.5,0,0,0-1.47.477c-6.1,2.553-10.939,4.112-17.6,4.457a1.255,1.255,0,0,0-1.384,1.213v3.634Zm57.706-7.919c1.989,0,4.8-.13,5.361-0.13,1.168,0,1.211.346,1.211,2.726,0,1.385-.043,2.208-1.167,2.208-1.816,0-3.632-.086-5.4-0.086H969.962c-1.772,0-3.589.086-5.4,0.086-1.125,0-1.167-.823-1.167-2.164,0-2.424.086-2.77,1.21-2.77,0.562,0,3.546.13,5.361,0.13h19.889Zm25.389-2.726c0.86,0,5.18,3.418,6.05,4.153,0.6,0.521,3.03,2.381,3.03,3.117s-2.04,2.986-2.9,2.986a1.554,1.554,0,0,1-.95-0.564,65.283,65.283,0,0,0-6.27-5.062,0.774,0.774,0,0,0-.43-0.173,0.578,0.578,0,0,0-.52.692v11.814c0,1.732.08,3.42,0.08,5.151,0,1.99-.04,2.25-2.68,2.25-1.73,0-2.46-.043-2.46-1.471,0-1.947.13-3.895,0.13-5.843V319.675c0-1.125-.09-2.293-0.13-3.377,0-.216-0.04-0.605-0.04-0.777,0-.433.12-0.651,0.56-0.651,0.26,0,1.16.131,1.47,0.174,1.94,0.26,3.72.432,3.72,1.038a1.238,1.238,0,0,1-.22.563,3.475,3.475,0,0,0-.48,2.293c0,0.65.05,1.472,0.05,2.554v6.492a0.363,0.363,0,0,0,.34.432,0.462,0.462,0,0,0,.39-0.173A2.23,2.23,0,0,1,1015.24,327.292Zm29.77,8.091a0.681,0.681,0,0,1-.48.435,1.97,1.97,0,0,0-1.34.994c-0.99,1.212-6.22,7.314-7.48,7.314-0.73,0-3.06-2.077-3.06-2.9a1.98,1.98,0,0,1,.99-1.082,23.905,23.905,0,0,0,5.97-6.534,1.353,1.353,0,0,1,.82-0.865,17.476,17.476,0,0,1,2.94,1.341C1043.76,334.3,1045.01,334.909,1045.01,335.383Zm2.38-10.731a1.2,1.2,0,0,0,1.21-1.428v-0.607a40.8,40.8,0,0,0-.17-5.063c0-.172-0.05-0.346-0.05-0.519,0-.519.35-0.606,0.78-0.606,0.74,0,2.16.26,2.98,0.347,1,0.129,1.99.173,1.99,0.648a0.716,0.716,0,0,1-.34.563c-0.56.563-.61,0.865-0.61,2.9v2.337a1.205,1.205,0,0,0,1.21,1.428h6.79c1.86,0,3.76-.088,5.67-0.088,1.12,0,1.07.607,1.07,2.511,0,1.558-.04,2.121-1.16,2.121-1.86,0-3.72-.086-5.58-0.086h-6.7a1.3,1.3,0,0,0-1.3,1.3v10.127c0,0.864.05,1.687,0.05,2.552,0,2.337,0,4.371-2.43,5.584a13.3,13.3,0,0,1-4.67,1.254c-0.69,0-.99-0.433-1.55-1.514a7.934,7.934,0,0,1-.82-2.337c0-.692.99-0.65,1.51-0.692,3.5-.261,3.33-1.6,3.33-4.718V330.408a1.274,1.274,0,0,0-1.3-1.3h-6.66c-1.81,0-3.63.086-5.44,0.086-1.13,0-1.13-.736-1.13-2.164,0-1.774-.04-2.468,1.08-2.468s3.72,0.088,5.49.088h6.75Zm17.68,11.684c0.69,0.693,3.81,3.721,3.81,4.545,0,0.908-2.3,2.985-2.99,2.985a1.606,1.606,0,0,1-1.03-.821,42.671,42.671,0,0,0-6.45-6.622,1.462,1.462,0,0,1-.73-0.953c0-.648,1.77-2.812,2.68-2.812C1061.35,332.658,1064.25,335.557,1065.07,336.336Zm5.71-18.436a4.3,4.3,0,1,1-8.6,0,4.263,4.263,0,0,1,4.28-4.284A4.331,4.331,0,0,1,1070.78,317.9Zm-6.62,0a2.3,2.3,0,0,0,2.3,2.337,2.315,2.315,0,1,0,0-4.63A2.285,2.285,0,0,0,1064.16,317.9Zm46.14,10.473c0,0.737-1.73,2.424-2.29,2.985a75.206,75.206,0,0,1-23.48,16.317c-1.43.693-1.47,0.736-1.82,1.471a0.422,0.422,0,0,1-.43.26c-0.47,0-1.38-1.731-1.68-2.25a12.148,12.148,0,0,1-1.3-2.6c0-.476.78-0.564,1.34-0.735,9.55-2.814,20.36-10.993,26.5-18.826a1.089,1.089,0,0,1,.74-0.476C1108.74,324.522,1110.3,327.724,1110.3,328.373Zm-22.31-7.14c0.56,0.388,2.64,1.817,2.64,2.465,0,1-2.04,3.334-2.86,3.334a4.739,4.739,0,0,1-1.73-1.169,53.482,53.482,0,0,0-5.75-4.025,1.1,1.1,0,0,1-.69-0.822c0-.65,1.73-3.419,2.73-3.419C1083.02,317.6,1087.17,320.627,1087.99,321.233Zm53.91-1.04c0.73,0,1.77-.086,2.16-0.086,0.87,0,1.51.823,2.08,1.385,0.39,0.39,1.47,1.429,1.47,1.991,0,0.389-.35.821-0.65,2.509-1.43,8.137-4.63,13.85-11.46,18.61a40.519,40.519,0,0,1-8.3,4.457,5.3,5.3,0,0,1-1.43.347c-1.04,0-2.55-2.9-2.55-3.592a0.762,0.762,0,0,1,.78-0.693,30.77,30.77,0,0,0,10.76-5.712,20.318,20.318,0,0,0,7.05-12.594,8.884,8.884,0,0,0,.13-1.083c0-.82-0.73-0.907-1.51-0.907h-15.39c-1.82,0-3.59.087-5.41,0.087-1.3,0-1.3-.39-1.3-2.338,0-1.99-.04-2.467,1.22-2.467,1.86,0,3.71.086,5.57,0.086h16.78Zm12.45-3.158a4.3,4.3,0,1,1-4.32-4.284A4.3,4.3,0,0,1,1154.35,317.035Zm-6.61,0a2.31,2.31,0,0,0,4.62,0A2.31,2.31,0,1,0,1147.74,317.035Zm36.59,4.327h6.27c1.77,0,3.59-.087,5.36-0.087,1.04,0,1,.563,1,2.121,0,1.6.04,2.164-1,2.164-1.77,0-3.59-.087-5.36-0.087h-5.84a0.867,0.867,0,0,0-1.04.909V326.6a64.684,64.684,0,0,0,4.63,16.791c0.39,0.824,1.77,3.722,2.77,3.722,1.51,0,1.99-4.2,2.07-5.323,0.09-.736.09-1.254,1-1.254a3.809,3.809,0,0,1,1.68.388,1.555,1.555,0,0,1,1.17,1.6,17.728,17.728,0,0,1-.73,4.242c-0.74,2.51-2.04,5.28-5.02,5.28-2.64,0-4.41-2.51-5.62-4.5-3.42-5.582-5.4-14.5-6.36-20.945a1.125,1.125,0,0,0-1.34-1.126h-12.79c-1.78,0-3.55.087-5.37,0.087-1.03,0-.99-0.519-0.99-2.121,0-1.644-.04-2.164.99-2.164,1.82,0,3.59.087,5.37,0.087h12.36a0.976,0.976,0,0,0,1.13-1.169c0-.042-0.39-5.626-0.39-5.712a0.764,0.764,0,0,1,.95-0.778c0.26,0,3.02.172,3.46,0.216,0.39,0,1.16.13,1.16,0.648a0.872,0.872,0,0,1-.64.694,1.062,1.062,0,0,0-.35.994c0,0.65.13,3.16,0.22,3.982A1.059,1.059,0,0,0,1184.33,321.362ZM1171.57,343a0.876,0.876,0,0,0,.87.994h0.3c0.69-.171,6.4-1.471,6.44-1.471,0.83,0,.87,2.078.87,2.64a1.142,1.142,0,0,1-1.08,1.343c-3.46,1-11.85,2.725-15.48,3.288-1.25.217-1.43,0.217-1.64,0.866a0.563,0.563,0,0,1-.52.52c-0.48,0-.65-0.347-0.87-1.083-0.17-.476-1.03-3.115-1.03-3.418,0-.606.69-0.693,2.37-0.866,1.04-.13,2.47-0.217,4.37-0.607a1.176,1.176,0,0,0,1.12-1.383v-7.618a1.059,1.059,0,0,0-1.21-1.211h-0.21c-1.43,0-2.9.129-4.37,0.129-0.99,0-.95-0.562-0.95-2.121,0-1.514-.04-2.119.91-2.119,1.38,0,2.94.086,4.41,0.086h6.7c1.51,0,3.07-.086,4.41-0.086,0.95,0,.91.561,0.91,2.119s0.04,2.121-.91,2.121c-1.43,0-2.81-.129-4.2-0.129a1.094,1.094,0,0,0-1.21,1.211V343Zm19.2-21.9a0.921,0.921,0,0,1-.73-0.518c-1.21-1.515-2.47-2.987-3.76-4.415a1.306,1.306,0,0,1-.52-0.779c0-.736,2.07-2.078,2.76-2.078a1.107,1.107,0,0,1,.78.391c1.21,1.211,2.34,2.552,3.46,3.894a3.376,3.376,0,0,1,.91,1.341C1193.67,319.675,1191.46,321.1,1190.77,321.1ZM954.694,381.424v8.18a0.636,0.636,0,0,0,.658.758h0.2c2.142-.461,4.251-1.022,6.359-1.682a2.633,2.633,0,0,1,.494-0.1c0.791,0,.791,1.187.791,1.747,0,1.221-.2,1.254-0.626,1.385-3.823,1.155-10.049,2.606-13.971,3.3-0.889.165-.823,0.2-0.989,0.593a0.427,0.427,0,0,1-.394.265c-0.363,0-.5-0.364-0.89-1.32a16.472,16.472,0,0,1-.725-2.143c0-.364.494-0.364,0.856-0.4,1.384-.2,2.769-0.429,4.153-0.66a0.931,0.931,0,0,0,.824-1.055v-5.936a0.431,0.431,0,0,0-.4-0.5,0.5,0.5,0,0,0-.3.131c-0.758.594-4.218,3.266-4.942,3.266-0.627,0-1.845-1.616-1.845-2.242a1.651,1.651,0,0,1,1.054-.924,44.623,44.623,0,0,0,10.148-8.64,0.591,0.591,0,0,0,.132-0.3,0.428,0.428,0,0,0-.494-0.4h-6.03c-1.318,0-2.6.065-3.888,0.065-0.824,0-.79-0.362-0.79-1.583s-0.034-1.615.79-1.615c1.285,0,2.57.1,3.888,0.1h7.25a0.807,0.807,0,0,0,.922-0.923v-0.857a16.166,16.166,0,0,0-.132-2.54,0.917,0.917,0,0,1-.033-0.3c0-.362.329-0.4,0.626-0.4,0.593,0,2.241.133,2.866,0.231,0.231,0,.924.066,0.924,0.429a0.7,0.7,0,0,1-.429.493,1.253,1.253,0,0,0-.395,1.288v1.649a0.785,0.785,0,0,0,.889.923h7.315c1.285,0,2.57-.1,3.888-0.1,0.825,0,.758.4,0.758,1.615s0.033,1.583-.758,1.583c-1.318,0-2.6-.065-3.888-0.065H962.8a0.678,0.678,0,0,0-.792.659v0.2a24.3,24.3,0,0,0,1.516,5.211,0.649,0.649,0,0,0,.528.43,0.725,0.725,0,0,0,.494-0.2,49.305,49.305,0,0,0,3.855-3.6,1.325,1.325,0,0,1,.66-0.56,5.254,5.254,0,0,1,1.549,1.22c0.164,0.165.362,0.33,0.493,0.463a1.87,1.87,0,0,1,.725.856,0.319,0.319,0,0,1-.362.33c-0.165,0-.33-0.032-0.494-0.032a0.492,0.492,0,0,0-.362.131,49.421,49.421,0,0,1-4.647,4.057,0.885,0.885,0,0,0-.428.692,1.068,1.068,0,0,0,.2.6,29.179,29.179,0,0,0,6.82,7.419,2.261,2.261,0,0,1,.791.892,3.906,3.906,0,0,1-2.274,2.242c-0.824,0-5.042-4.651-5.733-5.508a32.033,32.033,0,0,1-6.26-13.687,0.42,0.42,0,0,0-.363-0.329,0.471,0.471,0,0,0-.363.165,44.865,44.865,0,0,1-3.1,3.529A1.762,1.762,0,0,0,954.694,381.424Zm31.194,9a0.541,0.541,0,0,0-.428.264c-1.319,2.143-4.481,5.408-5.47,5.408-0.692,0-2.043-1.814-2.043-2.309a0.586,0.586,0,0,1,.363-0.428,12.522,12.522,0,0,0,5.074-5.311,1.014,1.014,0,0,0,.066-0.263,0.611,0.611,0,0,0-.692-0.561h-0.231c-1.087,0-2.208.066-3.328,0.066-0.791,0-.758-0.3-0.758-1.451s-0.033-1.483.758-1.483c1.12,0,2.241.065,3.328,0.065h0.627a0.777,0.777,0,0,0,.922-0.825c0-.626-0.033-1.122-0.033-1.351a0.459,0.459,0,0,1,.527-0.562c0.462,0,1.484.066,1.944,0.1,1.12,0.1,1.417.165,1.417,0.429a0.689,0.689,0,0,1-.4.461,0.783,0.783,0,0,0-.331.891,0.752,0.752,0,0,0,.891.857h0.692c1.12,0,2.241-.065,3.361-0.065,0.791,0,.758.362,0.758,1.483,0,1.154,0,1.451-.758,1.451-1.12,0-2.241-.066-3.361-0.066h-0.3a0.48,0.48,0,0,0-.527.429,0.435,0.435,0,0,0,.1.33,20.809,20.809,0,0,0,3.229,3.6,0.619,0.619,0,0,1,.362.527,3.477,3.477,0,0,1-2.01,2.078c-0.79,0-2.833-2.8-3.295-3.5A0.522,0.522,0,0,0,985.888,390.429Zm3.1-15.3a0.49,0.49,0,0,0,.133.3,20.1,20.1,0,0,0,3.427,3.034,1.084,1.084,0,0,1,.593.66,3.333,3.333,0,0,1-1.944,1.946c-0.726,0-3.065-3.232-3.56-3.925a0.238,0.238,0,0,0-.231-0.132,0.281,0.281,0,0,0-.229.264c0.031,0.923.065,1.881,0.065,2.8,0,0.891-.3.924-1.549,0.924-1.318,0-1.549-.033-1.549-1.055,0-.528.067-1.352,0.067-2.573a0.243,0.243,0,0,0-.231-0.3,0.282,0.282,0,0,0-.23.165c-0.5.758-3.131,4.32-3.922,4.32a3.413,3.413,0,0,1-1.845-1.979,1.049,1.049,0,0,1,.528-0.66,16.293,16.293,0,0,0,3.591-3.462,0.463,0.463,0,0,0,.1-0.3,0.426,0.426,0,0,0-.5-0.4c-0.494,0-2.142.065-2.5,0.065-0.658,0-.625-0.4-0.625-1.451,0-1.022-.033-1.418.625-1.418,1.022,0,2.044.067,3.064,0.067h1.055a0.775,0.775,0,0,0,.89-0.924v-1.913a11.351,11.351,0,0,0-.1-1.814v-0.3c0-.363.23-0.429,0.527-0.429,0.461,0,2.109.165,2.636,0.2,0.264,0.033.659,0.033,0.659,0.395,0,0.231-.132.231-0.428,0.43-0.363.229-.329,0.56-0.329,2.44V371.1a0.784,0.784,0,0,0,.922.924h1.186c1.021,0,2.043-.067,3.065-0.067,0.658,0,.625.4,0.625,1.451,0,1.022.033,1.418-.625,1.418-0.956,0-1.911-.1-2.867-0.065A0.425,0.425,0,0,0,988.985,375.126Zm-7.578-3.463a0.976,0.976,0,0,1-.724-0.727c-0.429-.726-0.891-1.384-1.385-2.078a0.6,0.6,0,0,1-.164-0.395c0-.561,1.713-1.253,2.042-1.253,0.462,0,1.022.989,1.285,1.386a8.019,8.019,0,0,1,.956,1.813C983.417,370.97,981.737,371.663,981.407,371.663Zm10.775-2.738a1.177,1.177,0,0,0-.659.758c-1.121,1.88-1.318,2.045-1.647,2.045-0.429,0-1.912-.726-1.912-1.121a1.146,1.146,0,0,1,.263-0.528,15.8,15.8,0,0,0,1.385-2.406,0.491,0.491,0,0,1,.395-0.364,8.5,8.5,0,0,1,1.582.593c0.725,0.3,1.054.4,1.054,0.694A0.414,0.414,0,0,1,992.182,368.925ZM999,392.9c-0.1,0-.231-0.033-0.3-0.033a1.429,1.429,0,0,1-.165-0.033,0.664,0.664,0,0,0-.4.2c-0.823.661-4.58,3.168-5.5,3.168-0.659,0-1.812-1.551-1.812-2.046a1.055,1.055,0,0,1,.79-0.626,24.408,24.408,0,0,0,4.746-2.969,1.211,1.211,0,0,1,.56-0.33,8.882,8.882,0,0,1,2.042,1.749,1.273,1.273,0,0,1,.4.626A0.337,0.337,0,0,1,999,392.9Zm1.618-20.416a0.5,0.5,0,0,0,.46.792h1.42c0.72,0,1.44-.065,2.14-0.065,1.12,0,1.58.3,1.58,1.45,0,0.859-.07,1.683-0.07,2.507v8.839c0,0.857.07,1.681,0.07,2.507a1.23,1.23,0,0,1-1.48,1.45c-0.76,0-1.49-.033-2.24-0.033h-4.882c-0.724,0-1.449.033-2.174,0.033-1.088,0-1.517-.329-1.517-1.45,0-.858.034-1.682,0.034-2.507V377.17c0-.824-0.034-1.648-0.034-2.474,0-1.187.462-1.483,1.582-1.483h0.429a1.132,1.132,0,0,0,1.219-.693c0.2-.363.363-0.693,0.561-1.056a0.991,0.991,0,0,0,.065-0.3,0.548,0.548,0,0,0-.626-0.527c-1.121,0-2.274.1-3.3,0.1-0.692,0-.692-0.365-0.692-1.551s0-1.55.692-1.55c1.087,0,2.174.066,3.262,0.066h6.586c1.09,0,2.18-.066,3.27-0.066,0.69,0,.66.428,0.66,1.55s0.03,1.551-.66,1.551c-1.02,0-2.18-.1-3.27-0.1h-1.21a1.227,1.227,0,0,0-1.29.758Zm2.3,4.321a0.762,0.762,0,0,0-.79-0.791h-4.05a0.744,0.744,0,0,0-.791.791v0.5a0.744,0.744,0,0,0,.791.792h4.05a0.762,0.762,0,0,0,.79-0.792v-0.5Zm-4.84,3.76a0.744,0.744,0,0,0-.791.791v0.4a0.727,0.727,0,0,0,.791.792h4.05a0.744,0.744,0,0,0,.79-0.792v-0.4a0.762,0.762,0,0,0-.79-0.791h-4.05Zm0.131,4.453a0.856,0.856,0,0,0-.922.89v0.3a0.881,0.881,0,0,0,.922.923H1002a0.937,0.937,0,0,0,.92-0.923v-0.3a0.868,0.868,0,0,0-.92-0.89h-3.789Zm8.069,11.181c-0.75,0-5.47-3.431-5.47-4.091a3.441,3.441,0,0,1,1.92-1.813,1.013,1.013,0,0,1,.59.4,22.648,22.648,0,0,0,4.18,2.8,0.857,0.857,0,0,1,.56.561C1008.06,394.684,1006.94,396.2,1006.28,396.2Zm27.18-21.834c1.39,0,2.77-.066,4.15-0.066,0.89,0,.93.4,0.93,1.913,0,1.187.03,1.648-.96,1.648-1.38,0-2.73-.065-4.12-0.065h-1.51a1.17,1.17,0,0,0-1.03,1.286c-0.46,6-2.3,10.554-7.08,14.413-0.56.463-2.5,1.946-3.2,1.946a4.474,4.474,0,0,1-2.47-2.308,0.93,0.93,0,0,1,.56-0.6c3.53-1.979,6.53-4.551,7.71-8.543a23.717,23.717,0,0,0,.93-5.242,0.915,0.915,0,0,0-.93-0.957h-4.35a1.4,1.4,0,0,0-1.45.759c-0.66,1.022-4.31,6.2-5.3,6.2-0.66,0-2.77-1.286-2.77-1.978a1.34,1.34,0,0,1,.53-0.693,28.537,28.537,0,0,0,8.27-14.379c0.07-.363.13-0.759,0.43-0.759s2.47,0.693,2.93.824c0.3,0.1,1.12.3,1.12,0.628a0.552,0.552,0,0,1-.36.4,3.068,3.068,0,0,0-1.09,1.879c-0.2.593-.46,1.386-0.92,2.441a1.523,1.523,0,0,0-.2.626,0.588,0.588,0,0,0,.63.627h9.55Zm31.71-2.7a23.674,23.674,0,0,0,3.43-.165,1.674,1.674,0,0,1,.43-0.034,1.869,1.869,0,0,1,1.21.857,4.116,4.116,0,0,1,1.22,1.913,1.488,1.488,0,0,1-.72.892c-0.2.165-2.67,2.736-3.06,3.165-1.16,1.188-2.87,2.87-4.09,3.959a1.31,1.31,0,0,1-.79.461c-0.56,0-2.41-1.45-2.41-2.012a2.176,2.176,0,0,1,.83-0.989c0.59-.528,4.25-3.761,4.25-4.222s-0.73-.4-1.02-0.4h-14.14c-1.52,0-3,.1-4.48.1-0.86,0-.89-0.363-0.89-1.682V372.85c0-.858.07-1.254,0.82-1.254,1.52,0,3.03.067,4.55,0.067h14.86Zm-5.77,5.276c0.24,0.033.7,0.033,0.7,0.4a0.5,0.5,0,0,1-.2.328,5.663,5.663,0,0,0-.66,2.375c-0.96,6.037-3,10.224-7.91,14.018a2.317,2.317,0,0,1-1.09.593c-0.56,0-2.7-1.714-2.7-2.308a1.224,1.224,0,0,1,.79-0.726,15.606,15.606,0,0,0,6.89-9.6,17.754,17.754,0,0,0,.53-4.914c0-.264,0-0.428.33-0.428C1056.5,376.676,1058.91,376.874,1059.4,376.939Zm26.45-6.695c1.09,0.033,2.21-.066,3.33-0.066,0.72,0,.69.264,0.69,1.385,0,1.089,0,1.352-.69,1.352-1.12,0-2.21-.065-3.33-0.065h-0.13a0.674,0.674,0,0,0-.79.791v0.5a0.687,0.687,0,0,0,.79.792c0.62,0.033,1.22-.066,1.84-0.066a1.107,1.107,0,0,1,1.35,1.154c0,0.527-.03,1.056-0.03,1.583v5.837c0,0.56.03,1.089,0.03,1.617a1.069,1.069,0,0,1-1.31,1.121c-0.63,0-1.29-.067-1.91-0.033a0.665,0.665,0,0,0-.76.791v0.5a0.664,0.664,0,0,0,.76.79h0.29c1.12,0,2.28-.065,3.43-0.065,0.72,0,.72.3,0.72,1.385,0,1.056,0,1.384-.69,1.384-1.15,0-2.3-.065-3.46-0.065h-0.16a0.75,0.75,0,0,0-.89.891c-0.04,1.121.06,2.275,0.06,3.4,0,1.056-.29,1.089-1.64,1.089-1.26,0-1.62-.033-1.62-1.023,0-1.154.07-2.309,0.07-3.463a0.763,0.763,0,0,0-.89-0.891h-0.27c-1.12,0-2.27.065-3.42,0.065-0.73,0-.73-0.3-0.73-1.384s0-1.385.69-1.385c1.16,0,2.31.065,3.46,0.065h0.4a0.664,0.664,0,0,0,.76-0.79v-0.5a0.665,0.665,0,0,0-.76-0.791c-0.63-.034-1.22.033-1.85,0.033a1.09,1.09,0,0,1-1.35-1.221c0-.462.04-0.989,0.04-1.517V377.6c0-.527-0.04-1.023-0.04-1.484a1.1,1.1,0,0,1,1.32-1.253c0.59,0,1.22.1,1.85,0.066a0.675,0.675,0,0,0,.75-0.792v-0.5a0.662,0.662,0,0,0-.75-0.791c-1.12-.033-2.24.065-3.36,0.065-0.76,0-.73-0.3-0.73-1.385,0-1.055,0-1.352.73-1.352,1.08,0,2.14.1,3.22,0.066a0.783,0.783,0,0,0,.89-0.923,10.321,10.321,0,0,0-.09-2.012,0.688,0.688,0,0,1-.04-0.264,0.445,0.445,0,0,1,.56-0.429c0.33,0,2.41.2,2.84,0.232,0.23,0.033.62,0.065,0.62,0.362a0.555,0.555,0,0,1-.39.429c-0.33.229-.37,0.594-0.33,1.748A0.774,0.774,0,0,0,1085.85,370.244Zm0.1,8.047a0.763,0.763,0,0,0-.79-0.792h-3.56a0.746,0.746,0,0,0-.79.792v0.232a0.72,0.72,0,0,0,.79.758h3.56a0.736,0.736,0,0,0,.79-0.758v-0.232Zm-4.35,3.431a0.72,0.72,0,0,0-.79.757v0.3a0.746,0.746,0,0,0,.79.792h3.56a0.763,0.763,0,0,0,.79-0.792v-0.3a0.735,0.735,0,0,0-.79-0.757h-3.56Zm11.43-4.75a1.276,1.276,0,0,0-.06.33,0.521,0.521,0,0,0,.56.5c0.72,0.033,1.42.033,2.14,0.033h5.37a1.735,1.735,0,0,1,1.42.494,3.323,3.323,0,0,1,.89,1.748,1.7,1.7,0,0,1-.83.99c-1.78,1.451-8.47,7.749-8.47,9.86,0,1.517,1.95,1.42,3,1.42,3.86,0,5.04.428,5.54-3.991,0.06-.429.06-0.956,0.72-0.956,0.4,0,2.44.3,2.44,1.252a13.007,13.007,0,0,1-.95,3.99c-1.19,2.7-3.1,3-5.77,3-0.72,0-1.52-.034-2.34-0.034-3.13,0-6.42.2-6.42-4.023,0-2.012,1.41-3.893,2.63-5.409a45.194,45.194,0,0,1,4.35-4.716,0.467,0.467,0,0,0,.13-0.3,0.4,0.4,0,0,0-.43-0.33h-1.28c-1.19,0-2.41.067-3.13,0.067s-0.69-.4-0.69-1.155a1.1,1.1,0,0,0-.83-0.891c-0.49-.2-1.87-0.857-1.87-1.451a7.562,7.562,0,0,1,.75-1.65,33.5,33.5,0,0,0,3.13-8.475c0.07-.33.14-0.627,0.5-0.627,0.33,0,2.04.429,2.44,0.527,0.46,0.1,1.15.232,1.15,0.594a0.575,0.575,0,0,1-.4.429c-0.39.2-.42,0.3-0.69,1.188-0.06.23-.16,0.494-0.26,0.823,0,0.067-.04.165-0.04,0.232a0.6,0.6,0,0,0,.7.594h4.78c1.21,0,2.47-.066,3.69-0.066,0.79,0,.75.395,0.75,1.615s0.04,1.616-.75,1.616c-1.22,0-2.44-.065-3.69-0.065h-5.94a1.118,1.118,0,0,0-1.25.759C1093.69,375.62,1093.4,376.312,1093.03,376.972Zm20.39-2.044c-0.29.2-.33,0.3-0.39,1.121a8.888,8.888,0,0,1-.07.89,40.157,40.157,0,0,1-.72,5.342,0.59,0.59,0,0,1-.63.53c-0.39,0-1.75-.232-1.75-0.858a7.516,7.516,0,0,1,.17-0.792,32.959,32.959,0,0,0,.76-6.4c0-.5-0.07-0.825.43-0.825a9.693,9.693,0,0,1,1.38.166c0.46,0.1,1.09.13,1.09,0.461A0.386,0.386,0,0,1,1113.42,374.928Zm3.79,8.41a2.551,2.551,0,0,0-.03.461,2.449,2.449,0,0,0,.23.989,24.539,24.539,0,0,0,3.3,5.113,0.985,0.985,0,0,1,.26.561,3.735,3.735,0,0,1-2.24,2.11c-0.56,0-1.81-2.507-2.08-3.034a0.362,0.362,0,0,0-.29-0.2,0.348,0.348,0,0,0-.33.231,20.2,20.2,0,0,1-2.8,6,1,1,0,0,1-.76.594c-0.46,0-2.37-1.056-2.37-1.815a1.314,1.314,0,0,1,.36-0.658c3.13-4.288,3.85-9.763,3.85-14.94v-9.137a11.154,11.154,0,0,0-.1-2.242c0-.066-0.03-0.2-0.03-0.3a0.469,0.469,0,0,1,.59-0.429c0.4,0,2.41.165,2.84,0.2,0.23,0.033.53,0.065,0.53,0.362a0.665,0.665,0,0,1-.4.463c-0.3.262-.33,0.956-0.33,2.01v4.684a0.268,0.268,0,0,0,.26.3,0.242,0.242,0,0,0,.23-0.131c0.3-.462.6-0.957,0.86-1.452a0.777,0.777,0,0,1,.49-0.428,7.631,7.631,0,0,1,2.38,2.341,0.384,0.384,0,0,1-.4.395h-0.16a0.532,0.532,0,0,0-.43.2c-0.89,1.022-.92,1.287-2.67,3.167a1.769,1.769,0,0,0-.59,1.385C1117.34,381.227,1117.31,382.281,1117.21,383.338Zm14.47,6.464a0.311,0.311,0,0,0-.27.362v1.88c0,1.056.07,2.111,0.07,3.2,0,0.957-.36.957-1.65,0.957-1.22,0-1.64,0-1.64-.957,0-.924.09-2.013,0.09-3.2V390.1a0.275,0.275,0,0,0-.26-0.33,0.285,0.285,0,0,0-.23.1,21.379,21.379,0,0,1-5.6,5.144,2.1,2.1,0,0,1-.99.462,3.367,3.367,0,0,1-1.88-2.079,1.484,1.484,0,0,1,.92-0.857,22.98,22.98,0,0,0,5.44-4.684,0.552,0.552,0,0,0,.13-0.329,0.417,0.417,0,0,0-.46-0.4h-0.99c-1.12,0-2.24.067-3.36,0.067-0.76,0-.72-0.3-0.72-1.386s-0.04-1.418.72-1.418c1.12,0,2.24.066,3.36,0.066h3.13a0.622,0.622,0,0,0,.73-0.726,6.024,6.024,0,0,1-.07-0.693c0-.362.26-0.428,0.56-0.428,0.63,0,2.08.132,2.74,0.2,0.26,0.032.79,0.032,0.79,0.4a0.612,0.612,0,0,1-.43.427,0.841,0.841,0,0,0-.33.5,0.419,0.419,0,0,0,.49.329h3.53c1.12,0,2.24-.066,3.36-0.066,0.76,0,.73.33,0.73,1.418,0,1.121,0,1.386-.73,1.386-1.12,0-2.24-.067-3.36-0.067h-1.38a0.449,0.449,0,0,0-.47.4,0.567,0.567,0,0,0,.14.3,36.563,36.563,0,0,0,5.47,4.882,1.13,1.13,0,0,1,.62.725,3.336,3.336,0,0,1-2.07,1.98c-1.09,0-5.08-4.487-5.87-5.476A0.3,0.3,0,0,0,1131.68,389.8Zm-2.57-9.96c0,0.429.03,0.857,0.03,1.286a1.145,1.145,0,0,1-1.32,1.318c-0.56,0-1.12-.065-1.68-0.065h-1.84c-0.56,0-1.12.065-1.68,0.065a1.143,1.143,0,0,1-1.35-1.285c0-.429.06-0.89,0.06-1.319V377.83c0-.462-0.06-0.891-0.06-1.319a1.144,1.144,0,0,1,1.35-1.287c0.56,0,1.12.067,1.68,0.067h1.84c0.56,0,1.09-.067,1.65-0.067a1.134,1.134,0,0,1,1.35,1.287c0,0.461-.03.89-0.03,1.319v2.012Zm-5.34-.692a0.868,0.868,0,0,0,.92.889h0.96a0.873,0.873,0,0,0,.92-0.889v-0.694a0.874,0.874,0,0,0-.92-0.89h-0.96a0.869,0.869,0,0,0-.92.89v0.694Zm11.83-7.652c0,0.528.07,0.957,0.07,1.384,0,0.957-.66,1.222-1.52,1.222-0.73,0-1.45-.067-2.18-0.067h-4.25c-0.72,0-1.45.067-2.14,0.067-0.85,0-1.51-.265-1.51-1.222,0-.427.03-0.856,0.03-1.384v-1.352c0-.561-0.03-0.957-0.03-1.386,0-.956.62-1.22,1.48-1.22,0.72,0,1.45.033,2.17,0.033h4.25c0.73,0,1.45-.033,2.18-0.033,0.86,0,1.52.23,1.52,1.22,0,0.429-.07.825-0.07,1.386V371.5Zm-8.67-.528a0.762,0.762,0,0,0,.79.791h4.32a0.746,0.746,0,0,0,.79-0.791v-0.33a0.746,0.746,0,0,0-.79-0.792h-4.32a0.762,0.762,0,0,0-.79.792v0.33Zm11.67,8.9c0,0.43.03,0.891,0.03,1.32a1.133,1.133,0,0,1-1.32,1.285c-0.56,0-1.05-.065-1.68-0.065h-1.98c-0.62,0-1.12.065-1.64,0.065a1.143,1.143,0,0,1-1.35-1.285c0-.429.03-0.89,0.03-1.32V377.83c0-.429-0.03-0.858-0.03-1.319a1.1,1.1,0,0,1,1.28-1.254c0.59,0,1.15.034,1.71,0.034h1.98c0.56,0,1.12-.034,1.68-0.034a1.125,1.125,0,0,1,1.32,1.254c0,0.461-.03.89-0.03,1.319v2.044Zm-5.41-.724a0.93,0.93,0,0,0,.93.922h1.02a0.921,0.921,0,0,0,.92-0.922v-0.661a0.944,0.944,0,0,0-.92-0.923h-1.02a0.953,0.953,0,0,0-.93.923v0.661Zm25.11,10.421a0.559,0.559,0,0,0-.56.494,17.576,17.576,0,0,1-2.15,5.344,1.253,1.253,0,0,1-1.02.792c-0.49,0-1.94-.628-1.94-1.255a1.075,1.075,0,0,1,.23-0.527,15.63,15.63,0,0,0,2.83-8.278,0.773,0.773,0,0,0-.89-0.857c-0.2,0-.39.033-0.59,0.033-0.69,0-.73-0.331-0.73-1.187v-0.3a0.32,0.32,0,0,0-.39-0.362c-0.4-.033-0.89-0.99-1.22-1.55a1.2,1.2,0,0,1-.13-0.231,0.222,0.222,0,0,0-.2-0.131,0.233,0.233,0,0,0-.2.264v9c0,1.484.07,2.967,0.07,4.452,0,0.89-.36.89-1.58,0.89-1.26,0-1.62-.033-1.62-0.89,0-1.485.07-2.968,0.07-4.452v-6.1c0-.1-0.03-0.165-0.13-0.165a0.226,0.226,0,0,0-.14.1,27.017,27.017,0,0,1-1.64,4.386,0.809,0.809,0,0,1-.66.627c-0.6,0-1.72-1.551-1.72-2.077a1.733,1.733,0,0,1,.27-0.727,34.06,34.06,0,0,0,3.56-10.388c0-.1.03-0.166,0.03-0.231a0.631,0.631,0,0,0-.76-0.627c-0.16,0-1.48.067-1.51,0.067-0.69,0-.63-0.6-0.63-1.617,0-1.055-.06-1.584.63-1.584,0.43,0,1.12.067,1.78,0.067a0.8,0.8,0,0,0,.92-0.923v-2.112a14.458,14.458,0,0,0-.1-2.143,1,1,0,0,1-.03-0.3,0.417,0.417,0,0,1,.52-0.395c0.4,0,2.18.165,2.67,0.23,0.27,0.033.83,0.033,0.83,0.429a0.644,0.644,0,0,1-.46.462c-0.33.23-.37,0.692-0.37,1.748v2.078a0.768,0.768,0,0,0,.83.923c0.49-.033.95-0.033,1.45-0.067a0.521,0.521,0,0,0,.49-0.2,2,2,0,0,1,.82-1.089,0.273,0.273,0,0,1,.2.1,0.506,0.506,0,0,0,.23.065,0.317,0.317,0,0,0,.23-0.131,29.493,29.493,0,0,0,2.01-4.058c0.07-.2.1-0.362,0.3-0.362,0.16,0,2.31.924,2.31,1.319,0,0.3-.23.33-0.46,0.33a0.664,0.664,0,0,0-.66.331,9.1,9.1,0,0,0-.66,1.186,27.661,27.661,0,0,1-1.42,2.409,0.766,0.766,0,0,0-.1.23,0.438,0.438,0,0,0,.13.3,0.707,0.707,0,0,1,.17.165,0.8,0.8,0,0,0,.49.2,0.615,0.615,0,0,0,.53-0.428c0.23-.461.46-0.956,0.69-1.452,0.1-.231.13-0.4,0.33-0.4,0.1,0,2.34,1.088,2.34,1.518,0,0.264-.23.3-0.43,0.3a0.763,0.763,0,0,0-.72.329,40.1,40.1,0,0,1-2.77,4.716,0.362,0.362,0,0,0-.1.264,0.4,0.4,0,0,0,.49.33,4.649,4.649,0,0,0,.63-0.065,0.571,0.571,0,0,0,.59-0.594,0.69,0.69,0,0,0-.09-0.331,5.055,5.055,0,0,1-.37-0.923c0-.428,1.25-0.759,1.45-0.759a0.6,0.6,0,0,1,.53.463c0.46,0.956.89,1.945,1.25,2.9a0.285,0.285,0,0,0,.2.229,0.186,0.186,0,0,0,.2-0.2c0-.066-0.1-1.385-0.1-1.616-0.13-3.067-.07-6.168-0.1-9.235-0.03-.231-0.07-1.055-0.07-1.121a0.46,0.46,0,0,1,.53-0.527c0.2,0,1.45.131,1.75,0.165,1.08,0.131,1.38.131,1.38,0.527a0.586,0.586,0,0,1-.49.493c-0.33.166-.37,0.331-0.37,0.99V371.1a0.188,0.188,0,0,0,.2.229,0.317,0.317,0,0,0,.23-0.131,0.417,0.417,0,0,1,.33-0.164,0.477,0.477,0,0,1,.2.066,0.834,0.834,0,0,0,.23.065,0.357,0.357,0,0,0,.3-0.165,30.674,30.674,0,0,0,1.94-3.826,0.43,0.43,0,0,1,.33-0.395,9.015,9.015,0,0,1,1.78.892,0.765,0.765,0,0,1,.53.526c0,0.3-.27.3-0.46,0.3a0.669,0.669,0,0,0-.6.4,33.752,33.752,0,0,1-1.91,3.2,0.61,0.61,0,0,0-.1.331,0.511,0.511,0,0,0,.23.4l0.1,0.1a0.9,0.9,0,0,0,.5.165,0.686,0.686,0,0,0,.59-0.4c0.3-.56.56-1.121,0.82-1.714a0.553,0.553,0,0,1,.37-0.428,6.907,6.907,0,0,1,1.51.692,1.545,1.545,0,0,1,.92.758c0,0.264-.19.3-0.39,0.329a0.611,0.611,0,0,0-.69.363,34.659,34.659,0,0,1-2.74,4.486,0.846,0.846,0,0,0-.06.265,0.359,0.359,0,0,0,.42.362l0.73-.1a0.63,0.63,0,0,0,.63-0.626,2.066,2.066,0,0,0-.1-0.331,5.672,5.672,0,0,1-.37-0.857c0-.5,1.16-0.758,1.42-0.758a0.666,0.666,0,0,1,.56.461c0.4,0.858.76,1.715,1.12,2.573a12.828,12.828,0,0,1,.66,1.979c0,0.428-1.05.692-1.42,0.692-0.39,0-.46-0.329-0.62-0.825a0.653,0.653,0,0,0-.79-0.46c-0.5.064-1.02,0.164-1.55,0.262a0.351,0.351,0,0,0-.33.3,0.385,0.385,0,0,0,.2.329l0.33,0.231a2.683,2.683,0,0,1,1.12,1.022,0.543,0.543,0,0,1-.17.4,0.665,0.665,0,0,0-.06.231,0.462,0.462,0,0,0,.56.363c0.59,0,1.18-.066,1.78-0.066,0.72,0,.69.528,0.69,1.352,0,0.924.03,1.353-.73,1.353-1.12,0-2.24-.066-3.33-0.066h-3.03a0.575,0.575,0,0,0-.69.56,0.711,0.711,0,0,0,.03.265c0.17,0.56.4,1.121,0.6,1.681a0.567,0.567,0,0,0,.49.4,0.653,0.653,0,0,0,.43-0.2,8.646,8.646,0,0,0,1.35-1.913,0.779,0.779,0,0,1,.49-0.429c0.2,0,2.48,1.155,2.48,1.616a0.511,0.511,0,0,1-.53.364,0.974,0.974,0,0,0-.79.625,19.8,19.8,0,0,1-1.65,2.079,0.9,0.9,0,0,0-.1,1.352c0.33,0.428,1.32,1.615,1.88,1.615,0.76,0,.92-2.342.99-2.9,0.06-.362.1-0.527,0.66-0.527,0.76,0,1.78.329,1.78,1.22a11.137,11.137,0,0,1-.89,3.364,2.4,2.4,0,0,1-2.18,1.748c-1.84,0-3.19-1.45-4.25-2.8a0.829,0.829,0,0,0-.66-0.362,1.117,1.117,0,0,0-.56.164c-1.12.793-4.87,2.935-6.13,2.935-0.62,0-1.25-1.417-1.25-1.946a0.99,0.99,0,0,1,.99-0.726,18,18,0,0,0,5.04-2.507,0.859,0.859,0,0,0,.43-0.758,1.407,1.407,0,0,0-.1-0.527,24.706,24.706,0,0,1-1.28-3.561,0.965,0.965,0,0,0-1.12-.825h-3.13a0.745,0.745,0,0,0-.89.692,1.214,1.214,0,0,0,.75,1.089,24.652,24.652,0,0,1,2.97,1.813,0.9,0.9,0,0,1,.59.759c0,0.725-.82,1.913-1.41,1.913a1.575,1.575,0,0,1-.66-0.43c-0.6-.493-1.26-0.956-1.88-1.417A0.741,0.741,0,0,0,1158.3,389.571Zm-4.09-7.421a0.5,0.5,0,0,0,.56.494c0.92,0.067,1.84.034,2.77,0.034h4.45a0.622,0.622,0,0,0,.69-0.725c-0.04-.265-0.04-0.726-0.4-0.726a0.865,0.865,0,0,0-.29.067,2.953,2.953,0,0,1-.96.229c-0.36,0-.39-0.3-0.49-0.594a0.8,0.8,0,0,0-.93-0.56c-1.28.231-2.6,0.4-3.92,0.594a0.566,0.566,0,0,0-.46.395,0.316,0.316,0,0,1-.26.2c-0.3,0-.33-0.263-0.56-0.957a9.186,9.186,0,0,1-.33-1.551c0-.295.33-0.262,0.52-0.295a0.514,0.514,0,0,0,.5-0.265c0.46-.692.86-1.417,1.28-2.111a1.206,1.206,0,0,0,.17-0.561,1.073,1.073,0,0,0-.4-0.758c-0.42-.363-0.85-0.692-1.28-1.022a0.455,0.455,0,0,0-.27-0.1,0.315,0.315,0,0,0-.32.363c-0.04.89,0,1.386-.66,1.386-0.14,0-1.26-.067-1.59-0.1a0.638,0.638,0,0,0-.69.594c0.04,0.131.04,0.165,0.1,0.33a21.267,21.267,0,0,0,2.87,4.353,0.52,0.52,0,0,1,.16.363,1.513,1.513,0,0,1-.19.627A0.8,0.8,0,0,0,1154.21,382.15Zm13.41-6.53a0.935,0.935,0,0,0-.4-0.692c-0.49-.4-1.02-0.792-1.54-1.188a0.475,0.475,0,0,0-.3-0.1,0.438,0.438,0,0,0-.43.429v0.989c0,0.758.03,1.55,0.03,2.309a0.768,0.768,0,0,0,.86.792,0.676,0.676,0,0,0,.59-0.4c0.33-.527.7-1.023,0.99-1.55A1.086,1.086,0,0,0,1167.62,375.62Zm0.92,7.058a0.3,0.3,0,0,0,.36-0.264,0.384,0.384,0,0,0-.16-0.264,3.538,3.538,0,0,1-1.32-1.054,1.126,1.126,0,0,1,.3-0.627,0.274,0.274,0,0,0,.03-0.132,0.191,0.191,0,0,0-.2-0.2l-1.21.2a0.849,0.849,0,0,0-.6.461,0.334,0.334,0,0,1-.39.231c-0.07-.033-0.13-0.033-0.13.033l0.09,0.891a0.73,0.73,0,0,0,.89.725h2.34Z" transform="translate(-865.25 -303)"/>
</svg>
