<svg id="kv_ttl.svg" xmlns="http://www.w3.org/2000/svg" width="402.156" height="200.906" viewBox="0 0 402.156 200.906">
  <defs>
    <style>
      .cls-1 {
        fill-rule: evenodd;
      }
    </style>
  </defs>
  <path id="シェイプ_3" data-name="シェイプ 3" class="cls-1" d="M507.636,847.7a1.049,1.049,0,0,1-1.049,1.049h-19.71a1.047,1.047,0,0,0-1.049,1.046v58a1.05,1.05,0,0,1-1.049,1.049H474.82a1.05,1.05,0,0,1-1.05-1.049v-58a1.047,1.047,0,0,0-1.049-1.046H453.2a1.049,1.049,0,0,1-1.049-1.049V840a1.049,1.049,0,0,1,1.049-1.049h53.384A1.049,1.049,0,0,1,507.636,840v7.7ZM359.354,890.627c0.127,0.5.315,0.5,0.419-.009l10.379-50.738a1.212,1.212,0,0,1,1.135-.927H381.45a0.721,0.721,0,0,1,.733.922L366.472,907.9a1.248,1.248,0,0,1-1.158.921h-9.73a1.294,1.294,0,0,1-1.185-.914l-12.826-49.177c-0.131-.5-0.348-0.5-0.482,0l-13.1,49.18a1.3,1.3,0,0,1-1.189.912H317.02a1.249,1.249,0,0,1-1.159-.921l-15.71-68.021a0.72,0.72,0,0,1,.733-0.922h10.162a1.215,1.215,0,0,1,1.137.927l10.471,50.643c0.105,0.509.3,0.513,0.424,0.008l12.885-50.66a1.285,1.285,0,0,1,1.179-.918h8.29a1.278,1.278,0,0,1,1.175.918Zm-74.88-51.674H274.263a0.949,0.949,0,0,0-.945.947v45.4q0,14.78-14.024,14.779-6.915,0-10.469-3.694t-3.554-10.7V839.9a0.949,0.949,0,0,0-.945-0.947H234.115a0.95,0.95,0,0,0-.946.947v45.694q0,11.373,7.059,17.778t19.066,6.405q11.861,0,18.993-6.5t7.133-17.634V839.9A0.95,0.95,0,0,0,284.474,838.953Zm291.793,36.771a42.865,42.865,0,0,1-3.554,18.025,26.858,26.858,0,0,1-10.16,11.9,29.813,29.813,0,0,1-30.36,0,27.271,27.271,0,0,1-10.28-11.833,41.49,41.49,0,0,1-3.675-17.711v-3.937a42.472,42.472,0,0,1,3.628-18.048A27.247,27.247,0,0,1,532.1,842.146a29.893,29.893,0,0,1,30.312-.048,26.9,26.9,0,0,1,10.208,11.809,42.393,42.393,0,0,1,3.65,17.928v3.889Zm-12.153-3.648q0-11.616-4.395-17.809t-12.466-6.193a14.338,14.338,0,0,0-12.321,6.169q-4.444,6.168-4.54,17.448v4.033q0,11.52,4.492,17.809a14.466,14.466,0,0,0,12.465,6.288q8.071,0,12.418-6.145t4.347-17.952v-3.648Zm-154.688,10.7a0.745,0.745,0,0,1-.7-0.991l9.444-27.015a0.367,0.367,0,0,1,.692,0l18.57,53.08a1.483,1.483,0,0,0,1.4.991h10.584a0.724,0.724,0,0,0,.677-0.982l-25.725-67.929a1.523,1.523,0,0,0-1.421-.982h-8.806a1.521,1.521,0,0,0-1.42.982l-25.679,67.929a0.725,0.725,0,0,0,.678.982h10.536a1.479,1.479,0,0,0,1.394-.992l4.979-14.291a1.479,1.479,0,0,1,1.394-.991h19.451a0.793,0.793,0,0,0,.932-0.933,9.8,9.8,0,0,0-9.757-8.859h-7.216Zm-194.995-4.514a0.947,0.947,0,0,1-.946.944H187.234a0.948,0.948,0,0,0-.945.945v27.716a0.948,0.948,0,0,1-.946.945H175.084a0.948,0.948,0,0,1-.946-0.945V839.9a0.95,0.95,0,0,1,.946-0.947h42.531a0.95,0.95,0,0,1,.946.947v7.9a0.95,0.95,0,0,1-.946.946H187.234a0.948,0.948,0,0,0-.945.945v18.887a0.947,0.947,0,0,0,.945.944h26.251a0.949,0.949,0,0,1,.946.947v7.8Z" transform="translate(-174.125 -708.906)"/>
  <path id="シェイプ_4" data-name="シェイプ 4" class="cls-1" d="M226.948,737.621c0,6.019.987,5.87,7.789,5.87,4.091,0,11.878-.1,15.722-0.886a5,5,0,0,1,1.184-.2c0.887,0,1.035,1.184,1.035,2.567,0,1.726-.05,2.86-1.578,3.058-3.4.493-13.5,0.542-17.3,0.542-3.3,0-8.823.2-10.893-2.862-1.281-1.825-1.331-5.624-1.331-7.844v-18.4a36.192,36.192,0,0,0-.246-5.18v-0.394a0.545,0.545,0,0,1,.541-0.543c0.445,0,4.19.789,4.93,0.937,0.394,0.049,1.084.148,1.084,0.643a1.2,1.2,0,0,1-.443.738,5.167,5.167,0,0,0-.543,3.01c0,0.789.049,1.677,0.049,2.566v4.786c0,0.986.888,1.233,1.725,1.233,5.275,0,14.492-3.058,18.977-5.871a3.048,3.048,0,0,1,.838-0.345c0.542,0,1.726,1.924,2.021,2.367a11.267,11.267,0,0,1,1.528,2.664,0.613,0.613,0,0,1-.69.493c-0.3,0-.739-0.1-1.085-0.1a5.135,5.135,0,0,0-1.675.544c-6.95,2.911-12.471,4.688-20.061,5.081a1.432,1.432,0,0,0-1.578,1.382v4.144Zm65.785-9.028c2.268,0,5.472-.148,6.112-0.148,1.331,0,1.381.394,1.381,3.108,0,1.579-.05,2.517-1.331,2.517-2.07,0-4.14-.1-6.162-0.1H270.06c-2.021,0-4.091.1-6.161,0.1-1.282,0-1.33-.938-1.33-2.468,0-2.763.1-3.157,1.379-3.157,0.641,0,4.043.148,6.112,0.148h22.673Zm28.939-3.107c0.987,0,5.915,3.9,6.9,4.734,0.689,0.593,3.45,2.715,3.45,3.553s-2.318,3.4-3.3,3.4a1.778,1.778,0,0,1-1.084-.641,73.63,73.63,0,0,0-7.148-5.772,0.875,0.875,0,0,0-.492-0.2,0.658,0.658,0,0,0-.591.79v13.467c0,1.976.1,3.9,0.1,5.873,0,2.269-.05,2.565-3.056,2.565-1.972,0-2.81-.049-2.81-1.677,0-2.22.148-4.441,0.148-6.661V716.8c0-1.282-.1-2.615-0.148-3.849,0-.246-0.049-0.69-0.049-0.887a0.589,0.589,0,0,1,.641-0.741c0.3,0,1.33.15,1.676,0.2,2.217,0.3,4.238.493,4.238,1.185a1.449,1.449,0,0,1-.246.641,3.968,3.968,0,0,0-.542,2.614c0,0.741.05,1.678,0.05,2.912v7.4a0.418,0.418,0,0,0,.394.494,0.529,0.529,0,0,0,.442-0.2A2.562,2.562,0,0,1,321.672,725.486Zm33.942,9.223a0.781,0.781,0,0,1-.542.5,2.225,2.225,0,0,0-1.527,1.134c-1.134,1.381-7.1,8.338-8.528,8.338-0.837,0-3.5-2.368-3.5-3.306a2.284,2.284,0,0,1,1.134-1.234,27.225,27.225,0,0,0,6.8-7.45,1.554,1.554,0,0,1,.937-0.985,19.859,19.859,0,0,1,3.351,1.529C354.185,733.477,355.614,734.169,355.614,734.709Zm2.712-12.233a1.37,1.37,0,0,0,1.38-1.629v-0.692a45.45,45.45,0,0,0-.2-5.771c0-.2-0.05-0.395-0.05-0.592,0-.591.395-0.689,0.888-0.689,0.837,0,2.464.294,3.4,0.394,1.134,0.147,2.268.2,2.268,0.739a0.815,0.815,0,0,1-.394.642c-0.641.642-.69,0.986-0.69,3.306v2.663a1.375,1.375,0,0,0,1.38,1.629h7.738c2.119,0,4.289-.1,6.458-0.1,1.281,0,1.231.692,1.231,2.863,0,1.776-.049,2.418-1.33,2.418-2.12,0-4.24-.1-6.359-0.1h-7.64a1.483,1.483,0,0,0-1.478,1.478v11.546c0,0.986.049,1.925,0.049,2.909,0,2.665,0,4.984-2.761,6.367a15.273,15.273,0,0,1-5.322,1.429c-0.79,0-1.134-.494-1.775-1.726a9.07,9.07,0,0,1-.937-2.664c0-.789,1.134-0.741,1.725-0.789,3.993-.3,3.8-1.826,3.8-5.378V729.036a1.452,1.452,0,0,0-1.478-1.478h-7.592c-2.07,0-4.139.1-6.21,0.1-1.281,0-1.281-.839-1.281-2.467,0-2.022-.05-2.814,1.232-2.814s4.239,0.1,6.259.1h7.69Zm20.159,13.32c0.789,0.789,4.338,4.242,4.338,5.18,0,1.036-2.613,3.4-3.4,3.4a1.84,1.84,0,0,1-1.182-.936A48.343,48.343,0,0,0,370.9,735.9a1.664,1.664,0,0,1-.839-1.087c0-.738,2.021-3.206,3.056-3.206C374.246,731.6,377.549,734.908,378.485,735.8Zm6.506-21.017a4.9,4.9,0,1,1-9.808,0,4.862,4.862,0,0,1,4.88-4.884A4.935,4.935,0,0,1,384.991,714.779Zm-7.54,0a2.61,2.61,0,0,0,2.612,2.665,2.64,2.64,0,1,0,0-5.279A2.6,2.6,0,0,0,377.451,714.779Zm52.593,11.939c0,0.84-1.971,2.763-2.612,3.4-7.985,8.24-16.364,13.766-26.764,18.6-1.627.788-1.677,0.838-2.071,1.676a0.5,0.5,0,0,1-.493.3c-0.541,0-1.576-1.973-1.922-2.566a13.885,13.885,0,0,1-1.478-2.96c0-.543.887-0.643,1.528-0.838,10.893-3.208,23.215-12.532,30.215-21.462a1.209,1.209,0,0,1,.837-0.543C428.27,722.327,430.044,725.979,430.044,726.718Zm-25.434-8.14c0.642,0.443,3.008,2.071,3.008,2.812,0,1.134-2.318,3.8-3.253,3.8a5.287,5.287,0,0,1-1.972-1.332,61.274,61.274,0,0,0-6.556-4.589,1.244,1.244,0,0,1-.789-0.938c0-.74,1.973-3.9,3.106-3.9C398.943,714.433,403.674,717.887,404.61,718.578Zm61.458-1.185c0.838,0,2.022-.1,2.465-0.1,0.985,0,1.725.938,2.366,1.58,0.444,0.445,1.675,1.628,1.675,2.269,0,0.443-.394.937-0.738,2.861-1.627,9.275-5.274,15.788-13.063,21.214a46.005,46.005,0,0,1-9.463,5.082,6.007,6.007,0,0,1-1.627.4c-1.182,0-2.907-3.306-2.907-4.1a0.868,0.868,0,0,1,.887-0.791,35.042,35.042,0,0,0,12.272-6.512,23.206,23.206,0,0,0,8.035-14.356,11.988,11.988,0,0,0,.148-1.234c0-.936-0.838-1.036-1.725-1.036H446.845c-2.069,0-4.091.1-6.16,0.1-1.48,0-1.48-.445-1.48-2.665,0-2.268-.048-2.813,1.381-2.813,2.119,0,4.238.1,6.358,0.1h19.124Zm14.2-3.6a4.9,4.9,0,1,1-4.929-4.884A4.9,4.9,0,0,1,480.264,713.792Zm-7.541,0a2.637,2.637,0,0,0,5.273,0A2.637,2.637,0,1,0,472.723,713.792Zm41.716,4.933h7.147c2.021,0,4.091-.1,6.112-0.1,1.183,0,1.134.641,1.134,2.418,0,1.825.049,2.467-1.134,2.467-2.021,0-4.091-.1-6.112-0.1h-6.654a0.983,0.983,0,0,0-1.183,1.036V724.7a73.537,73.537,0,0,0,5.274,19.142c0.444,0.939,2.021,4.243,3.154,4.243,1.726,0,2.268-4.785,2.367-6.068,0.1-.839.1-1.43,1.133-1.43a4.408,4.408,0,0,1,1.923.443,1.779,1.779,0,0,1,1.331,1.825,19.888,19.888,0,0,1-.838,4.836c-0.839,2.862-2.317,6.018-5.718,6.018-3.007,0-5.027-2.861-6.408-5.13-3.894-6.364-6.161-16.526-7.246-23.879a1.287,1.287,0,0,0-1.528-1.283H492.6c-2.02,0-4.042.1-6.112,0.1-1.183,0-1.134-.593-1.134-2.418,0-1.875-.049-2.467,1.134-2.467,2.07,0,4.092.1,6.112,0.1h14.1a1.109,1.109,0,0,0,1.283-1.332c0-.048-0.444-6.413-0.444-6.512a0.871,0.871,0,0,1,1.083-.887c0.3,0,3.451.2,3.945,0.246,0.442,0,1.329.148,1.329,0.74a1,1,0,0,1-.738.791,1.217,1.217,0,0,0-.394,1.132c0,0.741.147,3.6,0.245,4.541A1.214,1.214,0,0,0,514.439,718.725ZM499.9,743.393a1,1,0,0,0,.985,1.134h0.346c0.788-.2,7.294-1.677,7.344-1.677,0.937,0,.985,2.368.985,3.01,0,1.037-.3,1.235-1.232,1.53-3.943,1.135-13.5,3.107-17.645,3.749-1.429.248-1.627,0.248-1.873,0.986a0.635,0.635,0,0,1-.592.593c-0.542,0-.739-0.395-0.985-1.233-0.2-.544-1.184-3.552-1.184-3.9,0-.69.788-0.788,2.712-0.986,1.182-.148,2.809-0.247,4.978-0.692a1.348,1.348,0,0,0,1.281-1.577v-8.684a1.206,1.206,0,0,0-1.379-1.38h-0.247c-1.627,0-3.3.145-4.979,0.145-1.134,0-1.083-.64-1.083-2.417,0-1.725-.051-2.415,1.034-2.415,1.577,0,3.351.1,5.028,0.1h7.64c1.725,0,3.5-.1,5.028-0.1,1.083,0,1.034.639,1.034,2.415s0.049,2.417-1.034,2.417c-1.628,0-3.2-.145-4.783-0.145a1.245,1.245,0,0,0-1.379,1.38v7.745Zm21.884-24.964a1.054,1.054,0,0,1-.838-0.59q-2.068-2.594-4.288-5.033a1.511,1.511,0,0,1-.592-0.889c0-.839,2.367-2.369,3.155-2.369a1.283,1.283,0,0,1,.887.446c1.381,1.38,2.662,2.909,3.944,4.439a3.853,3.853,0,0,1,1.035,1.529C525.086,716.8,522.572,718.429,521.783,718.429ZM252.654,787.2v9.324a0.726,0.726,0,0,0,.751.865h0.225c2.442-.524,4.846-1.164,7.25-1.917a2.954,2.954,0,0,1,.563-0.112c0.9,0,.9,1.353.9,1.992,0,1.392-.225,1.43-0.714,1.579-4.357,1.316-11.456,2.971-15.926,3.759-1.014.189-.938,0.227-1.127,0.678a0.489,0.489,0,0,1-.45.3c-0.414,0-.564-0.416-1.015-1.506a18.814,18.814,0,0,1-.826-2.442c0-.416.563-0.416,0.976-0.452,1.578-.226,3.156-0.488,4.734-0.752a1.061,1.061,0,0,0,.939-1.2v-6.767a0.491,0.491,0,0,0-.451-0.566,0.564,0.564,0,0,0-.338.15c-0.864.678-4.808,3.723-5.635,3.723-0.714,0-2.1-1.842-2.1-2.556,0-.375.487-0.639,1.2-1.053a50.878,50.878,0,0,0,11.569-9.85,0.673,0.673,0,0,0,.15-0.34,0.487,0.487,0,0,0-.563-0.448h-6.874c-1.5,0-2.967.073-4.432,0.073-0.94,0-.9-0.413-0.9-1.806s-0.038-1.841.9-1.841c1.465,0,2.929.113,4.432,0.113h8.265a0.921,0.921,0,0,0,1.051-1.053v-0.978a18.472,18.472,0,0,0-.15-2.894,1.037,1.037,0,0,1-.038-0.34c0-.413.375-0.45,0.713-0.45,0.676,0,2.555.151,3.268,0.263,0.263,0,1.053.075,1.053,0.489a0.8,0.8,0,0,1-.489.562c-0.413.264-.451,0.6-0.451,1.469v1.879a0.9,0.9,0,0,0,1.014,1.053h8.339c1.465,0,2.931-.113,4.433-0.113,0.94,0,.864.451,0.864,1.841s0.038,1.806-.864,1.806c-1.5,0-2.968-.073-4.433-0.073h-6.573a0.771,0.771,0,0,0-.9.751v0.225a27.591,27.591,0,0,0,1.728,5.939,0.738,0.738,0,0,0,.6.49,0.825,0.825,0,0,0,.562-0.225,56.659,56.659,0,0,0,4.4-4.1,1.507,1.507,0,0,1,.752-0.639,6,6,0,0,1,1.765,1.392c0.188,0.187.413,0.375,0.563,0.527a2.134,2.134,0,0,1,.826.976,0.364,0.364,0,0,1-.413.375c-0.188,0-.375-0.036-0.563-0.036a0.554,0.554,0,0,0-.413.151,56.534,56.534,0,0,1-5.3,4.624,1,1,0,0,0-.489.789,1.221,1.221,0,0,0,.225.678,33.3,33.3,0,0,0,7.775,8.459,2.561,2.561,0,0,1,.9,1.015c0,0.79-1.915,2.557-2.592,2.557-0.939,0-5.747-5.3-6.536-6.279a36.526,36.526,0,0,1-7.136-15.6,0.481,0.481,0,0,0-.413-0.375,0.536,0.536,0,0,0-.415.189,51.148,51.148,0,0,1-3.529,4.022A2.01,2.01,0,0,0,252.654,787.2Zm35.561,10.266a0.616,0.616,0,0,0-.487.3c-1.5,2.444-5.109,6.164-6.236,6.164-0.789,0-2.329-2.067-2.329-2.631a0.668,0.668,0,0,1,.413-0.487,14.267,14.267,0,0,0,5.784-6.055,1.142,1.142,0,0,0,.076-0.3,0.7,0.7,0,0,0-.789-0.64h-0.263c-1.239,0-2.517.076-3.794,0.076-0.9,0-.864-0.338-0.864-1.654s-0.038-1.691.864-1.691c1.277,0,2.555.073,3.794,0.073H285.1a0.885,0.885,0,0,0,1.052-.939c0-.714-0.038-1.278-0.038-1.541a0.523,0.523,0,0,1,.6-0.64c0.526,0,1.691.076,2.216,0.113,1.277,0.113,1.616.188,1.616,0.49a0.78,0.78,0,0,1-.451.525,0.894,0.894,0,0,0-.376,1.017,0.856,0.856,0,0,0,1.015.975h0.788c1.277,0,2.555-.073,3.832-0.073,0.9,0,.864.413,0.864,1.691,0,1.316,0,1.654-.864,1.654-1.277,0-2.555-.076-3.832-0.076h-0.338a0.547,0.547,0,0,0-.6.49,0.494,0.494,0,0,0,.112.375,23.731,23.731,0,0,0,3.681,4.1,0.7,0.7,0,0,1,.413.6,3.964,3.964,0,0,1-2.291,2.369c-0.9,0-3.23-3.2-3.756-3.985A0.6,0.6,0,0,0,288.215,797.462Zm3.531-17.447a0.561,0.561,0,0,0,.152.34,22.874,22.874,0,0,0,3.906,3.457,1.237,1.237,0,0,1,.676.753,3.8,3.8,0,0,1-2.216,2.219c-0.828,0-3.494-3.685-4.058-4.476a0.271,0.271,0,0,0-.263-0.148,0.319,0.319,0,0,0-.262.3c0.037,1.053.074,2.143,0.074,3.195,0,1.015-.337,1.052-1.765,1.052-1.5,0-1.766-.037-1.766-1.2,0-.6.076-1.541,0.076-2.934a0.276,0.276,0,0,0-.263-0.336,0.32,0.32,0,0,0-.262.188c-0.564.864-3.569,4.924-4.471,4.924a3.889,3.889,0,0,1-2.1-2.256,1.192,1.192,0,0,1,.6-0.751,18.565,18.565,0,0,0,4.094-3.948,0.524,0.524,0,0,0,.113-0.34,0.485,0.485,0,0,0-.564-0.448c-0.563,0-2.442.073-2.855,0.073-0.75,0-.713-0.451-0.713-1.655,0-1.165-.037-1.617.713-1.617,1.165,0,2.33.076,3.493,0.076h1.2a0.882,0.882,0,0,0,1.014-1.053v-2.179a13.047,13.047,0,0,0-.112-2.069v-0.338c0-.414.262-0.489,0.6-0.489,0.525,0,2.4.187,3,.226,0.3,0.038.752,0.038,0.752,0.45,0,0.264-.151.264-0.489,0.49-0.413.262-.375,0.639-0.375,2.782v1.127a0.893,0.893,0,0,0,1.052,1.053h1.352c1.164,0,2.329-.076,3.493-0.076,0.751,0,.713.452,0.713,1.656,0,1.165.038,1.616-.713,1.616-1.089,0-2.178-.113-3.267-0.073A0.484,0.484,0,0,0,291.746,780.015Zm-8.638-3.948a1.111,1.111,0,0,1-.827-0.827c-0.488-.828-1.015-1.578-1.578-2.369a0.686,0.686,0,0,1-.187-0.45c0-.64,1.953-1.429,2.328-1.429,0.527,0,1.165,1.127,1.465,1.58a9.2,9.2,0,0,1,1.089,2.066C285.4,775.278,283.483,776.067,283.108,776.067Zm12.283-3.12a1.345,1.345,0,0,0-.752.864c-1.277,2.143-1.5,2.332-1.878,2.332-0.488,0-2.178-.828-2.178-1.279a1.291,1.291,0,0,1,.3-0.6,18.088,18.088,0,0,0,1.578-2.744,0.559,0.559,0,0,1,.45-0.414,9.744,9.744,0,0,1,1.8.676c0.826,0.338,1.2.451,1.2,0.791A0.472,0.472,0,0,1,295.391,772.947Zm7.775,27.334c-0.113,0-.263-0.038-0.338-0.038a1.706,1.706,0,0,1-.189-0.037,0.747,0.747,0,0,0-.45.225c-0.938.752-5.222,3.611-6.273,3.611-0.751,0-2.065-1.768-2.065-2.332a1.2,1.2,0,0,1,.9-0.715,27.766,27.766,0,0,0,5.41-3.384,1.39,1.39,0,0,1,.639-0.376c0.413,0,1.953,1.618,2.328,1.993a1.458,1.458,0,0,1,.451.715A0.383,0.383,0,0,1,303.166,800.281Zm1.841-23.275a0.616,0.616,0,0,0-.113.34,0.573,0.573,0,0,0,.638.563h1.616c0.826,0,1.652-.074,2.442-0.074,1.277,0,1.8.338,1.8,1.654,0,0.978-.075,1.918-0.075,2.858v10.076c0,0.978.075,1.917,0.075,2.857,0,1.24-.487,1.654-1.69,1.654-0.864,0-1.69-.038-2.554-0.038h-5.56c-0.826,0-1.652.038-2.478,0.038-1.241,0-1.73-.375-1.73-1.654,0-.977.038-1.917,0.038-2.857V782.347c0-.94-0.038-1.88-0.038-2.82,0-1.354.527-1.692,1.8-1.692h0.488a1.292,1.292,0,0,0,1.391-.79c0.225-.414.413-0.789,0.638-1.2a1.119,1.119,0,0,0,.075-0.338,0.624,0.624,0,0,0-.713-0.6c-1.279,0-2.593.114-3.757,0.114-0.789,0-.789-0.415-0.789-1.767s0-1.768.789-1.768c1.239,0,2.478.075,3.719,0.075h7.512c1.24,0,2.48-.075,3.719-0.075,0.789,0,.751.487,0.751,1.768s0.038,1.767-.751,1.767c-1.164,0-2.479-.114-3.719-0.114h-1.389a1.394,1.394,0,0,0-1.466.864Zm2.63,4.927a0.869,0.869,0,0,0-.9-0.9h-4.621a0.847,0.847,0,0,0-.9.9V782.5a0.847,0.847,0,0,0,.9.9h4.621a0.869,0.869,0,0,0,.9-0.9v-0.564Zm-5.523,4.286a0.848,0.848,0,0,0-.9.9v0.453a0.829,0.829,0,0,0,.9.9h4.621a0.849,0.849,0,0,0,.9-0.9V787.12a0.87,0.87,0,0,0-.9-0.9h-4.621Zm0.15,5.076a0.976,0.976,0,0,0-1.051,1.015v0.338a1,1,0,0,0,1.051,1.052h4.319a1.076,1.076,0,0,0,1.054-1.052V792.31a1,1,0,0,0-1.054-1.015h-4.319Zm9.2,12.747c-0.864,0-6.236-3.911-6.236-4.664a3.926,3.926,0,0,1,2.18-2.067,1.144,1.144,0,0,1,.675.451,25.84,25.84,0,0,0,4.772,3.2,0.981,0.981,0,0,1,.638.638C313.5,802.311,312.219,804.042,311.467,804.042Zm30.983-24.891c1.578,0,3.154-.075,4.732-0.075,1.015,0,1.052.451,1.052,2.18,0,1.353.038,1.88-1.089,1.88-1.577,0-3.117-.075-4.695-0.075h-1.728c-1.089,0-1.127,1.166-1.165,1.467-0.526,6.842-2.629,12.031-8.076,16.431-0.638.526-2.855,2.217-3.643,2.217-0.752,0-2.817-1.955-2.817-2.632a1.044,1.044,0,0,1,.638-0.678c4.019-2.255,7.438-5.188,8.789-9.738a27.315,27.315,0,0,0,1.053-5.975,1.037,1.037,0,0,0-1.053-1.092H329.49a1.587,1.587,0,0,0-1.652.865c-0.752,1.165-4.922,7.067-6.049,7.067-0.75,0-3.154-1.465-3.154-2.255a1.557,1.557,0,0,1,.6-0.791c4.357-3.946,8.339-10.6,9.428-16.391,0.076-.414.15-0.865,0.489-0.865s2.817,0.79,3.342.94c0.339,0.111,1.278.337,1.278,0.715a0.622,0.622,0,0,1-.414.45c-0.6.377-.826,0.941-1.239,2.143-0.226.677-.527,1.581-1.052,2.783a1.752,1.752,0,0,0-.225.714,0.67,0.67,0,0,0,.714.715H342.45Zm36.148-3.084a27.089,27.089,0,0,0,3.907-.187,1.958,1.958,0,0,1,.488-0.038,2.149,2.149,0,0,1,1.389.978,4.712,4.712,0,0,1,1.39,2.18,1.687,1.687,0,0,1-.826,1.015c-0.225.189-3.042,3.121-3.493,3.609-1.315,1.356-3.268,3.273-4.658,4.513a1.5,1.5,0,0,1-.9.526c-0.638,0-2.741-1.654-2.741-2.293a2.457,2.457,0,0,1,.938-1.128c0.676-.6,4.846-4.287,4.846-4.813s-0.827-.452-1.164-0.452H361.656c-1.727,0-3.417.113-5.107,0.113-0.978,0-1.015-.413-1.015-1.917v-0.751c0-.98.075-1.429,0.939-1.429,1.728,0,3.456.074,5.183,0.074H378.6Zm-6.574,6.016c0.264,0.037.789,0.037,0.789,0.452a0.564,0.564,0,0,1-.226.374,6.463,6.463,0,0,0-.75,2.709c-1.09,6.881-3.419,11.655-9.016,15.979a2.7,2.7,0,0,1-1.239.677c-0.638,0-3.08-1.955-3.08-2.631a1.39,1.39,0,0,1,.9-0.828,17.816,17.816,0,0,0,7.85-10.942,20.209,20.209,0,0,0,.6-5.6c0-.3,0-0.488.375-0.488C368.719,781.783,371.46,782.008,372.024,782.083Zm30.149-7.632c1.239,0.038,2.517-.075,3.794-0.075,0.826,0,.788.3,0.788,1.578,0,1.242,0,1.542-.788,1.542-1.277,0-2.518-.074-3.794-0.074h-0.15a0.769,0.769,0,0,0-.9.9v0.566a0.783,0.783,0,0,0,.9.9c0.713,0.036,1.389-.075,2.1-0.075,0.9,0,1.54.3,1.54,1.315,0,0.6-.038,1.2-0.038,1.8v6.655c0,0.638.038,1.241,0.038,1.843,0,0.977-.6,1.277-1.5,1.277-0.715,0-1.465-.075-2.179-0.037a0.758,0.758,0,0,0-.864.9v0.565a0.757,0.757,0,0,0,.864.9h0.338c1.278,0,2.593-.074,3.906-0.074,0.827,0,.827.339,0.827,1.578,0,1.2,0,1.579-.789,1.579-1.315,0-2.63-.075-3.944-0.075h-0.188a0.857,0.857,0,0,0-1.014,1.017c-0.038,1.277.076,2.592,0.076,3.872,0,1.2-.339,1.242-1.879,1.242-1.427,0-1.84-.038-1.84-1.167,0-1.316.074-2.632,0.074-3.947a0.869,0.869,0,0,0-1.013-1.017h-0.3c-1.276,0-2.591.075-3.906,0.075-0.826,0-.826-0.337-0.826-1.579s0-1.578.788-1.578c1.315,0,2.63.074,3.944,0.074h0.451a0.757,0.757,0,0,0,.864-0.9v-0.565a0.758,0.758,0,0,0-.864-0.9c-0.714-.038-1.389.037-2.1,0.037-1.015,0-1.54-.3-1.54-1.392,0-.525.038-1.126,0.038-1.728v-6.655c0-.6-0.038-1.166-0.038-1.691a1.254,1.254,0,0,1,1.5-1.428c0.676,0,1.39.111,2.1,0.075a0.771,0.771,0,0,0,.864-0.9v-0.566a0.756,0.756,0,0,0-.864-0.9c-1.277-.039-2.554.074-3.831,0.074-0.864,0-.826-0.337-0.826-1.58,0-1.2,0-1.54.826-1.54,1.239,0,2.442.113,3.681,0.075a0.9,0.9,0,0,0,1.014-1.053,11.613,11.613,0,0,0-.113-2.293,0.954,0.954,0,0,1-.037-0.3c0-.413.3-0.489,0.638-0.489,0.376,0,2.743.225,3.23,0.264,0.263,0.038.714,0.074,0.714,0.413a0.64,0.64,0,0,1-.451.489c-0.375.261-.413,0.677-0.375,1.993A0.882,0.882,0,0,0,402.173,774.451Zm0.113,9.173a0.869,0.869,0,0,0-.9-0.9h-4.057a0.849,0.849,0,0,0-.9.9v0.264a0.821,0.821,0,0,0,.9.865h4.057a0.839,0.839,0,0,0,.9-0.865v-0.264Zm-4.959,3.911a0.82,0.82,0,0,0-.9.865v0.338a0.851,0.851,0,0,0,.9.9h4.057a0.871,0.871,0,0,0,.9-0.9V788.4a0.839,0.839,0,0,0-.9-0.865h-4.057Zm13.035-5.415a1.335,1.335,0,0,0-.075.377,0.6,0.6,0,0,0,.638.564c0.826,0.038,1.616.038,2.442,0.038h6.123a1.959,1.959,0,0,1,1.614.563,3.759,3.759,0,0,1,1.015,1.993,1.939,1.939,0,0,1-.939,1.129c-2.029,1.653-9.654,8.833-9.654,11.24,0,1.729,2.216,1.619,3.419,1.619,4.395,0,5.746.488,6.31-4.55,0.074-.489.074-1.091,0.826-1.091,0.451,0,2.78.338,2.78,1.428a14.885,14.885,0,0,1-1.09,4.55c-1.352,3.083-3.531,3.423-6.573,3.423-0.826,0-1.728-.039-2.666-0.039-3.569,0-7.326.225-7.326-4.586,0-2.3,1.616-4.438,3-6.168a51.508,51.508,0,0,1,4.959-5.375,0.57,0.57,0,0,0,.15-0.338,0.46,0.46,0,0,0-.489-0.378h-1.464c-1.353,0-2.743.077-3.569,0.077s-0.788-.451-0.788-1.317a1.244,1.244,0,0,0-.94-1.015c-0.563-.226-2.141-0.977-2.141-1.655a8.28,8.28,0,0,1,.864-1.879,38.291,38.291,0,0,0,3.569-9.663c0.074-.376.15-0.714,0.563-0.714,0.375,0,2.329.489,2.779,0.6,0.527,0.113,1.315.264,1.315,0.677a0.658,0.658,0,0,1-.451.488c-0.451.227-.487,0.339-0.788,1.355-0.076.263-.188,0.563-0.3,0.938,0,0.077-.038.189-0.038,0.264a0.678,0.678,0,0,0,.79.677h5.446c1.39,0,2.817-.075,4.208-0.075,0.9,0,.863.451,0.863,1.843s0.038,1.841-.863,1.841c-1.391,0-2.781-.073-4.208-0.073h-6.761a1.271,1.271,0,0,0-1.428.864C411.113,780.58,410.775,781.368,410.362,782.12Zm23.244-2.329c-0.339.224-.377,0.338-0.451,1.277,0,0.264-.038.6-0.075,1.015a45.876,45.876,0,0,1-.826,6.091,0.671,0.671,0,0,1-.714.6c-0.451,0-1.991-.264-1.991-0.978a7.634,7.634,0,0,1,.187-0.9,36.8,36.8,0,0,0,.864-7.293c0-.567-0.074-0.942.489-0.942a10.858,10.858,0,0,1,1.577.19c0.526,0.11,1.24.148,1.24,0.524A0.44,0.44,0,0,1,433.606,779.791Zm4.32,9.586a2.634,2.634,0,0,0-.038.526,2.751,2.751,0,0,0,.263,1.128,28.542,28.542,0,0,0,3.757,5.83,1.117,1.117,0,0,1,.3.639c0,0.676-1.8,2.4-2.554,2.4-0.638,0-2.066-2.858-2.366-3.46a0.432,0.432,0,0,0-.339-0.224,0.409,0.409,0,0,0-.375.262,22.808,22.808,0,0,1-3.192,6.843,1.136,1.136,0,0,1-.864.677c-0.527,0-2.7-1.2-2.7-2.069a1.5,1.5,0,0,1,.413-0.751c3.569-4.889,4.395-11.129,4.395-17.03V773.737a13.474,13.474,0,0,0-.113-2.557c0-.075-0.037-0.226-0.037-0.338,0-.414.337-0.489,0.675-0.489,0.451,0,2.743.187,3.231,0.226,0.264,0.038.6,0.074,0.6,0.413a0.745,0.745,0,0,1-.451.527c-0.337.3-.375,1.09-0.375,2.292v5.34a0.3,0.3,0,0,0,.3.338,0.283,0.283,0,0,0,.263-0.15c0.339-.526.676-1.09,0.977-1.656a0.9,0.9,0,0,1,.563-0.487c0.339,0,2.7,2.217,2.7,2.669a0.432,0.432,0,0,1-.451.45h-0.187a0.608,0.608,0,0,0-.489.227c-1.014,1.165-1.052,1.466-3.043,3.611a2.025,2.025,0,0,0-.676,1.578C438.075,786.971,438.038,788.174,437.926,789.377Zm16.489,7.369a0.352,0.352,0,0,0-.3.413V799.3c0,1.2.075,2.408,0.075,3.648,0,1.092-.413,1.092-1.878,1.092-1.39,0-1.878,0-1.878-1.092,0-1.052.112-2.294,0.112-3.648v-2.217a0.318,0.318,0,0,0-.3-0.376,0.331,0.331,0,0,0-.261.114,24.323,24.323,0,0,1-6.387,5.863,2.367,2.367,0,0,1-1.127.528c-0.638,0-2.14-1.692-2.14-2.369a1.7,1.7,0,0,1,1.051-.979,26.332,26.332,0,0,0,6.2-5.338,0.674,0.674,0,0,0,.149-0.376,0.477,0.477,0,0,0-.526-0.452h-1.127c-1.277,0-2.554.077-3.831,0.077-0.864,0-.826-0.34-0.826-1.579s-0.038-1.619.826-1.619c1.277,0,2.554.077,3.831,0.077h3.569a0.707,0.707,0,0,0,.826-0.827,6.283,6.283,0,0,1-.074-0.79c0-.414.3-0.489,0.638-0.489,0.714,0,2.366.151,3.118,0.226,0.3,0.037.9,0.037,0.9,0.452a0.684,0.684,0,0,1-.487.488,0.946,0.946,0,0,0-.376.565,0.479,0.479,0,0,0,.564.375h4.018c1.278,0,2.555-.077,3.832-0.077,0.864,0,.826.378,0.826,1.619,0,1.277,0,1.579-.826,1.579-1.277,0-2.554-.077-3.832-0.077H457.2a0.5,0.5,0,0,0-.527.452,0.67,0.67,0,0,0,.15.337,41.578,41.578,0,0,0,6.236,5.566,1.3,1.3,0,0,1,.714.827c0,0.715-1.691,2.256-2.367,2.256-1.24,0-5.784-5.114-6.686-6.242A0.343,0.343,0,0,0,454.415,796.746Zm-2.929-11.354c0,0.489.038,0.978,0.038,1.467a1.3,1.3,0,0,1-1.5,1.5c-0.638,0-1.277-.075-1.915-0.075H446c-0.639,0-1.277.075-1.916,0.075a1.305,1.305,0,0,1-1.54-1.465c0-.49.074-1.016,0.074-1.5V783.1c0-.528-0.074-1.016-0.074-1.5a1.3,1.3,0,0,1,1.54-1.466c0.639,0,1.277.075,1.916,0.075h2.1c0.638,0,1.24-.075,1.879-0.075a1.292,1.292,0,0,1,1.54,1.466c0,0.525-.038,1.014-0.038,1.5v2.293ZM445.4,784.6a1,1,0,0,0,1.051,1.015h1.09a1,1,0,0,0,1.051-1.015v-0.791a1,1,0,0,0-1.051-1.014h-1.09a0.994,0.994,0,0,0-1.051,1.014V784.6Zm13.485-8.723c0,0.6.075,1.091,0.075,1.579,0,1.089-.752,1.393-1.729,1.393-0.826,0-1.652-.078-2.478-0.078h-4.846c-0.826,0-1.652.078-2.442,0.078-0.976,0-1.728-.3-1.728-1.393,0-.488.038-0.978,0.038-1.579v-1.541c0-.64-0.038-1.09-0.038-1.58,0-1.089.714-1.392,1.69-1.392,0.828,0,1.654.038,2.48,0.038h4.846c0.826,0,1.652-.038,2.478-0.038,0.977,0,1.729.264,1.729,1.392,0,0.49-.075.94-0.075,1.58v1.541Zm-9.88-.6a0.869,0.869,0,0,0,.9.9h4.92a0.849,0.849,0,0,0,.9-0.9V774.9a0.849,0.849,0,0,0-.9-0.9h-4.92a0.869,0.869,0,0,0-.9.9v0.376Zm13.3,10.152c0,0.489.038,1.014,0.038,1.5a1.293,1.293,0,0,1-1.5,1.466c-0.639,0-1.2-.075-1.916-0.075h-2.254c-0.714,0-1.277.075-1.877,0.075a1.306,1.306,0,0,1-1.541-1.466c0-.49.037-1.015,0.037-1.5V783.1c0-.49-0.037-0.979-0.037-1.5a1.255,1.255,0,0,1,1.465-1.429c0.676,0,1.315.038,1.953,0.038h2.254c0.639,0,1.277-.038,1.916-0.038a1.281,1.281,0,0,1,1.5,1.429c0,0.525-.038,1.014-0.038,1.5v2.331Zm-6.16-.827a1.051,1.051,0,0,0,1.053,1.052h1.163a1.05,1.05,0,0,0,1.052-1.052V783.85a1.075,1.075,0,0,0-1.052-1.052H457.2a1.076,1.076,0,0,0-1.053,1.052V784.6Zm28.617,11.88a0.645,0.645,0,0,0-.638.564,19.927,19.927,0,0,1-2.442,6.091,1.443,1.443,0,0,1-1.165.9c-0.563,0-2.216-.716-2.216-1.431a1.236,1.236,0,0,1,.263-0.6,17.81,17.81,0,0,0,3.23-9.438,0.885,0.885,0,0,0-1.014-.977c-0.225,0-.45.038-0.676,0.038-0.788,0-.826-0.378-0.826-1.353V789.94a0.368,0.368,0,0,0-.451-0.412c-0.45-.038-1.014-1.128-1.39-1.767a2.327,2.327,0,0,1-.15-0.264,0.256,0.256,0,0,0-.225-0.15,0.263,0.263,0,0,0-.226.3v10.265c0,1.692.076,3.382,0.076,5.076,0,1.014-.413,1.014-1.8,1.014-1.428,0-1.841-.038-1.841-1.014,0-1.694.076-3.384,0.076-5.076v-6.956a0.151,0.151,0,0,0-.15-0.188,0.234,0.234,0,0,0-.151.112,31.555,31.555,0,0,1-1.878,5,0.918,0.918,0,0,1-.752.716c-0.676,0-1.953-1.768-1.953-2.369a1.966,1.966,0,0,1,.3-0.827,38.791,38.791,0,0,0,4.056-11.843c0-.114.038-0.19,0.038-0.264a0.718,0.718,0,0,0-.864-0.714c-0.187,0-1.69.076-1.727,0.076-0.789,0-.714-0.679-0.714-1.843,0-1.2-.075-1.807.714-1.807,0.488,0,1.276.077,2.028,0.077a0.907,0.907,0,0,0,1.052-1.053v-2.407a16.486,16.486,0,0,0-.114-2.443,1.086,1.086,0,0,1-.036-0.338,0.481,0.481,0,0,1,.6-0.451c0.451,0,2.479.188,3.042,0.262,0.3,0.038.94,0.038,0.94,0.489a0.733,0.733,0,0,1-.527.528c-0.375.262-.413,0.788-0.413,1.992v2.368a0.873,0.873,0,0,0,.94,1.053c0.562-.038,1.089-0.038,1.652-0.077a0.606,0.606,0,0,0,.564-0.224c0.15-.3.563-1.241,0.938-1.241a0.323,0.323,0,0,1,.226.114,0.575,0.575,0,0,0,.263.074,0.376,0.376,0,0,0,.263-0.15,35.253,35.253,0,0,0,2.291-4.625c0.075-.226.113-0.414,0.339-0.414,0.187,0,2.629,1.053,2.629,1.5,0,0.34-.263.377-0.527,0.377a0.763,0.763,0,0,0-.75.375,11.554,11.554,0,0,0-.752,1.354,28.925,28.925,0,0,1-1.616,2.745,0.832,0.832,0,0,0-.112.264,0.478,0.478,0,0,0,.15.337,0.921,0.921,0,0,1,.188.187,0.941,0.941,0,0,0,.564.226,0.693,0.693,0,0,0,.6-0.487c0.263-.527.526-1.09,0.788-1.656,0.113-.262.151-0.451,0.377-0.451,0.112,0,2.667,1.24,2.667,1.73,0,0.3-.263.338-0.489,0.338a0.885,0.885,0,0,0-.826.377,45.525,45.525,0,0,1-3.156,5.376,0.429,0.429,0,0,0-.112.3,0.449,0.449,0,0,0,.563.375,5.365,5.365,0,0,0,.714-0.074,0.651,0.651,0,0,0,.676-0.677,0.724,0.724,0,0,0-.113-0.377,6,6,0,0,1-.413-1.052c0-.488,1.427-0.865,1.652-0.865a0.68,0.68,0,0,1,.6.527c0.525,1.09,1.014,2.219,1.427,3.309a0.332,0.332,0,0,0,.225.262,0.212,0.212,0,0,0,.226-0.225c0-.075-0.112-1.579-0.112-1.842-0.151-3.5-.076-7.032-0.114-10.527-0.037-.265-0.075-1.2-0.075-1.279a0.522,0.522,0,0,1,.6-0.6c0.225,0,1.652.149,1.991,0.188,1.239,0.149,1.576.149,1.576,0.6a0.671,0.671,0,0,1-.562.562c-0.376.19-.414,0.377-0.414,1.129v2.557a0.212,0.212,0,0,0,.226.262,0.38,0.38,0,0,0,.263-0.149,0.461,0.461,0,0,1,.376-0.188,0.531,0.531,0,0,1,.225.075,0.933,0.933,0,0,0,.263.076,0.393,0.393,0,0,0,.337-0.189,33.861,33.861,0,0,0,2.217-4.361,0.485,0.485,0,0,1,.375-0.452,10.168,10.168,0,0,1,2.029,1.017,0.876,0.876,0,0,1,.6.6c0,0.339-.3.339-0.526,0.339a0.742,0.742,0,0,0-.676.453,39.58,39.58,0,0,1-2.178,3.644,0.638,0.638,0,0,0-.114.378,0.573,0.573,0,0,0,.264.45l0.112,0.113a1,1,0,0,0,.564.187,0.783,0.783,0,0,0,.676-0.451c0.337-.638.638-1.278,0.939-1.954a0.623,0.623,0,0,1,.413-0.488,7.738,7.738,0,0,1,1.728.789,1.759,1.759,0,0,1,1.052.863c0,0.3-.226.34-0.451,0.378a0.7,0.7,0,0,0-.788.412,39.6,39.6,0,0,1-3.118,5.115,0.879,0.879,0,0,0-.076.3,0.417,0.417,0,0,0,.489.414l0.826-.113a0.715,0.715,0,0,0,.714-0.713,1.99,1.99,0,0,0-.114-0.378,7.014,7.014,0,0,1-.413-0.976c0-.566,1.315-0.866,1.616-0.866a0.765,0.765,0,0,1,.638.527c0.451,0.978.864,1.955,1.278,2.933a14.511,14.511,0,0,1,.751,2.256c0,0.488-1.2.788-1.615,0.788-0.451,0-.526-0.374-0.714-0.939a0.739,0.739,0,0,0-.9-0.525c-0.564.073-1.165,0.187-1.765,0.3a0.4,0.4,0,0,0-.377.339,0.445,0.445,0,0,0,.225.376l0.377,0.263a3,3,0,0,1,1.277,1.165,0.621,0.621,0,0,1-.187.45,0.7,0.7,0,0,0-.076.265,0.531,0.531,0,0,0,.638.413c0.677,0,1.353-.075,2.029-0.075,0.826,0,.788.6,0.788,1.542,0,1.054.038,1.542-.826,1.542-1.277,0-2.553-.075-3.794-0.075h-3.456a0.656,0.656,0,0,0-.788.639,0.749,0.749,0,0,0,.037.3c0.188,0.639.45,1.278,0.676,1.916a0.648,0.648,0,0,0,.564.452,0.756,0.756,0,0,0,.489-0.226,9.685,9.685,0,0,0,1.54-2.179,0.894,0.894,0,0,1,.563-0.49c0.225,0,2.817,1.316,2.817,1.841a0.579,0.579,0,0,1-.6.415,1.126,1.126,0,0,0-.9.713,22.8,22.8,0,0,1-1.877,2.37,1.017,1.017,0,0,0-.114,1.542c0.376,0.488,1.5,1.841,2.141,1.841,0.864,0,1.052-2.67,1.127-3.309,0.076-.413.114-0.6,0.752-0.6,0.864,0,2.028.375,2.028,1.392a12.635,12.635,0,0,1-1.014,3.835,2.724,2.724,0,0,1-2.48,1.992c-2.1,0-3.643-1.653-4.844-3.2a0.959,0.959,0,0,0-.752-0.414,1.279,1.279,0,0,0-.638.187c-1.277.9-5.56,3.345-6.987,3.345-0.714,0-1.428-1.615-1.428-2.216,0-.565.6-0.677,1.127-0.828a20.5,20.5,0,0,0,5.747-2.858,1,1,0,0,0,.489-0.865,1.7,1.7,0,0,0-.113-0.6,28.9,28.9,0,0,1-1.465-4.06,1.092,1.092,0,0,0-1.277-.94h-3.569a0.855,0.855,0,0,0-1.014.788,1.394,1.394,0,0,0,.864,1.242,28.027,28.027,0,0,1,3.38,2.067,1.034,1.034,0,0,1,.677.864c0,0.828-.939,2.182-1.615,2.182a1.834,1.834,0,0,1-.752-0.49c-0.676-.563-1.427-1.091-2.141-1.615A0.837,0.837,0,0,0,484.76,796.483Zm-4.658-8.46a0.573,0.573,0,0,0,.639.564c1.051,0.076,2.1.038,3.156,0.038h5.07a0.71,0.71,0,0,0,.789-0.827c-0.038-.3-0.038-0.827-0.451-0.827a1.06,1.06,0,0,0-.338.077,3.379,3.379,0,0,1-1.09.261c-0.413,0-.449-0.338-0.563-0.677a0.907,0.907,0,0,0-1.051-.64c-1.465.264-2.969,0.452-4.471,0.678a0.635,0.635,0,0,0-.525.45,0.371,0.371,0,0,1-.3.227c-0.337,0-.375-0.3-0.638-1.091a10.651,10.651,0,0,1-.376-1.767c0-.336.376-0.3,0.6-0.336a0.589,0.589,0,0,0,.563-0.3c0.526-.789.977-1.615,1.466-2.406a1.392,1.392,0,0,0,.188-0.64,1.234,1.234,0,0,0-.451-0.865c-0.489-.412-0.978-0.788-1.465-1.165a0.5,0.5,0,0,0-.3-0.112,0.366,0.366,0,0,0-.375.414c-0.038,1.014,0,1.58-.752,1.58-0.15,0-1.427-.076-1.8-0.114a0.724,0.724,0,0,0-.788.677,2.182,2.182,0,0,0,.112.376,24.1,24.1,0,0,0,3.27,4.963,0.6,0.6,0,0,1,.187.413,1.606,1.606,0,0,1-.225.715A1.086,1.086,0,0,0,480.1,788.023Zm15.288-7.443a1.064,1.064,0,0,0-.451-0.789c-0.563-.452-1.164-0.9-1.765-1.355a0.524,0.524,0,0,0-.338-0.113,0.5,0.5,0,0,0-.488.49v1.126c0,0.865.037,1.768,0.037,2.632a0.87,0.87,0,0,0,.976.9,0.785,0.785,0,0,0,.677-0.451c0.376-.6.789-1.167,1.127-1.768A1.215,1.215,0,0,0,495.39,780.58Zm1.052,8.045a0.352,0.352,0,0,0,.413-0.3,0.45,0.45,0,0,0-.188-0.3,4.035,4.035,0,0,1-1.5-1.2,1.26,1.26,0,0,1,.339-0.715,0.3,0.3,0,0,0,.036-0.15,0.216,0.216,0,0,0-.225-0.226l-1.389.226a0.946,0.946,0,0,0-.676.524,0.386,0.386,0,0,1-.451.264c-0.076-.038-0.15-0.038-0.15.039l0.112,1.014a0.83,0.83,0,0,0,1.014.827h2.667Z" transform="translate(-174.125 -708.906)"/>
</svg>
