<svg xmlns="http://www.w3.org/2000/svg" width="216.59" height="64.32" viewBox="0 0 216.59 64.32">
  <defs>
    <style>
      .cls-1 {
        fill: #fff;
        fill-rule: evenodd;
      }
    </style>
  </defs>
  <path id="logo_w.svg" class="cls-1" d="M2421.86,5075.47a13.8,13.8,0,0,1,12.83,8.73h-25.67a13.822,13.822,0,0,1,12.84-8.73m24.39,16.27a23.759,23.759,0,0,0,.15-2.55c0-12.95-11.14-23.46-24.89-23.46s-24.88,10.51-24.88,23.46c0,12.97,11.14,23.47,24.88,23.47a24.926,24.926,0,0,0,23.08-14.68l-10.72-1.82a13.8,13.8,0,0,1-25.62-4.42h38Zm-69,20.07h12.69v-45.09h-12.69v45.09Zm6.34-63.47a6.83,6.83,0,1,0,7.1,6.82,6.956,6.956,0,0,0-7.1-6.82m-84.11,3.92v24.27h-27.4v-24.27h-13.9v59.51h13.9V5087.5h27.4v24.27h13.9v-59.51h-13.9m45.31,50.52c-7.86,0-14.23-6.08-14.23-13.58,0-7.48,6.37-13.55,14.23-13.55s14.22,6.07,14.22,13.55c0,7.5-6.37,13.58-14.22,13.58m12.03-36.04v2.42a24.875,24.875,0,0,0-12.65-3.4c-13.48,0-24.41,10.49-24.41,23.44s10.93,23.46,24.41,23.46a25.038,25.038,0,0,0,12.36-3.23v2.34h12.4v-45.03h-12.11Zm115.85-4.21c-11.7,1.97-20.59,11.79-20.73,23.62v25.66h12.16l0.01-26.14a11.913,11.913,0,0,1,10.67-11.64l-2.11-11.5" transform="translate(-2258.19 -5048.34)"/>
</svg>
