<svg id="pc_kv_ttl.svg" xmlns="http://www.w3.org/2000/svg" width="386.031" height="182.47" viewBox="0 0 386.031 182.47">
  <defs>
    <style>
      .cls-1 {
        fill-rule: evenodd;
      }
    </style>
  </defs>
  <path id="シェイプ_3" data-name="シェイプ 3" class="cls-1" d="M577.339,3253.56a1,1,0,0,1-1.007,1H557.41a1.007,1.007,0,0,0-1.007,1.01v55.68a1.007,1.007,0,0,1-1.008,1.01h-9.56a1.007,1.007,0,0,1-1.007-1.01v-55.68a1.007,1.007,0,0,0-1.007-1.01H525.083a1,1,0,0,1-1.007-1v-7.39a1.007,1.007,0,0,1,1.007-1.01h51.249a1.007,1.007,0,0,1,1.007,1.01v7.39Zm-142.351,41.21c0.121,0.48.3,0.48,0.4-.01l9.963-48.71a1.163,1.163,0,0,1,1.09-.89H456.2a0.7,0.7,0,0,1,.7.89l-15.083,65.3a1.2,1.2,0,0,1-1.111.88h-9.342a1.234,1.234,0,0,1-1.137-.88l-12.313-47.21c-0.125-.48-0.334-0.48-0.462,0l-12.58,47.21a1.243,1.243,0,0,1-1.142.88h-9.387a1.2,1.2,0,0,1-1.112-.88l-15.082-65.3a0.694,0.694,0,0,1,.7-0.89h9.756a1.165,1.165,0,0,1,1.092.89l10.052,48.62c0.1,0.49.284,0.49,0.407,0.01l12.37-48.64a1.237,1.237,0,0,1,1.131-.88h7.958a1.231,1.231,0,0,1,1.129.88ZM363.1,3245.16h-9.8a0.912,0.912,0,0,0-.908.91v43.59q0,14.19-13.462,14.19-6.639,0-10.051-3.55t-3.412-10.27v-43.96a0.911,0.911,0,0,0-.907-0.91h-9.8a0.912,0.912,0,0,0-.908.91v43.87q0,10.905,6.777,17.06t18.3,6.15q11.385,0,18.233-6.24t6.847-16.93v-43.91A0.912,0.912,0,0,0,363.1,3245.16Zm280.122,35.3a41.115,41.115,0,0,1-3.412,17.3,25.716,25.716,0,0,1-9.754,11.43,28.606,28.606,0,0,1-29.145,0,26.114,26.114,0,0,1-9.869-11.36,39.824,39.824,0,0,1-3.528-17v-3.78A40.808,40.808,0,0,1,591,3259.72a26.13,26.13,0,0,1,9.823-11.49,28.677,28.677,0,0,1,29.1-.05,25.858,25.858,0,0,1,9.8,11.34,40.669,40.669,0,0,1,3.5,17.21v3.73Zm-11.667-3.5q0-11.16-4.22-17.1a14.9,14.9,0,0,0-23.795-.02q-4.266,5.925-4.358,16.75v3.87q0,11.055,4.312,17.1a13.889,13.889,0,0,0,11.966,6.03q7.749,0,11.922-5.9t4.173-17.23v-3.5Zm-148.5,10.28a0.721,0.721,0,0,1-.675-0.96l9.066-25.93a0.354,0.354,0,0,1,.665,0l17.827,50.96a1.434,1.434,0,0,0,1.34.95h10.16a0.7,0.7,0,0,0,.651-0.94l-24.7-65.22a1.467,1.467,0,0,0-1.363-.94h-8.454a1.465,1.465,0,0,0-1.363.94l-24.652,65.22a0.7,0.7,0,0,0,.651.94h10.114a1.429,1.429,0,0,0,1.338-.95l4.78-13.72a1.416,1.416,0,0,1,1.338-.95h18.673a0.765,0.765,0,0,0,.895-0.9,9.413,9.413,0,0,0-9.367-8.51Zm-187.195-4.34a0.912,0.912,0,0,1-.908.91h-25.2a0.91,0.91,0,0,0-.908.9v26.61a0.912,0.912,0,0,1-.908.91h-9.848a0.912,0.912,0,0,1-.908-0.91v-65.25a0.912,0.912,0,0,1,.908-0.91h40.83a0.912,0.912,0,0,1,.908.91v7.58a0.912,0.912,0,0,1-.908.91H269.753a0.912,0.912,0,0,0-.908.91v18.13a0.9,0.9,0,0,0,.908.9h25.2a0.912,0.912,0,0,1,.908.91v7.49Z" transform="translate(-257.188 -3130.72)"/>
  <path id="シェイプ_4" data-name="シェイプ 4" class="cls-1" d="M331.6,3153.69c0,4.81.789,4.69,6.231,4.69,3.273,0,9.5-.07,12.578-0.71a4.455,4.455,0,0,1,.947-0.15c0.709,0,.828.94,0.828,2.05,0,1.38-.04,2.29-1.262,2.45-2.721.39-10.8,0.43-13.841,0.43-2.641,0-7.057.16-8.714-2.29-1.025-1.46-1.065-4.5-1.065-6.28v-14.72a29,29,0,0,0-.2-4.14v-0.32a0.437,0.437,0,0,1,.433-0.43c0.355,0,3.352.63,3.943,0.75,0.316,0.04.867,0.12,0.867,0.51a0.931,0.931,0,0,1-.354.59,4.162,4.162,0,0,0-.434,2.41c0,0.63.039,1.34,0.039,2.05v3.83a1.124,1.124,0,0,0,1.38.99c4.22,0,11.593-2.45,15.182-4.7a2.356,2.356,0,0,1,.67-0.27c0.434,0,1.381,1.54,1.617,1.89a9.191,9.191,0,0,1,1.223,2.13,0.493,0.493,0,0,1-.553.4c-0.236,0-.591-0.08-0.868-0.08a4.05,4.05,0,0,0-1.34.43c-5.56,2.33-9.976,3.75-16.049,4.07a1.14,1.14,0,0,0-1.262,1.1v3.32Zm52.628-7.22c1.814,0,4.378-.12,4.89-0.12,1.064,0,1.1.31,1.1,2.48,0,1.27-.04,2.02-1.065,2.02-1.656,0-3.311-.08-4.929-0.08H366.089c-1.617,0-3.273.08-4.929,0.08-1.026,0-1.065-.75-1.065-1.98,0-2.21.079-2.52,1.1-2.52,0.513,0,3.234.12,4.89,0.12h18.138Zm23.151-2.49c0.789,0,4.732,3.12,5.521,3.79,0.552,0.47,2.761,2.17,2.761,2.84s-1.854,2.72-2.643,2.72a1.41,1.41,0,0,1-.867-0.51,59.563,59.563,0,0,0-5.718-4.62,0.69,0.69,0,0,0-.394-0.16,0.528,0.528,0,0,0-.473.63v10.78c0,1.58.079,3.12,0.079,4.7,0,1.81-.04,2.05-2.445,2.05-1.578,0-2.248-.04-2.248-1.34,0-1.78.119-3.56,0.119-5.33v-22.5c0-1.02-.079-2.09-0.119-3.08,0-.19-0.039-0.55-0.039-0.71a0.471,0.471,0,0,1,.513-0.59c0.236,0,1.063.12,1.34,0.16,1.774,0.23,3.391.39,3.391,0.95a1.2,1.2,0,0,1-.2.51,3.172,3.172,0,0,0-.434,2.09c0,0.59.04,1.34,0.04,2.33v5.92a0.328,0.328,0,0,0,.315.39,0.416,0.416,0,0,0,.355-0.15A2.03,2.03,0,0,1,407.378,3143.98Zm27.154,7.38a0.6,0.6,0,0,1-.434.39,1.8,1.8,0,0,0-1.221.91c-0.907,1.11-5.679,6.67-6.823,6.67-0.669,0-2.8-1.89-2.8-2.64a1.821,1.821,0,0,1,.907-0.99,21.811,21.811,0,0,0,5.442-5.96,1.235,1.235,0,0,1,.749-0.79,15.665,15.665,0,0,1,2.681,1.23C433.389,3150.37,434.532,3150.93,434.532,3151.36Zm2.17-9.79a1.094,1.094,0,0,0,1.1-1.3v-0.56a36.307,36.307,0,0,0-.158-4.61c0-.16-0.04-0.32-0.04-0.48,0-.47.316-0.55,0.71-0.55,0.67,0,1.971.24,2.72,0.32,0.908,0.12,1.815.15,1.815,0.59a0.644,0.644,0,0,1-.316.51c-0.513.52-.552,0.79-0.552,2.65v2.13a1.1,1.1,0,0,0,1.1,1.3h6.191c1.7,0,3.431-.08,5.166-0.08,1.025,0,.985.56,0.985,2.29,0,1.42-.039,1.94-1.064,1.94-1.7,0-3.392-.08-5.087-0.08h-6.112a1.184,1.184,0,0,0-1.183,1.18v9.24c0,0.79.039,1.54,0.039,2.32,0,2.14,0,3.99-2.208,5.1a12.24,12.24,0,0,1-4.258,1.14c-0.632,0-.907-0.4-1.42-1.38a7.348,7.348,0,0,1-.749-2.13c0-.63.907-0.59,1.38-0.63,3.194-.24,3.037-1.46,3.037-4.31v-9.35a1.16,1.16,0,0,0-1.183-1.18H430.55c-1.657,0-3.312.08-4.969,0.08-1.024,0-1.024-.68-1.024-1.98,0-1.62-.04-2.25.985-2.25s3.391,0.08,5.008.08H436.7Zm16.126,10.66c0.632,0.63,3.471,3.39,3.471,4.14,0,0.83-2.091,2.72-2.721,2.72a1.47,1.47,0,0,1-.946-0.74,38.467,38.467,0,0,0-5.876-6.04,1.353,1.353,0,0,1-.67-0.87c0-.59,1.616-2.57,2.444-2.57C449.438,3148.87,452.08,3151.52,452.828,3152.23Zm5.205-16.82a3.923,3.923,0,1,1-7.846,0,3.884,3.884,0,0,1,3.9-3.9A3.943,3.943,0,0,1,458.033,3135.41Zm-6.032,0a2.092,2.092,0,0,0,2.09,2.14,2.115,2.115,0,1,0,0-4.23A2.08,2.08,0,0,0,452,3135.41Zm42.075,9.56c0,0.67-1.577,2.21-2.09,2.72a68.553,68.553,0,0,1-21.411,14.88c-1.3.63-1.342,0.67-1.657,1.34a0.394,0.394,0,0,1-.394.24c-0.433,0-1.261-1.58-1.538-2.06a11.035,11.035,0,0,1-1.182-2.36c0-.44.71-0.52,1.222-0.67,8.715-2.57,18.572-10.03,24.172-17.17a0.965,0.965,0,0,1,.669-0.44C492.657,3141.45,494.076,3144.37,494.076,3144.97Zm-20.347-6.52c0.513,0.36,2.406,1.66,2.406,2.25,0,0.91-1.854,3.04-2.6,3.04a4.238,4.238,0,0,1-1.577-1.06,48.948,48.948,0,0,0-5.245-3.68,0.977,0.977,0,0,1-.631-0.75c0-.59,1.578-3.11,2.485-3.11C469.2,3135.14,472.98,3137.9,473.729,3138.45Zm49.166-.95c0.671,0,1.618-.07,1.972-0.07a3.1,3.1,0,0,1,1.893,1.26,4.58,4.58,0,0,1,1.34,1.81c0,0.36-.315.75-0.591,2.29-1.3,7.42-4.219,12.63-10.45,16.98a37.39,37.39,0,0,1-7.57,4.06,4.794,4.794,0,0,1-1.3.32c-0.946,0-2.326-2.65-2.326-3.28a0.7,0.7,0,0,1,.71-0.63,28.1,28.1,0,0,0,9.818-5.21,18.573,18.573,0,0,0,6.427-11.49,9.308,9.308,0,0,0,.119-0.98c0-.75-0.671-0.83-1.38-0.83H507.517c-1.656,0-3.273.08-4.929,0.08-1.183,0-1.183-.36-1.183-2.13,0-1.82-.039-2.25,1.1-2.25,1.7,0,3.391.07,5.087,0.07h15.3Zm11.357-2.88a3.924,3.924,0,0,1-7.848,0A3.924,3.924,0,0,1,534.252,3134.62Zm-6.033,0a2.109,2.109,0,0,0,4.218,0A2.109,2.109,0,1,0,528.219,3134.62Zm33.373,3.95h5.718c1.616,0,3.272-.08,4.889-0.08,0.946,0,.907.51,0.907,1.94,0,1.46.039,1.97-.907,1.97-1.617,0-3.273-.08-4.889-0.08h-5.324a0.787,0.787,0,0,0-.946.83v0.2a58.783,58.783,0,0,0,4.219,15.31c0.355,0.75,1.617,3.39,2.524,3.39,1.38,0,1.814-3.82,1.893-4.85,0.079-.67.079-1.14,0.906-1.14a3.47,3.47,0,0,1,1.539.35,1.427,1.427,0,0,1,1.064,1.46,15.929,15.929,0,0,1-.67,3.87c-0.671,2.29-1.854,4.81-4.575,4.81-2.405,0-4.021-2.29-5.126-4.1-3.115-5.09-4.928-13.22-5.8-19.1a1.033,1.033,0,0,0-1.223-1.03H544.124c-1.617,0-3.234.08-4.89,0.08-0.947,0-.907-0.47-0.907-1.93,0-1.5-.04-1.98.907-1.98,1.656,0,3.273.08,4.89,0.08H555.4a0.89,0.89,0,0,0,1.026-1.07c0-.03-0.355-5.13-0.355-5.2a0.694,0.694,0,0,1,.867-0.71c0.236,0,2.76.15,3.155,0.19,0.354,0,1.064.12,1.064,0.59a0.8,0.8,0,0,1-.591.64,0.963,0.963,0,0,0-.315.9c0,0.6.117,2.88,0.2,3.64A0.971,0.971,0,0,0,561.592,3138.57Zm-11.633,19.74a0.8,0.8,0,0,0,.789.9h0.276c0.631-.15,5.836-1.34,5.876-1.34,0.749,0,.788,1.9.788,2.41a1.034,1.034,0,0,1-.986,1.22c-3.154.91-10.8,2.49-14.116,3-1.143.2-1.3,0.2-1.5,0.79a0.5,0.5,0,0,1-.473.47c-0.434,0-.591-0.31-0.788-0.98-0.159-.44-0.947-2.84-0.947-3.12,0-.55.631-0.63,2.17-0.79,0.946-.12,2.247-0.2,3.982-0.55a1.078,1.078,0,0,0,1.025-1.26v-6.95a0.963,0.963,0,0,0-1.1-1.1h-0.2c-1.3,0-2.643.11-3.983,0.11-0.907,0-.867-0.51-0.867-1.93,0-1.38-.04-1.93.827-1.93,1.263,0,2.681.07,4.023,0.07h6.112c1.38,0,2.8-.07,4.022-0.07,0.867,0,.827.51,0.827,1.93s0.04,1.93-.827,1.93c-1.3,0-2.564-.11-3.826-0.11a0.991,0.991,0,0,0-1.1,1.1v6.2Zm17.508-19.98a0.831,0.831,0,0,1-.67-0.47q-1.656-2.07-3.431-4.03a1.174,1.174,0,0,1-.473-0.71c0-.67,1.893-1.89,2.524-1.89a1.024,1.024,0,0,1,.709.36c1.105,1.1,2.129,2.32,3.155,3.55a3.051,3.051,0,0,1,.829,1.22C570.11,3137.03,568.1,3138.33,567.467,3138.33Zm-215.3,55.02v7.46a0.58,0.58,0,0,0,.6.69h0.181c1.953-.42,3.876-0.93,5.8-1.54a2.387,2.387,0,0,1,.451-0.08c0.721,0,.721,1.08.721,1.59,0,1.11-.18,1.14-0.571,1.26a130.17,130.17,0,0,1-12.741,3.01c-0.812.15-.751,0.18-0.9,0.54a0.39,0.39,0,0,1-.36.24c-0.331,0-.451-0.33-0.812-1.2a15.481,15.481,0,0,1-.66-1.95c0-.34.45-0.34,0.78-0.37,1.263-.18,2.525-0.39,3.787-0.6a0.847,0.847,0,0,0,.752-0.96v-5.41c-0.03-.25-0.091-0.46-0.361-0.46a0.45,0.45,0,0,0-.271.12c-0.691.55-3.846,2.98-4.507,2.98-0.571,0-1.683-1.47-1.683-2.04a1.539,1.539,0,0,1,.962-0.85,40.531,40.531,0,0,0,9.255-7.88,0.539,0.539,0,0,0,.12-0.27,0.391,0.391,0,0,0-.45-0.36h-5.5c-1.2,0-2.374.06-3.546,0.06-0.751,0-.721-0.33-0.721-1.44s-0.03-1.48.721-1.48c1.172,0,2.344.09,3.546,0.09h6.612a0.735,0.735,0,0,0,.841-0.84v-0.78a14.905,14.905,0,0,0-.12-2.32,0.831,0.831,0,0,1-.03-0.27c0-.33.3-0.36,0.57-0.36,0.541,0,2.044.12,2.614,0.21,0.211,0,.843.06,0.843,0.39a0.608,0.608,0,0,1-.391.45,1.159,1.159,0,0,0-.361,1.18v1.5a0.715,0.715,0,0,0,.811.84h6.671c1.172,0,2.345-.09,3.547-0.09,0.751,0,.691.37,0.691,1.48s0.03,1.44-.691,1.44c-1.2,0-2.375-.06-3.547-0.06h-5.258a0.617,0.617,0,0,0-.722.6v0.18a22.156,22.156,0,0,0,1.383,4.76,0.588,0.588,0,0,0,.481.39,0.661,0.661,0,0,0,.45-0.18,47.518,47.518,0,0,0,3.516-3.28,1.2,1.2,0,0,1,.6-0.51,4.782,4.782,0,0,1,1.412,1.11c0.15,0.15.331,0.3,0.45,0.42a1.7,1.7,0,0,1,.661.78,0.291,0.291,0,0,1-.33.3c-0.15,0-.3-0.03-0.45-0.03a0.452,0.452,0,0,0-.331.12,43.67,43.67,0,0,1-4.237,3.7,0.817,0.817,0,0,0-.391.63,0.974,0.974,0,0,0,.18.55,26.654,26.654,0,0,0,6.22,6.76,2.071,2.071,0,0,1,.722.82,3.557,3.557,0,0,1-2.074,2.04c-0.751,0-4.6-4.24-5.228-5.02a29.228,29.228,0,0,1-5.71-12.48,0.382,0.382,0,0,0-.33-0.3,0.434,0.434,0,0,0-.332.15,40.555,40.555,0,0,1-2.823,3.21A1.635,1.635,0,0,0,352.164,3193.35Zm28.449,8.21a0.5,0.5,0,0,0-.39.24c-1.2,1.95-4.087,4.93-4.989,4.93-0.631,0-1.863-1.65-1.863-2.1a0.535,0.535,0,0,1,.331-0.39,11.442,11.442,0,0,0,4.627-4.85,0.927,0.927,0,0,0,.06-0.24,0.555,0.555,0,0,0-.63-0.51h-0.211c-0.991,0-2.014.06-3.035,0.06-0.722,0-.691-0.27-0.691-1.32s-0.031-1.35.691-1.35c1.021,0,2.044.05,3.035,0.05h0.571a0.708,0.708,0,0,0,.842-0.75c0-.57-0.031-1.02-0.031-1.23a0.417,0.417,0,0,1,.481-0.51c0.421,0,1.353.06,1.773,0.09,1.022,0.09,1.293.15,1.293,0.39a0.624,0.624,0,0,1-.361.42,0.71,0.71,0,0,0-.3.81,0.685,0.685,0,0,0,.812.78h0.63c1.022,0,2.044-.05,3.066-0.05,0.721,0,.691.33,0.691,1.35,0,1.05,0,1.32-.691,1.32-1.022,0-2.044-.06-3.066-0.06h-0.27a0.437,0.437,0,0,0-.48.39,0.4,0.4,0,0,0,.089.3,18.724,18.724,0,0,0,2.945,3.28,0.563,0.563,0,0,1,.331.48,3.185,3.185,0,0,1-1.833,1.9c-0.721,0-2.584-2.56-3-3.19A0.48,0.48,0,0,0,380.613,3201.56Zm2.825-13.96a0.442,0.442,0,0,0,.121.27,17.9,17.9,0,0,0,3.125,2.77,0.987,0.987,0,0,1,.541.6,3.052,3.052,0,0,1-1.773,1.78c-0.662,0-2.8-2.95-3.246-3.58a0.218,0.218,0,0,0-.211-0.12,0.256,0.256,0,0,0-.209.24c0.029,0.84.059,1.71,0.059,2.55,0,0.82-.27.85-1.412,0.85-1.2,0-1.413-.03-1.413-0.97,0-.48.06-1.23,0.06-2.34a0.221,0.221,0,0,0-.21-0.27,0.258,0.258,0,0,0-.209.15c-0.452.69-2.856,3.94-3.577,3.94a3.126,3.126,0,0,1-1.683-1.81,0.955,0.955,0,0,1,.481-0.6,14.615,14.615,0,0,0,3.275-3.16,0.414,0.414,0,0,0,.091-0.27,0.389,0.389,0,0,0-.452-0.36c-0.45,0-1.953.06-2.283,0.06-0.6,0-.571-0.36-0.571-1.32,0-.93-0.03-1.3.571-1.3,0.932,0,1.864.07,2.794,0.07h0.963a0.707,0.707,0,0,0,.81-0.85v-1.74a10.633,10.633,0,0,0-.089-1.66v-0.27c0-.33.209-0.39,0.48-0.39,0.42,0,1.924.15,2.4,0.18,0.241,0.03.6,0.03,0.6,0.36,0,0.22-.121.22-0.391,0.4-0.331.21-.3,0.51-0.3,2.22v0.9a0.717,0.717,0,0,0,.841.85h1.082c0.931,0,1.862-.07,2.794-0.07,0.6,0,.571.37,0.571,1.33,0,0.93.03,1.29-.571,1.29-0.871,0-1.743-.09-2.614-0.06A0.387,0.387,0,0,0,383.438,3187.6Zm-6.911-3.16a0.885,0.885,0,0,1-.661-0.66c-0.391-.66-0.812-1.26-1.263-1.89a0.554,0.554,0,0,1-.15-0.36c0-.51,1.563-1.15,1.863-1.15,0.421,0,.932.91,1.172,1.27a7.311,7.311,0,0,1,.871,1.65C378.359,3183.81,376.827,3184.44,376.527,3184.44Zm9.826-2.49a1.071,1.071,0,0,0-.6.69c-1.022,1.71-1.2,1.86-1.5,1.86-0.391,0-1.743-.66-1.743-1.02a1.039,1.039,0,0,1,.24-0.48,14.412,14.412,0,0,0,1.262-2.19,0.448,0.448,0,0,1,.361-0.34,7.865,7.865,0,0,1,1.442.55c0.661,0.27.961,0.36,0.961,0.63A0.377,0.377,0,0,1,386.353,3181.95Zm6.22,21.87c-0.09,0-.21-0.03-0.27-0.03a1.04,1.04,0,0,1-.151-0.04,0.607,0.607,0,0,0-.36.19c-0.751.6-4.177,2.88-5.019,2.88-0.6,0-1.652-1.41-1.652-1.86a0.963,0.963,0,0,1,.72-0.57,22.793,22.793,0,0,0,4.329-2.71,1.1,1.1,0,0,1,.51-0.3,8.077,8.077,0,0,1,1.863,1.59,1.208,1.208,0,0,1,.361.57A0.313,0.313,0,0,1,392.573,3203.82Zm1.473-18.62a0.484,0.484,0,0,0-.09.27,0.458,0.458,0,0,0,.51.45h1.293c0.661,0,1.322-.06,1.953-0.06,1.022,0,1.442.27,1.442,1.32,0,0.78-.059,1.54-0.059,2.29v8.06c0,0.78.059,1.53,0.059,2.28a1.124,1.124,0,0,1-1.352,1.33c-0.691,0-1.352-.03-2.043-0.03h-4.448c-0.661,0-1.322.03-1.983,0.03a1.126,1.126,0,0,1-1.383-1.33c0-.78.03-1.53,0.03-2.28v-8.06c0-.75-0.03-1.51-0.03-2.26,0-1.08.421-1.35,1.443-1.35h0.391a1.033,1.033,0,0,0,1.112-.63c0.18-.33.33-0.63,0.51-0.97a0.876,0.876,0,0,0,.06-0.27,0.5,0.5,0,0,0-.57-0.48c-1.023,0-2.075.09-3,.09-0.632,0-.632-0.33-0.632-1.41s0-1.41.632-1.41c0.991,0,1.982.05,2.975,0.05h6.009c0.992,0,1.984-.05,2.975-0.05,0.632,0,.6.39,0.6,1.41s0.03,1.41-.6,1.41c-0.931,0-1.983-.09-2.975-0.09h-1.111a1.115,1.115,0,0,0-1.173.69Zm2.1,3.94a0.7,0.7,0,0,0-.722-0.73h-3.7a0.685,0.685,0,0,0-.721.73v0.45a0.677,0.677,0,0,0,.721.72h3.7a0.694,0.694,0,0,0,.722-0.72v-0.45Zm-4.418,3.43a0.677,0.677,0,0,0-.721.72v0.36a0.663,0.663,0,0,0,.721.72h3.7a0.678,0.678,0,0,0,.722-0.72v-0.36a0.694,0.694,0,0,0-.722-0.72h-3.7Zm0.12,4.06a0.78,0.78,0,0,0-.841.81v0.27a0.8,0.8,0,0,0,.841.84h3.455a0.861,0.861,0,0,0,.843-0.84v-0.27a0.8,0.8,0,0,0-.843-0.81h-3.455Zm7.362,10.19c-0.691,0-4.989-3.13-4.989-3.73a3.136,3.136,0,0,1,1.744-1.65,0.917,0.917,0,0,1,.54.36,21.185,21.185,0,0,0,3.818,2.56,0.787,0.787,0,0,1,.51.51C400.837,3205.44,399.816,3206.82,399.214,3206.82ZM424,3186.91c1.263,0,2.524-.06,3.786-0.06,0.812,0,.842.36,0.842,1.75,0,1.08.03,1.5-.872,1.5-1.261,0-2.493-.06-3.756-0.06h-1.382a1.057,1.057,0,0,0-.932,1.17c-0.421,5.48-2.1,9.63-6.461,13.15-0.51.42-2.283,1.77-2.914,1.77a4.077,4.077,0,0,1-2.254-2.1,0.825,0.825,0,0,1,.511-0.55c3.215-1.8,5.95-4.15,7.031-7.79a21.835,21.835,0,0,0,.842-4.78,0.828,0.828,0,0,0-.842-0.87h-3.966a1.272,1.272,0,0,0-1.322.69c-0.6.93-3.937,5.65-4.839,5.65-0.6,0-2.524-1.17-2.524-1.8a1.237,1.237,0,0,1,.481-0.63,25.979,25.979,0,0,0,7.543-13.12c0.06-.33.12-0.69,0.391-0.69s2.253,0.64,2.674.76a1.462,1.462,0,0,1,1.022.57,0.5,0.5,0,0,1-.331.36,2.819,2.819,0,0,0-.992,1.71c-0.18.54-.421,1.27-0.841,2.23a1.387,1.387,0,0,0-.18.57,0.536,0.536,0,0,0,.571.57H424Zm28.919-2.47a21.6,21.6,0,0,0,3.125-.15,1.593,1.593,0,0,1,.391-0.03,1.733,1.733,0,0,1,1.111.79,3.762,3.762,0,0,1,1.112,1.74,1.349,1.349,0,0,1-.661.81c-0.18.15-2.433,2.5-2.794,2.89-1.052,1.08-2.614,2.62-3.727,3.61a1.193,1.193,0,0,1-.721.42c-0.511,0-2.193-1.32-2.193-1.83a1.994,1.994,0,0,1,.75-0.91c0.541-.48,3.877-3.43,3.877-3.85s-0.661-.36-0.931-0.36H439.366c-1.382,0-2.735.09-4.087,0.09-0.781,0-.812-0.33-0.812-1.53v-0.6c0-.79.061-1.15,0.752-1.15,1.382,0,2.765.06,4.147,0.06h13.553Zm-5.259,4.82c0.211,0.03.631,0.03,0.631,0.36a0.457,0.457,0,0,1-.18.3,5.12,5.12,0,0,0-.6,2.16c-0.872,5.51-2.735,9.33-7.212,12.79a2.152,2.152,0,0,1-.992.54c-0.51,0-2.464-1.56-2.464-2.1a1.1,1.1,0,0,1,.721-0.67,14.229,14.229,0,0,0,6.281-8.75,16.161,16.161,0,0,0,.481-4.48c0-.24,0-0.39.3-0.39C445.016,3189.02,447.209,3189.2,447.66,3189.26Zm24.119-6.11c0.991,0.03,2.014-.06,3.035-0.06,0.661,0,.631.24,0.631,1.26,0,1,0,1.24-.631,1.24-1.021,0-2.014-.06-3.035-0.06h-0.12a0.615,0.615,0,0,0-.722.72v0.45a0.626,0.626,0,0,0,.722.72c0.57,0.03,1.111-.06,1.682-0.06a1.009,1.009,0,0,1,1.232,1.05c0,0.49-.03.97-0.03,1.45v5.32c0,0.51.03,1,.03,1.48a0.979,0.979,0,0,1-1.2,1.02c-0.572,0-1.172-.06-1.743-0.03a0.606,0.606,0,0,0-.692.72v0.45a0.606,0.606,0,0,0,.692.72h0.27c1.022,0,2.074-.06,3.125-0.06,0.662,0,.662.27,0.662,1.27,0,0.96,0,1.26-.632,1.26-1.052,0-2.1-.06-3.155-0.06h-0.15a0.684,0.684,0,0,0-.812.81c-0.03,1.03.061,2.08,0.061,3.1,0,0.96-.271.99-1.5,0.99-1.142,0-1.472-.03-1.472-0.93,0-1.05.059-2.1,0.059-3.16a0.694,0.694,0,0,0-.81-0.81h-0.241c-1.022,0-2.074.06-3.126,0.06-0.66,0-.66-0.27-0.66-1.26s0-1.27.63-1.27c1.052,0,2.1.06,3.156,0.06h0.36a0.605,0.605,0,0,0,.691-0.72v-0.45a0.605,0.605,0,0,0-.691-0.72c-0.571-.03-1.111.03-1.682,0.03a0.993,0.993,0,0,1-1.232-1.11c0-.43.03-0.91,0.03-1.39v-5.32c0-.48-0.03-0.93-0.03-1.35a1,1,0,0,1,1.2-1.15c0.541,0,1.112.09,1.682,0.06a0.616,0.616,0,0,0,.691-0.72v-0.45a0.6,0.6,0,0,0-.691-0.72c-1.022-.03-2.043.06-3.065,0.06-0.691,0-.66-0.27-0.66-1.27,0-.96,0-1.23.66-1.23,0.992,0,1.954.09,2.945,0.06a0.715,0.715,0,0,0,.811-0.84,9.462,9.462,0,0,0-.089-1.84,0.723,0.723,0,0,1-.031-0.24c0-.33.241-0.39,0.511-0.39,0.3,0,2.194.18,2.584,0.21,0.211,0.03.572,0.06,0.572,0.33a0.537,0.537,0,0,1-.361.4c-0.3.2-.331,0.54-0.3,1.59A0.706,0.706,0,0,0,471.779,3183.15Zm0.09,7.34a0.694,0.694,0,0,0-.721-0.72H467.9a0.678,0.678,0,0,0-.721.72v0.21a0.655,0.655,0,0,0,.721.69h3.246a0.67,0.67,0,0,0,.721-0.69v-0.21Zm-3.967,3.13a0.655,0.655,0,0,0-.721.69v0.27a0.678,0.678,0,0,0,.721.72h3.246a0.694,0.694,0,0,0,.721-0.72v-0.27a0.67,0.67,0,0,0-.721-0.69H467.9Zm10.428-4.33a1.066,1.066,0,0,0-.06.3,0.477,0.477,0,0,0,.511.45c0.66,0.03,1.292.03,1.953,0.03h4.9a1.572,1.572,0,0,1,1.292.45,3,3,0,0,1,.812,1.59,1.533,1.533,0,0,1-.752.91c-1.623,1.32-7.723,7.06-7.723,8.99,0,1.38,1.773,1.3,2.735,1.3,3.517,0,4.6.38,5.049-3.65,0.059-.39.059-0.87,0.661-0.87,0.36,0,2.223.27,2.223,1.14a11.849,11.849,0,0,1-.871,3.64c-1.082,2.47-2.825,2.74-5.259,2.74-0.661,0-1.382-.03-2.133-0.03-2.855,0-5.861.18-5.861-3.67,0-1.83,1.293-3.55,2.4-4.93a40.247,40.247,0,0,1,3.968-4.3,0.453,0.453,0,0,0,.12-0.27,0.368,0.368,0,0,0-.391-0.3h-1.172c-1.082,0-2.194.06-2.855,0.06s-0.631-.36-0.631-1.06a0.994,0.994,0,0,0-.751-0.81c-0.451-.18-1.713-0.78-1.713-1.32a6.83,6.83,0,0,1,.691-1.51,30.513,30.513,0,0,0,2.855-7.73c0.06-.3.12-0.57,0.451-0.57,0.3,0,1.862.39,2.223,0.48,0.421,0.09,1.052.21,1.052,0.55a0.527,0.527,0,0,1-.361.39c-0.361.18-.39,0.27-0.63,1.08-0.061.21-.151,0.45-0.241,0.75,0,0.06-.031.15-0.031,0.21a0.542,0.542,0,0,0,.632.54h4.357c1.113,0,2.254-.06,3.366-0.06,0.721,0,.691.36,0.691,1.48s0.03,1.47-.691,1.47c-1.112,0-2.224-.06-3.366-0.06h-5.408a1.018,1.018,0,0,0-1.143.69C478.931,3188.05,478.661,3188.69,478.33,3189.29Zm18.6-1.87c-0.271.18-.3,0.27-0.36,1.03,0,0.21-.03.48-0.061,0.81a36.276,36.276,0,0,1-.661,4.87,0.535,0.535,0,0,1-.571.48c-0.361,0-1.593-.21-1.593-0.78a5.951,5.951,0,0,1,.151-0.72,29.569,29.569,0,0,0,.691-5.84c0-.45-0.06-0.75.39-0.75a9.061,9.061,0,0,1,1.263.15c0.42,0.09.991,0.12,0.991,0.42A0.35,0.35,0,0,1,496.925,3187.42Zm3.456,7.67a2.125,2.125,0,0,0-.03.42,2.22,2.22,0,0,0,.211.91,23.063,23.063,0,0,0,3,4.66,0.9,0.9,0,0,1,.239.51,3.4,3.4,0,0,1-2.043,1.92c-0.51,0-1.653-2.28-1.893-2.76a0.345,0.345,0,0,0-.271-0.18,0.327,0.327,0,0,0-.3.21,18.217,18.217,0,0,1-2.554,5.47,0.907,0.907,0,0,1-.691.54c-0.421,0-2.164-.96-2.164-1.65a1.191,1.191,0,0,1,.33-0.6c2.856-3.91,3.516-8.91,3.516-13.63v-8.33a10.8,10.8,0,0,0-.09-2.05c0-.06-0.029-0.18-0.029-0.27,0-.33.269-0.39,0.539-0.39,0.361,0,2.195.15,2.586,0.18,0.21,0.03.48,0.06,0.48,0.33a0.622,0.622,0,0,1-.36.43,2.841,2.841,0,0,0-.3,1.83v4.27a0.242,0.242,0,0,0,.239.27,0.227,0.227,0,0,0,.211-0.12c0.271-.42.541-0.87,0.781-1.32a0.717,0.717,0,0,1,.451-0.39,6.963,6.963,0,0,1,2.164,2.13,0.347,0.347,0,0,1-.361.36H503.9a0.486,0.486,0,0,0-.391.18c-0.811.94-.841,1.18-2.434,2.89a1.62,1.62,0,0,0-.541,1.26C500.5,3193.17,500.471,3194.13,500.381,3195.09Zm13.192,5.9a0.28,0.28,0,0,0-.24.33v1.71c0,0.97.059,1.93,0.059,2.92,0,0.87-.33.87-1.5,0.87-1.112,0-1.5,0-1.5-.87,0-.84.09-1.83,0.09-2.92v-1.77a0.255,0.255,0,0,0-.241-0.3,0.272,0.272,0,0,0-.21.09,19.473,19.473,0,0,1-5.109,4.69,1.9,1.9,0,0,1-.9.42,3.064,3.064,0,0,1-1.713-1.89,1.362,1.362,0,0,1,.842-0.79,20.882,20.882,0,0,0,4.958-4.27,0.54,0.54,0,0,0,.12-0.3,0.381,0.381,0,0,0-.421-0.36h-0.9c-1.021,0-2.043.06-3.064,0.06-0.691,0-.661-0.27-0.661-1.26s-0.03-1.3.661-1.3c1.021,0,2.043.07,3.064,0.07h2.855a0.572,0.572,0,0,0,.661-0.67,5.115,5.115,0,0,1-.059-0.63c0-.33.24-0.39,0.511-0.39,0.571,0,1.893.12,2.494,0.18,0.24,0.03.72,0.03,0.72,0.36a0.548,0.548,0,0,1-.39.39,0.752,0.752,0,0,0-.3.46,0.391,0.391,0,0,0,.452.3h3.214c1.023,0,2.045-.07,3.066-0.07,0.691,0,.661.31,0.661,1.3,0,1.02,0,1.26-.661,1.26-1.021,0-2.043-.06-3.066-0.06H515.8a0.4,0.4,0,0,0-.421.36,0.539,0.539,0,0,0,.12.27,32.893,32.893,0,0,0,4.989,4.45,1.077,1.077,0,0,1,.571.67,3.043,3.043,0,0,1-1.894,1.8c-0.992,0-4.627-4.09-5.349-4.99A0.273,0.273,0,0,0,513.573,3200.99Zm-2.344-9.09c0,0.4.031,0.79,0.031,1.18a1.043,1.043,0,0,1-1.2,1.2c-0.51,0-1.021-.06-1.532-0.06h-1.682c-0.511,0-1.022.06-1.532,0.06a1.043,1.043,0,0,1-1.233-1.17c0-.39.06-0.81,0.06-1.21v-1.83c0-.42-0.06-0.81-0.06-1.2a1.046,1.046,0,0,1,1.233-1.18c0.51,0,1.021.06,1.532,0.06h1.682c0.511,0,.992-0.06,1.5-0.06a1.036,1.036,0,0,1,1.233,1.18c0,0.42-.031.81-0.031,1.2v1.83Zm-4.868-.63a0.8,0.8,0,0,0,.842.81h0.871a0.8,0.8,0,0,0,.841-0.81v-0.63a0.8,0.8,0,0,0-.841-0.81H507.2a0.8,0.8,0,0,0-.842.81v0.63Zm10.788-6.98c0,0.49.061,0.88,0.061,1.27a1.117,1.117,0,0,1-1.384,1.11c-0.66,0-1.321-.06-1.982-0.06h-3.877c-0.661,0-1.322.06-1.954,0.06a1.116,1.116,0,0,1-1.382-1.11c0-.39.03-0.78,0.03-1.27v-1.23c0-.51-0.03-0.87-0.03-1.26a1.1,1.1,0,0,1,1.352-1.12c0.662,0,1.323.03,1.984,0.03h3.877c0.661,0,1.322-.03,1.982-0.03,0.782,0,1.384.22,1.384,1.12,0,0.39-.061.75-0.061,1.26v1.23Zm-7.9-.48a0.7,0.7,0,0,0,.721.73H513.9a0.685,0.685,0,0,0,.721-0.73v-0.3a0.677,0.677,0,0,0-.721-0.72h-3.936a0.693,0.693,0,0,0-.721.72v0.3Zm10.637,8.12c0,0.4.03,0.82,0.03,1.21a1.033,1.033,0,0,1-1.2,1.17c-0.511,0-.962-0.06-1.533-0.06h-1.8c-0.571,0-1.022.06-1.5,0.06a1.043,1.043,0,0,1-1.232-1.17c0-.39.029-0.81,0.029-1.21v-1.86c0-.39-0.029-0.78-0.029-1.2a1,1,0,0,1,1.171-1.15c0.541,0,1.052.03,1.563,0.03h1.8c0.511,0,1.022-.03,1.533-0.03a1.027,1.027,0,0,1,1.2,1.15c0,0.42-.03.81-0.03,1.2v1.86Zm-4.928-.66a0.84,0.84,0,0,0,.842.84h0.931a0.838,0.838,0,0,0,.841-0.84v-0.6a0.858,0.858,0,0,0-.841-0.84H515.8a0.86,0.86,0,0,0-.842.84v0.6Zm22.894,9.51a0.516,0.516,0,0,0-.511.45,15.926,15.926,0,0,1-1.954,4.87,1.15,1.15,0,0,1-.931.72c-0.451,0-1.773-.57-1.773-1.14a0.986,0.986,0,0,1,.21-0.48,14.244,14.244,0,0,0,2.584-7.55,0.707,0.707,0,0,0-.811-0.78c-0.18,0-.36.03-0.541,0.03-0.63,0-.661-0.3-0.661-1.08v-0.28a0.3,0.3,0,0,0-.36-0.33,3.133,3.133,0,0,1-1.113-1.41,1.833,1.833,0,0,1-.119-0.21,0.205,0.205,0,0,0-.181-0.12,0.21,0.21,0,0,0-.18.24v8.21c0,1.35.061,2.71,0.061,4.06,0,0.81-.331.81-1.443,0.81-1.143,0-1.473-.03-1.473-0.81,0-1.35.06-2.71,0.06-4.06v-5.56c0-.1-0.03-0.15-0.12-0.15a0.163,0.163,0,0,0-.121.09,25.6,25.6,0,0,1-1.5,4,0.733,0.733,0,0,1-.6.57c-0.541,0-1.563-1.42-1.563-1.9a1.57,1.57,0,0,1,.241-0.66,31.1,31.1,0,0,0,3.245-9.47c0-.09.031-0.15,0.031-0.21a0.577,0.577,0,0,0-.692-0.58c-0.15,0-1.352.07-1.382,0.07-0.631,0-.571-0.55-0.571-1.48,0-.96-0.06-1.44.571-1.44,0.391,0,1.021.06,1.623,0.06a0.728,0.728,0,0,0,.841-0.85v-1.92a13.51,13.51,0,0,0-.09-1.96,0.831,0.831,0,0,1-.03-0.27,0.385,0.385,0,0,1,.481-0.36c0.361,0,1.984.15,2.434,0.21,0.241,0.03.752,0.03,0.752,0.39a0.593,0.593,0,0,1-.422.43c-0.3.21-.33,0.63-0.33,1.59v1.89a0.7,0.7,0,0,0,.752.85c0.45-.03.871-0.03,1.321-0.06a0.489,0.489,0,0,0,.452-0.18,1.858,1.858,0,0,1,.75-1,0.259,0.259,0,0,1,.181.09,0.434,0.434,0,0,0,.21.06,0.3,0.3,0,0,0,.21-0.12,27.55,27.55,0,0,0,1.833-3.7c0.06-.18.091-0.33,0.271-0.33,0.15,0,2.1.85,2.1,1.21,0,0.27-.211.3-0.422,0.3a0.61,0.61,0,0,0-.6.3,9.2,9.2,0,0,0-.6,1.08,24.758,24.758,0,0,1-1.293,2.2,0.657,0.657,0,0,0-.09.21,0.384,0.384,0,0,0,.12.27,0.691,0.691,0,0,1,.151.15,0.762,0.762,0,0,0,.451.18,0.555,0.555,0,0,0,.48-0.39c0.211-.42.422-0.87,0.631-1.33,0.091-.21.121-0.36,0.3-0.36,0.09,0,2.134.99,2.134,1.39,0,0.24-.211.27-0.391,0.27a0.706,0.706,0,0,0-.661.3,36.334,36.334,0,0,1-2.525,4.3,0.34,0.34,0,0,0-.089.24,0.359,0.359,0,0,0,.45.3,4.126,4.126,0,0,0,.572-0.06,0.521,0.521,0,0,0,.541-0.54,0.58,0.58,0,0,0-.091-0.3,4.8,4.8,0,0,1-.331-0.84c0-.39,1.142-0.7,1.322-0.7a0.543,0.543,0,0,1,.482.43c0.42,0.87.811,1.77,1.141,2.64a0.264,0.264,0,0,0,.181.21,0.17,0.17,0,0,0,.18-0.18c0-.06-0.09-1.26-0.09-1.47-0.121-2.8-.06-5.63-0.09-8.42-0.031-.21-0.061-0.97-0.061-1.03a0.418,0.418,0,0,1,.482-0.48c0.18,0,1.321.12,1.592,0.15,0.992,0.12,1.262.12,1.262,0.48a0.52,0.52,0,0,1-.45.45c-0.3.16-.331,0.31-0.331,0.91v2.04a0.169,0.169,0,0,0,.18.21,0.306,0.306,0,0,0,.211-0.12,0.368,0.368,0,0,1,.3-0.15,0.422,0.422,0,0,1,.18.06,0.768,0.768,0,0,0,.211.06,0.316,0.316,0,0,0,.27-0.15,26.491,26.491,0,0,0,1.773-3.49,0.387,0.387,0,0,1,.3-0.36,8.222,8.222,0,0,1,1.623.82,0.683,0.683,0,0,1,.481.48c0,0.27-.24.27-0.42,0.27a0.593,0.593,0,0,0-.541.36,31.526,31.526,0,0,1-1.743,2.91,0.554,0.554,0,0,0-.091.31,0.459,0.459,0,0,0,.211.36l0.089,0.09a0.817,0.817,0,0,0,.452.15,0.628,0.628,0,0,0,.541-0.36c0.27-.51.51-1.03,0.751-1.57a0.5,0.5,0,0,1,.331-0.39,6.251,6.251,0,0,1,1.382.63,1.405,1.405,0,0,1,.841.69,0.318,0.318,0,0,1-.36.31,0.563,0.563,0,0,0-.631.33,31.691,31.691,0,0,1-2.5,4.09,0.706,0.706,0,0,0-.06.24,0.333,0.333,0,0,0,.391.33l0.661-.09a0.57,0.57,0,0,0,.571-0.57,1.629,1.629,0,0,0-.091-0.3,5.6,5.6,0,0,1-.33-0.78c0-.46,1.052-0.7,1.292-0.7a0.615,0.615,0,0,1,.511.42c0.361,0.79.691,1.57,1.022,2.35a11.518,11.518,0,0,1,.6,1.8c0,0.4-.962.64-1.292,0.64-0.361,0-.421-0.3-0.572-0.76a0.592,0.592,0,0,0-.72-0.42c-0.451.06-.932,0.15-1.412,0.24a0.323,0.323,0,0,0-.3.27,0.371,0.371,0,0,0,.181.31l0.3,0.21a2.4,2.4,0,0,1,1.022.93,0.5,0.5,0,0,1-.15.36,0.541,0.541,0,0,0-.061.21,0.425,0.425,0,0,0,.511.33c0.541,0,1.082-.06,1.623-0.06,0.661,0,.63.48,0.63,1.23,0,0.85.031,1.24-.66,1.24-1.022,0-2.043-.06-3.036-0.06h-2.764a0.525,0.525,0,0,0-.631.51,0.6,0.6,0,0,0,.029.24c0.151,0.51.361,1.02,0.541,1.53a0.519,0.519,0,0,0,.451.36,0.6,0.6,0,0,0,.391-0.18,7.658,7.658,0,0,0,1.233-1.74,0.713,0.713,0,0,1,.45-0.39c0.18,0,2.253,1.05,2.253,1.47a0.462,0.462,0,0,1-.48.33,0.9,0.9,0,0,0-.721.57,18.289,18.289,0,0,1-1.5,1.9,1,1,0,0,0-.332.66,0.978,0.978,0,0,0,.241.57c0.3,0.39,1.2,1.48,1.712,1.48,0.692,0,.842-2.14.9-2.65,0.061-.33.091-0.48,0.6-0.48,0.691,0,1.622.3,1.622,1.11a10.113,10.113,0,0,1-.811,3.07,2.177,2.177,0,0,1-1.984,1.59c-1.682,0-2.915-1.32-3.876-2.55a0.769,0.769,0,0,0-.6-0.33,1.012,1.012,0,0,0-.511.15c-1.021.72-4.448,2.67-5.589,2.67-0.572,0-1.143-1.29-1.143-1.77a0.9,0.9,0,0,1,.9-0.66,16.476,16.476,0,0,0,4.6-2.29,0.792,0.792,0,0,0,.391-0.69,1.338,1.338,0,0,0-.091-0.48,23.082,23.082,0,0,1-1.171-3.25,0.874,0.874,0,0,0-1.022-.75H538.66a0.684,0.684,0,0,0-.811.63,1.11,1.11,0,0,0,.691.99,21.285,21.285,0,0,1,2.7,1.66,0.824,0.824,0,0,1,.541.69,2.037,2.037,0,0,1-1.292,1.74,1.482,1.482,0,0,1-.6-0.39c-0.541-.45-1.141-0.87-1.713-1.29A0.684,0.684,0,0,0,537.849,3200.78Zm-3.727-6.77a0.459,0.459,0,0,0,.511.45c0.841,0.06,1.683.03,2.525,0.03h4.056a0.567,0.567,0,0,0,.631-0.66c-0.03-.24-0.03-0.66-0.36-0.66a0.876,0.876,0,0,0-.271.06,2.651,2.651,0,0,1-.872.21c-0.33,0-.359-0.27-0.45-0.54a0.738,0.738,0,0,0-.841-0.52c-1.172.22-2.375,0.37-3.577,0.55a0.505,0.505,0,0,0-.42.36,0.3,0.3,0,0,1-.241.18c-0.27,0-.3-0.24-0.51-0.87a8.594,8.594,0,0,1-.3-1.42c0-.27.3-0.24,0.481-0.27a0.469,0.469,0,0,0,.45-0.24c0.421-.63.782-1.29,1.173-1.92a1.144,1.144,0,0,0,.15-0.52,0.976,0.976,0,0,0-.361-0.69c-0.39-.33-0.781-0.63-1.171-0.93a0.4,0.4,0,0,0-.241-0.09,0.292,0.292,0,0,0-.3.33c-0.03.81,0,1.27-.6,1.27-0.12,0-1.141-.07-1.443-0.1a0.579,0.579,0,0,0-.63.55,1.617,1.617,0,0,0,.09.3,19.566,19.566,0,0,0,2.615,3.97,0.482,0.482,0,0,1,.15.33,1.273,1.273,0,0,1-.18.57A0.878,0.878,0,0,0,534.122,3194.01Zm12.231-5.96a0.851,0.851,0,0,0-.361-0.63c-0.45-.36-0.932-0.72-1.412-1.08a0.419,0.419,0,0,0-.27-0.09,0.4,0.4,0,0,0-.391.39v0.9c0,0.69.03,1.42,0.03,2.11a0.694,0.694,0,0,0,.781.72,0.627,0.627,0,0,0,.541-0.36c0.3-.48.631-0.93,0.9-1.41A1.032,1.032,0,0,0,546.353,3188.05Zm0.841,6.44a0.282,0.282,0,0,0,.331-0.24,0.357,0.357,0,0,0-.151-0.24,3.2,3.2,0,0,1-1.2-.96,1.014,1.014,0,0,1,.27-0.57,0.247,0.247,0,0,0,.03-0.12,0.182,0.182,0,0,0-.181-0.19l-1.111.19a0.739,0.739,0,0,0-.541.42,0.309,0.309,0,0,1-.36.21c-0.061-.03-0.121-0.03-0.121.03l0.09,0.81a0.664,0.664,0,0,0,.811.66h2.134Z" transform="translate(-257.188 -3130.72)"/>
</svg>
