<svg xmlns="http://www.w3.org/2000/svg" width="987.816" height="79.188" viewBox="0 0 987.816 79.188">
  <defs>
    <style>
      .cls-1 {
        fill-rule: evenodd;
      }
    </style>
  </defs>
  <path id="pc_kv_lead.svg" class="cls-1" d="M267.894,73.759c0,1.231-1.762,2.022-3.611,3.077-3.259,1.846-17,14.241-21.141,17.581a2.569,2.569,0,0,0-.969,1.406,0.712,0.712,0,0,0,.793.616c1.057,0,30.39-7.824,33.472-8.791a4.438,4.438,0,0,1,1.057-.176,1.6,1.6,0,0,1,1.234,1.318c0.176,0.791.88,5.978,0.88,6.769,0,1.67-.88,1.67-3.523,2.022a48.585,48.585,0,0,0-18.146,5.978c-5.02,2.989-11.891,8.44-11.891,14.857,0,7.647,11.451,8.7,17.089,9.054,0.88,0.088,1.761.088,1.761,1.23a34.131,34.131,0,0,1-1.585,6.417,2.5,2.5,0,0,1-2.643,1.759c-3.083,0-8.808-1.583-11.8-2.725-6.519-2.462-12.244-7.209-12.244-14.768,0-6.066,3.435-9.934,7.663-13.714a1.046,1.046,0,0,0,.441-0.791,0.846,0.846,0,0,0-.881-0.791c-0.617,0-5.2,1.319-6.166,1.582-3.611,1.055-12.068,3.868-15.592,5.275a7.415,7.415,0,0,1-2.378.7c-2.026,0-3.611-6.066-3.611-7.736,0-1.318,1.145-1.407,4.052-2.11a11.164,11.164,0,0,0,5.637-2.637c7.4-5.714,16.472-14.329,23.431-20.746a1.632,1.632,0,0,0,.617-1.055,0.719,0.719,0,0,0-.793-0.7c-0.705,0-9.866,2.461-11.187,2.813a8.345,8.345,0,0,1-2.026.439c-2.2,0-3.347-6.417-3.347-8.087s0.881-1.758,2.466-1.934c5.021-.44,20.084-2.549,24.224-4.483a6.454,6.454,0,0,1,2.026-.791C263.842,64.616,267.894,71.737,267.894,73.759ZM352.457,79.3a29.705,29.705,0,0,1,8.9,21.625,31.579,31.579,0,0,1-17.177,28.394c-2.026,1.055-7.487,3.516-9.6,3.516-2.291,0-5.9-5.45-5.9-7.384,0-.88,1.321-1.055,2.2-1.231,11.539-2.724,20.612-10.285,20.612-22.855,0-9.407-4.933-17.846-14.094-21.011a15.407,15.407,0,0,0-3.347-.791c-2.026,0-2.026,1.935-2.114,3.428-0.969,12.834-4.052,28.482-12.508,38.591-2.907,3.516-6.783,6.769-11.627,6.769-5.374,0-9.6-3.868-11.98-8.351a27.507,27.507,0,0,1-2.731-12.483c0-20.571,15.768-36.921,36.556-36.921C338.275,70.594,346.2,73.144,352.457,79.3Zm-34.265,2.549a27.2,27.2,0,0,0-15.856,25.318c0,3.252,1.145,11.428,5.638,11.428,4.4,0,9.337-10.022,11.8-18.988,1.145-4.22,2.819-12.923,2.819-17.142a1.39,1.39,0,0,0-1.41-1.583A9.925,9.925,0,0,0,318.192,81.846Zm79.63,26.372a18.726,18.726,0,0,1-1.234,3.253,163.671,163.671,0,0,1-10.922,21.449,7.337,7.337,0,0,0-1.146,2.549c0,0.352.177,0.968,0.177,1.494a0.976,0.976,0,0,1-.969,1.144c-0.793,0-4.669-3.253-5.549-3.956-0.97-.7-2.291-1.583-2.291-2.55a4.51,4.51,0,0,1,1.233-2.022c3.348-4.219,10.483-18.635,12.6-24,0.44-1.231.88-2.2,1.585-2.2C392.448,103.384,397.822,106.373,397.822,108.218Zm-7.664-21.274c1.057,0.879,4.669,3.692,4.669,5.011s-3.876,5.362-5.374,5.362a2.675,2.675,0,0,1-1.849-1.055,109.091,109.091,0,0,0-9.954-7.912c-0.617-.44-1.586-1.055-1.586-1.758,0-1.142,3.7-5.714,5.2-5.714C382.671,80.879,388.749,85.8,390.158,86.944Zm3.171-9.758c-0.7,0-2.907-1.845-4.757-3.34a3.85,3.85,0,0,0-.7-0.615c-1.322-1.055-4.757-3.34-6.254-4.4-0.617-.352-1.586-0.967-1.586-1.758,0-1.231,3.524-5.714,5.109-5.714,1.322,0,6.166,3.692,7.4,4.659,1.41,1.055,3.964,3.077,5.286,4.22a1.79,1.79,0,0,1,.792,1.406C398.614,73.055,394.738,77.187,393.329,77.187Zm28.188,8.352c0-1.758-.7-2.462-2.467-2.462h-6.959a2.991,2.991,0,0,0-3.259,2.022c-2.378,5.45-3.083,7.384-5.021,7.384-1.585,0-6.606-1.934-6.606-3.516a4.783,4.783,0,0,1,.969-2.022,74.485,74.485,0,0,0,8.192-22.416c0.176-.791.352-1.67,1.409-1.67,0.529,0,3.612.791,4.493,0.967,2.554,0.527,4.756.879,4.756,2.021a1.431,1.431,0,0,1-1.057,1.056c-1.145.527-1.145,0.615-1.938,3.428-0.176.7-.528,1.495-0.7,2.461a1.7,1.7,0,0,0-.089.616c0,1.23.881,1.583,1.85,1.583h3.964c1.762,0,2.467-.7,2.467-2.374V68.924a51.277,51.277,0,0,0-.265-6.417,2.988,2.988,0,0,1-.088-0.879c0-1.055.705-1.231,1.586-1.231,0.969,0,7.575.44,8.544,0.616a1.282,1.282,0,0,1,1.409,1.055,1.878,1.878,0,0,1-1.145,1.319c-0.969.791-1.057,2.373-1.057,5.186v4.044c0,1.67.705,2.374,2.467,2.374h5.99c3.347,0,6.606-.176,9.953-0.176,2.114,0,2.026.967,2.026,4.307,0,3.165,0,4.132-2.026,4.132-3.259,0-6.606-.176-9.953-0.176h-5.99c-1.762,0-2.467.7-2.467,2.462v8c0,1.758.705,2.461,2.467,2.461h9.777c3.171,0,6.43-.176,9.6-0.176,2.2,0,2.2,1.056,2.2,4.22,0,3.692,0,4.4-2.994,4.4-1.762,0-4.493-.265-8.809-0.265h-5.637c-1.674.176-2.467,0.7-2.467,2.462v19.515c0,2.726.793,3.077,3.436,3.077H441.6c2.907,0,3.611-1.055,4.4-8.175,0.177-1.846.529-2.2,1.762-2.2,1.938,0,6.782.7,6.782,3.517,0,2.724-1.849,10.109-3.435,12.394-2.026,2.9-5.109,3.165-8.368,3.165H435.7c-10.306,0-9.6-3.78-9.6-11.956V106.636c0-1.846-.7-2.286-2.466-2.462h-7.488a0.379,0.379,0,0,0-.352.353,0.393,0.393,0,0,0,.264.351c4.581,0.879,5.285,1.143,5.285,1.934,0,0.615-.616.879-1.145,1.231a1.5,1.5,0,0,0-.881,1.142c-0.528,9.231-3.259,17.581-10.482,23.823-1.85,1.67-7.839,5.8-10.218,5.8s-5.9-4.659-5.9-6.066a1.691,1.691,0,0,1,1.322-1.318c11.539-4.66,16.824-12.746,16.912-25.053,0-1.407-.352-2.2-1.849-2.2-3.084-.087-6.079.176-9.074,0.176-2.2,0-2.025-1.406-2.025-4.307,0-3.164-.088-4.22,2.2-4.22,3.171,0,6.342.176,9.6,0.176h9.249c1.762,0,2.467-.7,2.467-2.461v-8ZM516.209,98.9c1.85,0,2.643-.351,3.524-2.021,0.969-1.758,1.761-3.6,2.554-5.451a1.228,1.228,0,0,1,.969-1.142,38.243,38.243,0,0,1,5.9,1.935c0.968,0.351,2.907.879,2.907,1.845,0,0.791-.705.791-1.41,0.879a1.673,1.673,0,0,0-1.321.7c-0.176.44-.441,0.879-0.617,1.231a2.562,2.562,0,0,0-.176.791,1.236,1.236,0,0,0,1.5,1.231h3.611c3,0,6.078-.176,9.073-0.176,1.85,0,1.938.7,1.938,3.517,0,2.637,0,3.428-1.938,3.428-3.083,0-6.078-.176-9.073-0.176H528.8c-1.5,0-2.114.616-2.114,2.022v0.264c0,1.5.617,2.11,2.114,2.11h2.114c2.819,0,5.638-.176,8.457-0.176,1.761,0,1.849.616,1.849,2.9,0,2.11-.088,2.813-1.849,2.813-2.819,0-5.638-.176-8.457-0.176h-2.554a1.456,1.456,0,0,0-1.674,1.671V117.8a1.4,1.4,0,0,0,1.674,1.67h2.466c2.819,0,5.638-.176,8.456-0.176,1.85,0,1.85.615,1.85,2.9s-0.088,2.9-1.85,2.9c-2.818,0-5.637-.175-8.456-0.175H528.8c-1.5,0-2.114.615-2.114,2.021v0.44c0,1.5.617,2.11,2.114,2.11h6.078c3.083,0,6.078-.176,9.161-0.176,2.026,0,1.938.791,1.938,3.516s0,3.429-1.85,3.429c-3.083,0-6.166-.177-9.249-0.177H507.665c-1.41.177-1.762,0.616-2.29,2.023-0.265,1.054-.881,1.23-4.229,1.23-3.787,0-4.756,0-4.756-2.374s0.264-4.922.264-7.559V115.339a0.884,0.884,0,0,0-.793-0.967,0.955,0.955,0,0,0-.792.352c-0.529.615-2.026,2.461-2.819,2.461-1.057,0-3-1.5-3.876-2.2a1.91,1.91,0,0,0-1.233-.44,1.6,1.6,0,0,0-1.41,1.055c-2.29,5.714-5.549,12.042-8.456,17.581a5.988,5.988,0,0,0-.881,2.374c0,0.439.176,1.054,0.176,1.67a1,1,0,0,1-1.057,1.142c-0.968,0-4.228-2.637-5.989-3.956s-1.938-1.67-1.938-2.2a4.173,4.173,0,0,1,.7-1.582c4.669-7.384,8.457-16.351,11.716-24.526,0.528-1.231.881-2.461,1.938-2.461s6.078,2.988,6.342,4.922a0.44,0.44,0,0,0,.352.528,1.175,1.175,0,0,0,.529-0.44,64.82,64.82,0,0,0,11.1-17.494,1.129,1.129,0,0,1,.881-0.967,27,27,0,0,1,3.348.879c3.963,1.23,5.725,1.67,5.725,2.725a1.24,1.24,0,0,1-1.145.879c-1.145.352-1.321,0.528-2.114,2.2a2.063,2.063,0,0,0-.176.7,1.329,1.329,0,0,0,1.585,1.319h7.84Zm-35.322-.879c-0.793,0-1.762-1.055-2.291-1.582a87.581,87.581,0,0,0-8.984-7.121c-0.617-.352-1.85-1.143-1.85-2.022,0-1.143,3.7-5.8,5.285-5.8,1.233,0,5.726,3.779,6.959,4.747s6.342,4.659,6.342,6.065C486.348,93.186,482.648,98.021,480.887,98.021ZM484.146,77.8a3.11,3.11,0,0,1-1.586-.967,117.242,117.242,0,0,0-9.865-7.56c-0.881-.7-1.674-1.143-1.674-1.845,0-1.055,3.347-5.627,5.2-5.627,1.41,0,5.9,3.6,7.135,4.572,1.233,0.879,6.166,4.4,6.166,5.714C489.519,73.583,485.731,77.8,484.146,77.8ZM505.9,81.055a1.455,1.455,0,0,0-1.674-1.67h-3.347c-2.378,0-4.844.175-7.311,0.175-1.585,0-1.585-.791-1.585-3.252s0-3.253,1.585-3.253c2.467,0,4.933.176,7.311,0.176h3.347a1.424,1.424,0,0,0,1.674-1.67v-0.44a1.424,1.424,0,0,0-1.674-1.67h-5.285c-2.29,0-4.492.088-6.782,0.088-1.674,0-1.674-.528-1.674-3.077s0-3.165,1.674-3.165c2.29,0,4.492.175,6.782,0.175h6.431c1.761,0,3.523-.175,5.285-0.175,2.818,0,3.611,1.142,3.611,3.78,0,1.407-.088,2.9-0.088,4.659v10.2c0,2.2.088,4.307,0.088,6.154,0,2.637-1.585,2.461-4.4,2.461h-0.793a5.99,5.99,0,0,1-2.819-.528,1.53,1.53,0,0,0-.969-0.527h-6.077c-2.379,0-4.757.176-7.136,0.176-1.585,0-1.5-.791-1.5-3.252s-0.088-3.165,1.5-3.165c2.379,0,4.757.088,7.136,0.088h4.932c1.234,0,1.762-.44,1.762-1.671V81.055Zm-0.528,26.724a1.986,1.986,0,0,0,2.113,2.11H516.3a2.034,2.034,0,0,0,2.114-2.11v-0.264a1.965,1.965,0,0,0-2.114-2.022h-8.809a1.919,1.919,0,0,0-2.113,2.022v0.264Zm0,10.022a1.528,1.528,0,0,0,1.673,1.67h9.69a1.618,1.618,0,0,0,1.673-1.67v-0.879a1.73,1.73,0,0,0-1.673-1.671h-9.69a1.617,1.617,0,0,0-1.673,1.671V117.8Zm0,9.581a1.986,1.986,0,0,0,2.113,2.11H516.3a2.034,2.034,0,0,0,2.114-2.11v-0.44a1.964,1.964,0,0,0-2.114-2.021h-8.809a1.919,1.919,0,0,0-2.113,2.021v0.44Zm26.513-43.954a1.424,1.424,0,0,0,1.674-1.67V81.23a1.4,1.4,0,0,0-1.674-1.67H528.1c-2.29,0-4.668.088-7.046,0.088-1.586,0-1.586-.616-1.586-3.165,0-2.637,0-3.253,1.586-3.253,2.378,0,4.756.088,7.046,0.088h3.788a1.424,1.424,0,0,0,1.674-1.67V71.121a1.4,1.4,0,0,0-1.674-1.67h-5.725c-2.29,0-4.581.088-6.871,0.088-1.5,0-1.585-.615-1.585-3.077,0-2.725.088-3.165,1.673-3.165,2.29,0,4.493.088,6.783,0.088h6.958c1.674,0,3.348-.088,5.109-0.088,2.643,0,3.7.7,3.7,3.78,0,1.407-.088,2.9-0.088,4.659V82.813c0,2.2.176,4.307,0.176,6.065,0,2.637-1.762,2.549-4.052,2.549-2.73,0-3.435,0-4.228-.879a2.279,2.279,0,0,0-1.5-1.055h-5.462c-2.466,0-5.021.176-7.575,0.176-1.586,0-1.586-.7-1.586-3.165s0-3.252,1.586-3.252c2.554,0,5.109.175,7.575,0.175h5.109Zm48.888-11.779c0.705,0.264,1.762.616,1.762,1.495,0,0.527-.352.615-1.233,1.142-1.5.791-1.85,1.583-2.731,3.78a69.628,69.628,0,0,0-4.933,24.966c0,1.67.353,12.307,2.379,12.307,0.792,0,2.026-2.549,2.378-3.428,0.529-1.143,1.057-2.11,1.85-2.11,0.88,0,3.171,1.846,3.171,2.813,0,0.791-3.524,8.79-3.524,12.746,0,0.879.265,2.9,0.353,3.692a7.8,7.8,0,0,1,.176,1.319c0,2.2-5.021,4.307-6.871,4.307-1.5,0-2.554-1.934-3.7-4.307-4.14-8.351-5.374-17.757-5.374-26.987,0-10.285,1.762-19.252,4.493-29.1a40.429,40.429,0,0,0,1.145-4.4c0.176-.791.352-1.934,1.321-1.934C572.144,67.956,579.543,71.121,580.776,71.649Zm10.923,42.02c3.788,4.659,7.487,6.154,13.389,6.154a72.236,72.236,0,0,0,19.379-2.814,6.3,6.3,0,0,1,1.849-.351c1.41,0,1.586,2.109,1.586,6.593,0,1.054.088,2.636-1.057,3.252-2.466,1.319-17.353,2.637-20.876,2.637-14.27,0-20.172-7.383-20.172-8.79,0-1.231,3.083-7.472,4.757-7.472A1.551,1.551,0,0,1,591.7,113.669Zm3.171-38.416a56.637,56.637,0,0,0,11.539,1.319A57.674,57.674,0,0,0,619.8,74.814a8.5,8.5,0,0,1,1.586-.264c1.233,0,1.585,1.055,1.761,2.11a42.819,42.819,0,0,1,.353,4.747c0,1.846,0,2.55-1.674,2.9a102.8,102.8,0,0,1-14.8,1.231c-2.731,0-13.565-.528-15.415-1.758-0.969-.615-0.881-2.462-0.881-3.429,0-4.219.44-5.538,1.85-5.538A11.645,11.645,0,0,1,594.87,75.253Zm52.235,39.558c2.026,0,17.177,12.131,17.177,14.329,0,1.934-4.4,6.769-6.43,6.769a2.889,2.889,0,0,1-1.762-1.318A54.187,54.187,0,0,0,642.7,122.636c-0.617-.353-1.585-0.879-1.585-1.671C641.116,119.471,645.608,114.811,647.105,114.811Zm84.3-5.449a18.457,18.457,0,0,1,3.876,11.163c0,7.3-5.2,9.494-11.716,9.494-2.114,0-11.186-.615-12.508-1.846-0.705-.7-0.969-5.977-0.969-7.208a1.328,1.328,0,0,1,1.322-1.582,10.014,10.014,0,0,1,2.2.527,28.653,28.653,0,0,0,7.752,1.319c2.29,0,3.963-.791,3.963-3.341,0-3.34-3.787-8.879-5.813-8.879-1.234,0-4.933,2.286-6.078,2.99-6.167,3.691-12.156,7.384-18.059,11.428-2.113,1.406-2.025,1.406-2.642,2.636a2.143,2.143,0,0,1-1.409,1.231c-1.057,0-2.379-2.461-3.171-3.779-0.705-1.143-2.731-4.572-2.731-5.627,0-1.142,1.674-1.582,2.642-1.934,5.814-2.373,16.913-8.878,23.168-12.219,0.88-.44,1.938-0.879,1.938-2.11,0-.615-0.441-1.054-1.322-2.374a8.739,8.739,0,0,1-1.674-5.274c0-2.286,1.586-10.461,4.317-10.461,1.233,0,7.311,2.2,7.311,3.428a5.415,5.415,0,0,1-.705,1.583,11.106,11.106,0,0,0-1.85,5.362c0,1.933,2.907,5.1,4.669,5.1a4.3,4.3,0,0,0,1.057-.088,26.139,26.139,0,0,1,4.58-.351c21.053,0,32.24,20.306,32.24,21.889,0,1.494-6.254,4.922-8.192,4.922-1.057,0-1.586-1.143-1.938-2.021-2.643-5.715-6.959-11.605-12.685-14.5a21.212,21.212,0,0,0-6.43-1.758c-0.616,0-1.673.351-1.673,1.142A2.733,2.733,0,0,0,731.4,109.362Zm-5.109-38.5a67.737,67.737,0,0,1,7.047,4.22,1.517,1.517,0,0,1,.705,1.231c0,1.318-3.524,7.384-4.933,7.384a2.393,2.393,0,0,1-1.5-.7,62.265,62.265,0,0,0-12.684-7.824c-0.88-.44-1.938-0.791-1.938-1.758,0-1.407,2.555-6.681,4.317-6.681C718.544,66.726,724.886,70.067,726.3,70.858ZM800.2,64.616a1.307,1.307,0,0,1,1.057,1.055,1.656,1.656,0,0,1-.617,1.142c-1.056,1.055-1.233.967-1.585,4.66-0.176,1.23-.616,5.274-0.616,6.329,0,0.967.352,1.143,1.321,1.319,0.528,0.176,3.435,3.6,3.435,4.747,0,0.7-.793,1.319-1.233,1.846-1.057,1.143-4.316,5.275-4.316,6.769,0,0.879.088,1.407,0.528,1.407a2.465,2.465,0,0,0,1.145-.791c6.518-5.626,13.389-10.461,22.373-10.461,11.98,0,20.524,10.022,20.524,21.626,0,13.274-9.953,21.712-21.4,26.372-1.586.7-5.462,2.109-7.223,2.109-2.467,0-4.845-5.45-4.845-7.3,0-1.495,1.057-1.759,2.29-2.021,9.6-2.2,21.4-7.3,21.4-18.813,0-6.593-4.4-12.922-11.539-12.922-7.488,0-17.7,6.769-22.374,12.482a5.067,5.067,0,0,0-1.057,3.517c0,5.187.089,10.373,0.353,15.472,0.088,2.461.617,10.812,0.617,11.779s-0.793,1.5-6.607,1.5c-2.554,0-3.7-.089-3.7-1.846,0-.7.089-2.374,0.089-2.814,0.088-2.725.264-6.5,0.264-6.944,0.088-2.813.088-5.714,0.088-8.527,0-.616-0.176-1.407-0.881-1.407s-1.321.968-1.762,1.407c-1.673,2.022-5.285,6.593-6.606,8.615a1.85,1.85,0,0,1-1.322,1.23c-1.585,0-6.606-5.1-6.606-6.768,0-.967,1.5-2.286,2.2-2.989,5.2-5.275,11.716-13.01,14.887-19.6a7.23,7.23,0,0,0,.528-3.428V92.22c0-.88-0.352-1.846-1.409-1.846a7.568,7.568,0,0,0-1.5.263c-1.674.44-8.105,2.11-9.338,2.11s-1.673-1.142-2.026-2.11a36.17,36.17,0,0,1-1.409-6.681c0-1.319.881-1.494,2.026-1.494h1.233a50.927,50.927,0,0,0,9.689-.879,3.342,3.342,0,0,0,2.731-1.494c0.529-.879.441-2.549,0.441-3.6,0-2.989.176-5.977,0.176-8.967,0-1.231-.088-2.2-0.088-2.813a1.076,1.076,0,0,1,1.321-1.231C792.1,63.473,799.143,64.353,800.2,64.616ZM858.954,96.7a67.007,67.007,0,0,0,8.1-2.637c7.839-2.813,17.088-6.329,25.368-6.329,10.306,0,18.322,6.593,18.322,17.23,0,10.9-8.016,17.582-17.265,21.537-3.083,1.319-10.306,3.692-13.565,3.692-2.907,0-4.14-5.978-4.14-6.68,0-1.5,1.674-1.671,2.819-1.758a39.7,39.7,0,0,0,15.063-4.4c4.668-2.637,8.632-6.945,8.632-12.571,0-5.714-4.493-8.879-9.866-8.879-8.544,0-20,4.835-27.482,8.879a4.643,4.643,0,0,1-2.467.879c-2.29,0-5.461-5.274-5.461-7.12C857.016,97.406,857.985,96.966,858.954,96.7Zm83.681-30.591a32.718,32.718,0,0,1,4.228-.44c2.467,0,2.29,1.319,2.467,3.34a119.925,119.925,0,0,0,2.73,15.735c0.264,1.143.529,2.637,2.026,2.637,1.586,0,15.679-8.263,17.969-9.758a5.646,5.646,0,0,1,2.291-.879c1.145,0,2.642,2.638,3.171,3.517,0.7,1.142,2.554,4.131,2.554,5.362,0,0.879-.969,1.143-1.673,1.407-6.343,2.11-15.768,6.857-21.757,10.109-4.669,2.55-12.156,6.857-15.856,10.373-2.29,2.2-4.316,4.571-4.316,7.912,0,3.165,3.083,5.362,5.814,6.33A35.277,35.277,0,0,0,954,123.339a133.16,133.16,0,0,0,22.99-2.286,2.445,2.445,0,0,1,.793-0.088c1.233,0,1.321,3.6,1.321,5.45v1.055c0,2.286-.088,3.252-1.849,3.692-3.348.879-20,1.406-24.224,1.406-6.518,0-12.244-.351-18.057-3.78a15.467,15.467,0,0,1-8.1-13.537c0-9.582,7.927-15.823,15.238-20.57a2.727,2.727,0,0,0,1.5-2.285,3.007,3.007,0,0,0-.352-1.582c-1.058-3.165-3.524-12.483-4.4-16.087a55.859,55.859,0,0,0-1.673-5.8,4.633,4.633,0,0,1-.265-1.055C936.909,66.55,939.816,66.55,942.635,66.111ZM1025,70.33c2.9,0.088,5.9-.176,8.89-0.176,1.94,0,1.85.7,1.85,3.692,0,2.9,0,3.6-1.85,3.6-2.99,0-5.9-.176-8.89-0.176h-0.36a1.8,1.8,0,0,0-2.11,2.11V80.7a1.833,1.833,0,0,0,2.11,2.11c1.68,0.088,3.26-.176,4.94-0.176,2.11,0,3.61.7,3.61,3.077,0,1.407-.09,2.814-0.09,4.22v15.559c0,1.5.09,2.9,0.09,4.308,0,2.285-1.41,2.989-3.53,2.989-1.67,0-3.43-.176-5.1-0.088-1.41,0-2.03.615-2.03,2.109v1.319c0,1.494.62,2.11,2.03,2.11h0.79c2.99,0,6.08-.176,9.16-0.176,1.94,0,1.94.791,1.94,3.693,0,2.811,0,3.691-1.85,3.691-3.09,0-6.17-.176-9.25-0.176h-0.44c-1.68,0-2.38.615-2.38,2.373-0.09,2.99.18,6.067,0.18,9.055,0,2.813-.8,2.9-4.41,2.9-3.35,0-4.31-.088-4.31-2.725,0-3.077.17-6.154,0.17-9.231,0-1.758-.79-2.373-2.38-2.373h-0.7c-3,0-6.08.176-9.16,0.176-1.94,0-1.94-.791-1.94-3.691s0-3.693,1.85-3.693c3.08,0,6.17.176,9.25,0.176h1.06c1.4,0,2.02-.616,2.02-2.11v-1.319c0-1.494-.62-2.109-2.02-2.109-1.68-.088-3.26.088-4.94,0.088-2.38,0-3.61-.7-3.61-3.253,0-1.231.09-2.637,0.09-4.044V89.934c0-1.406-.09-2.725-0.09-3.956,0-2.462,1.15-3.341,3.52-3.341,1.59,0,3.26.264,4.94,0.176a1.8,1.8,0,0,0,2.02-2.11V79.385c0-1.495-.61-2.11-2.02-2.11-3-.088-5.99.176-8.99,0.176-2.02,0-1.94-.791-1.94-3.692,0-2.813,0-3.6,1.94-3.6,2.91,0,5.73.264,8.64,0.176,1.67,0,2.37-.791,2.37-2.461a27.217,27.217,0,0,0-.26-5.362,2.138,2.138,0,0,1-.09-0.7c0-.966.71-1.143,1.5-1.143,0.88,0,6.43.528,7.57,0.616,0.62,0.087,1.68.175,1.68,0.966a1.5,1.5,0,0,1-1.06,1.143c-0.88.615-.97,1.582-0.88,4.659C1022.53,69.715,1023.41,70.33,1025,70.33Zm0.26,21.449a2.032,2.032,0,0,0-2.11-2.109h-9.52a1.983,1.983,0,0,0-2.11,2.109V92.4a1.917,1.917,0,0,0,2.11,2.022h9.52a1.962,1.962,0,0,0,2.11-2.022V91.779Zm-11.63,9.143a1.917,1.917,0,0,0-2.11,2.022v0.791a1.983,1.983,0,0,0,2.11,2.11h9.52a2.032,2.032,0,0,0,2.11-2.11v-0.791a1.962,1.962,0,0,0-2.11-2.022h-9.52Zm30.57-12.659a3.064,3.064,0,0,0-.18.88,1.4,1.4,0,0,0,1.5,1.318c1.94,0.088,3.79.088,5.73,0.088h14.35a4.616,4.616,0,0,1,3.79,1.319c0.97,0.967,2.38,3.253,2.38,4.659,0,1.055-1.32,1.934-2.2,2.637-4.76,3.868-22.64,20.659-22.64,26.284,0,4.044,5.2,3.78,8.02,3.78,10.3,0,13.47,1.143,14.79-10.636,0.18-1.143.18-2.549,1.94-2.549,1.06,0,6.52.791,6.52,3.34a34.9,34.9,0,0,1-2.55,10.636c-3.18,7.209-8.28,8-15.42,8-1.94,0-4.05-.088-6.25-0.088-8.37,0-17.18.527-17.18-10.725,0-5.362,3.79-10.372,7.05-14.416a120.1,120.1,0,0,1,11.62-12.571,1.3,1.3,0,0,0,.36-0.791,1.08,1.08,0,0,0-1.15-.879h-3.43c-3.18,0-6.43.176-8.37,0.176s-1.85-1.055-1.85-3.077c-0.18-1.407-1.06-1.846-2.2-2.374-1.33-.528-5.03-2.285-5.03-3.868,0-.879,1.5-3.341,2.03-4.4a89.625,89.625,0,0,0,8.37-22.592c0.17-.879.35-1.67,1.32-1.67,0.88,0,5.46,1.142,6.52,1.407,1.23,0.264,3.08.615,3.08,1.582a1.546,1.546,0,0,1-1.06,1.143c-1.05.528-1.14,0.791-1.85,3.165-0.17.615-.44,1.318-0.7,2.2,0,0.176-.09.439-0.09,0.615a1.586,1.586,0,0,0,1.85,1.582h12.77c3.26,0,6.61-.175,9.87-0.175,2.11,0,2.03,1.054,2.03,4.307s0.08,4.307-2.03,4.307c-3.26,0-6.52-.175-9.87-0.175h-15.85c-1.85,0-2.64.439-3.35,2.022C1045.96,84.659,1045.17,86.505,1044.2,88.263Zm54-5.45c-0.8.528-.88,0.791-1.06,2.988,0,0.616-.09,1.407-0.18,2.374-0.35,3.956-.97,10.549-1.94,14.24a1.561,1.561,0,0,1-1.67,1.407c-1.06,0-4.67-.615-4.67-2.286a19.8,19.8,0,0,1,.44-2.109,85.537,85.537,0,0,0,2.03-17.054c0-1.319-.18-2.2,1.14-2.2a26.556,26.556,0,0,1,3.7.439c1.24,0.264,2.91.352,2.91,1.231A1.025,1.025,0,0,1,1098.2,82.813Zm10.13,22.416a6.094,6.094,0,0,0-.09,1.231,6.491,6.491,0,0,0,.61,2.638,67.168,67.168,0,0,0,8.81,13.625,2.578,2.578,0,0,1,.71,1.494c0,1.583-4.23,5.626-5.99,5.626-1.5,0-4.85-6.68-5.55-8.086a1.017,1.017,0,0,0-.79-0.528,0.975,0.975,0,0,0-.89.615,53.237,53.237,0,0,1-7.48,16c-0.71.967-1.15,1.582-2.03,1.582-1.23,0-6.34-2.813-6.34-4.834a3.509,3.509,0,0,1,.97-1.759c8.37-11.428,10.3-26.02,10.3-39.821V68.66a31.6,31.6,0,0,0-.26-5.978c0-.176-0.09-0.527-0.09-0.791,0-.967.79-1.142,1.59-1.142,1.05,0,6.43.439,7.57,0.528,0.62,0.087,1.41.175,1.41,0.966,0,0.528-.44.791-1.05,1.23-0.8.7-.89,2.55-0.89,5.363V81.319a0.715,0.715,0,0,0,.71.791,0.677,0.677,0,0,0,.62-0.352c0.79-1.23,1.58-2.549,2.29-3.868,0.35-.439.7-1.143,1.32-1.143,0.79,0,6.34,5.187,6.34,6.242a1.017,1.017,0,0,1-1.06,1.055h-0.44a1.407,1.407,0,0,0-1.14.528c-2.38,2.725-2.47,3.428-7.14,8.439a4.718,4.718,0,0,0-1.58,3.692C1108.68,99.6,1108.59,102.416,1108.33,105.229Zm38.67,17.23a0.827,0.827,0,0,0-.71.968v5.01c0,2.813.18,5.626,0.18,8.526,0,2.55-.97,2.55-4.41,2.55-3.26,0-4.4,0-4.4-2.55,0-2.461.26-5.362,0.26-8.526v-5.186a0.74,0.74,0,0,0-.7-0.879,0.8,0.8,0,0,0-.62.264,56.867,56.867,0,0,1-14.97,13.712,5.6,5.6,0,0,1-2.65,1.231c-1.49,0-5.02-3.956-5.02-5.538,0-.967,1.24-1.494,2.47-2.285a61.757,61.757,0,0,0,14.53-12.483,1.542,1.542,0,0,0,.36-0.879,1.118,1.118,0,0,0-1.24-1.055h-2.64c-2.99,0-5.99.176-8.98,0.176-2.03,0-1.94-.791-1.94-3.692s-0.09-3.78,1.94-3.78c2.99,0,5.99.175,8.98,0.175h8.37a1.658,1.658,0,0,0,1.94-1.933,14.161,14.161,0,0,1-.18-1.846c0-.968.71-1.144,1.5-1.144,1.67,0,5.55.353,7.31,0.528,0.7,0.088,2.11.088,2.11,1.055,0,0.528-.44.7-1.14,1.143a2.228,2.228,0,0,0-.88,1.318,1.118,1.118,0,0,0,1.32.879h9.42c3,0,5.99-.175,8.99-0.175,2.02,0,1.94.879,1.94,3.78,0,2.988,0,3.692-1.94,3.692-3,0-5.99-.176-8.99-0.176h-3.7a1.174,1.174,0,0,0-1.23,1.055,1.624,1.624,0,0,0,.35.791,97.971,97.971,0,0,0,14.63,13.01c0.61,0.44,1.67,1.055,1.67,1.934,0,1.67-3.96,5.274-5.55,5.274-2.91,0-13.57-11.955-15.68-14.592A0.794,0.794,0,0,0,1147,122.459Zm-6.87-26.548c0,1.143.08,2.285,0.08,3.428,0,2.462-1.14,3.517-3.52,3.517-1.5,0-3-.176-4.49-0.176h-4.94c-1.49,0-2.99.176-4.49,0.176-2.38,0-3.61-.967-3.61-3.428,0-1.142.18-2.373,0.18-3.516V90.549c0-1.231-.18-2.373-0.18-3.516,0-2.461,1.23-3.428,3.61-3.428,1.5,0,3,.176,4.49.176h4.94c1.49,0,2.9-.176,4.4-0.176,2.47,0,3.61.967,3.61,3.428,0,1.23-.08,2.374-0.08,3.516v5.362Zm-14.28-1.846a2.337,2.337,0,0,0,2.47,2.374h2.56a2.328,2.328,0,0,0,2.46-2.374V92.22a2.328,2.328,0,0,0-2.46-2.374h-2.56a2.337,2.337,0,0,0-2.47,2.374v1.845Zm31.63-20.395c0,1.407.17,2.55,0.17,3.692,0,2.549-1.76,3.253-4.05,3.253-1.94,0-3.87-.176-5.81-0.176h-11.36c-1.94,0-3.88.176-5.73,0.176-2.29,0-4.05-.7-4.05-3.253,0-1.142.09-2.285,0.09-3.692v-3.6c0-1.494-.09-2.549-0.09-3.692,0-2.55,1.67-3.253,3.96-3.253,1.94,0,3.88.088,5.82,0.088h11.36c1.94,0,3.87-.088,5.81-0.088,2.29,0,4.05.616,4.05,3.253,0,1.142-.17,2.2-0.17,3.692v3.6Zm-23.17-1.406a2.034,2.034,0,0,0,2.12,2.109h11.53a1.986,1.986,0,0,0,2.12-2.109V71.385a1.986,1.986,0,0,0-2.12-2.11h-11.53a2.034,2.034,0,0,0-2.12,2.11v0.879ZM1165.49,96c0,1.143.09,2.374,0.09,3.516,0,2.462-1.23,3.428-3.52,3.428-1.5,0-2.82-.175-4.49-0.175h-5.29c-1.67,0-2.99.175-4.4,0.175-2.38,0-3.61-.967-3.61-3.428,0-1.142.08-2.374,0.08-3.516v-5.45c0-1.143-.08-2.286-0.08-3.516,0-2.373,1.14-3.34,3.43-3.34,1.59,0,3.08.088,4.58,0.088h5.29c1.49,0,2.99-.088,4.49-0.088,2.29,0,3.52.967,3.52,3.34,0,1.23-.09,2.374-0.09,3.516V96Zm-14.44-1.934a2.455,2.455,0,0,0,2.46,2.462h2.73a2.464,2.464,0,0,0,2.47-2.462V92.307a2.522,2.522,0,0,0-2.47-2.461h-2.73a2.513,2.513,0,0,0-2.46,2.461v1.758Zm52.85,30.24a12.245,12.245,0,1,1-12.24-12.219A12.26,12.26,0,0,1,1203.9,124.305Zm-20.08,0a7.84,7.84,0,0,0,15.68,0,7.741,7.741,0,0,0-7.84-7.823A7.847,7.847,0,0,0,1183.82,124.305Z" transform="translate(-216.094 -60.406)"/>
</svg>
