<svg id="pdf.svg" xmlns="http://www.w3.org/2000/svg" width="33.19" height="56.44" viewBox="0 0 33.19 56.44">
  <defs>
    <style>
      .cls-1 {
        fill: #f05;
        fill-rule: evenodd;
      }
    </style>
  </defs>
  <path id="シェイプ_19" data-name="シェイプ 19" class="cls-1" d="M2549.57,2269.95a21.366,21.366,0,0,1,3.73-.28,6.055,6.055,0,0,1,3.94,1.09,3.805,3.805,0,0,1,1.31,2.96,4.105,4.105,0,0,1-1.13,3.02,5.986,5.986,0,0,1-4.23,1.45,5.379,5.379,0,0,1-1.2-.1v5.06h-2.42v-13.2Zm2.42,6.21a4.106,4.106,0,0,0,1.2.12c1.82,0,2.93-.91,2.93-2.46,0-1.49-1.03-2.26-2.72-2.26a7.8,7.8,0,0,0-1.41.11v4.49Zm8.68-6.21a27.4,27.4,0,0,1,3.9-.28c2.5,0,4.21.51,5.44,1.55a5.958,5.958,0,0,1,2.1,4.92,6.881,6.881,0,0,1-2.08,5.32c-1.33,1.22-3.46,1.83-6.06,1.83a27.126,27.126,0,0,1-3.3-.18v-13.16Zm2.45,11.36a8.954,8.954,0,0,0,1.35.06c3.17,0.02,5.06-1.75,5.06-5.15,0.02-2.94-1.69-4.64-4.75-4.64a8.718,8.718,0,0,0-1.66.13v9.6Zm11.12-11.54h7.74v2h-5.3v3.7h4.93v1.98h-4.93v5.7h-2.44v-13.38Z" transform="translate(-2548.78 -2226.84)"/>
  <path id="シェイプ_18" data-name="シェイプ 18" class="cls-1" d="M2553.52,2261.83a5.385,5.385,0,0,1-3.46-1.38,3.1,3.1,0,0,1-1.22-3.06,4.571,4.571,0,0,1,1.3-2.26,12.616,12.616,0,0,1,2.16-1.73,40.773,40.773,0,0,1,5.68-2.97c0.59-.26,1.18-0.51,1.75-0.75,0.45-.98,1.76-3.91,3.03-7.18,0.16-.4.3-0.78,0.44-1.15a17.85,17.85,0,0,1-2.77-5.09,10.534,10.534,0,0,1-.23-5.95,4.96,4.96,0,0,1,1.61-2.66,3.642,3.642,0,0,1,2.67-.79,4.02,4.02,0,0,1,1.62.53,4.783,4.783,0,0,1,1.32,1.1,5.31,5.31,0,0,1,.92,1.56,6.029,6.029,0,0,1,.41,1.91,17.335,17.335,0,0,1-.93,5.35c-0.3,1.04-.68,2.2-1.14,3.46a50.408,50.408,0,0,0,5.37,5.16,0.359,0.359,0,0,1,.11-0.02,23.45,23.45,0,0,1,4.96-.39,7.989,7.989,0,0,1,2.27.42,3.769,3.769,0,0,1,1.91,1.43,3.209,3.209,0,0,1,.52,2.38,3.309,3.309,0,0,1-1.16,1.96,4.737,4.737,0,0,1-3.07,1.05,3.854,3.854,0,0,1-.48-0.02,6.918,6.918,0,0,1-4.08-1.91c-0.48-.45-1.12-0.99-1.85-1.61-2.34.49-4.27,1.08-4.42,1.12-0.16.06-2.23,0.74-4.8,1.76-0.32.87-.8,2.1-1.42,3.38a18.8,18.8,0,0,1-2.24,3.6,7.245,7.245,0,0,1-3.42,2.54A4.517,4.517,0,0,1,2553.52,2261.83Zm-1.65-3.89a0.512,0.512,0,0,0,.15.14,1.984,1.984,0,0,0,1.97.6,4.422,4.422,0,0,0,1.92-1.52,15.665,15.665,0,0,0,1.85-2.99c0.06-.12.11-0.23,0.16-0.34a30.323,30.323,0,0,0-4.05,2.22,9.02,9.02,0,0,0-1.59,1.29A1.613,1.613,0,0,0,2551.87,2257.94Zm23.3-9.32c1.6,1.45,3.05,1.13,3.5.75a0.31,0.31,0,0,0,.13-0.16,0.363,0.363,0,0,0-.07-0.15,2.67,2.67,0,0,0-1.77-.47A13.749,13.749,0,0,0,2575.17,2248.62Zm-9.7-4.62c-0.59,1.52-1.19,2.94-1.7,4.13,1.2-.43,1.98-0.69,2.05-0.71l0.02-.01c0.07-.02,1.04-0.32,2.46-0.68C2567.36,2245.89,2566.4,2244.98,2565.47,2244Zm-1.36-14.09a1.372,1.372,0,0,0-.94,1.19,8.714,8.714,0,0,0,1.3,6.65c1.1-3.39,1.25-4.95,1.21-5.63a2.152,2.152,0,0,0-1.51-2.2A0.127,0.127,0,0,0,2564.11,2229.91Z" transform="translate(-2548.78 -2226.84)"/>
</svg>
