<svg xmlns="http://www.w3.org/2000/svg" width="59" height="70.031" viewBox="0 0 59 70.031">
  <defs>
    <style>
      .cls-1 {
        fill-rule: evenodd;
      }
    </style>
  </defs>
  <path id="style_01.svg" class="cls-1" d="M1140.5,573.865q0,8.8-3.63,13.46t-10.63,4.661q-6.93,0-10.58-4.573t-3.75-13.112v-7.808q0-8.886,3.67-13.489t10.6-4.6q6.915,0,10.58,4.559t3.74,13.1v7.808Zm-8.39-8.585q0-5.277-1.44-7.685a4.866,4.866,0,0,0-4.49-2.406,4.781,4.781,0,0,0-4.38,2.289q-1.41,2.292-1.49,7.159v10.324q0,5.193,1.41,7.714a4.789,4.789,0,0,0,4.52,2.522,4.706,4.706,0,0,0,4.44-2.42q1.365-2.42,1.43-7.408V565.28Zm33.54,26.124h-8.4V558.947l-10.03,3.118v-6.848l17.52-6.291h0.91V591.4Zm-41.84-55.9c0.17-1.244-.47-2.152-1.93-2.728l-2.01-.733-0.67-.292q-3.4-1.551-3.18-4.359a4.553,4.553,0,0,1,.97-2.493,5.419,5.419,0,0,1,2.25-1.673,7.157,7.157,0,0,1,2.98-.554,6,6,0,0,1,2.74.688,4.431,4.431,0,0,1,1.83,1.824,5.026,5.026,0,0,1,.55,2.641l-2.19-.013a3.079,3.079,0,0,0-.7-2.426,3.122,3.122,0,0,0-2.33-.884,4.329,4.329,0,0,0-2.66.748,2.93,2.93,0,0,0-1.23,2.1c-0.15,1.16.55,2.039,2.13,2.639l1.73,0.619,0.87,0.373q3.285,1.515,3.04,4.5a4.522,4.522,0,0,1-.97,2.477,5.376,5.376,0,0,1-2.27,1.613,7.847,7.847,0,0,1-3.09.537,6.442,6.442,0,0,1-2.91-.682,4.782,4.782,0,0,1-2.01-1.835,4.692,4.692,0,0,1-.6-2.646l2.19,0.011a2.879,2.879,0,0,0,.82,2.407,3.658,3.658,0,0,0,2.61.915,4.631,4.631,0,0,0,2.77-.735A2.865,2.865,0,0,0,1123.81,535.506Zm11.82-11.293-0.53,3.054h2.29l-0.3,1.666h-2.27l-1.32,7.843a3.538,3.538,0,0,0-.01.559,0.89,0.89,0,0,0,.99.91,5.974,5.974,0,0,0,1.02-.118l-0.16,1.761a5.72,5.72,0,0,1-1.54.209,2.2,2.2,0,0,1-1.88-.926,3.6,3.6,0,0,1-.49-2.43l1.28-7.808h-2.22l0.29-1.666H1133l0.54-3.054h2.09Zm8.65,12.481,4.48-9.427h2.32l-7.46,14.706q-1.56,3.064-4,3.031a6.788,6.788,0,0,1-1.27-.21l0.19-1.749,0.54,0.059a2.764,2.764,0,0,0,1.73-.448,4.171,4.171,0,0,0,1.29-1.6l0.75-1.446-2.17-12.34h2.19Zm10.46,3.182h-2.09l3.09-17.9h2.1Zm10.46,0.233a4.523,4.523,0,0,1-3.67-1.737,6.049,6.049,0,0,1-1.12-4.323l0.06-.5a8.354,8.354,0,0,1,1.11-3.428,6.45,6.45,0,0,1,2.23-2.336,5.2,5.2,0,0,1,2.84-.751,3.973,3.973,0,0,1,3.04,1.293,5.306,5.306,0,0,1,1.21,3.38,9.6,9.6,0,0,1-.05,1.515l-0.12.967h-8.22a4.3,4.3,0,0,0,.56,2.914,2.682,2.682,0,0,0,2.31,1.246,4.462,4.462,0,0,0,3.44-1.678l1.21,1.026a5.6,5.6,0,0,1-2.04,1.789A5.775,5.775,0,0,1,1165.2,540.109Zm1.34-11.315a3.061,3.061,0,0,0-2.27.886,6.261,6.261,0,0,0-1.54,2.737l6.11,0.011,0.05-.185a3.467,3.467,0,0,0-.47-2.442A2.218,2.218,0,0,0,1166.54,528.794Z" transform="translate(-1111.91 -521.969)"/>
</svg>
