<svg xmlns="http://www.w3.org/2000/svg" width="64" height="70" viewBox="0 0 64 70">
  <defs>
    <style>
      .cls-1 {
        fill-rule: evenodd;
      }
    </style>
  </defs>
  <path id="style_03.svg" class="cls-1" d="M1138.92,832.848q0,8.8-3.68,13.462t-10.76,4.66q-6.99,0-10.7-4.573t-3.8-13.112v-7.808q0-8.885,3.72-13.489t10.72-4.6q7,0,10.71,4.559t3.79,13.1v7.807Zm-8.5-8.585q0-5.277-1.45-7.683a4.938,4.938,0,0,0-4.55-2.407,4.835,4.835,0,0,0-4.42,2.289q-1.425,2.292-1.52,7.161v10.322q0,5.193,1.43,7.714a4.856,4.856,0,0,0,4.57,2.523,4.78,4.78,0,0,0,4.5-2.42q1.38-2.421,1.44-7.408V824.263Zm23.5,1.186h4.53a6.406,6.406,0,0,0,4.79-1.6,5.835,5.835,0,0,0,1.56-4.254,5.165,5.165,0,0,0-1.54-3.992,6.03,6.03,0,0,0-4.25-1.427,6.32,6.32,0,0,0-4.09,1.326,4.221,4.221,0,0,0-1.65,3.452h-8.49a10.321,10.321,0,0,1,1.8-5.957,12.1,12.1,0,0,1,5.06-4.124,17.072,17.072,0,0,1,7.16-1.484q6.795,0,10.65,3.219a10.929,10.929,0,0,1,3.85,8.871,8.91,8.91,0,0,1-1.79,5.361,11.686,11.686,0,0,1-4.71,3.758,10.676,10.676,0,0,1,5.4,3.845,10.411,10.411,0,0,1,1.78,6.061,11.136,11.136,0,0,1-4.16,9.061q-4.17,3.41-11.02,3.408a15.952,15.952,0,0,1-10.48-3.35,10.884,10.884,0,0,1-4.07-8.857h8.5a4.867,4.867,0,0,0,1.8,3.9,7.609,7.609,0,0,0,9.21-.073,5.478,5.478,0,0,0,1.72-4.209q0-6.352-7.06-6.352h-4.5v-6.584Zm-31.11-30.96q0.255-1.861-1.95-2.726l-2.04-.735-0.68-.291q-3.435-1.549-3.21-4.359a4.562,4.562,0,0,1,.97-2.494,5.58,5.58,0,0,1,2.28-1.671,7.344,7.344,0,0,1,3.02-.554,6.133,6.133,0,0,1,2.77.686,4.436,4.436,0,0,1,1.85,1.825,4.94,4.94,0,0,1,.56,2.64l-2.22-.012a3.012,3.012,0,0,0-.71-2.427,3.165,3.165,0,0,0-2.35-.883,4.408,4.408,0,0,0-2.69.748,2.921,2.921,0,0,0-1.25,2.1c-0.16,1.161.56,2.039,2.15,2.64l1.76,0.618,0.88,0.373q3.315,1.515,3.07,4.5a4.461,4.461,0,0,1-.98,2.476,5.427,5.427,0,0,1-2.3,1.614,8.033,8.033,0,0,1-3.12.537,6.6,6.6,0,0,1-2.95-.683,4.839,4.839,0,0,1-2.03-1.836,4.609,4.609,0,0,1-.61-2.645l2.21,0.012a2.885,2.885,0,0,0,.83,2.407,3.77,3.77,0,0,0,2.64.914,4.78,4.78,0,0,0,2.82-.733A2.889,2.889,0,0,0,1122.81,794.489Zm11.96-11.292-0.54,3.053h2.31l-0.29,1.667h-2.31l-1.33,7.843a3.538,3.538,0,0,0-.01.559,0.9,0.9,0,0,0,1,.909,6.237,6.237,0,0,0,1.04-.116l-0.17,1.76a5.792,5.792,0,0,1-1.55.209,2.212,2.212,0,0,1-1.9-.926,3.543,3.543,0,0,1-.5-2.43l1.3-7.808h-2.25l0.29-1.667h2.25l0.54-3.053h2.12Zm8.75,12.481,4.53-9.428h2.35l-7.55,14.707q-1.575,3.067-4.05,3.031a7.082,7.082,0,0,1-1.28-.21l0.19-1.748,0.55,0.058a2.818,2.818,0,0,0,1.75-.448,4.182,4.182,0,0,0,1.3-1.6l0.76-1.447-2.2-12.341h2.23Zm10.58,3.182h-2.11l3.13-17.9h2.12Zm10.59,0.234a4.593,4.593,0,0,1-3.71-1.737,5.913,5.913,0,0,1-1.13-4.324l0.06-.5a8.226,8.226,0,0,1,1.12-3.427,6.5,6.5,0,0,1,2.25-2.336,5.294,5.294,0,0,1,2.87-.752,4.05,4.05,0,0,1,3.08,1.294,5.259,5.259,0,0,1,1.23,3.38,10.971,10.971,0,0,1-.05,1.515l-0.13.966h-8.32a4.24,4.24,0,0,0,.57,2.914,2.723,2.723,0,0,0,2.34,1.248,4.557,4.557,0,0,0,3.48-1.679l1.22,1.026a5.578,5.578,0,0,1-2.06,1.789A5.9,5.9,0,0,1,1164.69,799.094Zm1.36-11.317a3.118,3.118,0,0,0-2.3.886,6.19,6.19,0,0,0-1.56,2.738l6.18,0.013,0.05-.187a3.416,3.416,0,0,0-.47-2.442A2.264,2.264,0,0,0,1166.05,787.777Z" transform="translate(-1109.97 -780.969)"/>
</svg>
