<svg xmlns="http://www.w3.org/2000/svg" width="206" height="111" viewBox="0 0 206 111">
  <defs>
    <style>
      .cls-1 {
        fill: #fff;
        fill-rule: evenodd;
      }
    </style>
  </defs>
  <path id="style03_ttl.svg" class="cls-1" d="M1441.81,5140.93a0.527,0.527,0,0,1-.53.53h-10.04a0.542,0.542,0,0,0-.53.54v29.53a0.538,0.538,0,0,1-.54.54h-5.07a0.536,0.536,0,0,1-.53-0.54V5142a0.544,0.544,0,0,0-.54-0.54h-9.93a0.529,0.529,0,0,1-.54-0.53v-3.92a0.536,0.536,0,0,1,.54-0.53h27.18a0.534,0.534,0,0,1,.53.53v3.92Zm-64.25-4.45h-5.17a0.609,0.609,0,0,0-.58.47l-5.29,25.84c-0.05.26-.15,0.26-0.21,0l-6.49-25.84a0.662,0.662,0,0,0-.6-0.47H1355a0.642,0.642,0,0,0-.6.47l-6.56,25.79c-0.07.26-.16,0.26-0.22,0l-5.33-25.79a0.609,0.609,0,0,0-.58-0.47h-5.17a0.369,0.369,0,0,0-.38.47l8,34.63a0.64,0.64,0,0,0,.59.47h4.98a0.655,0.655,0,0,0,.61-0.46l6.67-25.04c0.07-.26.18-0.26,0.25,0l6.53,25.04a0.645,0.645,0,0,0,.6.46h4.95a0.63,0.63,0,0,0,.59-0.47l8-34.63A0.367,0.367,0,0,0,1377.56,5136.48Zm-62.2,36.06q6.045,0,9.67-3.31a11.541,11.541,0,0,0,3.63-8.98v-23.29a0.48,0.48,0,0,0-.48-0.48h-5.2a0.487,0.487,0,0,0-.48.48v23.12q0,7.53-7.14,7.53a7.078,7.078,0,0,1-5.33-1.88,7.55,7.55,0,0,1-1.81-5.45v-23.32a0.487,0.487,0,0,0-.48-0.48h-5.2a0.48,0.48,0,0,0-.48.48v23.27q0,5.79,3.59,9.05T1315.36,5172.54Zm138.96-2.1a15.153,15.153,0,0,0,15.46,0,13.713,13.713,0,0,0,5.17-6.06,21.919,21.919,0,0,0,1.81-9.18v-1.98a21.712,21.712,0,0,0-1.86-9.13,13.7,13.7,0,0,0-5.2-6.01,15.222,15.222,0,0,0-15.43.02,13.976,13.976,0,0,0-5.21,6.1,21.665,21.665,0,0,0-1.85,9.19v2.01a21.242,21.242,0,0,0,1.87,9.02A13.913,13.913,0,0,0,1454.32,5170.44Zm-0.92-17.29q0.045-5.745,2.31-8.89a7.895,7.895,0,0,1,12.62.02q2.235,3.15,2.24,9.06v1.86q0,6.015-2.21,9.14a7.923,7.923,0,0,1-12.67-.07c-1.53-2.13-2.29-5.16-2.29-9.07v-2.05Zm-52.95,10.16a5,5,0,0,0-4.97-4.51h-3.67a0.379,0.379,0,0,1-.36-0.51l4.81-13.75a0.184,0.184,0,0,1,.35,0l9.45,27.02a0.774,0.774,0,0,0,.71.51h5.39a0.372,0.372,0,0,0,.35-0.5l-13.1-34.59a0.768,0.768,0,0,0-.72-0.5h-4.49a0.768,0.768,0,0,0-.72.5l-13.08,34.59a0.372,0.372,0,0,0,.35.5h5.36a0.755,0.755,0,0,0,.71-0.51l2.54-7.27a0.755,0.755,0,0,1,.71-0.51h9.9A0.409,0.409,0,0,0,1400.45,5163.31Zm-122.26,8.26v-14.11a0.48,0.48,0,0,1,.48-0.48h13.36a0.489,0.489,0,0,0,.49-0.48v-3.98a0.489,0.489,0,0,0-.49-0.48h-13.36a0.474,0.474,0,0,1-.48-0.48v-9.61a0.482,0.482,0,0,1,.48-0.49h15.47a0.48,0.48,0,0,0,.48-0.48v-4.02a0.487,0.487,0,0,0-.48-0.48h-21.66a0.487,0.487,0,0,0-.48.48v34.61a0.48,0.48,0,0,0,.48.48h5.22A0.482,0.482,0,0,0,1278.19,5171.57Zm134.29,17.06q-9.3,0-14.23,6.16-4.95,6.165-4.94,18.07v10.45q0.12,11.43,5.04,17.56t14.21,6.12q9.4,0,14.29-6.24t4.88-18.02v-10.46q-0.12-11.43-5.04-17.53T1412.48,5188.63Zm7.96,36.11c-0.05,4.46-.69,7.76-1.91,9.92a6.328,6.328,0,0,1-5.97,3.24,6.434,6.434,0,0,1-6.07-3.37q-1.9-3.39-1.9-10.33v-13.83c0.08-4.34.75-7.54,2.01-9.58a6.417,6.417,0,0,1,5.88-3.07,6.528,6.528,0,0,1,6.03,3.22q1.935,3.225,1.93,10.29v13.51Zm55.2-2.56a14.152,14.152,0,0,0-7.17-5.15,15.5,15.5,0,0,0,6.25-5.03,11.948,11.948,0,0,0,2.38-7.18q0-7.56-5.11-11.88-5.115-4.3-14.14-4.31a22.328,22.328,0,0,0-9.5,1.99,16.037,16.037,0,0,0-6.72,5.52,13.872,13.872,0,0,0-2.4,7.98h11.28a5.658,5.658,0,0,1,2.19-4.62,8.311,8.311,0,0,1,5.43-1.78,7.976,7.976,0,0,1,5.64,1.91,6.955,6.955,0,0,1,2.05,5.35,7.853,7.853,0,0,1-2.07,5.69q-2.07,2.145-6.36,2.15h-6.02v8.81h5.98q9.36,0,9.37,8.51a7.326,7.326,0,0,1-2.29,5.64,8.908,8.908,0,0,1-6.3,2.12,8.813,8.813,0,0,1-5.92-2.03,6.516,6.516,0,0,1-2.4-5.22h-11.28a14.662,14.662,0,0,0,5.4,11.86q5.415,4.485,13.92,4.48,9.105,0,14.63-4.56a14.95,14.95,0,0,0,5.52-12.13A14,14,0,0,0,1475.64,5222.18Zm-193.66-15.41a7.531,7.531,0,0,1,4.65-1.3,5.457,5.457,0,0,1,4.06,1.53,5.312,5.312,0,0,1,1.22,4.23l3.84,0.02a8.679,8.679,0,0,0-.98-4.6,7.643,7.643,0,0,0-3.2-3.17,10.345,10.345,0,0,0-4.78-1.2,12.552,12.552,0,0,0-5.21.97,9.466,9.466,0,0,0-3.92,2.91,7.919,7.919,0,0,0-1.69,4.34q-0.39,4.89,5.54,7.58l1.18,0.51,3.51,1.28q3.825,1.5,3.37,4.75a4.986,4.986,0,0,1-2.21,3.55,8.106,8.106,0,0,1-4.85,1.27,6.389,6.389,0,0,1-4.56-1.59,5.01,5.01,0,0,1-1.43-4.19l-3.82-.02a8.041,8.041,0,0,0,1.06,4.61,8.3,8.3,0,0,0,3.5,3.19,11.222,11.222,0,0,0,5.09,1.19,13.783,13.783,0,0,0,5.39-.93,9.538,9.538,0,0,0,3.97-2.81,7.864,7.864,0,0,0,1.68-4.32q0.42-5.19-5.3-7.83l-1.52-.64-3.03-1.08c-2.74-1.04-3.98-2.58-3.71-4.59A5.045,5.045,0,0,1,1281.98,5206.77Zm28.03-1.81h-3.66l-0.93,5.31h-3.88l-0.5,2.9h3.87l-2.23,13.6a6.258,6.258,0,0,0,.85,4.23,3.866,3.866,0,0,0,3.29,1.61,9.738,9.738,0,0,0,2.68-.37l0.29-3.06a10.065,10.065,0,0,1-1.79.2,1.548,1.548,0,0,1-1.73-1.58,5.325,5.325,0,0,1,.02-0.97l2.3-13.66h3.98l0.51-2.9h-4Zm14.9,21.72-2.45-16.41h-3.84l3.8,21.49-1.32,2.51a7.1,7.1,0,0,1-2.25,2.79,4.731,4.731,0,0,1-3.01.78l-0.96-.1-0.32,3.04a11.7,11.7,0,0,0,2.21.37q4.26,0.06,6.99-5.28l13.03-25.6h-4.06Zm14.39,5.54h3.66l5.42-31.16h-3.68Zm29.54-20.1a6.971,6.971,0,0,0-5.32-2.25,9.029,9.029,0,0,0-4.96,1.31,11.276,11.276,0,0,0-3.89,4.06,14.641,14.641,0,0,0-1.93,5.97l-0.11.87a10.431,10.431,0,0,0,1.95,7.53,7.95,7.95,0,0,0,6.42,3.02,10.048,10.048,0,0,0,4.86-1.09,9.552,9.552,0,0,0,3.56-3.11l-2.11-1.79a7.763,7.763,0,0,1-6.01,2.92,4.662,4.662,0,0,1-4.03-2.16,7.459,7.459,0,0,1-.98-5.08h14.35l0.23-1.68a17.92,17.92,0,0,0,.08-2.64A9.287,9.287,0,0,0,1368.84,5212.12Zm-1.4,6.82-0.09.32-10.68-.02a11.045,11.045,0,0,1,2.69-4.77,5.375,5.375,0,0,1,3.97-1.54,3.868,3.868,0,0,1,3.28,1.76A5.991,5.991,0,0,1,1367.44,5218.94Z" transform="translate(-1272 -5136)"/>
</svg>
