<svg xmlns="http://www.w3.org/2000/svg" width="207" height="111" viewBox="0 0 207 111">
  <defs>
    <style>
      .cls-1 {
        fill: #fff;
        fill-rule: evenodd;
      }
    </style>
  </defs>
  <path id="style05_ttl.svg" class="cls-1" d="M1442.15,8619.93a0.536,0.536,0,0,1-.54.53h-10.05a0.536,0.536,0,0,0-.54.53v29.54a0.534,0.534,0,0,1-.53.53h-5.08a0.536,0.536,0,0,1-.54-0.53v-29.54a0.534,0.534,0,0,0-.53-0.53h-9.96a0.536,0.536,0,0,1-.54-0.53v-3.92a0.538,0.538,0,0,1,.54-0.54h27.23a0.538,0.538,0,0,1,.54.54v3.92Zm-64.38-4.46h-5.19a0.617,0.617,0,0,0-.57.48l-5.3,25.83c-0.05.26-.15,0.26-0.21,0.01l-6.51-25.85a0.642,0.642,0,0,0-.6-0.47h-4.23a0.662,0.662,0,0,0-.6.47l-6.57,25.8c-0.07.25-.16,0.25-0.22-0.01l-5.34-25.78a0.628,0.628,0,0,0-.58-0.48h-5.19a0.367,0.367,0,0,0-.37.47l8.02,34.64a0.63,0.63,0,0,0,.59.47h4.99a0.662,0.662,0,0,0,.6-0.47l6.69-25.04c0.07-.25.18-0.25,0.24,0l6.55,25.04a0.662,0.662,0,0,0,.6.47h4.97a0.64,0.64,0,0,0,.59-0.47l8.01-34.64A0.367,0.367,0,0,0,1377.77,8615.47Zm-62.32,36.07q6.045,0,9.69-3.31a11.555,11.555,0,0,0,3.63-8.98v-23.29a0.482,0.482,0,0,0-.48-0.49h-5.21a0.489,0.489,0,0,0-.48.49v23.12q0,7.515-7.15,7.52a7.112,7.112,0,0,1-5.35-1.88,7.534,7.534,0,0,1-1.81-5.45v-23.31a0.489,0.489,0,0,0-.48-0.49h-5.21a0.482,0.482,0,0,0-.48.49v23.26q0,5.79,3.6,9.05T1315.45,8651.54Zm139.23-2.1a15.269,15.269,0,0,0,15.49,0,13.733,13.733,0,0,0,5.18-6.06,21.828,21.828,0,0,0,1.82-9.18v-1.98a21.526,21.526,0,0,0-1.87-9.13,13.685,13.685,0,0,0-5.21-6.02,15.308,15.308,0,0,0-15.46.03,13.821,13.821,0,0,0-5.22,6.1,21.633,21.633,0,0,0-1.85,9.19v2a21.177,21.177,0,0,0,1.87,9.02A13.969,13.969,0,0,0,1454.68,8649.44Zm-0.92-17.3c0.03-3.82.8-6.79,2.32-8.88a7.923,7.923,0,0,1,12.64.01c1.5,2.1,2.24,5.13,2.24,9.07v1.86c0,4.01-.73,7.05-2.21,9.14a7.317,7.317,0,0,1-6.34,3.13,7.4,7.4,0,0,1-6.36-3.2q-2.295-3.21-2.29-9.07v-2.06Zm-53.06,10.16a5,5,0,0,0-4.98-4.51h-3.68a0.382,0.382,0,0,1-.36-0.5l4.82-13.76a0.191,0.191,0,0,1,.36,0l9.47,27.03a0.755,0.755,0,0,0,.71.5h5.4a0.372,0.372,0,0,0,.35-0.5l-13.13-34.59a0.768,0.768,0,0,0-.72-0.5h-4.5a0.768,0.768,0,0,0-.72.5l-13.1,34.59a0.371,0.371,0,0,0,.34.5h5.38a0.746,0.746,0,0,0,.71-0.5l2.54-7.28a0.755,0.755,0,0,1,.71-0.5h9.93A0.4,0.4,0,0,0,1400.7,8642.3Zm-122.5,8.27v-14.12a0.487,0.487,0,0,1,.48-0.48h13.39a0.482,0.482,0,0,0,.49-0.48v-3.97a0.482,0.482,0,0,0-.49-0.48h-13.39a0.487,0.487,0,0,1-.48-0.48v-9.62a0.48,0.48,0,0,1,.48-0.48h15.5a0.48,0.48,0,0,0,.48-0.48v-4.02a0.482,0.482,0,0,0-.48-0.49h-21.7a0.489,0.489,0,0,0-.48.49v34.61a0.487,0.487,0,0,0,.48.48h5.24A0.487,0.487,0,0,0,1278.2,8650.57Zm135.01,17.06q-9.315,0-14.26,6.16t-4.95,18.06v10.46q0.12,11.43,5.05,17.55,4.92,6.135,14.24,6.13,9.42,0,14.31-6.24,4.89-6.255,4.89-18.03v-10.45q-0.1-11.43-5.04-17.54T1413.21,8667.63Zm7.98,36.11q-0.075,6.675-1.92,9.92a6.354,6.354,0,0,1-5.98,3.24,6.472,6.472,0,0,1-6.09-3.38q-1.89-3.375-1.9-10.33v-13.82c0.08-4.35.75-7.54,2.02-9.59a6.435,6.435,0,0,1,5.89-3.06,6.534,6.534,0,0,1,6.04,3.22q1.935,3.225,1.94,10.29v13.51Zm53.19-10.83q-4.62-5.04-12.75-5.04a17.952,17.952,0,0,0-8.57,2.15l1.41-12.21h22.65v-9.4h-31.93l-3.28,28.86,9,2.23,1.09-1.01a9.791,9.791,0,0,1,6.54-2.11,8.773,8.773,0,0,1,6.76,2.57q2.385,2.58,2.39,7.41c0,3.36-.69,5.95-2.07,7.79a6.989,6.989,0,0,1-5.91,2.75,7.924,7.924,0,0,1-5.58-1.97,8.334,8.334,0,0,1-2.48-5.52h-11.19a15.922,15.922,0,0,0,2.72,8.62,17.043,17.043,0,0,0,6.98,5.87,22.228,22.228,0,0,0,9.59,2.09,20.874,20.874,0,0,0,10.25-2.4,16.429,16.429,0,0,0,6.67-6.75,20.559,20.559,0,0,0,2.33-9.85Q1479,8697.945,1474.38,8692.91ZM1282,8685.76a7.607,7.607,0,0,1,4.66-1.3,5.486,5.486,0,0,1,4.07,1.54,5.277,5.277,0,0,1,1.22,4.22l3.84,0.02a8.55,8.55,0,0,0-.98-4.59,7.666,7.666,0,0,0-3.2-3.18,10.511,10.511,0,0,0-4.79-1.2,12.761,12.761,0,0,0-5.22.97,9.564,9.564,0,0,0-3.93,2.91,7.874,7.874,0,0,0-1.69,4.34q-0.39,4.89,5.55,7.59l1.18,0.5,3.52,1.28c2.55,1,3.68,2.59,3.38,4.75a4.979,4.979,0,0,1-2.22,3.55,8.212,8.212,0,0,1-4.86,1.28,6.463,6.463,0,0,1-4.57-1.6,4.97,4.97,0,0,1-1.43-4.18l-3.83-.02a8.008,8.008,0,0,0,1.06,4.6,8.259,8.259,0,0,0,3.51,3.19,11.264,11.264,0,0,0,5.1,1.19,13.833,13.833,0,0,0,5.4-.93,9.387,9.387,0,0,0,3.97-2.81,7.8,7.8,0,0,0,1.69-4.31q0.435-5.19-5.31-7.83l-1.52-.65-3.03-1.08q-4.14-1.56-3.73-4.59A5.057,5.057,0,0,1,1282,8685.76Zm28.08-1.81h-3.66l-0.93,5.32h-3.89l-0.51,2.9h3.89l-2.24,13.59a6.258,6.258,0,0,0,.85,4.23,3.872,3.872,0,0,0,3.3,1.61,10.252,10.252,0,0,0,2.69-.36l0.28-3.07a10.244,10.244,0,0,1-1.79.21,1.555,1.555,0,0,1-1.73-1.59,4.567,4.567,0,0,1,.02-0.97l2.3-13.65h3.99l0.51-2.9h-4.01Zm14.94,21.73-2.46-16.41h-3.85l3.8,21.48-1.32,2.52a7.139,7.139,0,0,1-2.25,2.78,4.81,4.81,0,0,1-3.02.79l-0.95-.11-0.33,3.05a11.7,11.7,0,0,0,2.22.36q4.275,0.06,7-5.27l13.06-25.6h-4.07Zm14.41,5.54h3.67l5.43-31.16h-3.69Zm29.6-20.11a7.064,7.064,0,0,0-5.33-2.25,9.171,9.171,0,0,0-4.97,1.31,11.227,11.227,0,0,0-3.89,4.07,14.46,14.46,0,0,0-1.94,5.96l-0.11.87a10.388,10.388,0,0,0,1.96,7.53,7.927,7.927,0,0,0,6.43,3.02,10.109,10.109,0,0,0,4.87-1.08,9.687,9.687,0,0,0,3.57-3.12l-2.12-1.78a7.847,7.847,0,0,1-6.02,2.92,4.7,4.7,0,0,1-4.04-2.17,7.376,7.376,0,0,1-.98-5.07h14.38l0.22-1.69a16.518,16.518,0,0,0,.08-2.63A9.237,9.237,0,0,0,1369.03,8691.11Zm-1.41,6.82-0.08.32-10.7-.02a11.011,11.011,0,0,1,2.7-4.76,5.385,5.385,0,0,1,3.97-1.55,3.885,3.885,0,0,1,3.29,1.76A5.962,5.962,0,0,1,1367.62,8697.93Z" transform="translate(-1272 -8615)"/>
</svg>
