<svg xmlns="http://www.w3.org/2000/svg" width="208" height="111" viewBox="0 0 208 111">
  <defs>
    <style>
      .cls-1 {
        fill: #fff;
        fill-rule: evenodd;
      }
    </style>
  </defs>
  <path id="style04_ttl.svg" class="cls-1" d="M1441.04,6950.93a0.534,0.534,0,0,1-.53.53h-10.05a0.538,0.538,0,0,0-.54.54v29.53a0.536,0.536,0,0,1-.53.54h-5.08a0.538,0.538,0,0,1-.54-0.54V6952a0.536,0.536,0,0,0-.53-0.54h-9.95a0.536,0.536,0,0,1-.54-0.53v-3.92a0.536,0.536,0,0,1,.54-0.53h27.22a0.534,0.534,0,0,1,.53.53v3.92Zm-64.34-4.45h-5.18a0.628,0.628,0,0,0-.58.47l-5.29,25.83c-0.05.26-.15,0.27-0.21,0.01l-6.5-25.85a0.666,0.666,0,0,0-.6-0.46h-4.23a0.666,0.666,0,0,0-.6.46l-6.57,25.8c-0.06.26-.16,0.26-0.22,0l-5.33-25.79a0.628,0.628,0,0,0-.58-0.47h-5.19a0.362,0.362,0,0,0-.37.46l8.01,34.64a0.64,0.64,0,0,0,.59.47h4.99a0.655,0.655,0,0,0,.6-0.46l6.68-25.05c0.07-.25.18-0.25,0.25,0.01l6.54,25.04a0.666,0.666,0,0,0,.6.46h4.97a0.64,0.64,0,0,0,.59-0.47l8.01-34.64A0.364,0.364,0,0,0,1376.7,6946.48Zm-62.28,36.06q6.045,0,9.68-3.31a11.528,11.528,0,0,0,3.64-8.98v-23.29a0.48,0.48,0,0,0-.48-0.48h-5.21a0.48,0.48,0,0,0-.48.48v23.12q0,7.53-7.15,7.52a7.064,7.064,0,0,1-5.34-1.88,7.534,7.534,0,0,1-1.81-5.45v-23.31a0.48,0.48,0,0,0-.48-0.48h-5.21a0.474,0.474,0,0,0-.48.48v23.27q0,5.79,3.6,9.05T1314.42,6982.54Zm139.14-2.1a15.251,15.251,0,0,0,15.48,0,13.671,13.671,0,0,0,5.18-6.06,21.764,21.764,0,0,0,1.81-9.18v-1.98a21.408,21.408,0,0,0-1.86-9.13,13.7,13.7,0,0,0-5.2-6.01,15.277,15.277,0,0,0-15.46.02,13.92,13.92,0,0,0-5.21,6.1,21.514,21.514,0,0,0-1.85,9.19v2.01a21.014,21.014,0,0,0,1.87,9.01A13.884,13.884,0,0,0,1453.56,6980.44Zm-0.92-17.29c0.04-3.83.81-6.8,2.32-8.89a7.923,7.923,0,0,1,12.64.01q2.235,3.165,2.24,9.07v1.86q0,6.015-2.22,9.14a7.288,7.288,0,0,1-6.33,3.13,7.4,7.4,0,0,1-6.36-3.2c-1.52-2.14-2.29-5.16-2.29-9.07v-2.05Zm-53.02,10.15a5,5,0,0,0-4.97-4.51h-3.68a0.375,0.375,0,0,1-.36-0.5l4.81-13.76a0.2,0.2,0,0,1,.36,0l9.46,27.03a0.777,0.777,0,0,0,.72.51h5.39a0.372,0.372,0,0,0,.35-0.5l-13.12-34.59a0.768,0.768,0,0,0-.72-0.5h-4.49a0.791,0.791,0,0,0-.73.5l-13.09,34.59a0.372,0.372,0,0,0,.35.5h5.37a0.764,0.764,0,0,0,.71-0.51l2.54-7.28a0.746,0.746,0,0,1,.71-0.5h9.92A0.4,0.4,0,0,0,1399.62,6973.3Zm-122.43,8.27v-14.11a0.482,0.482,0,0,1,.49-0.48h13.38a0.48,0.48,0,0,0,.48-0.48v-3.98a0.48,0.48,0,0,0-.48-0.48h-13.38a0.489,0.489,0,0,1-.49-0.48v-9.62a0.489,0.489,0,0,1,.49-0.48h15.49a0.48,0.48,0,0,0,.48-0.48v-4.02a0.48,0.48,0,0,0-.48-0.48h-21.69a0.48,0.48,0,0,0-.48.48v34.61a0.48,0.48,0,0,0,.48.48h5.23A0.474,0.474,0,0,0,1277.19,6981.57Zm134.08,17.06q-9.315,0-14.25,6.16t-4.95,18.07v10.45q0.12,11.43,5.04,17.56,4.935,6.12,14.24,6.12,9.42,0,14.31-6.24t4.88-18.02v-10.46q-0.12-11.43-5.04-17.54T1411.27,6998.63Zm7.97,36.11q-0.075,6.675-1.91,9.92a6.354,6.354,0,0,1-5.98,3.24,6.457,6.457,0,0,1-6.08-3.38q-1.9-3.375-1.9-10.33v-13.82c0.08-4.35.75-7.54,2.01-9.59a6.445,6.445,0,0,1,5.89-3.06,6.544,6.544,0,0,1,6.04,3.22q1.935,3.225,1.93,10.29v13.51Zm53.31,0.09v-35.42h-11.42l-23.73,37.41,0.51,7.1h23.34v12.29h11.3v-12.29H1479v-9.09h-6.45Zm-11.3,0h-12.59l11.85-18.76,0.74-1.29v20.05Zm-180.26-18.07a7.607,7.607,0,0,1,4.66-1.3,5.486,5.486,0,0,1,4.07,1.54,5.337,5.337,0,0,1,1.22,4.22l3.84,0.02a8.663,8.663,0,0,0-.98-4.59,7.643,7.643,0,0,0-3.2-3.17,10.386,10.386,0,0,0-4.79-1.2,12.677,12.677,0,0,0-5.21.96,9.532,9.532,0,0,0-3.94,2.91,7.892,7.892,0,0,0-1.68,4.34q-0.39,4.89,5.55,7.59l1.17,0.51,3.52,1.28c2.55,1,3.67,2.58,3.38,4.74a5.01,5.01,0,0,1-2.22,3.55,8.121,8.121,0,0,1-4.86,1.28,6.5,6.5,0,0,1-4.56-1.59,5.026,5.026,0,0,1-1.44-4.19l-3.82-.02a7.989,7.989,0,0,0,1.06,4.6,8.28,8.28,0,0,0,3.51,3.2,11.321,11.321,0,0,0,5.09,1.19,13.657,13.657,0,0,0,5.4-.94,9.387,9.387,0,0,0,3.97-2.81,7.768,7.768,0,0,0,1.69-4.31c0.28-3.46-1.48-6.07-5.31-7.83l-1.52-.65-3.03-1.07q-4.125-1.575-3.72-4.6A5.115,5.115,0,0,1,1280.99,7016.76Zm28.07-1.8h-3.66l-0.93,5.31h-3.89l-0.51,2.9h3.89l-2.24,13.59a6.189,6.189,0,0,0,.86,4.23,3.849,3.849,0,0,0,3.29,1.62,10.133,10.133,0,0,0,2.68-.37l0.29-3.06a11.105,11.105,0,0,1-1.79.2,1.548,1.548,0,0,1-1.73-1.58,4.66,4.66,0,0,1,.02-0.98l2.3-13.65h3.98l0.51-2.9h-4Zm14.92,21.72-2.46-16.41h-3.84l3.8,21.48-1.32,2.52a7.254,7.254,0,0,1-2.25,2.79,4.858,4.858,0,0,1-3.01.78l-0.96-.1-0.32,3.04a12.589,12.589,0,0,0,2.21.37q4.275,0.06,7-5.28l13.05-25.6h-4.07Zm14.41,5.54h3.66l5.43-31.16h-3.68Zm29.58-20.1a7.035,7.035,0,0,0-5.33-2.26,9.2,9.2,0,0,0-4.96,1.31,11.307,11.307,0,0,0-3.89,4.07,14.52,14.52,0,0,0-1.95,5.96l-0.1.88a10.418,10.418,0,0,0,1.95,7.52,7.978,7.978,0,0,0,6.43,3.03,10.23,10.23,0,0,0,4.87-1.09,9.832,9.832,0,0,0,3.57-3.11l-2.12-1.79a7.814,7.814,0,0,1-6.02,2.92,4.648,4.648,0,0,1-4.03-2.17,7.421,7.421,0,0,1-.99-5.07h14.38l0.22-1.68a17.92,17.92,0,0,0,.08-2.64A9.243,9.243,0,0,0,1367.97,7022.12Zm-1.41,6.81-0.08.33-10.69-.02a10.945,10.945,0,0,1,2.69-4.77,5.383,5.383,0,0,1,3.98-1.54,3.871,3.871,0,0,1,3.28,1.75A5.962,5.962,0,0,1,1366.56,7028.93Z" transform="translate(-1271 -6946)"/>
</svg>
