<svg xmlns="http://www.w3.org/2000/svg" width="205" height="111" viewBox="0 0 205 111">
  <defs>
    <style>
      .cls-1 {
        fill: #fff;
        fill-rule: evenodd;
      }
    </style>
  </defs>
  <path id="style01_ttl.svg" class="cls-1" d="M1443.01,1310.94a0.534,0.534,0,0,1-.53.53h-10.05a0.538,0.538,0,0,0-.54.54v29.53a0.527,0.527,0,0,1-.53.53h-5.08a0.527,0.527,0,0,1-.53-0.53v-29.53a0.538,0.538,0,0,0-.54-0.54h-9.95a0.534,0.534,0,0,1-.53-0.53v-3.92a0.527,0.527,0,0,1,.53-0.53h27.22a0.527,0.527,0,0,1,.53.53v3.92Zm-64.33-4.45h-5.18a0.628,0.628,0,0,0-.58.47l-5.29,25.83c-0.05.26-.15,0.26-0.21,0.01l-6.5-25.85a0.645,0.645,0,0,0-.6-0.46h-4.22a0.645,0.645,0,0,0-.6.46l-6.57,25.8c-0.07.26-.17,0.25-0.22,0l-5.34-25.79a0.609,0.609,0,0,0-.58-0.47h-5.18a0.362,0.362,0,0,0-.37.46l8.01,34.64a0.63,0.63,0,0,0,.59.47h4.98a0.668,0.668,0,0,0,.61-0.46l6.68-25.05c0.07-.25.18-0.25,0.25,0l6.53,25.05a0.668,0.668,0,0,0,.61.46h4.96a0.64,0.64,0,0,0,.59-0.47l8.01-34.64A0.364,0.364,0,0,0,1378.68,1306.49Zm-62.27,36.06q6.045,0,9.68-3.31a11.528,11.528,0,0,0,3.64-8.98v-23.29a0.48,0.48,0,0,0-.48-0.48h-5.21a0.48,0.48,0,0,0-.48.48v23.12q0,7.53-7.15,7.52a7.064,7.064,0,0,1-5.34-1.88,7.577,7.577,0,0,1-1.81-5.45v-23.31a0.474,0.474,0,0,0-.48-0.48h-5.2a0.482,0.482,0,0,0-.49.48v23.27q0,5.79,3.6,9.05T1316.41,1342.55Zm159.73-28.45a13.665,13.665,0,0,0-5.21-6.01,15.259,15.259,0,0,0-15.45.02,13.865,13.865,0,0,0-5.21,6.1,21.514,21.514,0,0,0-1.85,9.19v2.01a21.014,21.014,0,0,0,1.87,9.01,13.884,13.884,0,0,0,5.24,6.03,15.251,15.251,0,0,0,15.48,0,13.733,13.733,0,0,0,5.18-6.06,21.919,21.919,0,0,0,1.81-9.18v-1.98A21.712,21.712,0,0,0,1476.14,1314.1Zm-4.34,11.11q0,6.015-2.21,9.14a7.288,7.288,0,0,1-6.33,3.13,7.4,7.4,0,0,1-6.36-3.2c-1.52-2.14-2.29-5.16-2.29-9.07v-2.05q0.06-5.745,2.32-8.89a7.913,7.913,0,0,1,12.63.01c1.5,2.11,2.24,5.13,2.24,9.07v1.86Zm-70.2,8.1a5,5,0,0,0-4.98-4.51h-3.67a0.374,0.374,0,0,1-.36-0.5l4.81-13.76a0.188,0.188,0,0,1,.35,0l9.47,27.03a0.755,0.755,0,0,0,.71.5h5.4a0.355,0.355,0,0,0,.34-0.49l-13.11-34.59a0.768,0.768,0,0,0-.72-0.5h-4.49a0.781,0.781,0,0,0-.73.5l-13.09,34.59a0.364,0.364,0,0,0,.35.49h5.37a0.755,0.755,0,0,0,.71-0.5l2.54-7.28a0.746,0.746,0,0,1,.71-0.5h9.91A0.412,0.412,0,0,0,1401.6,1333.31Zm-122.41,8.27v-14.11a0.482,0.482,0,0,1,.49-0.48h13.38a0.489,0.489,0,0,0,.48-0.49v-3.97a0.487,0.487,0,0,0-.48-0.48h-13.38a0.489,0.489,0,0,1-.49-0.48v-9.62a0.489,0.489,0,0,1,.49-0.48h15.48a0.489,0.489,0,0,0,.49-0.48v-4.02a0.482,0.482,0,0,0-.49-0.48h-21.68a0.48,0.48,0,0,0-.48.48v34.61a0.487,0.487,0,0,0,.48.48h5.23A0.48,0.48,0,0,0,1279.19,1341.58Zm136.57,17.06q-9.3,0-14.25,6.16t-4.95,18.06v10.46q0.12,11.43,5.05,17.55,4.92,6.135,14.23,6.13,9.42,0,14.3-6.24t4.89-18.03v-10.45q-0.12-11.43-5.04-17.54T1415.76,1358.64Zm7.97,36.11q-0.075,6.675-1.91,9.92a6.354,6.354,0,0,1-5.98,3.24,6.457,6.457,0,0,1-6.08-3.38q-1.9-3.375-1.9-10.33v-13.82c0.08-4.35.75-7.54,2.01-9.59a6.445,6.445,0,0,1,5.89-3.06,6.544,6.544,0,0,1,6.04,3.22q1.935,3.225,1.93,10.29v13.51Zm20.02-26.98v9.16l13.48-4.17v43.46h11.3v-56.88h-1.21Zm-160.76,9a7.674,7.674,0,0,1,4.66-1.3,5.462,5.462,0,0,1,4.06,1.54,5.253,5.253,0,0,1,1.22,4.22l3.84,0.02a8.566,8.566,0,0,0-.97-4.59,7.724,7.724,0,0,0-3.2-3.18,10.539,10.539,0,0,0-4.79-1.19,12.677,12.677,0,0,0-5.21.96,9.532,9.532,0,0,0-3.94,2.91,7.892,7.892,0,0,0-1.68,4.34q-0.39,4.89,5.55,7.59l1.17,0.51,3.52,1.28c2.55,1,3.67,2.58,3.38,4.74a5.01,5.01,0,0,1-2.22,3.55,8.121,8.121,0,0,1-4.86,1.28,6.5,6.5,0,0,1-4.56-1.59,5.026,5.026,0,0,1-1.44-4.19l-3.82-.02a7.989,7.989,0,0,0,1.06,4.6,8.28,8.28,0,0,0,3.51,3.2,11.185,11.185,0,0,0,5.09,1.18,13.572,13.572,0,0,0,5.39-.93,9.421,9.421,0,0,0,3.98-2.81,7.842,7.842,0,0,0,1.69-4.31q0.42-5.19-5.31-7.83l-1.52-.65-3.03-1.08q-4.125-1.56-3.72-4.59A5.115,5.115,0,0,1,1282.99,1376.77Zm28.06-1.81h-3.65l-0.94,5.32h-3.88l-0.51,2.9h3.88l-2.23,13.59a6.2,6.2,0,0,0,.85,4.23,3.817,3.817,0,0,0,3.29,1.61,10.2,10.2,0,0,0,2.69-.36l0.28-3.06a10.99,10.99,0,0,1-1.79.2,1.558,1.558,0,0,1-1.73-1.58,4.705,4.705,0,0,1,.03-0.98l2.29-13.65h3.99l0.5-2.9h-4Zm14.93,21.73-2.46-16.41h-3.85l3.81,21.48-1.33,2.52a7.33,7.33,0,0,1-2.24,2.79,4.906,4.906,0,0,1-3.02.78l-0.96-.1-0.32,3.04a12.589,12.589,0,0,0,2.21.37q4.275,0.06,7-5.28l13.05-25.6h-4.07Zm14.4,5.54h3.66l5.43-31.16h-3.68Zm29.57-20.1a7.019,7.019,0,0,0-5.33-2.26,9.16,9.16,0,0,0-4.96,1.31,11.39,11.39,0,0,0-3.89,4.07,14.657,14.657,0,0,0-1.94,5.96l-0.1.88a10.418,10.418,0,0,0,1.95,7.52,7.935,7.935,0,0,0,6.42,3.02,10.083,10.083,0,0,0,4.87-1.08,9.672,9.672,0,0,0,3.57-3.11l-2.11-1.79a7.829,7.829,0,0,1-6.02,2.92,4.675,4.675,0,0,1-4.04-2.17,7.365,7.365,0,0,1-.98-5.07h14.37l0.22-1.68a15.537,15.537,0,0,0,.08-2.64A9.187,9.187,0,0,0,1369.95,1382.13Zm-1.4,6.81-0.08.33-10.7-.02a11.053,11.053,0,0,1,2.7-4.77,5.36,5.36,0,0,1,3.97-1.54,3.859,3.859,0,0,1,3.28,1.75A6.014,6.014,0,0,1,1368.55,1388.94Z" transform="translate(-1273 -1306)"/>
</svg>
