<svg xmlns="http://www.w3.org/2000/svg" width="64" height="70" viewBox="0 0 64 70">
  <defs>
    <style>
      .cls-1 {
        fill-rule: evenodd;
      }
    </style>
  </defs>
  <path id="style_05.svg" class="cls-1" d="M1137.88,1092.85q0,8.79-3.67,13.46t-10.74,4.66q-6.99,0-10.69-4.57c-2.46-3.05-3.73-7.42-3.78-13.12v-7.8q0-8.895,3.71-13.49t10.7-4.6q6.99,0,10.69,4.55c2.46,3.04,3.73,7.41,3.78,13.1v7.81Zm-8.48-8.59q0-5.28-1.45-7.68a4.934,4.934,0,0,0-4.54-2.41,4.846,4.846,0,0,0-4.42,2.29c-0.95,1.53-1.45,3.91-1.51,7.16v10.33c0,3.46.48,6.03,1.42,7.71a4.867,4.867,0,0,0,4.57,2.52,4.763,4.763,0,0,0,4.49-2.42q1.38-2.415,1.44-7.41v-10.09Zm15.76,5.27,2.47-21.56h23.95v7.02h-17l-1.05,9.12a13.5,13.5,0,0,1,6.43-1.6q6.105,0,9.57,3.75,3.465,3.765,3.46,10.52a15.356,15.356,0,0,1-1.74,7.36,12.345,12.345,0,0,1-5.01,5.04,15.774,15.774,0,0,1-7.69,1.79,16.727,16.727,0,0,1-7.2-1.56,12.821,12.821,0,0,1-5.24-4.38,11.934,11.934,0,0,1-2.04-6.44h8.4a6.235,6.235,0,0,0,1.86,4.12,5.967,5.967,0,0,0,4.19,1.47,5.222,5.222,0,0,0,4.43-2.05,9.448,9.448,0,0,0,1.56-5.81,7.853,7.853,0,0,0-1.79-5.54,6.619,6.619,0,0,0-5.08-1.92,7.4,7.4,0,0,0-4.91,1.57l-0.82.76Zm-23.53-35.04q0.27-1.86-1.95-2.73l-2.03-.73-0.68-.29c-2.29-1.04-3.35-2.49-3.21-4.36a4.61,4.61,0,0,1,.98-2.5,5.544,5.544,0,0,1,2.27-1.67,7.455,7.455,0,0,1,3.01-.55,5.946,5.946,0,0,1,2.77.69,4.39,4.39,0,0,1,1.85,1.82,4.934,4.934,0,0,1,.56,2.64l-2.22-.01a3.018,3.018,0,0,0-.7-2.43,3.16,3.16,0,0,0-2.35-.88,4.4,4.4,0,0,0-2.69.74,2.933,2.933,0,0,0-1.24,2.11c-0.16,1.16.56,2.04,2.15,2.64l1.74,0.61,0.89,0.38q3.3,1.515,3.06,4.5a4.506,4.506,0,0,1-.97,2.47,5.447,5.447,0,0,1-2.3,1.62,7.884,7.884,0,0,1-3.12.53,6.425,6.425,0,0,1-2.94-.68,4.892,4.892,0,0,1-2.03-1.83,4.629,4.629,0,0,1-.61-2.65l2.21,0.01a2.9,2.9,0,0,0,.83,2.41,3.734,3.734,0,0,0,2.64.91,4.714,4.714,0,0,0,2.8-.73A2.84,2.84,0,0,0,1121.63,1054.49Zm11.94-11.29-0.54,3.05h2.32l-0.3,1.67h-2.3l-1.33,7.84a3.549,3.549,0,0,0-.01.56,0.9,0.9,0,0,0,1,.91,5.907,5.907,0,0,0,1.03-.12l-0.16,1.76a5.848,5.848,0,0,1-1.55.21,2.182,2.182,0,0,1-1.9-.93,3.522,3.522,0,0,1-.5-2.42l1.3-7.81h-2.25l0.3-1.67h2.24l0.54-3.05h2.11Zm8.74,12.48,4.52-9.43h2.35l-7.54,14.71c-1.05,2.04-2.39,3.05-4.04,3.03a7.464,7.464,0,0,1-1.28-.21l0.19-1.75,0.55,0.06a2.819,2.819,0,0,0,1.75-.45,4.123,4.123,0,0,0,1.29-1.6l0.77-1.45-2.2-12.34h2.22Zm10.57,3.18h-2.12l3.13-17.9h2.12Zm10.57,0.23a4.6,4.6,0,0,1-3.71-1.73,5.974,5.974,0,0,1-1.13-4.33l0.06-.5a8.326,8.326,0,0,1,1.12-3.42,6.421,6.421,0,0,1,2.25-2.34,5.157,5.157,0,0,1,2.86-.75,4.051,4.051,0,0,1,3.08,1.29,5.26,5.26,0,0,1,1.22,3.38,9.652,9.652,0,0,1-.04,1.52l-0.13.96h-8.31a4.262,4.262,0,0,0,.57,2.92,2.7,2.7,0,0,0,2.33,1.24,4.529,4.529,0,0,0,3.48-1.68l1.22,1.03a5.572,5.572,0,0,1-2.06,1.79A5.833,5.833,0,0,1,1163.45,1059.09Zm1.35-11.31a3.115,3.115,0,0,0-2.3.88,6.335,6.335,0,0,0-1.55,2.74l6.17,0.01,0.05-.18a3.439,3.439,0,0,0-.47-2.45A2.266,2.266,0,0,0,1164.8,1047.78Z" transform="translate(-1109 -1040.97)"/>
</svg>
