<svg xmlns="http://www.w3.org/2000/svg" width="64.03" height="70" viewBox="0 0 64.03 70">
  <defs>
    <style>
      .cls-1 {
        fill-rule: evenodd;
      }
    </style>
  </defs>
  <path id="style_02.svg" class="cls-1" d="M1138.6,703.848q0,8.8-3.64,13.461t-10.66,4.662q-6.93,0-10.6-4.575t-3.76-13.109v-7.809q0-8.887,3.69-13.49,3.675-4.6,10.61-4.6t10.6,4.56q3.675,4.56,3.76,13.095v7.808Zm-8.42-8.583q0-5.28-1.44-7.686a4.869,4.869,0,0,0-4.5-2.4,4.777,4.777,0,0,0-4.38,2.289q-1.41,2.288-1.5,7.159v10.324q0,5.19,1.41,7.713a4.805,4.805,0,0,0,4.53,2.524,4.737,4.737,0,0,0,4.46-2.422c0.91-1.612,1.39-4.082,1.42-7.407V695.265Zm43.78,26.123h-29.07V715.62l13.72-14.627a33.872,33.872,0,0,0,4.18-5.389,8.68,8.68,0,0,0,1.35-4.37,6.493,6.493,0,0,0-1.42-4.445,5.166,5.166,0,0,0-4.08-1.615,5.566,5.566,0,0,0-4.5,1.966,7.776,7.776,0,0,0-1.65,5.171h-8.44a13.949,13.949,0,0,1,1.85-7.08,12.971,12.971,0,0,1,5.23-5.025,15.851,15.851,0,0,1,7.65-1.821q6.555,0,10.18,3.147t3.63,8.885a14.361,14.361,0,0,1-1.63,6.41,35.726,35.726,0,0,1-5.59,7.605l-9.64,10.167h18.23v6.789Zm-51.32-55.9c0.17-1.243-.47-2.153-1.93-2.727l-2.02-.735-0.67-.291q-3.4-1.549-3.18-4.358a4.556,4.556,0,0,1,.97-2.494,5.419,5.419,0,0,1,2.25-1.673,7.233,7.233,0,0,1,2.99-.553,5.938,5.938,0,0,1,2.74.688,4.453,4.453,0,0,1,1.84,1.823,4.932,4.932,0,0,1,.55,2.639l-2.2-.012a3.01,3.01,0,0,0-.7-2.426,3.12,3.12,0,0,0-2.33-.882,4.309,4.309,0,0,0-2.66.747,2.907,2.907,0,0,0-1.24,2.1q-0.225,1.74,2.13,2.639l1.74,0.62,0.87,0.372c2.19,1.01,3.21,2.509,3.04,4.5a4.45,4.45,0,0,1-.96,2.477,5.427,5.427,0,0,1-2.28,1.613,7.828,7.828,0,0,1-3.09.536,6.453,6.453,0,0,1-2.92-.682,4.776,4.776,0,0,1-2.01-1.835,4.617,4.617,0,0,1-.61-2.645l2.19,0.011a2.907,2.907,0,0,0,.82,2.406,3.706,3.706,0,0,0,2.62.916,4.65,4.65,0,0,0,2.78-.734A2.843,2.843,0,0,0,1122.64,665.49Zm11.85-11.292-0.54,3.053h2.3l-0.29,1.666h-2.29l-1.31,7.843a2.693,2.693,0,0,0-.02.56,0.894,0.894,0,0,0,.99.908,6.137,6.137,0,0,0,1.03-.116l-0.16,1.759a5.775,5.775,0,0,1-1.54.21,2.2,2.2,0,0,1-1.89-.926,3.6,3.6,0,0,1-.49-2.431l1.28-7.807h-2.22l0.29-1.666h2.22l0.54-3.053h2.1Zm8.67,12.48,4.48-9.427h2.33l-7.48,14.708c-1.04,2.042-2.37,3.052-4.01,3.028a6.777,6.777,0,0,1-1.26-.209l0.18-1.748,0.55,0.057a2.762,2.762,0,0,0,1.73-.447,4.276,4.276,0,0,0,1.29-1.6l0.75-1.445-2.18-12.342h2.21Zm10.48,3.182h-2.1l3.1-17.9h2.11Zm10.48,0.233a4.548,4.548,0,0,1-3.68-1.737,6,6,0,0,1-1.12-4.323l0.06-.5a8.346,8.346,0,0,1,1.11-3.425,6.54,6.54,0,0,1,2.23-2.338,5.225,5.225,0,0,1,2.85-.75,4.014,4.014,0,0,1,3.05,1.293,5.31,5.31,0,0,1,1.21,3.379,9.586,9.586,0,0,1-.05,1.515l-0.12.968h-8.24a4.3,4.3,0,0,0,.56,2.914,2.69,2.69,0,0,0,2.32,1.247,4.5,4.5,0,0,0,3.45-1.679l1.21,1.026a5.536,5.536,0,0,1-2.05,1.788A5.764,5.764,0,0,1,1164.12,670.093Zm1.34-11.317a3.1,3.1,0,0,0-2.28.886,6.38,6.38,0,0,0-1.54,2.74l6.13,0.011,0.04-.187a3.417,3.417,0,0,0-.47-2.441A2.217,2.217,0,0,0,1165.46,658.776Z" transform="translate(-1109.94 -651.969)"/>
</svg>
