<svg xmlns="http://www.w3.org/2000/svg" width="65" height="70" viewBox="0 0 65 70">
  <defs>
    <style>
      .cls-1 {
        fill-rule: evenodd;
      }
    </style>
  </defs>
  <path id="style_04.svg" class="cls-1" d="M1137.65,962.849q0,8.8-3.65,13.46t-10.67,4.662q-6.93,0-10.61-4.575-3.66-4.572-3.76-13.111v-7.808q0-8.885,3.69-13.489t10.63-4.6q6.93,0,10.61,4.56t3.76,13.095v7.809Zm-8.43-8.585q0-5.277-1.44-7.685a4.87,4.87,0,0,0-4.5-2.4,4.784,4.784,0,0,0-4.39,2.289q-1.41,2.289-1.5,7.16v10.323q0,5.192,1.41,7.715a4.817,4.817,0,0,0,4.53,2.521,4.728,4.728,0,0,0,4.46-2.419c0.92-1.614,1.39-4.084,1.43-7.408V954.264Zm39.94,10.158h4.81v6.79h-4.81v9.176h-8.42v-9.176h-17.4l-0.38-5.3,17.69-27.941h8.51v26.455Zm-17.81,0h9.39V949.447l-0.56.961Zm-29.53-39.932c0.17-1.243-.47-2.152-1.93-2.727l-2.02-.734-0.68-.292q-3.4-1.548-3.18-4.359a4.559,4.559,0,0,1,.97-2.493,5.484,5.484,0,0,1,2.25-1.673,7.279,7.279,0,0,1,2.99-.553,5.959,5.959,0,0,1,2.75.687,4.459,4.459,0,0,1,1.84,1.823,5.039,5.039,0,0,1,.56,2.64l-2.21-.011a3.016,3.016,0,0,0-.7-2.428,3.128,3.128,0,0,0-2.33-.881,4.359,4.359,0,0,0-2.67.747,2.941,2.941,0,0,0-1.24,2.1c-0.15,1.159.56,2.039,2.14,2.639l1.74,0.618,0.87,0.373c2.19,1.011,3.21,2.509,3.04,4.5a4.435,4.435,0,0,1-.96,2.475,5.4,5.4,0,0,1-2.28,1.615,7.878,7.878,0,0,1-3.1.536,6.471,6.471,0,0,1-2.92-.682,4.782,4.782,0,0,1-2.01-1.835,4.611,4.611,0,0,1-.61-2.645l2.19,0.011a2.885,2.885,0,0,0,.83,2.407,3.688,3.688,0,0,0,2.61.915,4.69,4.69,0,0,0,2.79-.734A2.843,2.843,0,0,0,1121.82,924.49Zm11.86-11.293-0.54,3.053h2.3l-0.29,1.667h-2.29l-1.32,7.843a3.538,3.538,0,0,0-.01.559,0.894,0.894,0,0,0,.99.91,6.157,6.157,0,0,0,1.03-.117l-0.16,1.759a5.776,5.776,0,0,1-1.54.211,2.207,2.207,0,0,1-1.89-.927,3.542,3.542,0,0,1-.49-2.429l1.28-7.809h-2.23l0.29-1.667h2.23l0.54-3.053h2.1Zm8.67,12.481,4.49-9.428h2.34l-7.49,14.708q-1.56,3.066-4.01,3.03a6.874,6.874,0,0,1-1.27-.21l0.18-1.748,0.55,0.058a2.739,2.739,0,0,0,1.73-.448,4.075,4.075,0,0,0,1.29-1.6l0.76-1.445-2.18-12.342h2.2Zm10.49,3.182h-2.09l3.1-17.9h2.11Zm10.5,0.233a4.533,4.533,0,0,1-3.68-1.736,5.956,5.956,0,0,1-1.12-4.324l0.06-.5a8.355,8.355,0,0,1,1.11-3.427,6.453,6.453,0,0,1,2.23-2.337,5.208,5.208,0,0,1,2.85-.751,4,4,0,0,1,3.05,1.293,5.311,5.311,0,0,1,1.22,3.379,10.97,10.97,0,0,1-.05,1.516l-0.13.967h-8.24a4.293,4.293,0,0,0,.56,2.913,2.689,2.689,0,0,0,2.32,1.248,4.5,4.5,0,0,0,3.45-1.679l1.21,1.026a5.539,5.539,0,0,1-2.05,1.789A5.752,5.752,0,0,1,1163.34,929.093Zm1.34-11.316a3.088,3.088,0,0,0-2.28.886,6.265,6.265,0,0,0-1.54,2.738l6.13,0.013,0.05-.187a3.466,3.466,0,0,0-.47-2.442A2.233,2.233,0,0,0,1164.68,917.777Z" transform="translate(-1108.97 -910.969)"/>
</svg>
