<svg xmlns="http://www.w3.org/2000/svg" width="207" height="111" viewBox="0 0 207 111">
  <defs>
    <style>
      .cls-1 {
        fill: #fff;
        fill-rule: evenodd;
      }
    </style>
  </defs>
  <path id="style02_ttl.svg" class="cls-1" d="M1441.93,3330.93a0.538,0.538,0,0,1-.54.54h-10.04a0.527,0.527,0,0,0-.53.53v29.54a0.536,0.536,0,0,1-.54.53h-5.07a0.536,0.536,0,0,1-.54-0.53V3332a0.534,0.534,0,0,0-.53-0.53h-9.95a0.536,0.536,0,0,1-.53-0.54v-3.91a0.536,0.536,0,0,1,.53-0.54h27.2a0.538,0.538,0,0,1,.54.54v3.91Zm-64.3-4.45h-5.18a0.607,0.607,0,0,0-.57.47l-5.29,25.84c-0.06.26-.15,0.26-0.22,0l-6.49-25.84a0.662,0.662,0,0,0-.6-0.47h-4.22a0.642,0.642,0,0,0-.6.47l-6.57,25.8c-0.07.25-.16,0.25-0.22-0.01l-5.33-25.79a0.628,0.628,0,0,0-.58-0.47h-5.18a0.367,0.367,0,0,0-.37.47l8,34.64a0.64,0.64,0,0,0,.59.47h4.99a0.662,0.662,0,0,0,.6-0.47l6.68-25.04c0.07-.26.18-0.26,0.24,0l6.54,25.04a0.662,0.662,0,0,0,.6.47h4.96a0.63,0.63,0,0,0,.59-0.47l8.01-34.64A0.369,0.369,0,0,0,1377.63,3326.48Zm-62.24,36.07q6.045,0,9.68-3.31a11.57,11.57,0,0,0,3.63-8.98v-23.3a0.487,0.487,0,0,0-.48-0.48h-5.2a0.48,0.48,0,0,0-.48.48v23.12q0,7.53-7.15,7.53a7.063,7.063,0,0,1-5.33-1.88,7.537,7.537,0,0,1-1.82-5.45v-23.32a0.48,0.48,0,0,0-.48-0.48h-5.2a0.48,0.48,0,0,0-.48.48v23.27q0,5.79,3.6,9.05Q1309.265,3362.55,1315.39,3362.55Zm139.05-2.1a15.233,15.233,0,0,0,15.47,0,13.761,13.761,0,0,0,5.18-6.07,21.9,21.9,0,0,0,1.81-9.17v-1.99a21.632,21.632,0,0,0-1.86-9.12,13.79,13.79,0,0,0-5.2-6.02,14.392,14.392,0,0,0-7.73-2.09,14.2,14.2,0,0,0-7.72,2.12,13.865,13.865,0,0,0-5.21,6.1,21.633,21.633,0,0,0-1.85,9.19v2a21.209,21.209,0,0,0,1.87,9.02A13.884,13.884,0,0,0,1454.44,3360.45Zm-0.92-17.3q0.06-5.745,2.32-8.88a7.912,7.912,0,0,1,12.63.01q2.235,3.15,2.24,9.07v1.86q0,6-2.22,9.14a7.925,7.925,0,0,1-12.68-.08c-1.52-2.13-2.29-5.15-2.29-9.06v-2.06Zm-52.99,10.16a4.988,4.988,0,0,0-4.97-4.51h-3.67a0.383,0.383,0,0,1-.36-0.51l4.81-13.75a0.184,0.184,0,0,1,.35,0l9.46,27.03a0.768,0.768,0,0,0,.72.5h5.39a0.363,0.363,0,0,0,.34-0.5l-13.1-34.59a0.791,0.791,0,0,0-.73-0.5h-4.48a0.781,0.781,0,0,0-.73.5l-13.08,34.59a0.367,0.367,0,0,0,.34.5h5.37a0.746,0.746,0,0,0,.71-0.5l2.54-7.28a0.746,0.746,0,0,1,.71-0.5h9.91A0.4,0.4,0,0,0,1400.53,3353.31Zm-122.34,8.27v-14.12a0.487,0.487,0,0,1,.48-0.48h13.38a0.48,0.48,0,0,0,.48-0.48v-3.97a0.48,0.48,0,0,0-.48-0.48h-13.38a0.489,0.489,0,0,1-.48-0.49v-9.61a0.48,0.48,0,0,1,.48-0.48h15.48a0.48,0.48,0,0,0,.48-0.48v-4.03a0.48,0.48,0,0,0-.48-0.48h-21.67a0.487,0.487,0,0,0-.48.48v34.62a0.487,0.487,0,0,0,.48.48h5.23A0.487,0.487,0,0,0,1278.19,3361.58Zm134.39,17.05q-9.3,0-14.25,6.17-4.935,6.165-4.94,18.06v10.46q0.12,11.43,5.04,17.55t14.22,6.13q9.42,0,14.3-6.25t4.89-18.02v-10.45q-0.12-11.445-5.04-17.54T1412.58,3378.63Zm7.97,36.12c-0.06,4.45-.7,7.75-1.92,9.92a6.344,6.344,0,0,1-5.98,3.24,6.452,6.452,0,0,1-6.07-3.38q-1.9-3.375-1.9-10.33v-13.82q0.12-6.525,2.01-9.59a6.453,6.453,0,0,1,5.89-3.07,6.536,6.536,0,0,1,6.03,3.23q1.935,3.21,1.94,10.29v13.51Zm33.99,12.38,12.93-13.62a47.5,47.5,0,0,0,7.51-10.18,19.184,19.184,0,0,0,2.18-8.58q0-7.7-4.86-11.9t-13.66-4.22a21.4,21.4,0,0,0-10.27,2.44,17.486,17.486,0,0,0-7.01,6.73,18.543,18.543,0,0,0-2.49,9.48h11.33a10.409,10.409,0,0,1,2.21-6.92,7.459,7.459,0,0,1,6.04-2.64,6.936,6.936,0,0,1,5.47,2.17,8.7,8.7,0,0,1,1.91,5.95,11.552,11.552,0,0,1-1.81,5.85,45.611,45.611,0,0,1-5.61,7.22l-18.4,19.58v7.73H1479v-9.09h-24.46Zm-172.55-30.36a7.492,7.492,0,0,1,4.65-1.3,5.441,5.441,0,0,1,4.06,1.53,5.276,5.276,0,0,1,1.22,4.23l3.84,0.02a8.675,8.675,0,0,0-.97-4.6,7.7,7.7,0,0,0-3.2-3.17,10.418,10.418,0,0,0-4.79-1.2,12.522,12.522,0,0,0-5.21.97,9.564,9.564,0,0,0-3.93,2.91,7.919,7.919,0,0,0-1.69,4.34q-0.375,4.89,5.55,7.58l1.18,0.51,3.51,1.28c2.55,1,3.67,2.58,3.38,4.75a5.01,5.01,0,0,1-2.22,3.55,8.18,8.18,0,0,1-4.85,1.28,6.463,6.463,0,0,1-4.57-1.6,5.041,5.041,0,0,1-1.43-4.19l-3.82-.02a8.022,8.022,0,0,0,1.06,4.61,8.29,8.29,0,0,0,3.5,3.19,11.253,11.253,0,0,0,5.09,1.19,13.8,13.8,0,0,0,5.4-.93,9.538,9.538,0,0,0,3.97-2.81,7.872,7.872,0,0,0,1.69-4.31q0.42-5.19-5.31-7.83l-1.52-.65-3.03-1.08c-2.75-1.04-3.99-2.58-3.72-4.59A5.057,5.057,0,0,1,1281.99,3396.77Zm28.05-1.81h-3.66l-0.94,5.32h-3.88l-0.5,2.9h3.88l-2.24,13.59a6.258,6.258,0,0,0,.85,4.23,3.86,3.86,0,0,0,3.3,1.61,9.791,9.791,0,0,0,2.68-.37l0.28-3.06a9.972,9.972,0,0,1-1.79.2,1.54,1.54,0,0,1-1.72-1.58,4.567,4.567,0,0,1,.02-0.97l2.29-13.65h3.99l0.5-2.9h-4Zm14.91,21.73-2.46-16.41h-3.84l3.8,21.48-1.32,2.51a7.1,7.1,0,0,1-2.25,2.79,4.731,4.731,0,0,1-3.01.78l-0.96-.1-0.32,3.05a12.363,12.363,0,0,0,2.21.36q4.275,0.06,6.99-5.27l13.04-25.6h-4.06Zm14.4,5.53H1343l5.43-31.15h-3.68Zm29.55-20.1a6.971,6.971,0,0,0-5.32-2.25,9.052,9.052,0,0,0-4.96,1.31,11.227,11.227,0,0,0-3.89,4.07,14.559,14.559,0,0,0-1.94,5.96l-0.1.87a10.431,10.431,0,0,0,1.95,7.53,7.908,7.908,0,0,0,6.42,3.02,10,10,0,0,0,4.87-1.09,9.63,9.63,0,0,0,3.56-3.11l-2.11-1.78a7.847,7.847,0,0,1-6.02,2.92,4.693,4.693,0,0,1-4.03-2.17,7.388,7.388,0,0,1-.98-5.07h14.36l0.22-1.69a15.537,15.537,0,0,0,.08-2.64A9.23,9.23,0,0,0,1368.9,3402.12Zm-1.4,6.82-0.08.32-10.69-.02a11.045,11.045,0,0,1,2.69-4.77,5.422,5.422,0,0,1,3.98-1.54,3.88,3.88,0,0,1,3.28,1.76A6,6,0,0,1,1367.5,3408.94Z" transform="translate(-1272 -3326)"/>
</svg>
