<svg xmlns="http://www.w3.org/2000/svg" width="447" height="44.13" viewBox="0 0 447 44.13">
  <defs>
    <style>
      .cls-1 {
        fill: #fff;
        fill-rule: evenodd;
      }
    </style>
  </defs>
  <path id="c04_ttl.svg" class="cls-1" d="M500.958,4826.33h11.329v8.55c0,1.39-.528,1.82-2.3,1.82-1.249,0-2.113-.05-3.361-0.14a5.044,5.044,0,0,1,.768,1.63c0.192,0.72.192,0.72,0.96,0.72,2.929,0,4.321-.19,5.185-0.86a3.321,3.321,0,0,0,1.008-2.79c-0.048-1.2-.048-2.88-0.048-5.04v-3.31c0-1.58.1-2.06,0.1-2.3,0-.29-0.048-0.34-0.336-0.34-0.24,0-1.872.1-6.577,0.1H496.109c-4.7,0-6.192-.1-6.432-0.1-0.288,0-.336.05-0.336,0.34v1.48c0,0.29.048,0.34,0.336,0.34,0.24,0,1.728-.1,6.432-0.1H498.7v11.86c0,3.41-.1,4.71-0.1,4.99s0.048,0.29.336,0.29h1.776c0.288,0,.336,0,0.336-0.29,0-.24-0.1-1.58-0.1-4.99v-11.86ZM502.59,4802c0.1-.05.192-0.15,0.288-0.2a0.547,0.547,0,0,0,.288-0.38,0.573,0.573,0,0,0-.576-0.53c-0.72-.19-1.44-0.33-2.3-0.48a18.576,18.576,0,0,1-.864,2.4c-2.017,4.66-8.449,11.71-15.506,15.55a4.141,4.141,0,0,1,1.2,1.01c0.48,0.63.576,0.58,1.2,0.2a43.764,43.764,0,0,0,15.17-15.8,49.586,49.586,0,0,0,16.561,15.6c0.624,0.34.768,0.34,1.1-.28a4.158,4.158,0,0,1,1.2-1.4A45.105,45.105,0,0,1,502.59,4802Zm-26.018,36.81a13.51,13.51,0,0,0,1.68,1.44,1.173,1.173,0,0,0,.672.29,0.5,0.5,0,0,0,.432-0.48,16.775,16.775,0,0,1,1.056-2.11,98.1,98.1,0,0,0,5.568-12.14c0.288-.77.288-0.77-0.336-1.25a4.555,4.555,0,0,1-1.056-1.11,80.665,80.665,0,0,1-5.52,12.05A16.416,16.416,0,0,1,476.572,4838.81Zm1.536-34.85c-0.528.44-.576,0.48-0.288,0.72a35.135,35.135,0,0,1,6.336,7.3c0.144,0.24.192,0.24,0.72-.24l0.816-.77c0.384-.33.432-0.43,0.24-0.67a37.078,37.078,0,0,0-6.384-7.01c-0.24-.24-0.384-0.19-0.768.1Zm16.225,13.83c0,0.29.048,0.33,0.336,0.33,0.24,0,1.3-.09,4.8-0.09h5.136c3.5,0,4.56.09,4.848,0.09s0.336-.04.336-0.33v-1.49c0-.29-0.048-0.34-0.336-0.34s-1.344.1-4.848,0.1H499.47c-3.505,0-4.561-.1-4.8-0.1-0.288,0-.336.05-0.336,0.34v1.49Zm64.576-2.69c4.9,0,6.528.1,6.769,0.1,0.288,0,.336-0.05.336-0.29v-1.49c0-.29-0.048-0.34-0.336-0.34-0.241,0-1.873.1-6.769,0.1h-4.272a6.846,6.846,0,0,1,.192-2.06,2.1,2.1,0,0,0,.24-0.63,0.47,0.47,0,0,0-.432-0.48c-0.721-.09-1.489-0.14-2.3-0.19,0.144,0.82.24,2.16,0.288,2.98v0.38H536.971c-4.944,0-6.673-.1-6.913-0.1-0.288,0-.336.05-0.336,0.34s0.1,1.97.1,6.24a52.646,52.646,0,0,1-1.2,13.15,23.945,23.945,0,0,1-4.224,8.88,3.765,3.765,0,0,1,1.3.87c0.48,0.58.576,0.48,0.96-.05a25.742,25.742,0,0,0,4.224-9.5,64.681,64.681,0,0,0,1.105-13.25v-4.66h20.689a59.5,59.5,0,0,0,3.073,17.14,29.648,29.648,0,0,1-10.081,9.84,5.321,5.321,0,0,1,1.344.86c0.528,0.48.576,0.53,1.2,0.05a32.225,32.225,0,0,0,8.449-8.5c2.16,5,4.752,8.31,7.344,8.31,2.881,0,3.5-2.55,3.937-5.95a0.887,0.887,0,0,0-.576-1.16,6.669,6.669,0,0,1-1.2-1.15c-0.24,2.83-.528,6-2.113,6-1.872,0-4.272-3.6-6.048-8.21a53.381,53.381,0,0,0,3.936-8.64,12.257,12.257,0,0,1,1.008-2.35,1.589,1.589,0,0,0,.432-0.86,0.654,0.654,0,0,0-.576-0.53,18.515,18.515,0,0,0-1.968-.67,16.583,16.583,0,0,1-1.056,4.46,47.417,47.417,0,0,1-2.64,6.15,52.844,52.844,0,0,1-2.448-14.79h4.224Zm-14.545,9.12v-3.79h1.152c3.552,0,4.608.1,4.848,0.1,0.288,0,.336-0.05.336-0.34v-1.2c0-.29-0.048-0.34-0.336-0.34-0.24,0-1.3.1-4.848,0.1h-5.233c-3.552,0-4.7-.1-4.944-0.1-0.288,0-.336.05-0.336,0.34,0,0.24.1,1.44,0.1,5.23v10.51c0,3.8-.1,5-0.1,5.28s0.048,0.34.336,0.34h1.3c0.288,0,.336-0.05.336-0.34v-2.35h7.777c3.408,0,4.368.1,4.608,0.1,0.288,0,.336-0.05.336-0.34v-1.25c0-.28-0.048-0.33-0.336-0.33-0.24,0-1.2.09-4.608,0.09h-0.432v-4.27h0.864c3.216,0,4.224.1,4.464,0.1,0.288,0,.336-0.05.336-0.34s-0.1-.86-0.1-2.69v-1.53c0-1.87.1-2.45,0.1-2.74s-0.048-.29-0.336-0.29c-0.24,0-1.248.05-4.464,0.05h-0.816Zm-1.872,0h-5.521v-3.79h5.521v3.79Zm-5.521,1.63H548.06v4.18H536.971v-4.18Zm0,5.81h5.521v4.27h-5.521v-4.27Zm3.84-26.83a9.8,9.8,0,0,1,.288-3.27,1.044,1.044,0,0,0,.192-0.62,0.469,0.469,0,0,0-.48-0.38,17.737,17.737,0,0,0-2.3-.24,23.217,23.217,0,0,1,.288,4.51h-6.528c-4.561,0-6.1-.05-6.337-0.05-0.288,0-.336.05-0.336,0.29v1.53c0,0.29.048,0.34,0.336,0.34,0.24,0,1.776-.1,6.337-0.1h6.528c0,2.21-.1,2.98-0.1,3.22,0,0.29.048,0.34,0.336,0.34h1.536c0.288,0,.336-0.05.336-0.34,0-.19-0.1-1.01-0.1-3.22h10.753c-0.048,1.2-.1,1.68-0.1,1.88,0,0.28.048,0.33,0.336,0.33h1.584c0.288,0,.288-0.05.288-0.33,0-.2-0.048-0.68-0.048-1.88h6.817c4.608,0,6.1.1,6.385,0.1s0.336-.05.336-0.34v-1.53c0-.24-0.048-0.29-0.336-0.29s-1.777.05-6.385,0.05h-6.817v-0.15a9.464,9.464,0,0,1,.24-3.12,1.039,1.039,0,0,0,.193-0.62,0.455,0.455,0,0,0-.433-0.38,18.576,18.576,0,0,0-2.4-.24,16.383,16.383,0,0,1,.336,4.41v0.1H540.811Zm16.562,3.79c-0.336.29-.336,0.43-0.1,0.58a20.872,20.872,0,0,1,4.368,3.36c0.24,0.24.288,0.19,0.672-.15l0.576-.53c0.336-.33.336-0.43,0.1-0.67a20.871,20.871,0,0,0-4.464-3.21c-0.288-.15-0.336-0.1-0.624.14Zm41.2,22.99v3.99H589.5c-4.9,0-6.481-.1-6.769-0.1s-0.336.05-.336,0.34v1.34c0,0.29.048,0.34,0.336,0.34s1.872-.1,6.769-0.1h9.072c0,3.94-.1,5.52-0.1,5.76s0.048,0.29.336,0.29h1.537c0.288,0,.336-0.05.336-0.29,0-.19-0.1-1.77-0.1-5.76h10.32c4.945,0,6.577.1,6.817,0.1s0.288-.05.288-0.34v-1.34c0-.29-0.048-0.34-0.288-0.34s-1.872.1-6.817,0.1h-10.32v-3.99h5.088c4.656,0,6.289.1,6.529,0.1,0.288,0,.336-0.05.336-0.34,0-.24-0.1-1.24-0.1-4.17v-4.95c0-2.92.1-3.89,0.1-4.13,0-.28-0.048-0.33-0.336-0.33-0.24,0-1.873.09-6.529,0.09h-5.088v-3.69h8.784c4.945,0,6.625.09,6.865,0.09,0.288,0,.336-0.04.336-0.33v-1.3c0-.29-0.048-0.33-0.336-0.33-0.24,0-1.92.09-6.865,0.09h-8.784v-0.19a8,8,0,0,1,.288-2.98,1.479,1.479,0,0,0,.24-0.72c0-.24-0.192-0.33-0.48-0.38a17.061,17.061,0,0,0-2.4-.24,16.719,16.719,0,0,1,.336,4.27v0.24h-6.912c-4.945,0-6.625-.09-6.865-0.09s-0.288.04-.288,0.33v1.3c0,0.29.048,0.33,0.288,0.33s1.92-.09,6.865-0.09h6.912v3.69h-4.7c-4.7,0-6.289-.09-6.577-0.09s-0.336.05-.336,0.33c0,0.24.1,1.21,0.1,4.13v4.95c0,2.93-.1,3.93-0.1,4.17,0,0.29.048,0.34,0.336,0.34s1.873-.1,6.577-0.1h4.7Zm0-7.87h-9.552v-4.13h9.552v4.13Zm2.017,0v-4.13h9.888v4.13h-9.888Zm-2.017,1.68v4.47h-9.552v-4.47h9.552Zm2.017,0h9.888v4.47h-9.888v-4.47Zm-3.793-20.3H586.617c-4.8,0-6.528-.1-6.768-0.1-0.288,0-.336.05-0.336,0.34,0,0.24.1,2.97,0.1,9.55,0,9.5-.192,12.14-0.816,15.98a26.347,26.347,0,0,1-4.081,10.61,3.667,3.667,0,0,1,1.3,1.01c0.432,0.53.432,0.63,0.816,0a29.9,29.9,0,0,0,4.033-11.23,76.051,76.051,0,0,0,.96-13.64v-10.65h28.322c4.849,0,6.481.09,6.721,0.09,0.288,0,.336-0.04.336-0.33v-1.39c0-.29-0.048-0.34-0.336-0.34-0.24,0-1.872.1-6.721,0.1H598.81v-2.02a4.56,4.56,0,0,1,.24-1.63,2.123,2.123,0,0,0,.24-0.72c0-.24-0.1-0.34-0.528-0.43a11,11,0,0,0-2.208-.2,14.43,14.43,0,0,1,.24,2.98v2.02Zm55.748,25.01a23.291,23.291,0,0,0-5.424-.72c-3.5,0-7.057,1.82-7.057,5.42,0,3.36,2.88,5.09,7.105,5.09,5.328,0,7.68-2.26,7.824-6.63a27.128,27.128,0,0,1,7.057,4.61c0.192,0.15.24,0.15,0.432-.05a6.676,6.676,0,0,0,1.008-1.58c0.1-.29.1-0.34-0.1-0.48a31.814,31.814,0,0,0-8.4-4.94c-0.288-4.37-.432-9.46-0.48-15.17a54.942,54.942,0,0,0,8.113-1.2,0.445,0.445,0,0,0,.24-0.48,9.05,9.05,0,0,0-.144-1.64c-0.048-.24-0.048-0.24-0.336-0.24a56.344,56.344,0,0,1-7.873,1.3c0-1.92.048-3.65,0.1-5.42a7.838,7.838,0,0,1,.432-2.5,1.432,1.432,0,0,0,.144-0.58,0.559,0.559,0,0,0-.384-0.48,16.026,16.026,0,0,0-3.072-.62,16.612,16.612,0,0,1,.432,4.08c0,2.02-.048,3.89-0.048,5.71a75.612,75.612,0,0,1-11.473,0c0,0.63.1,1.54,0.144,2.07a0.357,0.357,0,0,0,.384.33,83.075,83.075,0,0,0,10.993-.09C652.158,4821.29,652.3,4826.05,652.542,4830.13Zm0,2.3v0.91c0,2.98-1.776,4.51-5.52,4.51-2.881,0-4.9-1.05-4.9-2.97,0-2.21,1.968-3.46,4.849-3.46A16.311,16.311,0,0,1,652.542,4832.43Zm-22.226-28.27a15.655,15.655,0,0,1-.192,4.41c-1.1,6.48-2.112,12.39-2.112,17.96,0,3.84.192,9.55,1.872,13.77,0.144,0.34.24,0.39,0.48,0.34a6.811,6.811,0,0,0,1.728-.58c0.192-.09.24-0.24,0.144-0.62a5.482,5.482,0,0,1,.048-1.97,49.271,49.271,0,0,1,2.977-7.73,0.654,0.654,0,0,0-.048-0.86,4.819,4.819,0,0,1-.912-1.63c-1.3,3.02-2.353,5.42-3.457,8.2a52.989,52.989,0,0,1-.528-9.07c0-4.85,1.008-10.99,2.3-17.81a6.663,6.663,0,0,1,.961-2.3,0.671,0.671,0,0,0-.289-1.06A12.634,12.634,0,0,0,630.316,4804.16Zm67.327,13v-2.97h8.064c4.945,0,6.577.09,6.817,0.09,0.288,0,.336-0.04.336-0.33v-1.3c0-.29-0.048-0.33-0.336-0.33-0.24,0-1.872.09-6.817,0.09h-8.064a6.325,6.325,0,0,1,.288-2.3,1.935,1.935,0,0,0,.144-0.58,0.437,0.437,0,0,0-.48-0.33,13.291,13.291,0,0,0-2.208-.29,14.67,14.67,0,0,1,.288,3.5h-6.529c-4.944,0-6.577-.09-6.817-0.09-0.288,0-.336.04-0.336,0.33v1.3c0,0.29.048,0.33,0.336,0.33,0.24,0,1.873-.09,6.817-0.09h6.529v2.97h-4.081c-4.608,0-6.192-.09-6.432-0.09s-0.288.05-.288,0.33c0,0.24.1,1.06,0.1,3.75v3.79c0,2.74-.1,3.51-0.1,3.75,0,0.28.048,0.33,0.288,0.33s1.824-.09,6.432-0.09h10.8c4.609,0,6.145.09,6.433,0.09s0.336-.05.336-0.33c0-.24-0.1-1.01-0.1-3.75v-3.79c0-2.69.1-3.51,0.1-3.75,0-.28-0.048-0.33-0.336-0.33s-1.824.09-6.433,0.09h-4.752Zm0,10.18v-3.6h9.409v3.6h-9.409Zm9.409-5.18h-9.409v-3.36h9.409v3.36Zm-11.377,5.18h-8.737v-3.6h8.737v3.6Zm0-5.18h-8.737v-3.36h8.737v3.36Zm-17.666-18c-4.56,0-6.1-.1-6.337-0.1-0.288,0-.336.05-0.336,0.34v1.48c0,0.29.048,0.34,0.336,0.34,0.24,0,1.777-.1,6.337-0.1h6.145c0,2.12-.1,2.88-0.1,3.12,0,0.29.048,0.34,0.336,0.34h1.488c0.288,0,.336-0.05.336-0.34,0-.24-0.1-1-0.1-3.12h11.569c-0.048,1.4-.1,1.97-0.1,2.16,0,0.29.048,0.34,0.336,0.34h1.488c0.288,0,.336-0.05.336-0.34,0-.19-0.048-0.76-0.1-2.16h6.576c4.561,0,6.1.1,6.337,0.1,0.288,0,.336-0.05.336-0.34v-1.48c0-.29-0.048-0.34-0.336-0.34-0.24,0-1.776.1-6.337,0.1h-6.576a7.415,7.415,0,0,1,.24-2.5,1.588,1.588,0,0,0,.192-0.58,0.421,0.421,0,0,0-.432-0.38,18.591,18.591,0,0,0-2.3-.24,14.313,14.313,0,0,1,.336,3.7H686.122a5.894,5.894,0,0,1,.288-2.5,1.289,1.289,0,0,0,.192-0.62,0.445,0.445,0,0,0-.48-0.39,20.772,20.772,0,0,0-2.3-.24,14.719,14.719,0,0,1,.336,3.75h-6.145Zm24.818,30.53v4.75a1.622,1.622,0,0,1-1.68,1.87,23.853,23.853,0,0,1-4.56-.19,3.373,3.373,0,0,1,.768,1.49c0.192,0.77.24,0.86,1.008,0.86,3.36,0,4.608-.24,5.328-0.77a3.194,3.194,0,0,0,1.2-2.88c0-1.25-.048-2.97-0.048-5.04v-0.09h1.2c4.945,0,6.577.09,6.817,0.09,0.288,0,.336-0.05.336-0.33v-1.3c0-.29-0.048-0.34-0.336-0.34-0.24,0-1.872.1-6.817,0.1h-1.2a4.412,4.412,0,0,1,.24-1.78,1.747,1.747,0,0,0,.24-0.81,0.525,0.525,0,0,0-.48-0.39c-0.624-.09-1.392-0.19-2.352-0.24a11.865,11.865,0,0,1,.336,3.22H688.906c-4.944,0-6.577-.1-6.865-0.1s-0.336.05-.336,0.34v1.3c0,0.28.048,0.33,0.336,0.33s1.921-.09,6.865-0.09h13.921Zm-29.09-24.05c-0.288.28-.288,0.38-0.048,0.52a32.949,32.949,0,0,1,5.472,4.56c0.24,0.29.336,0.2,0.768-.28l0.576-.68c0.288-.33.288-0.48,0.1-0.67a30.667,30.667,0,0,0-5.52-4.41c-0.288-.15-0.384-0.15-0.816.33Zm-1.728,9.21c-0.241.29-.241,0.39,0,0.53a34.533,34.533,0,0,1,5.712,4.56c0.24,0.24.336,0.24,0.624-.09l0.672-.82c0.384-.48.432-0.58,0.24-0.77a37.5,37.5,0,0,0-5.9-4.46c-0.288-.15-0.384-0.15-0.768.33Zm-0.385,20.31a16.486,16.486,0,0,0,1.489,1.58,0.994,0.994,0,0,0,.528.34,0.578,0.578,0,0,0,.528-0.43,13.665,13.665,0,0,1,1.3-1.97,60.752,60.752,0,0,0,5.184-8.55c0.336-.72.336-0.72-0.192-1.24a3.719,3.719,0,0,1-.864-1.25,51.688,51.688,0,0,1-5.28,8.73A18.519,18.519,0,0,1,671.624,4840.16Zm30.531-32.07c-0.288.24-.288,0.43,0,0.58a16.02,16.02,0,0,1,4.032,3.02c0.24,0.29.336,0.24,0.721-.14l0.576-.63c0.288-.28.288-0.38,0.048-0.62a20.948,20.948,0,0,0-4.081-2.83c-0.288-.15-0.384-0.15-0.72.14Zm-13.921,28.71c-0.432.38-.48,0.48-0.192,0.67a21.373,21.373,0,0,1,4.464,4.27c0.24,0.29.288,0.24,0.768-.19l0.672-.58c0.384-.38.48-0.48,0.288-0.72a32.5,32.5,0,0,0-4.7-4.12c-0.288-.2-0.336-0.15-0.72.19Zm40.18-22.23a18.475,18.475,0,0,1-.912,3.89c-1.1,3.12-3.168,5.33-6.193,7.35a2.914,2.914,0,0,1,1.3.96c0.48,0.62.48,0.62,1.056,0.14a16.432,16.432,0,0,0,5.857-7.82,26.442,26.442,0,0,0,1.008-4.52h6.433v5.33c0,3.84-.1,5.33-0.1,5.62s0.048,0.33.336,0.33h1.632c0.288,0,.336-0.04.336-0.33s-0.1-1.78-.1-5.62v-5.33h0.1c4.608,0,6.048.1,6.336,0.1s0.336-.05.336-0.29v-1.49c0-.29-0.048-0.33-0.336-0.33s-1.728.09-6.336,0.09h-0.1v-7.92c3.744,0,4.944.1,5.136,0.1,0.288,0,.336-0.05.336-0.34v-1.39c0-.29-0.048-0.34-0.336-0.34-0.192,0-1.584.1-5.952,0.1h-9.121c-4.368,0-5.761-.1-6-0.1-0.288,0-.336.05-0.336,0.34v1.39c0,0.29.048,0.34,0.336,0.34,0.24,0,1.585-.1,5.713-0.1v2.5c0,2.06-.048,3.84-0.192,5.42H728.03c-4.609,0-6.145-.09-6.385-0.09-0.288,0-.336.04-0.336,0.33v1.49c0,0.24.048,0.29,0.336,0.29,0.24,0,1.776-.1,6.385-0.1h0.384Zm2.544-9.84h6v7.92h-6.241a46.716,46.716,0,0,0,.24-5.33v-2.59Zm9.6,34.76H727.742c-4.561,0-6.1-.1-6.337-0.1-0.288,0-.336.05-0.336,0.34v1.53c0,0.29.048,0.34,0.336,0.34,0.24,0,1.776-.1,6.337-0.1h28.466c4.561,0,6.1.1,6.337,0.1,0.288,0,.336-0.05.336-0.34v-1.53c0-.29-0.048-0.34-0.336-0.34-0.24,0-1.776.1-6.337,0.1H742.767v-6.96H750.5c4.944,0,6.576.09,6.816,0.09,0.288,0,.336-0.05.336-0.33v-1.44c0-.34-0.048-0.39-0.336-0.39-0.24,0-1.872.1-6.816,0.1h-7.729v-1.39a9.352,9.352,0,0,1,.288-2.98,2.273,2.273,0,0,0,.192-0.82,0.514,0.514,0,0,0-.48-0.43,17.013,17.013,0,0,0-2.544-.29,21.154,21.154,0,0,1,.336,4.52v1.39h-6.481c-4.9,0-6.528-.1-6.816-0.1s-0.336.05-.336,0.39v1.44c0,0.28.048,0.33,0.336,0.33s1.92-.09,6.816-0.09h6.481v6.96Zm19.49-33.03a12.8,12.8,0,0,1,.24-3.74,2.278,2.278,0,0,0,.288-0.92,0.5,0.5,0,0,0-.528-0.38c-0.672-.1-1.489-0.19-2.449-0.24a24.228,24.228,0,0,1,.336,5.33v15.41c0,1.39-.576,1.87-2.4,1.87a28.67,28.67,0,0,1-3.648-.19,5.982,5.982,0,0,1,.768,1.58c0.192,0.77.192,0.77,0.96,0.77,3.552,0,4.7-.24,5.377-0.77a2.949,2.949,0,0,0,1.1-2.69c0-1.24-.048-2.97-0.048-4.8v-11.23Zm-11.809,6.96c0,3.12-.1,4.32-0.1,4.56,0,0.29.048,0.34,0.336,0.34h1.584c0.288,0,.336-0.05.336-0.34,0-.24-0.1-1.44-0.1-4.56v-6.05a7.37,7.37,0,0,1,.288-2.97,1.073,1.073,0,0,0,.192-0.63c0-.24-0.192-0.33-0.48-0.38a21.76,21.76,0,0,0-2.4-.24,17.078,17.078,0,0,1,.336,4.22v6.05Zm52.618-8.21a23.125,23.125,0,0,1,5.52,6.1c0.144,0.19.336,0.29,0.528,0.09l1.152-.96a0.268,0.268,0,0,0,.048-0.43,23.442,23.442,0,0,0-5.424-5.81,0.307,0.307,0,0,0-.384,0Zm4.032-2.97a24.031,24.031,0,0,1,5.424,5.9,0.3,0.3,0,0,0,.48.1l1.105-.96a0.344,0.344,0,0,0,.1-0.53,24.6,24.6,0,0,0-5.425-5.52,0.3,0.3,0,0,0-.432.05Zm-22.274,12.52c-1.68.24-4.272,0.63-6.865,0.92a31.983,31.983,0,0,1-4.848.19,15.957,15.957,0,0,0,.912,2.69c0.24,0.48.672,0.43,1.2,0.19a9.362,9.362,0,0,1,2.64-.77c2.209-.38,4.273-0.67,6.289-0.96a118.416,118.416,0,0,1-9.409,21.03c-0.144.24-.192,0.43,0.048,0.57,0.384,0.29,1.2.82,1.536,1.06a0.417,0.417,0,0,0,.624-0.19,142.4,142.4,0,0,0,9.793-22.85,42.288,42.288,0,0,1,5.521-.53c2.736,0,3.552,1.44,3.552,5.33,0,6.33-1.008,11.28-2.3,14.06-0.96,2.02-1.92,2.45-3.217,2.45a13.837,13.837,0,0,1-5.472-1.3,6.839,6.839,0,0,1,.48,2.31,0.609,0.609,0,0,0,.432.62,15,15,0,0,0,4.993.87c1.968,0,3.792-1.16,4.992-3.65,1.584-3.31,2.592-8.83,2.592-15.41,0-5.52-1.92-7.35-6.048-7.35a40.061,40.061,0,0,0-4.9.44c0.768-2.45,1.488-4.95,2.16-7.4a2.965,2.965,0,0,1,.864-1.53,0.613,0.613,0,0,0-.1-1.06,14.711,14.711,0,0,0-3.264-1.2,15.779,15.779,0,0,1-.384,4.71C783.816,4810.68,783.24,4812.7,782.616,4814.76Zm17.234-1.87a25.438,25.438,0,0,1,7.584,12.05c0.1,0.43.384,0.48,0.768,0.29a8.617,8.617,0,0,0,1.488-.91,0.644,0.644,0,0,0,.1-0.77,26.982,26.982,0,0,0-7.584-11.62,0.6,0.6,0,0,0-.672-0.14A10.533,10.533,0,0,0,799.85,4812.89Zm21.741-5.18a15.832,15.832,0,0,1,.384,4.61,91.738,91.738,0,0,0,.72,12.53c0.96,7.29,3.7,13.34,7.873,13.34,3.264,0,5.712-4.03,6.961-7.58a0.763,0.763,0,0,0-.24-0.92,5.625,5.625,0,0,1-1.345-2.01c-1.248,4.27-3.216,7.87-5.376,7.87-2.256,0-4.608-4.42-5.376-10.75a76.709,76.709,0,0,1-.625-10.9,11.536,11.536,0,0,1,.481-4.27,2.391,2.391,0,0,0,.144-0.72,0.442,0.442,0,0,0-.337-0.39A18.351,18.351,0,0,0,821.591,4807.71Zm24.434,5.61c4.561,3.94,7.729,9.08,8.977,16.61a0.342,0.342,0,0,0,.48.29,9.033,9.033,0,0,0,1.824-.81,0.428,0.428,0,0,0,.288-0.48,27.467,27.467,0,0,0-9.312-16.66,0.566,0.566,0,0,0-.625,0A12.672,12.672,0,0,0,846.025,4813.32Zm21.637-5.61a15.832,15.832,0,0,1,.384,4.61,91.738,91.738,0,0,0,.72,12.53c0.96,7.29,3.7,13.34,7.872,13.34,3.265,0,5.713-4.03,6.961-7.58a0.763,0.763,0,0,0-.24-0.92,5.624,5.624,0,0,1-1.344-2.01c-1.248,4.27-3.216,7.87-5.377,7.87-2.256,0-4.608-4.42-5.376-10.75a76.83,76.83,0,0,1-.624-10.9,11.57,11.57,0,0,1,.48-4.27,2.391,2.391,0,0,0,.144-0.72,0.442,0.442,0,0,0-.336-0.39A18.351,18.351,0,0,0,867.662,4807.71Zm24.434,5.61c4.56,3.94,7.728,9.08,8.976,16.61a0.343,0.343,0,0,0,.481.29,9.033,9.033,0,0,0,1.824-.81,0.428,0.428,0,0,0,.288-0.48,27.468,27.468,0,0,0-9.313-16.66,0.565,0.565,0,0,0-.624,0A12.672,12.672,0,0,0,892.1,4813.32Zm24.895,17.86a6.53,6.53,0,1,0,6.577,6.53A6.642,6.642,0,0,0,916.991,4831.18Zm0,2.11a4.445,4.445,0,1,1-4.464,4.42A4.48,4.48,0,0,1,916.991,4833.29Z" transform="translate(-476.562 -4800.12)"/>
</svg>
