<svg xmlns="http://www.w3.org/2000/svg" width="514.25" height="43.38" viewBox="0 0 514.25 43.38">
  <defs>
    <style>
      .cls-1 {
        fill-rule: evenodd;
      }
    </style>
  </defs>
  <path id="c05_ttl.svg" class="cls-1" d="M481.923,6127.33h11.329v8.55c0,1.39-.528,1.82-2.3,1.82-1.248,0-2.112-.05-3.36-0.14a5.044,5.044,0,0,1,.768,1.63c0.192,0.72.192,0.72,0.96,0.72,2.928,0,4.32-.19,5.184-0.86a3.321,3.321,0,0,0,1.008-2.79c-0.048-1.2-.048-2.88-0.048-5.04v-3.31c0-1.58.1-2.06,0.1-2.3,0-.29-0.048-0.34-0.336-0.34-0.24,0-1.872.1-6.576,0.1H477.075c-4.7,0-6.193-.1-6.433-0.1-0.288,0-.336.05-0.336,0.34v1.48c0,0.29.048,0.34,0.336,0.34,0.24,0,1.728-.1,6.433-0.1h2.592v11.86c0,3.41-.1,4.71-0.1,4.99s0.048,0.29.336,0.29h1.776c0.288,0,.336,0,0.336-0.29,0-.24-0.1-1.58-0.1-4.99v-11.86Zm1.632-24.33c0.1-.05.192-0.15,0.288-0.2a0.547,0.547,0,0,0,.288-0.38,0.573,0.573,0,0,0-.576-0.53c-0.72-.19-1.44-0.33-2.3-0.48a18.576,18.576,0,0,1-.864,2.4c-2.016,4.66-8.449,11.71-15.5,15.55a4.141,4.141,0,0,1,1.2,1.01c0.48,0.63.576,0.58,1.2,0.2a43.752,43.752,0,0,0,15.169-15.8,49.59,49.59,0,0,0,16.562,15.6c0.624,0.34.768,0.34,1.1-.28a4.158,4.158,0,0,1,1.2-1.4A45.108,45.108,0,0,1,483.555,6103Zm-26.018,36.81a13.51,13.51,0,0,0,1.68,1.44,1.173,1.173,0,0,0,.672.29,0.5,0.5,0,0,0,.432-0.48,16.684,16.684,0,0,1,1.057-2.11,98.1,98.1,0,0,0,5.568-12.14c0.288-.77.288-0.77-0.336-1.25a4.555,4.555,0,0,1-1.056-1.11,80.549,80.549,0,0,1-5.521,12.05A16.416,16.416,0,0,1,457.537,6139.81Zm1.536-34.85c-0.528.44-.576,0.48-0.288,0.72a35.109,35.109,0,0,1,6.337,7.3c0.144,0.24.192,0.24,0.72-.24l0.816-.77c0.384-.33.432-0.43,0.24-0.67a37.05,37.05,0,0,0-6.385-7.01c-0.24-.24-0.384-0.19-0.768.1Zm16.226,13.83c0,0.29.048,0.33,0.336,0.33,0.24,0,1.3-.09,4.8-0.09h5.137c3.5,0,4.56.09,4.848,0.09s0.336-.04.336-0.33v-1.49c0-.29-0.048-0.34-0.336-0.34s-1.344.1-4.848,0.1h-5.137c-3.5,0-4.56-.1-4.8-0.1-0.288,0-.336.05-0.336,0.34v1.49Zm56.41-5.04v-4.71h8.833c4.944,0,6.576.1,6.864,0.1s0.336-.05.336-0.34v-1.53c0-.24-0.048-0.29-0.336-0.29s-1.92.1-6.864,0.1h-8.833v-0.29a15.029,15.029,0,0,1,.288-3.99,3.229,3.229,0,0,0,.288-0.91,0.562,0.562,0,0,0-.576-0.38,18.529,18.529,0,0,0-2.448-.24,27.941,27.941,0,0,1,.288,5.57v0.24h-7.441c-4.944,0-6.624-.1-6.816-0.1-0.288,0-.336.05-0.336,0.29v1.53c0,0.29.048,0.34,0.336,0.34,0.192,0,1.872-.1,6.816-0.1h7.441v4.71h-4.513c-4.7,0-6.288-.1-6.576-0.1s-0.336.05-.336,0.34c0,0.24.1,1.29,0.1,4.51v6.39c0,3.21-.1,4.27-0.1,4.51,0,0.29.048,0.33,0.336,0.33s1.872-.09,6.576-0.09H528.3c-4.273,4.94-9.841,8.54-16.946,11.37a4.213,4.213,0,0,1,1.008,1.2c0.384,0.73.432,0.73,1.152,0.39a45.582,45.582,0,0,0,16.178-12.1c-0.048,7.49-.288,12.87-0.288,13.54,0,0.29.048,0.29,0.336,0.29h1.776c0.288,0,.336,0,0.336-0.29,0-.67-0.24-6.1-0.288-13.68a39.587,39.587,0,0,0,15.889,11.71c0.672,0.29.768,0.34,1.057-.34a3.929,3.929,0,0,1,1.056-1.39,38.691,38.691,0,0,1-16.8-10.7h4.321c4.7,0,6.336.09,6.624,0.09s0.336-.04.336-0.33c0-.24-0.1-1.3-0.1-4.51v-6.39c0-3.22.1-4.27,0.1-4.51,0-.29-0.048-0.34-0.336-0.34s-1.92.1-6.624,0.1h-5.377Zm-2.16,8.59v5.52h-9.265v-5.52h9.265Zm2.16,0h10.177v5.52H531.709v-5.52Zm-2.16-6.82v5.14h-9.265v-5.14h9.265Zm2.16,0h10.177v5.14H531.709v-5.14Zm-27.122,24.39a17,17,0,0,0,1.68,1.39,1.162,1.162,0,0,0,.672.29c0.192,0,.288-0.14.384-0.48a12.393,12.393,0,0,1,1.008-2.11,91.777,91.777,0,0,0,5.617-11.81c0.288-.72.192-0.72-0.433-1.25a5.39,5.39,0,0,1-1.008-1.1,72.445,72.445,0,0,1-5.52,11.85A15.463,15.463,0,0,1,504.587,6139.91Zm1.536-34.75c-0.528.43-.576,0.48-0.336,0.72a35.974,35.974,0,0,1,6.24,7.58c0.192,0.34.288,0.29,0.768-.19l0.672-.63c0.481-.43.481-0.48,0.288-0.76a40.559,40.559,0,0,0-6.288-7.4c-0.24-.24-0.384-0.19-0.624.05Zm59.358,14.73a50.051,50.051,0,0,0,5.136-7.68,86.365,86.365,0,0,0,11.761-1.63c0.48-.1.528-0.24,0.528-0.53a6.688,6.688,0,0,0-.192-1.68c-0.048-.24-0.192-0.24-0.528-0.14a60.861,60.861,0,0,1-10.561,1.68c0.72-1.54,1.152-2.5,1.728-3.94a2.788,2.788,0,0,1,.96-1.39,0.506,0.506,0,0,0-.1-0.91,13.853,13.853,0,0,0-3.024-.96,6.953,6.953,0,0,1-.288,2.49,35.842,35.842,0,0,1-1.872,4.9,76.97,76.97,0,0,1-11.041.05c0.048,0.57.144,1.39,0.24,1.92a0.407,0.407,0,0,0,.48.38,82.9,82.9,0,0,0,9.313-.05,51.179,51.179,0,0,1-11.425,13.88c-0.24.24-.192,0.33-0.048,0.53a12.364,12.364,0,0,0,1.3,1.39c0.192,0.19.384,0.19,0.624-.1,1.68-1.73,2.832-2.93,4.416-4.41,3.409-2.93,6.241-3.99,8.5-3.99,2.928,0,3.985,1.49,4.081,5.09-7.969,3.84-10.849,6.86-10.849,10.8,0,4.32,3.312,6.53,10.849,6.53a105.527,105.527,0,0,0,11.809-.63c0.24-.04.336-0.19,0.336-0.57a7.924,7.924,0,0,0-.24-1.78,0.341,0.341,0,0,0-.432-0.29,83.858,83.858,0,0,1-11.281.92c-6.529,0-8.785-1.59-8.785-4.32,0-3.27,3.408-5.81,8.689-8.36,0.048,2.69,0,4.9-.048,7.16,0,0.28.1,0.48,0.336,0.48,0.384,0,1.3-.1,1.728-0.15a0.383,0.383,0,0,0,.384-0.48v-8.06c3.312-1.44,6.24-2.74,10.081-4.27a21.039,21.039,0,0,1,2.784-.92,0.534,0.534,0,0,0,.384-0.86,8.271,8.271,0,0,0-1.968-2.21,11.838,11.838,0,0,1-3.745,2.5c-2.352,1.1-5.088,2.45-7.632,3.5-0.336-3.65-2.256-5.95-6.049-5.95a9.89,9.89,0,0,0-6.192,2.16Zm53.2,19.64H605.963c-4.608,0-6.1-.1-6.336-0.1-0.288,0-.336.05-0.336,0.34v1.68c0,0.28.048,0.33,0.336,0.33,0.24,0,1.728-.09,6.336-0.09h28.515c4.56,0,6.048.09,6.288,0.09,0.288,0,.336-0.05.336-0.33v-1.68c0-.29-0.048-0.34-0.336-0.34-0.24,0-1.728.1-6.288,0.1H620.989v-12.72h7.536c4.945,0,6.577.09,6.817,0.09,0.288,0,.336-0.05.336-0.33v-1.68c0-.24-0.048-0.29-0.336-0.29-0.24,0-1.872.09-6.817,0.09h-7.536v-11.04h9.793c4.944,0,6.48.1,6.768,0.1s0.336-.05.336-0.34v-1.68c0-.29-0.048-0.33-0.336-0.33s-1.824.09-6.768,0.09h-21.7c-4.9,0-6.481-.09-6.721-0.09-0.288,0-.336.04-0.336,0.33v1.68c0,0.29.048,0.34,0.336,0.34,0.24,0,1.824-.1,6.721-0.1h9.6v11.04h-6.961c-4.945,0-6.577-.09-6.817-0.09-0.288,0-.336.05-0.336,0.29v1.68c0,0.28.048,0.33,0.336,0.33,0.24,0,1.872-.09,6.817-0.09h6.961v12.72Zm-3.889-37.35c-0.336.43-.384,0.58-0.1,0.72a34.455,34.455,0,0,1,8.929,6.05c0.288,0.29.384,0.24,0.72-.19l0.864-1.01c0.288-.39.288-0.53,0.1-0.67a41.21,41.21,0,0,0-9.217-5.91,0.41,0.41,0,0,0-.576.19Zm40.708,18.53a49.216,49.216,0,0,0,3.121-4.8,3.7,3.7,0,0,1,1.056-1.25,0.526,0.526,0,0,0,.336-0.48,0.719,0.719,0,0,0-.432-0.58,15.481,15.481,0,0,0-2.113-.96,8.28,8.28,0,0,1-.816,2.31,40.482,40.482,0,0,1-10.225,12.43,2.628,2.628,0,0,1,1.009.91c0.384,0.58.528,0.58,1.1,0.1a49.026,49.026,0,0,0,4.944-5.14c-0.048,1.73-.1,3.7-0.1,5.33v9.12c0,4.32-.1,6.05-0.1,6.29,0,0.29.048,0.34,0.336,0.34h1.68c0.24,0,.288-0.05.288-0.34,0-.24-0.1-1.97-0.1-6.29v-16.99Zm11.953,1.73c-4.56,0-6.048-.1-6.288-0.1-0.288,0-.336.05-0.336,0.34v1.44c0,0.29.048,0.33,0.336,0.33,0.192,0,1.2-.04,3.936-0.09a29.56,29.56,0,0,0,7.729,11.09,40.975,40.975,0,0,1-14.449,7.2,2.812,2.812,0,0,1,1.008,1.1c0.384,0.77.432,0.72,1.2,0.48a44.118,44.118,0,0,0,13.873-7.34,44.689,44.689,0,0,0,13.873,7.2c0.768,0.24.816,0.29,1.2-.48a4.317,4.317,0,0,1,1.008-1.35,43.9,43.9,0,0,1-14.449-6.77,34.632,34.632,0,0,0,7.153-9.4,3.109,3.109,0,0,1,1.2-1.59,0.608,0.608,0,0,0,.384-0.48,2.2,2.2,0,0,0-.672-1.1,1.8,1.8,0,0,0-1.152-.82,0.863,0.863,0,0,0-.336.1,2.4,2.4,0,0,1-1.1.24H667.457Zm14.21,1.92a29.721,29.721,0,0,1-7.249,9.74,24.871,24.871,0,0,1-7.153-9.74h14.4Zm-3.7-19.01v8.83c0,1.78.624,2.78,1.44,3.22a10.374,10.374,0,0,0,3.937.57c2.64,0,4.32-.29,5.136-1.1,0.864-.87,1.248-2.02,1.488-3.94,0.048-.77.048-0.81-0.624-1.1a4.562,4.562,0,0,1-1.344-.87c-0.048,2.16-.336,3.51-0.768,4.08-0.528.63-1.488,0.87-3.7,0.87-1.824,0-2.641-.24-2.929-0.48-0.336-.29-0.432-0.67-0.432-2.16v-5.52c0-2.79.1-3.94,0.1-4.18,0-.29-0.048-0.33-0.336-0.33-0.24,0-1.2.09-4.272,0.09h-3.984c-3.121,0-3.937-.09-4.225-0.09s-0.336.04-.336,0.33c0,0.24.1,0.67,0.1,1.83,0,7.24-2.064,10.36-7.008,13.29a3.065,3.065,0,0,1,1.248.82c0.528,0.58.576,0.58,1.248,0.09,4.56-2.97,6.672-6.48,6.768-14.25h8.5Zm-20.546-3.84a6.1,6.1,0,0,1-1.008,2.06,31.536,31.536,0,0,1-9.264,9.07,3.044,3.044,0,0,1,1.1.96c0.432,0.63.48,0.63,1.1,0.2a42.311,42.311,0,0,0,8.88-8.93,4.116,4.116,0,0,1,1.153-1.15,0.791,0.791,0,0,0,.528-0.58,0.583,0.583,0,0,0-.384-0.53A10.643,10.643,0,0,0,657.424,6101.51Zm44.611,4.37a18.677,18.677,0,0,1-.48,4.65,80.744,80.744,0,0,0-2.112,16.61c0,4.75.816,10.66,2.16,13.78a0.61,0.61,0,0,0,.48.43,6.9,6.9,0,0,0,1.633-.38,0.349,0.349,0,0,0,.24-0.34c0-.34-0.1-0.58-0.1-0.96a2.633,2.633,0,0,1,.24-1.1c1.1-2.88,2.064-5.24,3.168-7.78a1.6,1.6,0,0,0,.24-0.72,0.669,0.669,0,0,0-.192-0.43,7.314,7.314,0,0,1-.96-1.49c-1.44,3.31-2.544,5.57-3.745,8.45a41.2,41.2,0,0,1-.816-9.22,73.753,73.753,0,0,1,2.353-16.94,5.309,5.309,0,0,1,.864-1.97,1.261,1.261,0,0,0,.336-0.87,0.7,0.7,0,0,0-.528-0.57A16.424,16.424,0,0,0,702.035,6105.88Zm10.561,24.14a7.148,7.148,0,0,0,2.113,5.52c2.16,2.07,5.136,2.69,9.792,2.69a82.789,82.789,0,0,0,8.881-.48c0.528-.1.528-0.14,0.528-0.58s-0.048-1.24-.1-1.63c-0.048-.43-0.144-0.48-0.48-0.43a73.436,73.436,0,0,1-9.553.67c-5.616,0-8.736-1.77-8.832-5.47,0-.34-0.1-0.38-0.336-0.38Zm1.584-15.94a62.727,62.727,0,0,1,10.129-.96c2.689,0,5.377.1,7.3,0.24,0.384,0.05.48,0,.48-0.38v-1.63c0-.39-0.048-0.43-0.576-0.48-1.584-.15-3.936-0.24-6.673-0.24a70.068,70.068,0,0,0-10.128.86,0.548,0.548,0,0,0-.529.67v1.92Zm34.387-9.84a22.307,22.307,0,0,1,.384,6.77c-0.288,7.15-.72,14.84-0.72,21.22,0,7.1,2.736,9.65,8.161,9.65,7.056,0,13.057-3.27,18.049-8.16a1.109,1.109,0,0,0,.432-0.67,1.046,1.046,0,0,0-.144-0.48,7.125,7.125,0,0,1-.72-2.21c-4.608,5.18-10.465,9.02-17.089,9.02-4.369,0-6.049-1.77-6.049-7.58,0-6.34.384-13.3,0.768-20.5a18.974,18.974,0,0,1,.576-4.66,3.322,3.322,0,0,0,.384-1.1,0.734,0.734,0,0,0-.624-0.67A28.357,28.357,0,0,0,748.567,6104.24Zm49.364,8.69c0.576-2.11,1.056-4.03,1.632-6.09a3.815,3.815,0,0,1,.816-1.88,0.966,0.966,0,0,0,.384-0.72,0.485,0.485,0,0,0-.288-0.48,16.149,16.149,0,0,0-3.36-.96,15.739,15.739,0,0,1-.384,4.52c-0.337,1.72-.625,3.16-1.345,5.95a74.408,74.408,0,0,1-8.928.67,26.942,26.942,0,0,1-2.833-.14c0.048,0.57.192,1.58,0.288,2.11,0.048,0.29.192,0.38,0.672,0.38a85.233,85.233,0,0,0,10.129-.62,141.73,141.73,0,0,1-9.12,24.38c-0.1.24-.1,0.44,0.1,0.53,0.528,0.24,1.44.67,1.824,0.82,0.288,0.09.432,0.09,0.576-.19a206.678,206.678,0,0,0,9.313-25.88,75.28,75.28,0,0,0,8.832-2.06c0.384-.1.384-0.24,0.384-0.67a12.078,12.078,0,0,0-.144-1.44c-0.048-.34-0.192-0.39-0.528-0.29A51.553,51.553,0,0,1,797.931,6112.93Zm3.7,19.73c0,2.88.768,4.99,2.352,6.39,2.256,1.96,5.473,2.54,10.369,2.54a36.284,36.284,0,0,0,6.1-.53,0.428,0.428,0,0,0,.48-0.53,10.871,10.871,0,0,0-.144-1.68c-0.048-.38-0.192-0.38-0.576-0.33a43.11,43.11,0,0,1-6.769.57c-6.529,0-9.265-1.29-9.649-6.09-0.048-.39-0.1-0.43-0.432-0.43A7.535,7.535,0,0,0,801.627,6132.66Zm3.5-10.32a36.418,36.418,0,0,1,7.825-1.01,44,44,0,0,1,6.865.48c0.336,0.05.48,0,.528-0.48a7.761,7.761,0,0,0,.048-1.48,0.513,0.513,0,0,0-.576-0.53,54.658,54.658,0,0,0-6.721-.44,36.262,36.262,0,0,0-7.489.97,0.506,0.506,0,0,0-.528.57C805.083,6120.9,805.083,6121.77,805.131,6122.34Zm49.6,4.99h11.328v8.55c0,1.39-.528,1.82-2.3,1.82-1.248,0-2.112-.05-3.36-0.14a5.044,5.044,0,0,1,.768,1.63c0.192,0.72.192,0.72,0.96,0.72,2.928,0,4.321-.19,5.185-0.86a3.321,3.321,0,0,0,1.008-2.79c-0.048-1.2-.048-2.88-0.048-5.04v-3.31c0-1.58.1-2.06,0.1-2.3,0-.29-0.048-0.34-0.336-0.34-0.24,0-1.872.1-6.577,0.1H849.886c-4.7,0-6.192-.1-6.432-0.1-0.288,0-.336.05-0.336,0.34v1.48c0,0.29.048,0.34,0.336,0.34,0.24,0,1.728-.1,6.432-0.1h2.592v11.86c0,3.41-.1,4.71-0.1,4.99s0.048,0.29.336,0.29h1.776c0.289,0,.337,0,0.337-0.29,0-.24-0.1-1.58-0.1-4.99v-11.86Zm1.632-24.33c0.1-.05.192-0.15,0.288-0.2a0.547,0.547,0,0,0,.288-0.38,0.573,0.573,0,0,0-.576-0.53c-0.72-.19-1.44-0.33-2.3-0.48a18.576,18.576,0,0,1-.864,2.4c-2.016,4.66-8.448,11.71-15.5,15.55a4.141,4.141,0,0,1,1.2,1.01c0.48,0.63.576,0.58,1.2,0.2a43.764,43.764,0,0,0,15.17-15.8,49.576,49.576,0,0,0,16.561,15.6c0.624,0.34.768,0.34,1.1-.28a4.158,4.158,0,0,1,1.2-1.4A45.105,45.105,0,0,1,856.367,6103Zm-26.019,36.81a13.514,13.514,0,0,0,1.681,1.44,1.173,1.173,0,0,0,.672.29,0.5,0.5,0,0,0,.432-0.48,16.775,16.775,0,0,1,1.056-2.11,98.1,98.1,0,0,0,5.568-12.14c0.288-.77.288-0.77-0.336-1.25a4.555,4.555,0,0,1-1.056-1.11,80.665,80.665,0,0,1-5.52,12.05A16.421,16.421,0,0,1,830.348,6139.81Zm1.537-34.85c-0.529.44-.577,0.48-0.288,0.72a35.135,35.135,0,0,1,6.336,7.3c0.144,0.24.192,0.24,0.72-.24l0.816-.77c0.384-.33.432-0.43,0.24-0.67a37.078,37.078,0,0,0-6.384-7.01c-0.24-.24-0.384-0.19-0.768.1Zm16.225,13.83c0,0.29.048,0.33,0.336,0.33,0.24,0,1.3-.09,4.8-0.09h5.137c3.5,0,4.56.09,4.848,0.09s0.336-.04.336-0.33v-1.49c0-.29-0.048-0.34-0.336-0.34s-1.344.1-4.848,0.1h-5.137c-3.5,0-4.56-.1-4.8-0.1-0.288,0-.336.05-0.336,0.34v1.49Zm64.576-2.69c4.9,0,6.528.1,6.768,0.1,0.288,0,.336-0.05.336-0.29v-1.49c0-.29-0.048-0.34-0.336-0.34-0.24,0-1.872.1-6.768,0.1h-4.273a6.846,6.846,0,0,1,.192-2.06,2.1,2.1,0,0,0,.24-0.63,0.47,0.47,0,0,0-.432-0.48c-0.72-.09-1.488-0.14-2.3-0.19,0.144,0.82.24,2.16,0.288,2.98v0.38H890.748c-4.945,0-6.673-.1-6.913-0.1-0.288,0-.336.05-0.336,0.34s0.1,1.97.1,6.24a52.646,52.646,0,0,1-1.2,13.15,23.945,23.945,0,0,1-4.224,8.88,3.765,3.765,0,0,1,1.3.87c0.48,0.58.576,0.48,0.96-.05a25.742,25.742,0,0,0,4.224-9.5,64.759,64.759,0,0,0,1.1-13.25v-4.66h20.69a59.506,59.506,0,0,0,3.072,17.14,29.636,29.636,0,0,1-10.08,9.84,5.321,5.321,0,0,1,1.344.86c0.528,0.48.576,0.53,1.2,0.05a32.24,32.24,0,0,0,8.449-8.5c2.16,5,4.752,8.31,7.344,8.31,2.88,0,3.5-2.55,3.936-5.95a0.886,0.886,0,0,0-.576-1.16,6.669,6.669,0,0,1-1.2-1.15c-0.24,2.83-.528,6-2.112,6-1.872,0-4.272-3.6-6.048-8.21a53.381,53.381,0,0,0,3.936-8.64,12.257,12.257,0,0,1,1.008-2.35,1.589,1.589,0,0,0,.432-0.86,0.654,0.654,0,0,0-.576-0.53,18.515,18.515,0,0,0-1.968-.67,16.583,16.583,0,0,1-1.056,4.46,47.417,47.417,0,0,1-2.64,6.15,52.8,52.8,0,0,1-2.449-14.79h4.225Zm-14.546,9.12v-3.79h1.153c3.552,0,4.608.1,4.848,0.1,0.288,0,.336-0.05.336-0.34v-1.2c0-.29-0.048-0.34-0.336-0.34-0.24,0-1.3.1-4.848,0.1H894.06c-3.552,0-4.7-.1-4.944-0.1-0.288,0-.336.05-0.336,0.34,0,0.24.1,1.44,0.1,5.23v10.51c0,3.8-.1,5-0.1,5.28s0.048,0.34.336,0.34h1.3c0.288,0,.336-0.05.336-0.34v-2.35h7.776c3.409,0,4.369.1,4.609,0.1,0.288,0,.336-0.05.336-0.34v-1.25c0-.28-0.048-0.33-0.336-0.33-0.24,0-1.2.09-4.609,0.09h-0.432v-4.27h0.865c3.216,0,4.224.1,4.464,0.1,0.288,0,.336-0.05.336-0.34s-0.1-.86-0.1-2.69v-1.53c0-1.87.1-2.45,0.1-2.74s-0.048-.29-0.336-0.29c-0.24,0-1.248.05-4.464,0.05H898.14Zm-1.872,0h-5.52v-3.79h5.52v3.79Zm-5.52,1.63h11.089v4.18H890.748v-4.18Zm0,5.81h5.52v4.27h-5.52v-4.27Zm3.84-26.83a9.8,9.8,0,0,1,.288-3.27,1.044,1.044,0,0,0,.192-0.62,0.469,0.469,0,0,0-.48-0.38,17.737,17.737,0,0,0-2.3-.24,23.217,23.217,0,0,1,.288,4.51h-6.529c-4.56,0-6.1-.05-6.336-0.05-0.288,0-.336.05-0.336,0.29v1.53c0,0.29.048,0.34,0.336,0.34,0.24,0,1.776-.1,6.336-0.1h6.529c0,2.21-.1,2.98-0.1,3.22,0,0.29.048,0.34,0.336,0.34h1.536c0.288,0,.336-0.05.336-0.34,0-.19-0.1-1.01-0.1-3.22h10.753c-0.048,1.2-.1,1.68-0.1,1.88,0,0.28.048,0.33,0.336,0.33h1.584c0.288,0,.288-0.05.288-0.33,0-.2-0.048-0.68-0.048-1.88h6.817c4.608,0,6.1.1,6.384,0.1s0.336-.05.336-0.34v-1.53c0-.24-0.048-0.29-0.336-0.29s-1.776.05-6.384,0.05h-6.817v-0.15a9.464,9.464,0,0,1,.24-3.12,1.044,1.044,0,0,0,.192-0.62,0.454,0.454,0,0,0-.432-0.38,18.576,18.576,0,0,0-2.4-.24,16.383,16.383,0,0,1,.336,4.41v0.1H894.588Zm16.562,3.79c-0.336.29-.336,0.43-0.1,0.58a20.872,20.872,0,0,1,4.368,3.36c0.24,0.24.288,0.19,0.672-.15l0.576-.53c0.336-.33.336-0.43,0.1-0.67A20.871,20.871,0,0,0,912.3,6109c-0.288-.15-0.336-0.1-0.624.14Zm41.2,22.99v3.99h-9.073c-4.9,0-6.48-.1-6.768-0.1s-0.336.05-.336,0.34v1.34c0,0.29.048,0.34,0.336,0.34s1.872-.1,6.768-0.1h9.073c0,3.94-.1,5.52-0.1,5.76s0.048,0.29.336,0.29h1.536c0.288,0,.336-0.05.336-0.29,0-.19-0.1-1.77-0.1-5.76h10.321c4.945,0,6.577.1,6.817,0.1s0.288-.05.288-0.34v-1.34c0-.29-0.048-0.34-0.288-0.34s-1.872.1-6.817,0.1H954.363v-3.99h5.089c4.656,0,6.288.1,6.528,0.1,0.288,0,.336-0.05.336-0.34,0-.24-0.1-1.24-0.1-4.17v-4.95c0-2.92.1-3.89,0.1-4.13,0-.28-0.048-0.33-0.336-0.33-0.24,0-1.872.09-6.528,0.09h-5.089v-3.69h8.785c4.945,0,6.625.09,6.865,0.09,0.288,0,.336-0.04.336-0.33v-1.3c0-.29-0.048-0.33-0.336-0.33-0.24,0-1.92.09-6.865,0.09h-8.785v-0.19a8,8,0,0,1,.288-2.98,1.479,1.479,0,0,0,.24-0.72c0-.24-0.192-0.33-0.48-0.38a17.03,17.03,0,0,0-2.4-.24,16.719,16.719,0,0,1,.336,4.27v0.24h-6.912c-4.945,0-6.625-.09-6.865-0.09s-0.288.04-.288,0.33v1.3c0,0.29.048,0.33,0.288,0.33s1.92-.09,6.865-0.09h6.912v3.69h-4.7c-4.705,0-6.289-.09-6.577-0.09s-0.336.05-.336,0.33c0,0.24.1,1.21,0.1,4.13v4.95c0,2.93-.1,3.93-0.1,4.17,0,0.29.048,0.34,0.336,0.34s1.872-.1,6.577-0.1h4.7Zm0-7.87h-9.553v-4.13h9.553v4.13Zm2.016,0v-4.13h9.889v4.13h-9.889Zm-2.016,1.68v4.47h-9.553v-4.47h9.553Zm2.016,0h9.889v4.47h-9.889v-4.47Zm-3.792-20.3H940.394c-4.8,0-6.528-.1-6.768-0.1-0.288,0-.336.05-0.336,0.34,0,0.24.1,2.97,0.1,9.55,0,9.5-.192,12.14-0.817,15.98a26.345,26.345,0,0,1-4.08,10.61,3.667,3.667,0,0,1,1.3,1.01c0.432,0.53.432,0.63,0.816,0a29.914,29.914,0,0,0,4.033-11.23,76.051,76.051,0,0,0,.96-13.64v-10.65h28.322c4.849,0,6.481.09,6.721,0.09,0.288,0,.336-0.04.336-0.33v-1.39c0-.29-0.048-0.34-0.336-0.34-0.24,0-1.872.1-6.721,0.1H952.587v-2.02a4.56,4.56,0,0,1,.24-1.63,2.123,2.123,0,0,0,.24-0.72c0-.24-0.1-0.34-0.528-0.43a11,11,0,0,0-2.208-.2,14.43,14.43,0,0,1,.24,2.98v2.02Z" transform="translate(-457.531 -6101.09)"/>
</svg>
