<svg xmlns="http://www.w3.org/2000/svg" width="101.062" height="15.66" viewBox="0 0 101.062 15.66">
  <defs>
    <style>
      .cls-1 {
        fill-rule: evenodd;
      }
    </style>
  </defs>
  <path id="coru_lite.svg" class="cls-1" d="M818.953,1160.95c0-3.24,2.364-6.18,7.021-6.18a7.994,7.994,0,0,1,4.586,1.38v2.61h-0.018a8.225,8.225,0,0,0-4.622-1.65c-2.667,0-4.159,1.64-4.159,3.82,0,2.09,1.386,3.73,4.142,3.73a7.622,7.622,0,0,0,4.639-1.59h0.018v2.61a8.687,8.687,0,0,1-4.853,1.32C820.926,1167,818.953,1164.13,818.953,1160.95Zm15.271-.07c0-3.71,2.648-6.11,6.843-6.11s6.844,2.4,6.844,6.11-2.648,6.12-6.844,6.12S834.224,1164.59,834.224,1160.88Zm10.878,0c0-2.35-1.439-3.79-4.017-3.79s-4.052,1.44-4.052,3.79,1.44,3.8,4.017,3.8S845.1,1163.24,845.1,1160.88Zm-7.448-9.54h6.826v1.88h-6.826v-1.88Zm14.561,3.7h6.613c3.182,0,4.728,1.4,4.728,4.02a3.534,3.534,0,0,1-2.667,3.73l3.165,3.94h-3.217l-2.632-3.44h-3.252v3.44h-2.738v-11.69Zm6.542,5.98a1.726,1.726,0,0,0,2.026-1.84c0-1.05-.534-1.82-2.026-1.82h-3.8v3.66h3.8Zm8.964,1.2v-7.18h2.736v7.06c0,1.91,1.548,2.53,3.219,2.53s3.217-.59,3.217-2.44v-7.15h2.736v7.1c0,3.57-2.648,4.86-5.99,4.86S867.721,1165.7,867.721,1162.22Zm23.378,3.08h5.992v1.28h-7.675v-11.56H891.1v10.28Zm10.929-8.36h-1.845v-1.72h1.845v1.72Zm-0.146,9.64h-1.568v-8.09h1.568v8.09Zm6.038-8.09h2.009v1.14H907.92v4.76a1.05,1.05,0,0,0,1.142,1.24,5.469,5.469,0,0,0,1.045-.09l-0.08,1.15a11.124,11.124,0,0,1-1.421.07c-1.486,0-2.254-.66-2.254-2.1v-5.03H905v-1.14h1.355v-2.4l1.568-.33v2.73Zm6.138,4.34c0.017,1.75.9,2.83,2.4,2.83a1.913,1.913,0,0,0,2.058-1.58l1.437,0.43a3.345,3.345,0,0,1-3.51,2.27c-2.434,0-3.936-1.57-3.936-4.21,0-2.61,1.584-4.27,3.788-4.27,2.124,0,3.707,1.52,3.707,4.2v0.33h-5.944Zm4.376-1.07c-0.1-1.49-.914-2.32-2.122-2.32a2.253,2.253,0,0,0-2.221,2.32h4.343Z" transform="translate(-818.938 -1151.34)"/>
</svg>
