<svg xmlns="http://www.w3.org/2000/svg" width="60.438" height="15.66" viewBox="0 0 60.438 15.66">
  <defs>
    <style>
      .cls-1 {
        fill-rule: evenodd;
      }
    </style>
  </defs>
  <path id="coru.svg" class="cls-1" d="M589.991,1160.62c0-3.24,2.357-6.19,7-6.19a7.868,7.868,0,0,1,4.569,1.39v2.61h-0.018a8.109,8.109,0,0,0-4.605-1.66c-2.656,0-4.144,1.64-4.144,3.83,0,2.09,1.381,3.73,4.127,3.73a7.575,7.575,0,0,0,4.622-1.59h0.018v2.61a8.723,8.723,0,0,1-4.835,1.31C591.957,1166.66,589.991,1163.79,589.991,1160.62Zm15.217-.07c0-3.71,2.639-6.12,6.818-6.12s6.82,2.41,6.82,6.12-2.639,6.11-6.82,6.11S605.208,1164.26,605.208,1160.55Zm10.839,0c0-2.36-1.434-3.79-4-3.79s-4.038,1.43-4.038,3.79,1.434,3.79,4,3.79S616.047,1162.91,616.047,1160.55Zm-7.421-9.54h6.8v1.87h-6.8v-1.87Zm14.508,3.69h6.59c3.17,0,4.71,1.4,4.71,4.03a3.521,3.521,0,0,1-2.657,3.72l3.154,3.95h-3.206l-2.622-3.45h-3.241v3.45h-2.728v-11.7Zm6.519,5.98a1.715,1.715,0,0,0,2.018-1.83c0-1.06-.531-1.83-2.018-1.83h-3.791v3.66h3.791Zm8.932,1.21v-7.19h2.726v7.07c0,1.9,1.542,2.52,3.206,2.52s3.207-.58,3.207-2.44v-7.15h2.726v7.1c0,3.58-2.639,4.86-5.969,4.86S638.585,1165.36,638.585,1161.89Z" transform="translate(-590 -1151)"/>
</svg>
