<svg xmlns="http://www.w3.org/2000/svg" width="352" height="31.94" viewBox="0 0 352 31.94">
  <defs>
    <style>
      .cls-1 {
        fill: #fff;
        fill-rule: evenodd;
      }
    </style>
  </defs>
  <path id="haba.svg" class="cls-1" d="M534.277,4788.63c0,1.31.089,2.77,0.089,4.05a3.223,3.223,0,0,1-.443,2.06,2.075,2.075,0,0,1-1.714.62c-0.65.03-.68,0.03-0.739-0.62a2.886,2.886,0,0,0-.443-1.43,5.059,5.059,0,0,0,.886.08c0.383,0,.532-0.17.532-0.92v-10.09h-1.774v14.35c0,3.3.06,4.79,0.06,4.94,0,0.24-.03.27-0.3,0.27H528.81c-0.266,0-.3-0.03-0.3-0.27,0-.18.06-1.64,0.06-4.91v-14.38h-1.655v9.77c0,2.32.059,3.33,0.059,3.51,0,0.2-.03.24-0.3,0.24h-1.418c-0.236,0-.266-0.04-0.266-0.24s0.059-1.13.059-3.51v-7.95c0-2.42-.059-3.37-0.059-3.54,0-.27.03-0.3,0.266-0.3,0.207,0,.828.06,2.807,0.06h0.5v-1.22a26.773,26.773,0,0,0-.207-4.11c0.916,0.03,1.448.09,2.217,0.18a0.351,0.351,0,0,1,.383.26,3.484,3.484,0,0,1-.147.66,15.5,15.5,0,0,0-.149,2.95v1.28h0.622c1.979,0,2.63-.06,2.777-0.06,0.236,0,.266.03,0.266,0.3,0,0.17-.059,1.28-0.059,3.69v4.28Zm5.111-10.15c-2.777,0-3.693.06-3.87,0.06-0.266,0-.3-0.03-0.3-0.27v-1.6c0-.27.03-0.3,0.3-0.3,0.177,0,1.093.06,3.87,0.06h7.3c2.778,0,3.723-.06,3.9-0.06,0.266,0,.3.03,0.3,0.3v1.6c0,0.24-.03.27-0.3,0.27-0.177,0-1.122-.06-3.9-0.06h-7.3Zm-3.367,23.46c-0.237,0-.266-0.03-0.266-0.27,0-.18.059-0.95,0.059-5.71v-2.89c0-2.89-.059-3.69-0.059-3.9,0-.24.029-0.27,0.266-0.27,0.206,0,1.122.06,3.84,0.06H546.3c2.719,0,3.665-.06,3.842-0.06,0.266,0,.3.03,0.3,0.18s-0.06,1.01-.06,3.6v3.22c0,4.67.06,5.44,0.06,5.62,0,0.24-.03.27-0.3,0.27H548.52c-0.237,0-.266-0.03-0.266-0.27v-1.16H537.912v1.31c0,0.24-.03.27-0.266,0.27h-1.625Zm9.219-21.44c2.452,0,3.25-.05,3.427-0.05,0.266,0,.3.03,0.3,0.27,0,0.14-.059.59-0.059,1.96v1.93c0,1.37.059,1.85,0.059,2,0,0.24-.03.27-0.3,0.27-0.177,0-.975-0.06-3.427-0.06h-4.491c-2.424,0-3.252.06-3.429,0.06-0.236,0-.266-0.03-0.266-0.27,0-.18.059-0.63,0.059-2v-1.93c0-1.37-.059-1.79-0.059-1.96,0-.24.03-0.27,0.266-0.27,0.177,0,1,.05,3.429.05h4.491Zm-7.328,13.13h4.019v-2.86h-4.019v2.86Zm4.019,4.92v-3.13h-4.019v3.13h4.019Zm4.815-16.29h-7.535v2.83h7.535v-2.83Zm-2.777,8.51v2.86h4.285v-2.86h-4.285Zm4.285,7.78v-3.13h-4.285v3.13h4.285Zm27.093-4.51c0,5-4.052,8.5-9.756,8.5-5.829,0-9.633-3.25-9.633-8.38,0-3.66,1.944-5.82,6.284-7.95-4.01-1.96-5.5-4.37-5.5-7.83,0-4.33,3.679-7.79,8.889-7.79,5.125,0,8.97,3.25,8.97,7.67,0,3.37-1.612,5.62-5.581,7.24C573.694,4787.59,575.347,4790.04,575.347,4794.04Zm-10.376-6.45c-3.6,1.74-5.126,3.58-5.126,6.33,0,3.45,2.066,5.49,5.746,5.49,3.555,0,5.828-1.96,5.828-5.29,0-2.66-1.116-4.29-5.373-6.08Zm1.363-3.42c3.391-1.54,4.424-3.25,4.424-5.79,0-2.87-2.149-4.66-5.125-4.66s-5,1.79-5,4.66c0,2.33.869,3.75,4.631,5.33Zm13.484-7.16c1.24-4.08,4.465-6.42,9.013-6.42,5.166,0,8.845,3.25,8.845,7.67a6.857,6.857,0,0,1-5.829,7.04v0.33a7.7,7.7,0,0,1,6.491,7.83c0,5.37-3.928,9.08-9.507,9.08-4.878,0-8.144-2-9.55-6.46l4.009-1.37c0.869,3.24,2.563,4.54,5.541,4.54,3.223,0,5.249-2.17,5.249-5.75,0-3.83-1.983-6.08-6.531-6.08h-2.357v-3.46H587.3c4.258,0,6.2-1.95,6.2-5.33a4.394,4.394,0,0,0-4.753-4.75,4.806,4.806,0,0,0-4.92,4.42Zm42.215,9.41c0,11.28-3.391,16.12-9.591,16.12-6.243,0-9.509-4.75-9.509-16.04,0-11.24,3.39-15.91,9.591-15.91S622.033,4775.17,622.033,4786.42Zm-14.882.04c0,9.46,1.611,12.74,5.291,12.74s5.373-3.28,5.373-12.74-1.611-12.53-5.291-12.53C608.887,4773.93,607.151,4777.01,607.151,4786.46Zm22.387,2.78c1.211-1.93,2.9-3.18,4.847-3.18a3.873,3.873,0,0,1,3.929,3.15,6.006,6.006,0,0,1,4.907-3.15c2.363,0,4.255,1.66,4.255,4.61v11.4h-2.9v-10.51c0-2.08-.858-3-2.334-3-1.331,0-2.807,1.16-3.724,2.97v10.54h-2.865v-10.51c0-2.11-.8-3-2.187-3-1.36,0-2.867,1.1-3.842,2.97v10.54h-2.866v-15.69h2.777v2.86Zm25.756,0c1.211-1.93,2.9-3.18,4.847-3.18a3.873,3.873,0,0,1,3.929,3.15,6.006,6.006,0,0,1,4.907-3.15c2.364,0,4.255,1.66,4.255,4.61v11.4h-2.9v-10.51c0-2.08-.858-3-2.334-3-1.331,0-2.807,1.16-3.724,2.97v10.54h-2.865v-10.51c0-2.11-.8-3-2.187-3-1.36,0-2.867,1.1-3.842,2.97v10.54h-2.866v-15.69h2.777v2.86Zm23.483-7.3,1.122-1.11,6.53,6.52,6.472-6.52,1.123,1.11-6.5,6.54,6.53,6.55-1.122,1.1-6.53-6.52-6.5,6.55-1.122-1.1,6.529-6.58Zm24.6,13.33c-2.778,0-3.695.06-3.872,0.06-0.236,0-.266-0.03-0.266-0.3v-1.55c0-.23.03-0.26,0.266-0.26,0.177,0,1.094.06,3.872,0.06h7.032a9.582,9.582,0,0,0,.06-2.12q1.194,0.045,2.215.18a0.466,0.466,0,0,1,.532.36,1.3,1.3,0,0,1-.207.53,4.371,4.371,0,0,0-.3,1.05h7.949c2.748,0,3.663-.06,3.84-0.06,0.237,0,.267.03,0.267,0.26v1.55c0,0.27-.03.3-0.267,0.3-0.177,0-1.092-.06-3.84-0.06h-6.915c2.424,2.62,6.057,3.84,11.671,4.44a6.762,6.762,0,0,0-.886,1.57c-0.294.72-.294,0.72-1,0.6-5.111-.84-9.189-2.56-11.82-5.87-2.038,3.46-6.41,5-11.228,5.9-0.709.12-.738,0.15-1-0.57a5.4,5.4,0,0,0-.886-1.46c4.964-.59,9.22-1.99,10.993-4.61h-6.205Zm0.443-8.63c0,3.93.059,4.76,0.059,5,0,0.27-.03.29-0.266,0.29h-1.744c-0.266,0-.3-0.02-0.3-0.29,0-.18.06-1.01,0.06-5v-4.23c0-3.15-.06-4.05-0.06-4.25,0-.24.03-0.27,0.3-0.27,0.149,0,1.212.06,4.138,0.06h2.865c0.325-.57.592-1.08,0.858-1.64a6.072,6.072,0,0,0,.413-1.49,19.05,19.05,0,0,1,2.364.51,0.385,0.385,0,0,1,.355.3,0.719,0.719,0,0,1-.3.44,2.527,2.527,0,0,0-.443.54c-0.236.47-.5,0.95-0.709,1.34H718.1c2.954,0,3.989-.06,4.136-0.06,0.266,0,.3.03,0.3,0.27,0,0.17-.06,1.1-0.06,3.83v4.65c0,3.99.06,4.85,0.06,5,0,0.27-.03.29-0.3,0.29h-1.744c-0.266,0-.3-0.02-0.3-0.29,0-.21.059-1.01,0.059-4.97v-6.82H703.824v6.79Zm11.17-2.21c2.63,0,3.516-.06,3.722-0.06s0.237,0.04.237,0.27v1.16c0,0.27-.03.3-0.237,0.3s-1.092-.06-3.722-0.06h-1.3a13.412,13.412,0,0,0,5.822,3.19,6.382,6.382,0,0,0-.858,1.4c-0.147.3-.207,0.41-0.354,0.41a1.263,1.263,0,0,1-.472-0.17,14.049,14.049,0,0,1-5.143-3.99c0.03,1.75.119,3.15,0.119,3.57,0,0.24-.03.27-0.266,0.27h-1.478c-0.267,0-.267-0.03-0.267-0.27,0-.42.09-1.67,0.119-3.43a13.037,13.037,0,0,1-4.668,3.87,1.682,1.682,0,0,1-.473.21,0.647,0.647,0,0,1-.385-0.44,4.237,4.237,0,0,0-.916-1.1,12.854,12.854,0,0,0,5.438-3.52h-0.857c-2.66,0-3.516.06-3.723,0.06s-0.238-.03-0.238-0.3v-1.16c0-.23.03-0.27,0.238-0.27s1.063,0.06,3.723.06h1.772v-1.66a12.907,12.907,0,0,0-.117-2.23c0.768,0.02,1.448.08,1.979,0.14a0.359,0.359,0,0,1,.385.27,0.9,0.9,0,0,1-.119.33,2.083,2.083,0,0,0-.177.86v2.29h2.217Zm-7.713-3.45c0.236-.12.3-0.12,0.442,0.03a9.614,9.614,0,0,1,1.478,2.12c0.119,0.2.09,0.26-.147,0.38l-1,.45c-0.354.15-.383,0.15-0.473-0.09a9.29,9.29,0,0,0-1.3-2.05,0.431,0.431,0,0,1-.119-0.24,0.327,0.327,0,0,1,.236-0.21Zm8.333,0.8a3.411,3.411,0,0,0,.383-0.95,11.7,11.7,0,0,1,1.567.54,0.417,0.417,0,0,1,.3.3,0.277,0.277,0,0,1-.177.27,1.16,1.16,0,0,0-.473.44,11.769,11.769,0,0,1-1.063,1.52,0.554,0.554,0,0,1-.385.24,1.478,1.478,0,0,1-.62-0.24,5.02,5.02,0,0,0-.856-0.33A9.568,9.568,0,0,0,715.614,4781.78Zm17.1,11.23c0-1.1.058-2.65,0.087-3.81a35.2,35.2,0,0,1-2.807,2.65,1.2,1.2,0,0,1-.532.3,0.6,0.6,0,0,1-.324-0.48,3.971,3.971,0,0,0-.887-1.49,26.4,26.4,0,0,0,6.324-6.91,9.327,9.327,0,0,0,.71-1.49,13.764,13.764,0,0,1,1.831,1.14,0.58,0.58,0,0,1,.3.44,0.456,0.456,0,0,1-.207.33,2.491,2.491,0,0,0-.651.68c-0.473.75-.974,1.47-1.506,2.18v11.37c0,2.5.06,3.63,0.06,3.78,0,0.24-.03.27-0.3,0.27h-1.862c-0.266,0-.3-0.03-0.3-0.27,0-.18.06-1.28,0.06-3.78v-4.91Zm4.343-16.88a0.563,0.563,0,0,1,.355.45,0.585,0.585,0,0,1-.413.41,3.319,3.319,0,0,0-.739.81,28.729,28.729,0,0,1-5.733,5.35,1.067,1.067,0,0,1-.533.27,0.7,0.7,0,0,1-.472-0.56,4.479,4.479,0,0,0-1.034-1.31,22.965,22.965,0,0,0,5.881-5.21,6.439,6.439,0,0,0,.739-1.31A13.146,13.146,0,0,1,737.054,4776.13Zm5.437,10.33c-2.867,0-3.842.06-4.049,0.06-0.236,0-.266-0.03-0.266-0.27v-1.76c0-.23.03-0.26,0.266-0.26,0.207,0,1.182.06,4.049,0.06h8.244c2.836,0,3.812-.06,3.961-0.06,0.266,0,.294.03,0.294,0.26v1.76c0,0.24-.028.27-0.294,0.27-0.149,0-1.125-.06-3.961-0.06h-0.827v6.34c0,2.86.088,4.38,0.088,5.54a2.933,2.933,0,0,1-.886,2.65c-0.59.47-1.536,0.59-4.343,0.62-0.739,0-.739,0-0.917-0.74a5.51,5.51,0,0,0-.738-1.79,24.542,24.542,0,0,0,2.984.15c1.152,0,1.448-.18,1.448-1.04v-11.73h-5.053Zm1.271-7.35c-2.63,0-3.486.06-3.635,0.06-0.236,0-.266-0.03-0.266-0.27v-1.7c0-.27.03-0.29,0.266-0.29,0.149,0,1,.05,3.635.05h5.821c2.659,0,3.488-.05,3.665-0.05,0.236,0,.266.02,0.266,0.29v1.7c0,0.24-.03.27-0.266,0.27-0.177,0-1.006-.06-3.665-0.06h-5.821Zm30.543-2.19c-0.662-2.24-2.066-3.08-3.761-3.08-4.093,0-6.119,4.17-6.285,12.12a7.553,7.553,0,0,1,6.615-4c4.631,0,8.02,3.92,8.02,9.83,0,6.62-3.886,10.75-9.053,10.75-5.705,0-9.591-4.46-9.591-14.66,0-12.2,3.969-17.29,10.417-17.29,3.762,0,6.284,1.63,7.607,4.67Zm-4.5,22.37c3.223,0,4.919-2.54,4.919-7.37,0-4.33-1.613-6.71-4.672-6.71-2.232,0-4.175,1.42-5.705,4.37C764.342,4796.41,766.492,4799.29,769.8,4799.29Zm13.772-22.28c1.24-4.08,4.465-6.42,9.013-6.42,5.166,0,8.845,3.25,8.845,7.67a6.857,6.857,0,0,1-5.829,7.04v0.33a7.7,7.7,0,0,1,6.491,7.83c0,5.37-3.928,9.08-9.507,9.08-4.879,0-8.144-2-9.55-6.46l4.009-1.37c0.869,3.24,2.563,4.54,5.541,4.54,3.223,0,5.249-2.17,5.249-5.75,0-3.83-1.984-6.08-6.532-6.08h-2.356v-3.46h2.108c4.258,0,6.2-1.95,6.2-5.33a4.394,4.394,0,0,0-4.753-4.75,4.806,4.806,0,0,0-4.921,4.42Zm40.478-2.54H811.772l-0.29,6.95c-0.04,1-.164,2.25-0.247,3.25a6.146,6.146,0,0,1,5.538-2.87c4.755,0,8.517,3.87,8.517,10.03,0,6.54-4.175,10.71-9.507,10.71-4.631,0-7.814-2.13-9.013-6.34l4.009-1.37c0.7,3.04,2.316,4.42,4.961,4.42,3.225,0,5.292-2.71,5.292-7.33,0-4.38-1.9-6.83-5-6.83a4.985,4.985,0,0,0-4.878,3.79l-3.39-.5,0.661-17.24H824.05v3.33Zm9.242,14.77c1.211-1.93,2.9-3.18,4.846-3.18a3.874,3.874,0,0,1,3.93,3.15,6.006,6.006,0,0,1,4.906-3.15c2.364,0,4.255,1.66,4.255,4.61v11.4h-2.9v-10.51c0-2.08-.858-3-2.334-3-1.331,0-2.807,1.16-3.724,2.97v10.54H839.41v-10.51c0-2.11-.8-3-2.187-3-1.361,0-2.867,1.1-3.842,2.97v10.54h-2.867v-15.69h2.778v2.86Zm25.756,0c1.211-1.93,2.9-3.18,4.846-3.18a3.874,3.874,0,0,1,3.93,3.15,6.006,6.006,0,0,1,4.906-3.15c2.364,0,4.255,1.66,4.255,4.61v11.4h-2.9v-10.51c0-2.08-.858-3-2.334-3-1.331,0-2.807,1.16-3.724,2.97v10.54h-2.865v-10.51c0-2.11-.8-3-2.187-3-1.361,0-2.867,1.1-3.842,2.97v10.54H856.27v-15.69h2.778v2.86Z" transform="translate(-525 -4770.59)"/>
</svg>
