<svg xmlns="http://www.w3.org/2000/svg" width="40" height="39.94" viewBox="0 0 40 39.94">
  <defs>
    <style>
      .cls-1 {
        fill-rule: evenodd;
      }
    </style>
  </defs>
  <path id="insta.svg" class="cls-1" d="M240.367,7769.68H223.632A11.617,11.617,0,0,1,212,7758.09v-16.74a11.624,11.624,0,0,1,11.631-11.59h16.735A11.624,11.624,0,0,1,252,7741.35v16.74A11.617,11.617,0,0,1,240.367,7769.68Zm-16.735-36.27a7.966,7.966,0,0,0-7.966,7.94v16.74a7.953,7.953,0,0,0,7.966,7.94h16.735a7.955,7.955,0,0,0,7.966-7.94v-16.74a7.968,7.968,0,0,0-7.966-7.94H223.632ZM232,7759.93a10.21,10.21,0,1,1,10.245-10.21h0A10.233,10.233,0,0,1,232,7759.93h0Zm0-16.84a6.635,6.635,0,1,0,6.656,6.63,6.644,6.644,0,0,0-6.656-6.63h0Zm10.744-6.41a2.435,2.435,0,1,0,2.443,2.44,2.44,2.44,0,0,0-2.443-2.44h0Z" transform="translate(-212 -7729.75)"/>
</svg>
