<svg id="lead.svg" xmlns="http://www.w3.org/2000/svg" width="500" height="333" viewBox="0 0 500 333">
  <defs>
    <style>
      .cls-1 {
        fill: #0056a9;
      }

      .cls-1, .cls-2 {
        fill-rule: evenodd;
      }
    </style>
  </defs>
  <path id="Haier" class="cls-1" d="M491.606,461.345a25.237,25.237,0,0,1,23.45,16.358H468.143a25.263,25.263,0,0,1,23.463-16.358m44.564,30.464a45.286,45.286,0,0,0,.278-4.77c0-24.255-20.362-43.928-45.476-43.928s-45.467,19.673-45.467,43.928c0,24.287,20.365,43.947,45.467,43.947a45.478,45.478,0,0,0,42.16-27.491l-19.575-3.4a25.168,25.168,0,0,1-21.951,13.142,25.466,25.466,0,0,1-24.869-21.432H536.17Zm-126.08,37.6h23.2v-84.45h-23.2v84.45Zm11.59-118.88a12.788,12.788,0,1,0,12.966,12.785,12.864,12.864,0,0,0-12.966-12.785m-153.7,7.339v45.465H217.932V417.867h-25.4V529.33h25.4V483.869h50.052V529.33h25.4V417.867h-25.4m82.8,94.617c-14.372,0-26-11.377-26-25.426,0-14.018,11.63-25.385,26-25.385,14.343,0,25.979,11.367,25.979,25.385,0,14.049-11.636,25.426-25.979,25.426M372.765,445v4.526a44.7,44.7,0,0,0-23.116-6.36c-24.631,0-44.6,19.645-44.6,43.9,0,24.268,19.965,43.928,44.6,43.928a44.792,44.792,0,0,0,22.585-6.041v4.388h22.651V445h-22.12Zm211.68-7.892a45.584,45.584,0,0,0-37.876,44.24v48.065h22.226l0.013-48.966A22.083,22.083,0,0,1,588.3,458.656L584.445,437.1" transform="translate(-140 -198)"/>
  <path id="lead" class="cls-2" d="M180.491,244.724a116.269,116.269,0,0,1-18.578,1.3,59.1,59.1,0,0,1-13.191-1.366c-2.539-.62-8.732-2.606-8.732-8.936,0-3.91,2.415-6.332,6.627-10.24l3.22,2.917c-2.972,2.483-5.2,4.282-5.2,6.765,0,6.329,12.138,6.64,15.792,6.64,7.493,0,13.748-1.3,20.251-2.73Zm-35.484-43.008c1.176,0.187,6.379,1.056,7.494,1.179a51.505,51.505,0,0,0,7.864.5,91.483,91.483,0,0,0,13.066-.994l2.416,4.656c-6.5,4.033-9.909,6.268-14.367,9.556l-3.1-2.916c1.61-1.056,8.546-5.71,10.033-6.64a44.293,44.293,0,0,1-7,.5,95.448,95.448,0,0,1-15.915-1.428Zm98.344,36.865c-2.663,2.916-5.884,6.455-9.971,6.455-4.458,0-6.007-3.413-6.007-11.421,0-3.288.31-10.115,0.5-13.095,0-.371.187-2.544,0.187-3.971,0-2.3-.744-4.47-3.345-4.47-3.715,0-7.432,3.539-14.429,13.1-0.062,1.489-.186,2.668-0.186,6.453,0,6.7.124,8.813,0.5,16.633l-5.14.187c0.186-3.228.434-7.013,0.5-16.323-3.528,5.276-4.4,6.516-6.006,9.371l-4.025-2.605c5.449-7.448,7.492-10.551,10.155-15.33v-6.33c-1.609.621-5.821,2.171-9.351,3.1l-1.733-4.345a56.255,56.255,0,0,0,11.084-3.227c0.187-3.538.187-8.192,0.187-11.792a15.889,15.889,0,0,0-.187-2.793l5.327,0.807c-0.124,1.614-.558,7.136-0.619,11.667a14.524,14.524,0,0,0,1.734-.992l2.415,2.235c-0.434.992-2.478,5.15-2.849,6.02,4.273-5.4,8.546-9.869,14-9.869,5.264,0,6.316,4.9,6.316,8.874,0,0.374-.061,1.986-0.185,4.159-0.434,6.517-.5,7.324-0.5,10.24,0,5.958.31,8.751,2.663,8.751,1.735,0,4.4-1.676,7.68-6.33Zm12.884-22.591c7.988-.807,11.022-1.614,13.871-2.483a84.656,84.656,0,0,0,1.92-13.528l5.326,2.419a62.27,62.27,0,0,0-2.23,9.5,22.959,22.959,0,0,1,5.512-.933,8.336,8.336,0,0,1,5.7,2.111c2.478,2.174,3.158,6.517,3.158,9.372a42.081,42.081,0,0,1-4.706,19.052c-1.548,2.732-4.025,4.779-8.855,4.779a17.864,17.864,0,0,1-3.036-.248L270.911,241a36.787,36.787,0,0,0,5.45.684c2.291,0,3.9-1.055,5.388-4.22a37,37,0,0,0,3.22-15.081c0-2.173-.248-7.2-5.326-7.2a18.743,18.743,0,0,0-5.636,1.116,99.871,99.871,0,0,1-13.562,30.039l-4.707-2.419c3.592-4.159,8.361-9.994,13.254-26.192a93.262,93.262,0,0,1-10.653,2.608Zm38.7-9.246c5.573,7.011,8.546,11.109,8.546,15.762,0,4.469-2.724,5.028-6.936,5.9l-2.539-5.338c0.372,0.062,2.416.187,2.663,0.187,1.982,0,1.982-1.056,1.982-1.737,0-2.174-.682-3.6-2.229-5.835a61.715,61.715,0,0,0-5.326-6.827Zm31.028,3.723c-3.036,4.9-3.717,13.777-3.84,15.514,4.21-2.668,10.527-6.452,17.463-6.452a12,12,0,0,1,12.2,11.915c0,10.922-11.147,14.584-15.42,15.763a42.8,42.8,0,0,1-11.394,1.427l-2.849-4.715c8.422,0.248,11.642-.249,14.987-1.428,2.353-.807,10.279-4.159,10.279-11.3,0-6.888-6.873-7.634-8.421-7.634-7.8,0-14.8,6.081-19.137,9.868l-2.415-1.491a75.911,75.911,0,0,1,4.026-23.583Zm-1.115-12.475c3.343,1.118,11.208,3.848,16.782,7.325l-2.292,4.156a65.47,65.47,0,0,0-16.287-7.385Zm46.262,49.463c-2.106-7.323-2.725-16.385-2.725-21.784a99.994,99.994,0,0,1,3.53-25.692l4.335,1.427c-3.035,10.612-3.9,17.254-3.9,23.832a69.488,69.488,0,0,0,.867,11.419c0.5-1.056,2.787-5.835,3.221-6.765l2.724,3.041c-0.619,1.3-1.609,3.165-2.848,6.391a25.77,25.77,0,0,0-1.982,7.324Zm40.315-4.84a44.854,44.854,0,0,0-8.855-4.531c-0.248,3.849-.744,8.564-9.166,8.564-4.4,0-11.208-1.551-11.208-7.26,0-3.228,2.539-7.075,9.66-7.075a29.5,29.5,0,0,1,6.193.62c-0.681-11.854-.805-13.22-0.805-17.315a94.941,94.941,0,0,1-11.952.372l-0.805-4.715a29.452,29.452,0,0,0,7.74.8c2.478,0,3.654-.061,5.017-0.122,0.124-2.981.5-8.316,0.805-12.475l4.831,1.3a76.951,76.951,0,0,0-1.3,10.489,29.877,29.877,0,0,0,8.855-2.732l0.186,4.841c-2.167.435-4.521,0.93-9.041,1.614,0,4.467.062,10.8,0.681,18.742a61.573,61.573,0,0,1,10.589,4.344ZM391.3,235.788c-4.645,0-5.2,2.358-5.2,3.226,0,2.545,3.593,4.1,7.432,4.1,4.707,0,4.768-2.6,4.644-6.267A34.222,34.222,0,0,0,391.3,235.788Zm33.382,1.056a57.731,57.731,0,0,1,12.571,11.3l-3.22,3.536a47.8,47.8,0,0,0-11.767-12.412Zm99.362,73.1a1.423,1.423,0,0,1-2.1.4,84.941,84.941,0,0,0-14.487-10.417,1.559,1.559,0,0,1-.47-2.241l1.844-2.741a1.817,1.817,0,0,1,2.472-.524,127.734,127.734,0,0,1,14.773,10.555,1.665,1.665,0,0,1-.047,2.385A23.55,23.55,0,0,0,524.047,309.947ZM288.676,299.633a1.528,1.528,0,0,0-.133-2.273,131.773,131.773,0,0,0-19.236-15.216,2.05,2.05,0,0,0-2.609.377l-2.158,2.338a1.494,1.494,0,0,0,.223,2.246,133.216,133.216,0,0,1,18.993,15.574,1.548,1.548,0,0,0,2.366-.221A13.442,13.442,0,0,1,288.676,299.633ZM162.737,333.3a1.021,1.021,0,0,0-1.722.189c-5.294,14.718-10.831,25.9-20.657,40.729a1.73,1.73,0,0,0,.5,2.4l4.169,2.724a4.2,4.2,0,0,0,2.569.981c0.734,0,.979-0.981.979-1.594a2.138,2.138,0,0,0-.085-0.6c-0.3-1.033-.672-2.174-0.121-3.1a244.9,244.9,0,0,0,18.025-36.107,2.493,2.493,0,0,0-.717-2.756C164.73,335.317,163.586,334.179,162.737,333.3Zm332.884,27.65a1.042,1.042,0,0,1,.081,1.787,9.558,9.558,0,0,0-2.573,3.071,1.644,1.644,0,0,1-2.227.6c-14.9-7.938-24.532-17.68-30.741-26.907a3.16,3.16,0,0,0-2.635-1.358H421.488a2.781,2.781,0,0,0-2.468,1.366c-2.412,4.372-10.408,16.869-31.623,27.546a2.079,2.079,0,0,1-2.563-.649,19.591,19.591,0,0,0-3-3.134,1.062,1.062,0,0,1,.44-1.772c16.936-6.576,26.057-16.233,29.98-21.984a0.917,0.917,0,0,0-.858-1.373H385.266a1.746,1.746,0,0,1-1.744-1.748V334a1.746,1.746,0,0,1,1.744-1.748h23.677a1.746,1.746,0,0,0,1.745-1.748V290.956a1.747,1.747,0,0,0-1.745-1.748h-20.5a1.746,1.746,0,0,1-1.744-1.748v-2.389a1.746,1.746,0,0,1,1.744-1.748h20.5a1.747,1.747,0,0,0,1.745-1.748v-7.418a1.668,1.668,0,0,1,1.743-1.669l6.334,0.288c1.1,0,2.448.491,2.448,1.718,0,1.348-1.215,1.944-2.491,2.224a2.066,2.066,0,0,0-1.67,1.976v2.881a1.746,1.746,0,0,0,1.744,1.748h40.565a1.746,1.746,0,0,0,1.744-1.748v-7.541a1.68,1.68,0,0,1,1.743-1.682l4.743,0.179c1.469,0,3.3.123,3.3,1.472a1.925,1.925,0,0,1-1.535,1.851,2.569,2.569,0,0,0-1.891,2.226v3.5a1.746,1.746,0,0,0,1.744,1.748h21.353a1.747,1.747,0,0,1,1.745,1.748v2.389a1.747,1.747,0,0,1-1.745,1.748H469.213a1.746,1.746,0,0,0-1.744,1.748v39.549a1.746,1.746,0,0,0,1.744,1.748H494.36A1.746,1.746,0,0,1,496.1,334v2.391a1.746,1.746,0,0,1-1.744,1.748h-26a0.906,0.906,0,0,0-.658,1.482C476.732,351.549,488.705,357.891,495.621,360.951Zm-34.516-37.5a1.746,1.746,0,0,0-1.744-1.748H418.8a1.746,1.746,0,0,0-1.744,1.748v7.05a1.746,1.746,0,0,0,1.744,1.748h40.565a1.746,1.746,0,0,0,1.744-1.748v-7.05Zm0-16.31a1.747,1.747,0,0,0-1.744-1.749H418.8a1.747,1.747,0,0,0-1.744,1.749v6.927a1.746,1.746,0,0,0,1.744,1.748h40.565a1.746,1.746,0,0,0,1.744-1.748v-6.927Zm0-16.189a1.746,1.746,0,0,0-1.744-1.748H418.8a1.746,1.746,0,0,0-1.744,1.748v6.806a1.746,1.746,0,0,0,1.744,1.748h40.565a1.746,1.746,0,0,0,1.744-1.748v-6.806ZM172.8,340.193a1.747,1.747,0,0,0,1.744,1.749h20.863a1.747,1.747,0,0,1,1.745,1.748V384.1a1.747,1.747,0,0,0,1.744,1.749h3.364a1.747,1.747,0,0,0,1.745-1.749V343.69a1.746,1.746,0,0,1,1.744-1.748h27.1a1.747,1.747,0,0,1,1.745,1.748v18.486c0,4.661,0,6.254-7.832,6.254a67.882,67.882,0,0,1-8.661-.528,0.934,0.934,0,0,0-.967,1.333,13.889,13.889,0,0,1,1.518,4.694,1.883,1.883,0,0,0,1.71,1.763c21.085,0.248,21.085-4.349,21.085-15.846V337.313a1.746,1.746,0,0,0-1.745-1.748H174.546a1.746,1.746,0,0,0-1.744,1.748v2.88Zm362.787-54.226a1.43,1.43,0,0,0-.022-2.148,112.05,112.05,0,0,0-13.956-9.994,2.071,2.071,0,0,0-2.659.4l-2.135,2.5a1.441,1.441,0,0,0,.3,2.181A108.663,108.663,0,0,1,531,288.494a1.821,1.821,0,0,0,2.578-.35A18.484,18.484,0,0,1,535.589,285.967Zm-2.349,30.392a1.006,1.006,0,0,0-1.688-.25,161.019,161.019,0,0,1-22.059,25.606,1.568,1.568,0,0,0,.059,2.333l4.05,3.412a4.546,4.546,0,0,0,2.2.858c0.857,0,1.1-1.1,1.1-1.716a3.221,3.221,0,0,0-.062-0.621,3.338,3.338,0,0,1,.737-2.94,196.8,196.8,0,0,0,17.329-21.2,2.394,2.394,0,0,0,.021-2.72C534.3,318.173,533.773,317.327,533.24,316.359ZM159.549,300.4a1.294,1.294,0,0,0,2.037-.051,16.4,16.4,0,0,1,2.508-3.139,1.608,1.608,0,0,0,.055-2.3,124.317,124.317,0,0,0-17.524-14.371,1.884,1.884,0,0,0-2.482.432l-2.4,2.847a1.6,1.6,0,0,0,.466,2.356A101.333,101.333,0,0,1,159.549,300.4Zm215.2,74.1a1.09,1.09,0,0,1-.021,1.853,12.507,12.507,0,0,0-2.97,2.9,1.811,1.811,0,0,1-2.424.507c-19.03-12.372-27.054-23.351-33.249-32.441-0.288-.424-0.9-0.092-0.9.421v36.728a1.747,1.747,0,0,1-1.745,1.748h-2.507a1.747,1.747,0,0,1-1.745-1.748V347.492a0.5,0.5,0,0,0-.921-0.3c-5.4,8.429-14.7,20.972-35.5,33a1.724,1.724,0,0,1-2.316-.775,10,10,0,0,0-2.728-3.088,0.951,0.951,0,0,1,.056-1.614c9.65-4.8,25.076-13.451,36.741-29.821a0.972,0.972,0,0,0-.628-1.608H302.179a1.747,1.747,0,0,1-1.745-1.748V303.956a1.747,1.747,0,0,1,1.745-1.748h25.268a1.746,1.746,0,0,0,1.744-1.748v-7.173a1.746,1.746,0,0,0-1.744-1.748H294.224a1.746,1.746,0,0,1-1.744-1.748V287.4a1.747,1.747,0,0,1,1.744-1.749h33.223a1.746,1.746,0,0,0,1.744-1.748v-9.257a1.682,1.682,0,0,1,1.743-1.683l4.743,0.18c1.591,0,2.447.246,2.447,1.1a1.7,1.7,0,0,1-1.308,1.533,2.564,2.564,0,0,0-1.628,2.3V283.9a1.746,1.746,0,0,0,1.744,1.748h34.324A1.747,1.747,0,0,1,373,287.4v2.39a1.746,1.746,0,0,1-1.744,1.748H336.932a1.746,1.746,0,0,0-1.744,1.748v7.173a1.746,1.746,0,0,0,1.744,1.748h26.614a1.746,1.746,0,0,1,1.744,1.748v37.587a1.746,1.746,0,0,1-1.744,1.748h-23.31a0.878,0.878,0,0,0-.749,1.377C349.879,358.753,363.624,368.278,374.753,374.5Zm-45.562-47.733a1.746,1.746,0,0,0-1.744-1.748H308.3a1.746,1.746,0,0,0-1.744,1.748V335.9a1.746,1.746,0,0,0,1.744,1.748h19.15a1.746,1.746,0,0,0,1.744-1.748v-9.135Zm0-17.169a1.746,1.746,0,0,0-1.744-1.748H308.3a1.746,1.746,0,0,0-1.744,1.748v8.277a1.746,1.746,0,0,0,1.744,1.748h19.15a1.746,1.746,0,0,0,1.744-1.748V309.6Zm6,8.277a1.746,1.746,0,0,0,1.744,1.748h20.374a1.746,1.746,0,0,0,1.744-1.748V309.6a1.746,1.746,0,0,0-1.744-1.748H336.932a1.746,1.746,0,0,0-1.744,1.748v8.277Zm0,18.027a1.746,1.746,0,0,0,1.744,1.748h20.374a1.746,1.746,0,0,0,1.744-1.748v-9.135a1.746,1.746,0,0,0-1.744-1.748H336.932a1.746,1.746,0,0,0-1.744,1.748V335.9Zm107.561,25.2a1.747,1.747,0,0,1,1.745-1.748h21.23a1.747,1.747,0,0,0,1.745-1.748v-2.391a1.747,1.747,0,0,0-1.745-1.748h-21.23a1.747,1.747,0,0,1-1.745-1.748v-4.965a2.182,2.182,0,0,1,1.555-2.115c1.36-.385,2.117-0.891,2.117-2.086,0-1.594-1.836-1.84-3.549-2.085l-4.883-.725a1.505,1.505,0,0,0-1.725,1.492v10.484a1.747,1.747,0,0,1-1.745,1.748H413.9a1.746,1.746,0,0,0-1.744,1.748v2.391a1.746,1.746,0,0,0,1.744,1.748h20.618a1.747,1.747,0,0,1,1.745,1.748v11.71a1.746,1.746,0,0,1-1.745,1.748H390.161a1.747,1.747,0,0,0-1.744,1.749V378.7a1.747,1.747,0,0,0,1.744,1.749H489.22a1.747,1.747,0,0,0,1.744-1.749v-2.389a1.747,1.747,0,0,0-1.744-1.749H444.494a1.747,1.747,0,0,1-1.745-1.748V361.1ZM290.656,334.256a2.125,2.125,0,0,0-.612-2.449,21.045,21.045,0,0,1-2.683-2.511,0.961,0.961,0,0,0-1.619.335,192.6,192.6,0,0,1-24.106,45.528,1.7,1.7,0,0,0,.461,2.363l4.562,3.172a2.58,2.58,0,0,0,1.346.614,1.6,1.6,0,0,0,1.591-1.472,2.673,2.673,0,0,0-.1-0.705,3.572,3.572,0,0,1,.155-2.843A252.488,252.488,0,0,0,290.656,334.256Zm-81.4-55.531c-0.443-.665.22-1.405,0.985-1.634,1.149-.343,1.843-0.9,1.843-1.739,0-1.349-1.223-1.594-2.325-1.84l-6.36-1.158a2.229,2.229,0,0,0-2.423,1.2c-9.646,20.194-24.647,33.539-40.134,42.738a1.191,1.191,0,0,0,.009,1.959,15.93,15.93,0,0,1,2.674,2.663,1.791,1.791,0,0,0,2.389.465c14.315-9.51,27.978-21.873,37.548-38.406a1.071,1.071,0,0,1,1.795-.279,122.065,122.065,0,0,0,41.44,38.53,1.687,1.687,0,0,0,2.294-.6A16.629,16.629,0,0,1,251.3,317.6a1.228,1.228,0,0,0-.227-1.926C231.878,304.986,217.938,291.737,209.255,278.725Zm-24.919,34.029a1.746,1.746,0,0,0-1.744,1.748v2.881a1.747,1.747,0,0,0,1.744,1.749h44.848a1.747,1.747,0,0,0,1.745-1.749V314.5a1.747,1.747,0,0,0-1.745-1.748H184.336ZM640.01,366.468a15.237,15.237,0,0,1-30.471.124,14.871,14.871,0,0,1,.316-3.05,1.385,1.385,0,0,0-1.271-1.733h-41.23a1.746,1.746,0,0,0-1.744,1.748v20.786a1.747,1.747,0,0,1-1.745,1.748h-3.119A1.747,1.747,0,0,1,559,384.343V363.557a1.746,1.746,0,0,0-1.744-1.748H507.392a1.747,1.747,0,0,1-1.745-1.749v-2.635a1.747,1.747,0,0,1,1.745-1.748h49.865A1.746,1.746,0,0,0,559,353.929V342.341a1.746,1.746,0,0,0-1.744-1.748h-11.2a1.747,1.747,0,0,1-1.745-1.748V301.381a0.653,0.653,0,0,0-1.132-.46c-2.867,3.23-4.987,5.363-6.752,7.181a1.449,1.449,0,0,1-2.205-.349,18.642,18.642,0,0,0-2.192-2.614,1.538,1.538,0,0,1-.048-2.261,88.8,88.8,0,0,0,22.76-28.9,2.019,2.019,0,0,1,2.464-1.086l3.993,1.478c1.835,0.613,2.2,1.227,2.2,2.085,0,0.828-.62,1.449-1.962,1.552a3.037,3.037,0,0,0-2.434,1.333c-1.068,1.774-2.3,3.771-4.093,6.387a0.944,0.944,0,0,0,.688,1.52h19.15a3.41,3.41,0,0,0,2.737-1.266,115.554,115.554,0,0,0,7.631-11.614,2.222,2.222,0,0,1,2.58-1.048l3.97,1.3c0.735,0.245,2.326.736,2.326,2.084,0,1.226-1.1,1.686-2.223,1.858a4.2,4.2,0,0,0-2.846,1.582c-1.265,1.771-2.613,3.484-4.556,5.772a0.807,0.807,0,0,0,.6,1.335h29.184A1.747,1.747,0,0,1,615.9,289v2.39a1.747,1.747,0,0,1-1.745,1.748H584a1.747,1.747,0,0,0-1.745,1.748v5.946A1.746,1.746,0,0,0,584,302.575H608.53a1.747,1.747,0,0,1,1.745,1.749v2.39a1.746,1.746,0,0,1-1.745,1.748H584a1.747,1.747,0,0,0-1.745,1.748v6.07A1.747,1.747,0,0,0,584,318.028H608.53a1.747,1.747,0,0,1,1.745,1.748v2.39a1.747,1.747,0,0,1-1.745,1.749H584a1.746,1.746,0,0,0-1.745,1.748v7.3A1.747,1.747,0,0,0,584,334.706h32.854a1.747,1.747,0,0,1,1.745,1.749v2.39a1.747,1.747,0,0,1-1.745,1.748h-46.56c-0.8,0-1.279.8-1.67,1.5a2.6,2.6,0,0,1-1.385.955,2.587,2.587,0,0,0-1.626,2.363v8.522a1.746,1.746,0,0,0,1.744,1.748h45.184a5.256,5.256,0,0,0,3.1-1.136,15.369,15.369,0,0,1,9.2-3.034A15.137,15.137,0,0,1,640.01,366.468Zm-89.452-65.641a1.746,1.746,0,0,0,1.744,1.748h22.21a1.746,1.746,0,0,0,1.744-1.748v-5.946a1.746,1.746,0,0,0-1.744-1.748H552.3a1.746,1.746,0,0,0-1.744,1.748v5.946Zm0,15.453a1.746,1.746,0,0,0,1.744,1.748h22.21a1.746,1.746,0,0,0,1.744-1.748v-6.07a1.746,1.746,0,0,0-1.744-1.748H552.3a1.746,1.746,0,0,0-1.744,1.748v6.07Zm23.954,18.426a1.746,1.746,0,0,0,1.744-1.748v-7.3a1.746,1.746,0,0,0-1.744-1.748H552.3a1.746,1.746,0,0,0-1.744,1.748v7.3a1.746,1.746,0,0,0,1.744,1.748h22.21Zm60.358,31.762a10.035,10.035,0,1,0-10.034,10.057A9.986,9.986,0,0,0,634.87,366.468Z" transform="translate(-140 -198)"/>
</svg>
