<svg xmlns="http://www.w3.org/2000/svg" width="40" height="39.94" viewBox="0 0 40 39.94">
  <defs>
    <style>
      .cls-1 {
        fill-rule: evenodd;
      }
    </style>
  </defs>
  <path id="line.svg" class="cls-1" d="M171.333,7729.76a19.965,19.965,0,1,0,20,19.97A19.984,19.984,0,0,0,171.333,7729.76Zm9.125,24.99a38.584,38.584,0,0,1-9.374,6.92c-1.273.53-1.085-.34-1.033-0.64,0.029-.19.17-1.03,0.17-1.03a2.42,2.42,0,0,0-.039-1.07,1.439,1.439,0,0,0-1.051-.59c-5.733-.76-9.978-4.76-9.978-9.54,0-5.33,5.351-9.67,11.93-9.67s11.931,4.34,11.931,9.67v0.01A8.577,8.577,0,0,1,180.458,7754.75Zm-11.8-8.53h-0.837a0.229,0.229,0,0,0-.233.23v5.19a0.231,0.231,0,0,0,.233.23h0.837a0.229,0.229,0,0,0,.232-0.23v-5.19A0.229,0.229,0,0,0,168.66,7746.22Zm5.759,0.02,0-.02H173.58a0.229,0.229,0,0,0-.233.23v3.09l-2.382-3.22a0.045,0.045,0,0,1-.018-0.02l-0.014-.01-0.013-.01,0-.01-0.012-.01h-0.027l-0.013-.01h-0.921a0.229,0.229,0,0,0-.233.23v5.19a0.231,0.231,0,0,0,.233.23h0.837a0.229,0.229,0,0,0,.232-0.23v-3.08l2.385,3.22a0.175,0.175,0,0,0,.059.05l0.015,0.01h0.007l0.011,0.01h0.018l0.016,0.01h0.9a0.223,0.223,0,0,0,.232-0.23h0v-5.19A0.229,0.229,0,0,0,174.419,7746.24Zm-7.784,4.33,0.007,0.01h-2.274v-4.12a0.229,0.229,0,0,0-.232-0.23H163.3a0.229,0.229,0,0,0-.232.23v5.19a0.241,0.241,0,0,0,.065.16,0.232,0.232,0,0,0,.16.06h3.343a0.228,0.228,0,0,0,.231-0.23h0v-0.83A0.237,0.237,0,0,0,166.635,7750.57Zm12.408-.01h-2.278v-0.88h2.273a0.229,0.229,0,0,0,.232-0.23h0v-0.81a0.237,0.237,0,0,0-.231-0.24h-2.274v-0.88h2.276a0.229,0.229,0,0,0,.232-0.23h0v-0.84a0.229,0.229,0,0,0-.232-0.23H175.7a0.205,0.205,0,0,0-.161.07,0.221,0.221,0,0,0-.064.15v5.19a0.266,0.266,0,0,0,.065.17,0.235,0.235,0,0,0,.161.06h3.343a0.229,0.229,0,0,0,.232-0.23h0v-0.84A0.228,0.228,0,0,0,179.043,7750.56Z" transform="translate(-151.344 -7729.75)"/>
</svg>
