<svg xmlns="http://www.w3.org/2000/svg" width="640.031" height="145.62" viewBox="0 0 640.031 145.62">
  <defs>
    <style>
      .cls-1 {
        fill-rule: evenodd;
      }
    </style>
  </defs>
  <path id="reitokijun01.svg" class="cls-1" d="M871.552,1830.31a1.814,1.814,0,0,1-2.69.51,108.665,108.665,0,0,0-18.547-13.31,2,2,0,0,1-.6-2.87l2.36-3.5a2.322,2.322,0,0,1,3.164-.67,163.357,163.357,0,0,1,18.914,13.49,2.129,2.129,0,0,1-.06,3.05A29.243,29.243,0,0,0,871.552,1830.31Zm-301.328-13.19a1.946,1.946,0,0,0-.17-2.9,168.626,168.626,0,0,0-24.627-19.46,2.629,2.629,0,0,0-3.339.48l-2.763,2.99a1.905,1.905,0,0,0,.285,2.87,170.748,170.748,0,0,1,24.316,19.92,1.981,1.981,0,0,0,3.029-.29A17.386,17.386,0,0,1,570.224,1817.12Zm-161.23,43.05a1.306,1.306,0,0,0-2.2.24c-6.778,18.82-13.867,33.11-26.445,52.07a2.209,2.209,0,0,0,.636,3.07l5.336,3.49a5.4,5.4,0,0,0,3.29,1.25c0.94,0,1.253-1.25,1.253-2.04a2.719,2.719,0,0,0-.11-0.77c-0.386-1.32-.86-2.78-0.154-3.96a312.93,312.93,0,0,0,23.076-46.16,3.177,3.177,0,0,0-.918-3.52C411.546,1862.74,410.081,1861.29,408.994,1860.17Zm426.166,35.35a1.328,1.328,0,0,1,.1,2.28,12.277,12.277,0,0,0-3.295,3.93,2.108,2.108,0,0,1-2.851.76c-19.069-10.15-31.407-22.6-39.355-34.4a4.055,4.055,0,0,0-3.374-1.74H740.254a3.562,3.562,0,0,0-3.16,1.75c-3.088,5.59-13.325,21.57-40.485,35.22a2.661,2.661,0,0,1-3.281-.83,25.07,25.07,0,0,0-3.847-4.01,1.352,1.352,0,0,1,.563-2.26c21.682-8.41,33.359-20.76,38.381-28.11a1.174,1.174,0,0,0-1.1-1.76H693.881a2.233,2.233,0,0,1-2.233-2.23v-3.06a2.233,2.233,0,0,1,2.233-2.23h30.312a2.236,2.236,0,0,0,2.234-2.24v-50.56a2.242,2.242,0,0,0-2.234-2.24H697.955a2.233,2.233,0,0,1-2.234-2.23v-3.06a2.233,2.233,0,0,1,2.234-2.23h26.238a2.236,2.236,0,0,0,2.234-2.24v-9.48a2.127,2.127,0,0,1,2.231-2.13l8.109,0.37c1.41,0,3.133.62,3.133,2.19,0,1.72-1.555,2.49-3.188,2.84a2.651,2.651,0,0,0-2.138,2.53v3.68a2.234,2.234,0,0,0,2.233,2.24h51.931a2.235,2.235,0,0,0,2.234-2.24v-9.64a2.154,2.154,0,0,1,2.231-2.15l6.072,0.23c1.88,0,4.23.16,4.23,1.88a2.459,2.459,0,0,1-1.966,2.37,3.28,3.28,0,0,0-2.42,2.85v4.46a2.235,2.235,0,0,0,2.233,2.24h27.336a2.232,2.232,0,0,1,2.233,2.23v3.06a2.232,2.232,0,0,1-2.233,2.23H801.352a2.241,2.241,0,0,0-2.233,2.24v50.56a2.235,2.235,0,0,0,2.233,2.24h32.193a2.233,2.233,0,0,1,2.233,2.23v3.06a2.233,2.233,0,0,1-2.233,2.23h-33.29a1.162,1.162,0,0,0-.842,1.9C810.977,1883.5,826.306,1891.61,835.16,1895.52Zm-44.188-47.94a2.235,2.235,0,0,0-2.234-2.24H736.807a2.234,2.234,0,0,0-2.233,2.24v9.01a2.234,2.234,0,0,0,2.233,2.24h51.931a2.235,2.235,0,0,0,2.234-2.24v-9.01Zm0-20.85a2.235,2.235,0,0,0-2.234-2.24H736.807a2.234,2.234,0,0,0-2.233,2.24v8.85a2.234,2.234,0,0,0,2.233,2.24h51.931a2.235,2.235,0,0,0,2.234-2.24v-8.85Zm0-20.7a2.241,2.241,0,0,0-2.234-2.24H736.807a2.241,2.241,0,0,0-2.233,2.24v8.7a2.232,2.232,0,0,0,2.233,2.23h51.931a2.233,2.233,0,0,0,2.234-2.23v-8.7Zm-369.093,62.95a2.241,2.241,0,0,0,2.234,2.24h26.709a2.232,2.232,0,0,1,2.233,2.23v51.66a2.235,2.235,0,0,0,2.234,2.24H459.6a2.235,2.235,0,0,0,2.233-2.24v-51.66a2.233,2.233,0,0,1,2.233-2.23h34.7a2.233,2.233,0,0,1,2.234,2.23v23.64c0,5.95,0,7.99-10.027,7.99a88.047,88.047,0,0,1-11.088-.67,1.19,1.19,0,0,0-1.238,1.7,17.713,17.713,0,0,1,1.943,6,2.423,2.423,0,0,0,2.19,2.26c26.993,0.31,26.993-5.56,26.993-20.26V1865.3a2.235,2.235,0,0,0-2.234-2.24H424.113a2.235,2.235,0,0,0-2.234,2.24v3.68Zm464.449-69.33a1.831,1.831,0,0,0-.028-2.75,143.781,143.781,0,0,0-17.867-12.77,2.641,2.641,0,0,0-3.4.51l-2.733,3.19a1.842,1.842,0,0,0,.389,2.79,139.225,139.225,0,0,1,17.77,12.26,2.329,2.329,0,0,0,3.3-.45A24.361,24.361,0,0,1,886.328,1799.65Zm-3.007,38.86a1.287,1.287,0,0,0-2.162-.32,206.358,206.358,0,0,1-28.24,32.74,2,2,0,0,0,.075,2.98l5.185,4.36a5.812,5.812,0,0,0,2.82,1.1c1.1,0,1.41-1.41,1.41-2.2a4.149,4.149,0,0,0-.079-0.79,4.268,4.268,0,0,1,.943-3.76,251.443,251.443,0,0,0,22.186-27.11,3.063,3.063,0,0,0,.026-3.48C884.674,1840.83,884,1839.74,883.321,1838.51Zm-478.408-20.4a1.655,1.655,0,0,0,2.608-.07,20.889,20.889,0,0,1,3.211-4.01,2.06,2.06,0,0,0,.07-2.94,159.383,159.383,0,0,0-22.435-18.37,2.416,2.416,0,0,0-3.178.55l-3.071,3.64a2.059,2.059,0,0,0,.6,3.02A129.244,129.244,0,0,1,404.913,1818.11Zm275.509,94.73a1.393,1.393,0,0,1-.028,2.37,15.866,15.866,0,0,0-3.8,3.71,2.321,2.321,0,0,1-3.1.64c-24.363-15.81-34.636-29.85-42.566-41.47-0.37-.55-1.155-0.12-1.155.53v46.96a2.235,2.235,0,0,1-2.233,2.24h-3.21a2.235,2.235,0,0,1-2.233-2.24v-47.27a0.647,0.647,0,0,0-1.18-.38c-6.919,10.78-18.821,26.82-45.443,42.2a2.215,2.215,0,0,1-2.966-1,12.808,12.808,0,0,0-3.493-3.94,1.22,1.22,0,0,1,.073-2.07c12.354-6.13,32.1-17.19,47.036-38.12a1.245,1.245,0,0,0-.8-2.06H587.51a2.235,2.235,0,0,1-2.233-2.24v-48.05a2.241,2.241,0,0,1,2.233-2.24h32.349a2.233,2.233,0,0,0,2.234-2.23v-9.17a2.235,2.235,0,0,0-2.234-2.24H577.327a2.233,2.233,0,0,1-2.233-2.23v-3.06a2.233,2.233,0,0,1,2.233-2.23h42.532a2.235,2.235,0,0,0,2.234-2.24v-11.83a2.148,2.148,0,0,1,2.231-2.15l6.072,0.23c2.037,0,3.133.31,3.133,1.41,0,0.98-.673,1.53-1.675,1.96a3.272,3.272,0,0,0-2.085,2.94v7.44a2.235,2.235,0,0,0,2.234,2.24h43.941a2.233,2.233,0,0,1,2.234,2.23v3.06a2.233,2.233,0,0,1-2.234,2.23H632a2.235,2.235,0,0,0-2.234,2.24v9.17a2.233,2.233,0,0,0,2.234,2.23h34.071a2.241,2.241,0,0,1,2.233,2.24v48.05a2.235,2.235,0,0,1-2.233,2.24H636.233a1.123,1.123,0,0,0-.96,1.76C648.577,1892.71,666.174,1904.89,680.422,1912.84Zm-58.329-61.03a2.233,2.233,0,0,0-2.234-2.23H595.344a2.233,2.233,0,0,0-2.234,2.23v11.68a2.235,2.235,0,0,0,2.234,2.24h24.515a2.235,2.235,0,0,0,2.234-2.24v-11.68Zm0-21.95a2.233,2.233,0,0,0-2.234-2.23H595.344a2.233,2.233,0,0,0-2.234,2.23v10.58a2.235,2.235,0,0,0,2.234,2.24h24.515a2.235,2.235,0,0,0,2.234-2.24v-10.58Zm7.676,10.58a2.235,2.235,0,0,0,2.234,2.24h26.082a2.235,2.235,0,0,0,2.234-2.24v-10.58a2.233,2.233,0,0,0-2.234-2.23H632a2.233,2.233,0,0,0-2.234,2.23v10.58Zm0,23.05a2.235,2.235,0,0,0,2.234,2.24h26.082a2.235,2.235,0,0,0,2.234-2.24v-11.68a2.233,2.233,0,0,0-2.234-2.23H632a2.233,2.233,0,0,0-2.234,2.23v11.68Zm137.7,32.22a2.233,2.233,0,0,1,2.234-2.23h27.179a2.235,2.235,0,0,0,2.234-2.24v-3.05a2.235,2.235,0,0,0-2.234-2.24H769.706a2.233,2.233,0,0,1-2.234-2.23v-6.35a2.779,2.779,0,0,1,1.991-2.7c1.74-.5,2.71-1.14,2.71-2.67,0-2.04-2.35-2.35-4.544-2.67l-6.251-.92a1.922,1.922,0,0,0-2.209,1.9v13.41a2.233,2.233,0,0,1-2.233,2.23h-26.4a2.235,2.235,0,0,0-2.233,2.24v3.05a2.235,2.235,0,0,0,2.233,2.24h26.4a2.233,2.233,0,0,1,2.233,2.23v14.98a2.233,2.233,0,0,1-2.233,2.23H700.148a2.235,2.235,0,0,0-2.234,2.24v3.05a2.235,2.235,0,0,0,2.234,2.24H826.965a2.235,2.235,0,0,0,2.233-2.24v-3.05a2.235,2.235,0,0,0-2.233-2.24H769.706a2.233,2.233,0,0,1-2.234-2.23v-14.98Zm-194.713-34.32a2.71,2.71,0,0,0-.784-3.13,27.517,27.517,0,0,1-3.434-3.21,1.228,1.228,0,0,0-2.073.43,246.077,246.077,0,0,1-30.862,58.2,2.165,2.165,0,0,0,.591,3.02l5.841,4.06a3.321,3.321,0,0,0,1.723.79,2.051,2.051,0,0,0,2.036-1.89,3.414,3.414,0,0,0-.127-0.9,4.559,4.559,0,0,1,.2-3.63C553.825,1902.32,562.62,1886.72,572.759,1861.39Zm-104.211-71c-0.567-.85.282-1.8,1.26-2.09,1.471-.44,2.36-1.14,2.36-2.22,0-1.73-1.566-2.04-2.976-2.35l-8.142-1.49a2.856,2.856,0,0,0-3.1,1.54c-12.349,25.82-31.553,42.88-51.38,54.64a1.517,1.517,0,0,0,.011,2.5,20.727,20.727,0,0,1,3.424,3.41,2.291,2.291,0,0,0,3.058.6c18.327-12.16,35.818-27.97,48.07-49.11a1.368,1.368,0,0,1,2.3-.35c15.262,22.75,33.433,37.89,53.053,49.26a2.168,2.168,0,0,0,2.936-.77,20.88,20.88,0,0,1,2.959-3.87,1.577,1.577,0,0,0-.29-2.47C497.51,1823.97,479.664,1807.03,468.548,1790.39Zm-31.9,43.51a2.233,2.233,0,0,0-2.233,2.23v3.69a2.233,2.233,0,0,0,2.233,2.23h57.416a2.233,2.233,0,0,0,2.233-2.23v-3.69a2.233,2.233,0,0,0-2.233-2.23H436.646Zm583.364,68.67a19.3,19.3,0,0,1-19.43,19.29c-10.65,0-19.58-8.47-19.58-19.13a18.969,18.969,0,0,1,.4-3.9,1.766,1.766,0,0,0-1.627-2.21H926.994a2.233,2.233,0,0,0-2.233,2.23v26.57a2.235,2.235,0,0,1-2.234,2.24h-3.993a2.235,2.235,0,0,1-2.233-2.24v-26.57a2.233,2.233,0,0,0-2.234-2.23H850.229a2.241,2.241,0,0,1-2.233-2.24v-3.37a2.233,2.233,0,0,1,2.233-2.23h63.838a2.235,2.235,0,0,0,2.234-2.24v-14.81a2.235,2.235,0,0,0-2.234-2.24H899.734a2.233,2.233,0,0,1-2.233-2.23v-47.9a0.837,0.837,0,0,0-1.45-.59c-3.67,4.13-6.385,6.85-8.645,9.18a1.848,1.848,0,0,1-2.822-.45,24.271,24.271,0,0,0-2.806-3.34,1.964,1.964,0,0,1-.062-2.89,113.434,113.434,0,0,0,29.138-36.95,2.6,2.6,0,0,1,3.155-1.39l5.112,1.89c2.349,0.79,2.819,1.57,2.819,2.67,0,1.06-.793,1.85-2.511,1.98a3.91,3.91,0,0,0-3.116,1.71c-1.367,2.26-2.945,4.82-5.241,8.16a1.212,1.212,0,0,0,.882,1.95H936.47a4.385,4.385,0,0,0,3.5-1.62,148.5,148.5,0,0,0,9.77-14.85,2.839,2.839,0,0,1,3.3-1.34l5.082,1.66c0.941,0.31,2.978.94,2.978,2.66,0,1.57-1.408,2.16-2.846,2.38a5.394,5.394,0,0,0-3.643,2.02c-1.62,2.26-3.345,4.45-5.833,7.38a1.034,1.034,0,0,0,.768,1.71h37.362a2.233,2.233,0,0,1,2.233,2.23v3.06a2.233,2.233,0,0,1-2.233,2.23H948.3a2.235,2.235,0,0,0-2.233,2.24v7.6a2.233,2.233,0,0,0,2.233,2.23h31.409a2.241,2.241,0,0,1,2.233,2.24v3.06a2.233,2.233,0,0,1-2.233,2.23H948.3a2.235,2.235,0,0,0-2.233,2.24v7.76a2.233,2.233,0,0,0,2.233,2.23h31.409a2.235,2.235,0,0,1,2.233,2.24v3.05a2.235,2.235,0,0,1-2.233,2.24H948.3a2.233,2.233,0,0,0-2.233,2.23v9.33a2.233,2.233,0,0,0,2.233,2.23h42.061a2.235,2.235,0,0,1,2.234,2.24v3.06a2.233,2.233,0,0,1-2.234,2.23H930.754c-1.024,0-1.638,1.02-2.138,1.91a3.313,3.313,0,0,1-1.773,1.22,3.313,3.313,0,0,0-2.082,3.03v10.89a2.235,2.235,0,0,0,2.233,2.24h57.845a6.756,6.756,0,0,0,3.969-1.46,19.713,19.713,0,0,1,11.772-3.88A19.37,19.37,0,0,1,1020.01,1902.57Zm-114.519-83.92a2.233,2.233,0,0,0,2.233,2.23h28.433a2.233,2.233,0,0,0,2.234-2.23v-7.6a2.235,2.235,0,0,0-2.234-2.24H907.724a2.235,2.235,0,0,0-2.233,2.24v7.6Zm0,19.76a2.233,2.233,0,0,0,2.233,2.23h28.433a2.233,2.233,0,0,0,2.234-2.23v-7.76a2.235,2.235,0,0,0-2.234-2.24H907.724a2.235,2.235,0,0,0-2.233,2.24v7.76Zm30.666,23.55a2.233,2.233,0,0,0,2.234-2.23v-9.33a2.233,2.233,0,0,0-2.234-2.23H907.724a2.233,2.233,0,0,0-2.233,2.23v9.33a2.233,2.233,0,0,0,2.233,2.23h28.433Zm77.273,40.61a12.847,12.847,0,1,0-12.85,12.86A12.782,12.782,0,0,0,1013.43,1902.57Z" transform="translate(-379.969 -1782.19)"/>
</svg>
