<svg xmlns="http://www.w3.org/2000/svg" width="40" height="39.94" viewBox="0 0 40 39.94">
  <defs>
    <style>
      .cls-1 {
        fill-rule: evenodd;
      }
    </style>
  </defs>
  <path id="tw.svg" class="cls-1" d="M50,7729.76a19.96,19.96,0,1,0,20,19.96A19.982,19.982,0,0,0,50,7729.76Zm9.66,16.17c0.013,0.19.013,0.39,0.013,0.59,0,0.06,0,.12,0,0.17a13.068,13.068,0,0,1-20.093,10.81,9.953,9.953,0,0,0,1.092.06,9.2,9.2,0,0,0,5.7-1.96,4.6,4.6,0,0,1-4.288-3.18,4.681,4.681,0,0,0,2.073-.08,4.583,4.583,0,0,1-3.682-4.49v-0.06a4.6,4.6,0,0,0,2.083.57,4.573,4.573,0,0,1-1.422-6.11,13.024,13.024,0,0,0,9.46,4.78,4.591,4.591,0,0,1,7.822-4.17,9.241,9.241,0,0,0,2.912-1.12,4.639,4.639,0,0,1-2.018,2.54,9.279,9.279,0,0,0,2.636-.72A9.347,9.347,0,0,1,59.661,7745.93Z" transform="translate(-30 -7729.75)"/>
</svg>
