<svg xmlns="http://www.w3.org/2000/svg" width="104" height="30" viewBox="0 0 104 30">
  <defs>
    <style>
      .cls-1 {
        fill: #91278d;
        stroke: #91278d;
        stroke-linejoin: round;
        stroke-width: 1px;
        fill-rule: evenodd;
      }
    </style>
  </defs>
  <path id="click.svg" class="cls-1" d="M1347.15,5882.14a11.266,11.266,0,0,0-9.37-4.71c-6.82,0-11.87,5.18-11.87,12.13s4.93,12.12,11.87,12.12a11.04,11.04,0,0,0,9.24-4.65l-1.7-1.52a9.13,9.13,0,0,1-7.54,3.84c-5.33,0-9.27-4.15-9.27-9.79s3.94-9.83,9.27-9.83a9.15,9.15,0,0,1,7.6,3.87Zm5.92,19.04h12.55v-2.26h-10.01v-20.99h-2.54v23.25Zm18.32,0h2.55v-23.25h-2.55v23.25Zm30.58-19.04a11.248,11.248,0,0,0-9.36-4.71c-6.82,0-11.88,5.18-11.88,12.13s4.93,12.12,11.88,12.12a11.053,11.053,0,0,0,9.24-4.65l-1.71-1.52a9.112,9.112,0,0,1-7.53,3.84c-5.34,0-9.27-4.15-9.27-9.79s3.93-9.83,9.27-9.83a9.145,9.145,0,0,1,7.59,3.87Zm5.92,19.04h2.54v-10.26a16.379,16.379,0,0,0,2.11.12c0.5,0,.96-0.03,1.43-0.06l6.88,10.2h3.1l-7.28-10.73c4-1.27,6.41-4.52,6.41-9.24,0-.99-0.03-2.17-0.12-3.28h-2.54c0.09,1.02.12,2.32,0.12,3.38,0,4.59-3.19,7.47-7.66,7.47a15.648,15.648,0,0,1-2.45-.15v-10.7h-2.54v23.25Z" transform="translate(-1322.5 -5874.5)"/>
</svg>
