<svg xmlns="http://www.w3.org/2000/svg" xmlns:xlink="http://www.w3.org/1999/xlink" id="_レイヤー_2" viewBox="0 0 64.14 81.48"><defs><linearGradient id="_名称未設定グラデーション_344" x1="-.8" x2="59.54" y1="40.74" y2="40.74" gradientUnits="userSpaceOnUse"><stop offset="0" stop-color="#e75471"/><stop offset="1" stop-color="#ee92a7"/></linearGradient><linearGradient xlink:href="#_名称未設定グラデーション_344" id="_名称未設定グラデーション_344-2" x2="59.54" y1="11.63" y2="11.63"/><filter id="luminosity-noclip" width="66.64" height="83.98" x="0" y="-2.5" color-interpolation-filters="sRGB" filterUnits="userSpaceOnUse"><feFlood flood-color="#fff" result="bg"/><feBlend in="SourceGraphic" in2="bg"/></filter><style>.cls-5{fill:#fff}</style><mask id="mask" width="66.64" height="83.98" x="0" y="-2.5" maskUnits="userSpaceOnUse"><g style="filter:url(#luminosity-noclip)"><path d="M64.14 23.27H40.87V0l23.27 23.27z" style="fill:none;stroke:#000;stroke-linecap:round;stroke-linejoin:round;stroke-width:5px"/></g></mask></defs><g id="_レイヤー_4"><g style="mask:url(#mask)"><path d="M64.14 81.48H0V0h40.87l23.27 23.27v58.21z" style="fill:url(#_名称未設定グラデーション_344)"/></g><path d="M9.87 52.73V34.48h6.8c3.55 0 6.13 2.46 6.13 5.86s-2.58 5.86-6.13 5.86h-3.92v6.53H9.87Zm6.62-9.16c1.99 0 3.39-1.32 3.39-3.2s-1.36-3.23-3.39-3.23h-3.73v6.43h3.73ZM26.31 52.73V34.48h6.11c5.67 0 9.33 3.57 9.33 9.1s-3.66 9.15-9.33 9.15h-6.11Zm6.11-2.68c4.01 0 6.4-2.42 6.4-6.47s-2.39-6.44-6.4-6.44h-3.23v12.91h3.23ZM45.88 52.73V34.48h10.73v2.66h-7.84v5.62h7.26v2.63h-7.26v7.34h-2.89z" class="cls-5"/><path d="M64.14 23.27H40.87V0l23.27 23.27z" style="fill:url(#_名称未設定グラデーション_344-2)"/></g></svg>