<?xml version="1.0" encoding="UTF-8"?><svg id="a" xmlns="http://www.w3.org/2000/svg" viewBox="0 0 345.5 20.34"><defs><style>.b{fill:#040000;}</style></defs><path class="b" d="M53.47,9.26v2.05h2.04v-2.05h7.19V1.91h-7.19V.27h-2.04V1.91h-7.19v7.35h7.19Zm2.04-5.45h5.07v3.56h-5.07V3.81Zm-7.11,0h5.07v3.56h-5.07V3.81Zm13.41,8.46l-.04-.08h-2.23l.13,.22c1.03,1.77,2.28,4.45,2.98,6.36l.03,.1h2.22l-.07-.2c-.73-1.94-1.88-4.4-3.02-6.4Zm-15.06-.08h-.12l-.02,.12c-.41,1.95-1.26,4.32-2.26,6.35l-.1,.21h2.21l.04-.08c.92-1.78,1.87-4.48,2.25-6.42l.04-.18h-2.03ZM0,9.04v2.68c.52-.36,1.46-1.38,2.12-2.32v10.9h2.04V5.84c.57-1.66,.99-3.66,1.07-5.45H3.14c-.18,3.45-1.28,6.47-3.14,8.65ZM19.26,1.12H6.56v1.88h5v2.92H5.32v1.87h6.24v3.23H6.33v1.88h5.18c-.16,2.44-1.7,4.42-4.23,5.32l-.1,.04v2.09l.19-.06c3.69-1.09,6.09-3.98,6.22-7.39h5.68V7.82h1.22v-1.94h-1.22V1.12Zm-2.05,9.9h-3.6v-3.23h3.6v3.23Zm0-5.09h-3.6V3h3.6v2.92ZM83.03,3.81h.15V1.67h-14.07V3.81h13.91Zm-15.49,3.51h-.15v2.15h8.19v.37c0,4.68-2.1,7.17-6.6,7.83l-.13,.02v2.1l.17-.02c5.71-.55,8.86-4.03,8.86-9.82v-.48h7.04v-2.15h-17.37ZM103.57,1.82v-.15h-12.67l-.02,.12c-.47,2.5-1.77,4.57-3.41,5.39l-.08,.04v2.3l.19-.06c2.23-.69,4.36-3.02,5.21-5.69h8.27c-.09,3.73-1.32,6.98-3.58,9.41-2.23,2.41-5.36,3.92-9.04,4.35h-.13v2.19l.17-.02c4.55-.5,8.37-2.35,11.03-5.33,2.66-2.98,4.07-6.99,4.07-11.59v-.96Zm11.19-.35h-.14v.14c-.38,8.45-4.58,14.05-11.82,15.77l-.12,.03v2.23l.18-.03c4.07-.77,7.52-2.77,10-5.8,2.57-3.14,4.04-7.36,4.23-12.18v-.16s-.15,0-.15,0h-2.19Zm8.81,7.56h2.61l-.08-.2c-.8-2.1-2.18-5.07-3.14-6.76l-.04-.08h-2.61l.12,.22c1.04,1.91,2.43,4.84,3.1,6.72l.03,.1Zm11.34-7.04h-.14v.13c-1.02,8.44-5.19,14.05-11.48,15.4l-.12,.03v2.17l.18-.03c3.59-.59,6.79-2.51,9.24-5.58,2.48-3.1,4.09-7.23,4.65-11.96l.02-.16h-2.36Zm6.2-.42h-.15V11.56h2.32V1.56h-2.17Zm10.92,0h-.15v7.49c0,5.2-2.66,8.06-7.92,8.49h-.14v2.17h.16c3.28-.23,5.85-1.3,7.63-3.2,1.7-1.81,2.6-4.34,2.6-7.33V1.56h-2.18Zm14.57,14.82c.37-1.9,.97-5.48,1.15-9.39v-.15s-.15,0-.15,0h-8.92v2.01h6.7c-.13,2.27-.54,5.38-1,7.53h-7.5v2.04h13.81v-2.04h-4.1Zm5.84-7.28h-.15v2.23h13.54v-2.23h-13.39Zm36.89-2.68h-.15v1.99h8.43v2.99h-8.27v1.97h8.27v3.44h-8.66v2.01h10.85V6.42h-10.46Zm-5.17-2.41h-.14v.14c-.36,7.99-4.72,12.51-12.62,13.06h-.14v2.3h.16c8.98-.39,14.39-5.98,14.85-15.35v-.16s-.15,0-.15,0h-1.96Zm-6.55-.29h.15V1.56h-7.44V3.71h7.3Zm.15,5.28v-2.15h-7.44v2.15h7.44Zm38.81-4.99h-.14v.14c-.19,4.08-1.18,7.11-3.05,9.26-1.96,2.26-4.82,3.49-8.76,3.77h-.14v2.33h.15c8.73-.38,13.6-5.69,14.07-15.35v-.16s-.15,0-.15,0h-2Zm-4.99-.13V1.67h-8.03V3.88h8.03Zm20.45,7.76c1.53-2.79,2.36-6.12,2.41-9.82v-.15s-.15,0-.15,0h-12.44V3.81h9.87c-.13,3.36-1.21,6.41-3.16,8.84-1.99,2.48-4.72,4.13-7.9,4.76l-.12,.02v2.17l.17-.03c4.02-.63,7.43-2.6,9.85-5.7,.07-.09,.13-.18,.19-.27,1.41,1.62,3.22,3.99,4.23,5.58l.04,.07h2.86l-.15-.23c-1.41-2.17-3.94-5.36-5.72-7.39Zm5.08-7.82h.15V.21h-1.52V3.81h1.37Zm1.44-3.6h-.15V3.81h1.52V.21h-1.37Zm75.79,13.6v-2.5l-.06-.05c-.79-.62-1.5-1.3-2.16-2.03,1.08-1.49,1.96-3.65,2.19-5.48l.02-.17h-2.84V.13h-2.02V3.59h-3.29v1.93h5.55c-.87,3.1-3.47,5.62-5.71,6.75l-.08,.04v2.08l.21-.08c1.08-.43,2.32-1.24,3.32-2.14v8.06h2.02V11.31c.81,.86,2.11,2.01,2.62,2.35l.23,.15Zm11.01,3.62h-4.77V8.31h4.45v-2.04h-4.45V.13h-2.09V6.27h-4.08v2.04h4.08v9.12h-5.19v2.04h12.19v-2.04h-.15Zm-75.16-3.65l.25,.23v-2.57l-.03-.04c-1.31-1.57-2.14-3.41-2.36-5.2h2.1v-1.92h-2.13V.21h-1.89V4.27h-2.98v1.92h2.91c-.47,2.68-2.01,5.5-3.28,7l-.03,.04v2.87l.26-.27c1.04-1.09,2.35-3.02,3.15-4.78l-.04,9.01v.15h1.93v-.15l-.05-9.31c.62,1.14,1.51,2.39,2.21,3.02Zm7.03-5.31v-2.9h4.95v-1.88h-4.95V.21h-1.91V3.68h-1.95c.16-.71,.3-1.45,.39-2.21l.02-.16h-1.92l-.02,.13c-.26,2-.9,4.37-1.6,5.89l-.09,.21h1.96l.04-.09c.23-.5,.48-1.15,.71-1.89h2.46v2.9h-5.07v1.88h4.59c-.92,2.2-2.78,4.48-5.04,6.14l-.06,.04v2.21l.23-.13c1.65-.94,3.83-2.99,5.37-5.62l-.04,7.07v.15h1.95v-.15l-.04-7.1c1.55,2.84,3.93,5.06,5.24,5.75l.22,.12v-2.44l-.06-.04c-1.49-1.02-3.64-3.19-4.96-6h5.03v-1.88h-5.44Zm13.58,7.95v-6.03h3.51v-1.95h-9.04v1.95h3.48v6.23c-1.35,.12-2.69,.21-3.9,.27h-.14v2.05h.16c3.49-.2,7.57-.65,10.9-1.22l.12-.02v-1.94l-.17,.03c-1.47,.23-3.18,.45-4.92,.63Zm11.06-1.46h-.14v.14c-.05,.88-.17,1.6-.33,2.09-.16,.5-.32,.73-.52,.73-.36,0-.79-.56-.95-.77-1.47-1.9-2.48-5.85-2.98-11.52h5.94l-.02-.17c-.15-1.03-.38-2.96-.46-3.99v-.14h-1.91v.15c.03,.53,.11,1.49,.18,2.17h-3.87c-.07-1.05-.12-2.14-.15-3.28V.21h-2.01v.15c.02,1.05,.07,2.16,.13,3.27h-10.06v1.98h10.19c.46,5.45,1.55,10.97,3.98,13.41,.77,.78,1.49,1.14,2.27,1.14,.97,0,1.58-.67,2.01-2.17,.21-.75,.36-1.8,.41-2.89v-.15s-.15,0-.15,0h-1.56ZM23.63,5.04h-.15v2.03c0,5.09-.36,9.42-1.03,12.51l-.04,.18h1.84l.03-.11c.29-1.16,.53-2.84,.71-4.76h2.12v2.75c0,.16-.04,.27-.11,.34-.07,.07-.18,.1-.32,.1h-.71v1.81h1c1.26,0,1.92-.6,1.92-1.74V5.04h-5.27Zm3.49,8.07h-1.98c.05-.7,.08-1.41,.11-2.14h1.86v2.14Zm0-3.89h-1.81c0-.47,.02-.94,.02-1.41v-.99h1.8v2.4Zm7.52,2.74h-.15v8h1.83v-8h-1.68Zm2.33-10.42V.27h-1.89V1.53h-5.24V.27h-1.89V1.53h-5.23v1.84h5.23v1.04h1.89v-1.04h5.25v.87h-.75v.14c-.08,.81-.2,1.58-.36,2.33h-.62c-.34-.96-.6-1.64-.77-1.99l-.04-.09h-1.73l.09,.2c.18,.42,.49,1.28,.69,1.87h-1.92v1.57h3.88c-.19,.57-.39,1.11-.64,1.62h-3.25v1.57h2.3c-.64,.87-1.38,1.59-2.22,2.07l-.08,.04v1.82l.21-.08c.4-.16,.79-.37,1.17-.63,.39,.47,.72,.9,.94,1.22-.69,.76-1.7,1.43-2.25,1.76l-.07,.05v1.89l.22-.12c1.32-.71,2.82-1.92,3.64-2.93,.19-.23,.26-.42,.26-.65s-.08-.38-.22-.59c-.27-.42-.71-1.01-1.27-1.72,.56-.59,1.09-1.3,1.59-2.13h3.46c.45,.67,.92,1.28,1.41,1.81-.44,.64-.93,1.31-1.52,2.04-.16,.19-.25,.35-.25,.6,0,.21,.09,.43,.28,.66,.88,1.1,2.66,2.45,4.05,3.08l.21,.1v-2.02l-.08-.04c-.88-.45-1.99-1.16-2.57-1.79,.3-.37,.73-.91,1.13-1.44,.64,.51,1.3,.9,1.95,1.15l.21,.08v-2.06l-.09-.04c-.96-.43-1.88-1.17-2.69-2.12h2.78v-1.57h-3.9c-.3-.51-.57-1.05-.82-1.62h4.24v-1.57h-2.6c.29-.59,.64-1.39,.8-1.88l.07-.19h-1.75l-.03,.09c-.23,.61-.59,1.4-.92,1.98h-1.59c.16-.71,.29-1.53,.35-2.29h.93v-1.04h5.21V1.53h-5.21Zm-1.24,6.65c.21,.58,.47,1.18,.79,1.78h-1.87c.27-.57,.49-1.17,.69-1.78h.39Zm269.71,2.25h-.15v1.91h4.66c-.57,1.66-1.37,3.52-2.24,5.2-.52,0-1.05,.02-1.59,.03h-.15v2.04h.15c4.18-.05,9.83-.49,14.03-1.06,.23,.48,.43,.95,.61,1.38l.04,.09h2.25l-.08-.2c-.81-2.04-2.17-4.62-3.31-6.29l-.05-.06h-2.25l.15,.23c.62,.98,1.24,2.06,1.8,3.13-2.83,.33-5.93,.55-9.39,.67,.78-1.51,1.58-3.27,2.33-5.15h11.38v-1.91h-18.18ZM315.46,.06L315.42,0h-1.95l-.04,.06c-2.2,3.01-6.11,5.62-8.85,6.64l-.1,.04v2.31l.2-.07c1.01-.34,2.57-1.17,4.21-2.25v1.26h11.09v-1.26c1.65,1.09,3.21,1.92,4.21,2.26l.2,.07v-2.31l-.1-.04c-2.73-1.02-6.65-3.63-8.84-6.64Zm-5.61,6.02c1.68-1.19,3.36-2.62,4.6-4.07,1.23,1.45,2.91,2.87,4.59,4.07h-9.19ZM58.28,16.03h-.14v.14c-.02,.41-.05,.86-.09,1.15-.06,.52-.4,.76-1.12,.78-.48,.02-1.15,.02-1.91,.02-.67,0-1.43,0-1.9-.02-.73-.03-.88-.31-.88-.76v-5.89h-2.03v6.42c0,1.48,.73,2.15,2.47,2.23,.66,.03,1.45,.03,2.22,.03h.21c.73,0,1.49,0,2.14-.02,1.83-.08,2.57-.72,2.73-2.37,.04-.45,.07-.97,.07-1.56v-.15h-1.77Zm-2.39-3.85h-2.1l.1,.21c.59,1.24,1.03,2.24,1.39,3.15l.04,.09h2.14l-.09-.2c-.4-.97-.91-2.09-1.44-3.17l-.04-.08Z"/></svg>