<?xml version="1.0" encoding="UTF-8"?><svg id="_レイヤー_2" xmlns="http://www.w3.org/2000/svg" viewBox="0 0 448.73 103.56"><defs><style>.cls-1{fill:#f85a79;}.cls-2{fill:none;stroke:#f85a79;stroke-linecap:round;stroke-linejoin:round;stroke-width:3px;}</style></defs><g id="_レイヤー_3"><path class="cls-1" d="M154.3,14.55c2.18,2.77,3.17,5.08,3.17,7.86,0,4.92-4.42,8.48-11.58,8.48-5.15,0-8.78-2.25-8.78-7.69,0-.79.1-1.95.23-3.3-2.38-.23-4.52-.59-6.27-1.09l.23-3.96c2.11.73,4.32,1.09,6.44,1.29.2-1.45.36-2.97.56-4.46-2.28-.23-4.59-.63-6.5-1.16l.23-3.79c1.88.63,4.32,1.02,6.7,1.22.13-.99.2-1.88.26-2.61.07-.89.13-1.81.07-2.9l4.59.26c-.26,1.19-.43,2.05-.56,2.9-.1.56-.2,1.42-.36,2.48,2.34-.03,4.46-.17,6.01-.4l-.13,3.89c-1.95.2-3.73.3-6.37.3-.2,1.45-.4,3-.56,4.46h.23c2.01,0,4.42-.16,6.57-.39l-.1,3.89c-1.85.16-3.76.3-5.78.3h-1.32c-.07.96-.13,1.78-.13,2.38,0,2.67,1.65,4.16,4.88,4.16,4.55,0,7.06-2.08,7.06-4.79,0-2.21-1.25-4.32-3.37-6.34l4.59-.99Z"/><path class="cls-1" d="M168.98,14.15c2.21-.66,7.76-2.54,11.72-2.54,5.15,0,8.61,3.07,8.61,8.02,0,5.91-5.18,9.97-15.58,10.6l-1.72-4.06c7.43-.2,12.97-2.14,12.97-6.6,0-2.44-1.85-4.16-4.69-4.16-3.8,0-10.3,2.71-13.1,3.89l-1.68-4.29c.96-.16,2.48-.53,3.47-.86Z"/><path class="cls-1" d="M220.17,9.83c-.99.6-2.05,1.16-3.23,1.75-2.05,1.02-6.14,2.94-9.11,4.85-2.74,1.78-4.55,3.66-4.55,5.94s2.28,3.6,6.8,3.6c3.37,0,7.79-.53,10.69-1.19l-.07,4.72c-2.77.46-6.24.79-10.5.79-6.5,0-11.42-1.81-11.42-7.43,0-3.63,2.28-6.3,5.41-8.61-1.52-2.81-3.1-6.27-4.59-9.74l4.13-1.68c1.25,3.4,2.77,6.54,4.09,9.04,2.67-1.55,5.51-3,7.06-3.86,1.22-.73,2.18-1.29,3-1.98l2.28,3.79Z"/><path class="cls-1" d="M241.52,9.63h-12.9v-3.1h12.9v3.1ZM240.3,30.16h-6.9v1.29h-3.33v-11.26h10.23v9.97ZM230.17,11.12h10.17v3h-10.17v-3ZM230.17,15.64h10.17v2.94h-10.17v-2.94ZM240.27,5.08h-9.97v-2.97h9.97v2.97ZM233.4,23.3v3.79h3.5v-3.79h-3.5ZM259.51,24.35h-7.19v7.56h-3.86v-7.56h-7.36v-3.56h7.36v-3.33h-5.64v-3.46h5.64v-3.14h-6.3v-3.56h3c-.4-1.48-1.19-3.4-2.01-4.88l3.17-1.19c1.06,1.72,2.01,3.93,2.38,5.45l-1.58.63h6.44l-1.49-.49c.79-1.58,1.78-4.03,2.28-5.78l3.83,1.09c-.92,1.88-1.91,3.79-2.74,5.18h3.56v3.56h-6.67v3.14h5.97v3.46h-5.97v3.33h7.19v3.56Z"/><path class="cls-1" d="M273.81,2.96c-.23,1.39-.4,3.04-.43,4.36-.17,3.5-.4,10.83-.4,14.88,0,3.3,1.98,4.36,4.49,4.36,5.41,0,8.84-3.1,11.19-6.67l2.97,3.66c-2.11,3.1-6.73,7.46-14.19,7.46-5.35,0-8.81-2.34-8.81-7.92,0-4.39.33-12.97.33-15.78,0-1.55-.13-3.13-.43-4.42l5.28.06Z"/><path class="cls-1" d="M316.59,5.34c-1.02.76-2.11,1.62-2.87,2.21-2.11,1.72-6.44,5.05-8.61,6.93-1.75,1.48-1.72,1.85.07,3.37,2.44,2.08,8.75,7.06,11.98,10.2l-3.8,3.5c-.92-1.02-1.95-2.05-2.87-3.04-1.78-1.88-6.77-6.14-9.77-8.68-3.23-2.74-2.97-4.55.3-7.26,2.54-2.08,7.03-5.71,9.24-7.89.92-.89,1.98-1.98,2.51-2.74l3.83,3.4Z"/><path class="cls-1" d="M75.6,57.82c-.07.46-.13.92-.23,1.35,1.72,1.68,5.28,5.81,6.21,6.9l-2.64,3.3c-1.09-1.71-2.97-4.19-4.59-6.21-1.12,3.23-3.07,6.34-6.24,8.65-.53-.83-1.98-2.38-2.81-2.97,4.29-3.07,5.81-7.2,6.34-11.02h-5.84v-3.7h6.11v-5.25h-1.32c-.66,1.68-1.42,3.2-2.24,4.42-.73-.66-2.28-1.78-3.17-2.28,1.78-2.38,3.04-6.17,3.7-9.94l3.76.76c-.23,1.15-.5,2.28-.83,3.4h8.71v3.63h-4.65v5.25h5.41v3.7h-5.68ZM94.74,43.92v26.54h-3.99v-1.88h-4.79v2.38h-3.8v-27.03h12.57ZM90.75,64.88v-17.26h-4.79v17.26h4.79Z"/><path class="cls-1" d="M110.25,42.63c-.46,1.62-1.12,4.95-1.32,6.77,1.55-2.51,4.39-5.28,8.09-5.28,4.55,0,8.09,4.46,8.09,11.65,0,9.24-5.68,13.66-14.32,15.25l-2.48-3.79c7.26-1.12,12.34-3.5,12.34-11.42,0-5.05-1.68-7.86-4.39-7.86-3.86,0-7.23,5.81-7.39,10.1-.03.89-.03,1.95.17,3.46l-4.06.27c-.17-1.26-.4-3.27-.4-5.45,0-3.04.43-7.1.92-10.46.17-1.19.23-2.51.26-3.43l4.49.2Z"/><path class="cls-1" d="M151.24,50.16c-1.95.43-4.16.79-6.34,1.06-.3,1.42-.63,2.87-.99,4.19-1.19,4.59-3.4,11.29-5.18,15.12l-4.59-1.52c1.95-3.27,4.42-10.13,5.64-14.72.23-.86.46-1.78.69-2.71-.76.03-1.48.07-2.15.07-1.58,0-2.81-.07-3.96-.13l-.1-4.09c1.68.2,2.77.26,4.13.26.96,0,1.91-.03,2.9-.1.13-.73.23-1.35.3-1.88.17-1.22.2-2.54.13-3.3l4.98.4c-.23.89-.53,2.34-.69,3.07l-.26,1.25c1.85-.3,3.7-.66,5.48-1.09v4.12ZM150.58,60.89c-.26.92-.46,2.01-.46,2.74,0,1.42.82,2.47,4.32,2.47,2.18,0,4.46-.23,6.8-.66l-.17,4.19c-1.85.23-4.06.46-6.67.46-5.51,0-8.32-1.91-8.32-5.21,0-1.48.3-3.07.56-4.36l3.93.36ZM148.67,52.67c1.82-.17,4.16-.33,6.27-.33,1.85,0,3.83.1,5.74.3l-.1,3.93c-1.62-.2-3.63-.4-5.61-.4-2.28,0-4.26.1-6.3.36v-3.86Z"/><path class="cls-1" d="M173.45,49.5c-.03,2.11,0,4.59.2,6.93.46,4.72,1.45,7.92,3.5,7.92,1.55,0,2.84-3.83,3.47-6.4l3.3,3.96c-2.18,5.68-4.22,7.69-6.87,7.69-3.56,0-6.7-3.24-7.62-12.02-.3-3-.36-6.8-.36-8.81,0-.93-.03-2.31-.23-3.3l5.02.07c-.23,1.15-.4,3.07-.4,3.96ZM196.16,62.93l-4.32,1.65c-.5-5.25-2.24-12.94-5.81-16.96l4.16-1.39c3.1,3.8,5.61,11.68,5.97,16.7Z"/><path class="cls-1" d="M214.89,50.1c-.1,1.42-.2,2.87-.36,4.29h12.74s-.03,1.19-.13,1.72c-.59,8.98-1.29,12.67-2.61,14.13-.99,1.05-2.01,1.38-3.56,1.52-1.22.13-3.43.1-5.64,0-.07-1.12-.66-2.74-1.39-3.86,2.28.23,4.59.23,5.54.23.73,0,1.19-.07,1.58-.43.86-.72,1.45-3.6,1.91-9.6h-9.08c-1.25,5.58-3.99,10.73-10.59,14.06-.56-1.09-1.75-2.48-2.77-3.33,8.91-4.12,9.67-11.65,10.03-18.71h-9.44v-3.76h12.64v-5.38h4.06v5.38h13.04v3.76h-15.97Z"/><path class="cls-1" d="M243.93,43.66c-.26.66-.66,2.31-.79,2.9-.5,2.18-1.55,9.38-1.55,12.64,0,.66.03,1.45.13,2.11.43-1.15.96-2.24,1.45-3.33l2.01,1.62c-.92,2.67-1.98,6.01-2.34,7.79-.1.46-.2,1.16-.17,1.52,0,.33,0,.89.03,1.35l-3.7.27c-.66-2.28-1.29-6.01-1.29-10.43,0-4.95.96-11.12,1.35-13.63.13-.92.3-2.18.3-3.2l4.55.39ZM264,68.31c-1.35-1.29-2.67-2.38-3.96-3.27-.2,3.1-1.98,5.35-6.4,5.35s-7.33-1.91-7.33-5.35,2.81-5.61,7.26-5.61c.76,0,1.49.03,2.15.13-.1-2.01-.2-4.39-.23-6.7-.79.03-1.58.03-2.34.03-1.91,0-3.76-.07-5.71-.2v-3.89c1.88.2,3.76.3,5.71.3.76,0,1.55,0,2.31-.03-.03-1.62-.03-2.94-.07-3.63,0-.5-.1-1.49-.2-2.15h4.69c-.1.63-.17,1.42-.2,2.11-.03.73-.1,1.95-.1,3.4,1.78-.2,3.5-.43,5.05-.76v4.06c-1.58.23-3.3.43-5.08.56.07,3.17.23,5.78.36,7.99,2.74,1.12,4.79,2.8,6.3,4.22l-2.21,3.43ZM255.88,63c-.86-.23-1.75-.36-2.64-.36-1.85,0-3.1.76-3.1,1.98,0,1.32,1.32,1.91,3.04,1.91,2.01,0,2.71-1.06,2.71-2.97v-.56Z"/><path class="cls-1" d="M279.09,58.97c-.3,1.19-.56,2.21-.56,3.3,0,2.08,1.98,3.6,6.7,3.6,4.42,0,8.58-.49,11.49-1.29l.03,4.59c-2.84.69-6.77,1.12-11.35,1.12-7.49,0-11.25-2.51-11.25-7,0-1.91.4-3.5.66-4.72l4.29.4ZM276.32,45.11c2.44.26,5.48.4,8.91.4,3.23,0,6.96-.2,9.47-.46v4.39c-2.28.16-6.34.39-9.44.39-3.43,0-6.27-.16-8.94-.36v-4.36Z"/><path class="cls-1" d="M327.44,49.57c-3.4.53-8.58,1.16-12.97,1.39-.43,1.98-.96,4.06-1.49,5.64,2.64-1.45,5.12-2.05,8.12-2.05,5.28,0,8.78,2.84,8.78,7,0,7.36-7.06,10-17.62,8.88l-1.16-4.22c7.16,1.15,14.39.3,14.39-4.52,0-1.95-1.72-3.6-4.88-3.6-3.76,0-7.1,1.35-9.04,3.86-.36.43-.59.86-.92,1.42l-3.86-1.39c1.55-3,2.87-7.36,3.73-10.96-2.08-.03-3.99-.17-5.64-.33v-4.06c1.95.33,4.42.59,6.4.63.07-.49.17-.92.2-1.32.17-1.42.2-2.21.17-3.3l4.62.2c-.36,1.15-.53,2.24-.76,3.33l-.2.99c3.73-.2,8.15-.69,12.08-1.55l.07,3.96Z"/><path class="cls-1" d="M344.26,56.76c2.97-2.14,6.21-3.1,9.6-3.1,5.74,0,9.08,3.53,9.08,7.49,0,5.97-4.72,10.56-18.32,9.37l-1.25-4.29c9.8,1.39,14.98-1.02,14.98-5.18,0-2.11-2.01-3.66-4.88-3.66-3.7,0-6.96,1.35-9.01,3.83-.59.73-.96,1.25-1.22,1.91l-3.79-.96c.63-3.2,1.42-9.57,1.62-13.63l4.42.59c-.43,1.82-.99,5.74-1.22,7.62ZM345.29,42.57c3.1.96,10.2,2.21,13.07,2.54l-.99,4.03c-3.3-.43-10.59-1.95-13.14-2.61l1.06-3.96Z"/><path class="cls-1" d="M375.79,66.1c0-1.88,1.48-3.27,3.43-3.27s3.43,1.39,3.43,3.27-1.49,3.23-3.43,3.23-3.43-1.32-3.43-3.23ZM376.35,49.27l-.13-4.92h6.04l-.17,4.92-1.16,11.29h-3.4l-1.19-11.29Z"/><line class="cls-2" x1="4.77" y1="4.86" x2="42" y2="69.34"/><line class="cls-2" x1="443.96" y1="4.86" x2="406.73" y2="69.34"/><line class="cls-2" x1="447.23" y1="44.05" x2="423.3" y2="72.57"/><line class="cls-2" x1="1.5" y1="44.05" x2="25.43" y2="72.57"/></g></svg>